ISO-10303-21;
HEADER;
FILE_DESCRIPTION(('PMMA TIR light guide prototype'),'2;1');
FILE_NAME('guia_TIR_PMMA_LUXEON_HL2Z_v1.STEP','2026-08-23T00:00:00',('Codex'),(''), 'Codex prototype generator','', '');
FILE_SCHEMA(('CONFIG_CONTROL_DESIGN'));
ENDSEC;
DATA;
#1 = CARTESIAN_POINT('',(0.000000000,0.000000000,-4.900000000));
#2 = DIRECTION('',(0.000000000,0.000000000,-1.000000000));
#3 = DIRECTION('',(0.000000000,1.000000000,0.000000000));
#4 = AXIS2_PLACEMENT_3D('',#1,#2,#3);
#5 = PLANE('',#4);
#6 = CARTESIAN_POINT('',(0.000000000,0.000000000,4.900000000));
#7 = DIRECTION('',(0.000000000,0.000000000,1.000000000));
#8 = DIRECTION('',(0.000000000,1.000000000,0.000000000));
#9 = AXIS2_PLACEMENT_3D('',#6,#7,#8);
#10 = PLANE('',#9);
#11 = CARTESIAN_POINT('',(2.300000000,-3.150000000,-4.900000000));
#12 = CARTESIAN_POINT('',(5.200000000,-4.950000000,-4.900000000));
#13 = DIRECTION('',(2.900000000,-1.800000000,0.000000000));
#14 = LINE('',#11,#13);
#15 = EDGE_CURVE('',#11,#12,#14,.T.);
#16 = ORIENTED_EDGE('',*,*,#15,.T.);
#17 = CARTESIAN_POINT('',(5.200000000,-4.950000000,-4.900000000));
#18 = CARTESIAN_POINT('',(8.500000000,-5.935000000,-4.900000000));
#19 = DIRECTION('',(3.300000000,-0.985000000,0.000000000));
#20 = LINE('',#17,#19);
#21 = EDGE_CURVE('',#17,#18,#20,.T.);
#22 = ORIENTED_EDGE('',*,*,#21,.T.);
#23 = CARTESIAN_POINT('',(8.500000000,-5.935000000,-4.900000000));
#24 = CARTESIAN_POINT('',(17.000000000,-5.935000000,-4.900000000));
#25 = DIRECTION('',(8.500000000,0.000000000,0.000000000));
#26 = LINE('',#23,#25);
#27 = EDGE_CURVE('',#23,#24,#26,.T.);
#28 = ORIENTED_EDGE('',*,*,#27,.T.);
#29 = CARTESIAN_POINT('',(17.000000000,-5.935000000,-4.900000000));
#30 = CARTESIAN_POINT('',(17.000000000,5.935000000,-4.900000000));
#31 = DIRECTION('',(0.000000000,11.870000000,0.000000000));
#32 = LINE('',#29,#31);
#33 = EDGE_CURVE('',#29,#30,#32,.T.);
#34 = ORIENTED_EDGE('',*,*,#33,.T.);
#35 = CARTESIAN_POINT('',(17.000000000,5.935000000,-4.900000000));
#36 = CARTESIAN_POINT('',(8.500000000,5.935000000,-4.900000000));
#37 = DIRECTION('',(-8.500000000,0.000000000,0.000000000));
#38 = LINE('',#35,#37);
#39 = EDGE_CURVE('',#35,#36,#38,.T.);
#40 = ORIENTED_EDGE('',*,*,#39,.T.);
#41 = CARTESIAN_POINT('',(8.500000000,5.935000000,-4.900000000));
#42 = CARTESIAN_POINT('',(5.200000000,4.950000000,-4.900000000));
#43 = DIRECTION('',(-3.300000000,-0.985000000,0.000000000));
#44 = LINE('',#41,#43);
#45 = EDGE_CURVE('',#41,#42,#44,.T.);
#46 = ORIENTED_EDGE('',*,*,#45,.T.);
#47 = CARTESIAN_POINT('',(5.200000000,4.950000000,-4.900000000));
#48 = CARTESIAN_POINT('',(2.300000000,3.150000000,-4.900000000));
#49 = DIRECTION('',(-2.900000000,-1.800000000,0.000000000));
#50 = LINE('',#47,#49);
#51 = EDGE_CURVE('',#47,#48,#50,.T.);
#52 = ORIENTED_EDGE('',*,*,#51,.T.);
#53 = CARTESIAN_POINT('',(2.300000000,3.150000000,-4.900000000));
#54 = CARTESIAN_POINT('',(0.000000000,1.200000000,-4.900000000));
#55 = DIRECTION('',(-2.300000000,-1.950000000,0.000000000));
#56 = LINE('',#53,#55);
#57 = EDGE_CURVE('',#53,#54,#56,.T.);
#58 = ORIENTED_EDGE('',*,*,#57,.T.);
#59 = CARTESIAN_POINT('',(0.000000000,1.200000000,-4.900000000));
#60 = CARTESIAN_POINT('',(0.280000000,0.820000000,-4.900000000));
#61 = DIRECTION('',(0.280000000,-0.380000000,0.000000000));
#62 = LINE('',#59,#61);
#63 = EDGE_CURVE('',#59,#60,#62,.T.);
#64 = ORIENTED_EDGE('',*,*,#63,.T.);
#65 = CARTESIAN_POINT('',(0.280000000,0.820000000,-4.900000000));
#66 = CARTESIAN_POINT('',(0.480000000,0.000000000,-4.900000000));
#67 = DIRECTION('',(0.200000000,-0.820000000,0.000000000));
#68 = LINE('',#65,#67);
#69 = EDGE_CURVE('',#65,#66,#68,.T.);
#70 = ORIENTED_EDGE('',*,*,#69,.T.);
#71 = CARTESIAN_POINT('',(0.480000000,0.000000000,-4.900000000));
#72 = CARTESIAN_POINT('',(0.280000000,-0.820000000,-4.900000000));
#73 = DIRECTION('',(-0.200000000,-0.820000000,0.000000000));
#74 = LINE('',#71,#73);
#75 = EDGE_CURVE('',#71,#72,#74,.T.);
#76 = ORIENTED_EDGE('',*,*,#75,.T.);
#77 = CARTESIAN_POINT('',(0.280000000,-0.820000000,-4.900000000));
#78 = CARTESIAN_POINT('',(0.000000000,-1.200000000,-4.900000000));
#79 = DIRECTION('',(-0.280000000,-0.380000000,0.000000000));
#80 = LINE('',#77,#79);
#81 = EDGE_CURVE('',#77,#78,#80,.T.);
#82 = ORIENTED_EDGE('',*,*,#81,.T.);
#83 = CARTESIAN_POINT('',(0.000000000,-1.200000000,-4.900000000));
#84 = CARTESIAN_POINT('',(2.300000000,-3.150000000,-4.900000000));
#85 = DIRECTION('',(2.300000000,-1.950000000,0.000000000));
#86 = LINE('',#83,#85);
#87 = EDGE_CURVE('',#83,#84,#86,.T.);
#88 = ORIENTED_EDGE('',*,*,#87,.T.);
#89 = EDGE_LOOP('',(#16,#22,#28,#34,#40,#46,#52,#58,#64,#70,#76,#82,#88));
#90 = FACE_OUTER_BOUND('',#89,.T.);
#91 = ADVANCED_FACE('',(#90),#5,.T.);
#92 = CARTESIAN_POINT('',(0.000000000,-1.200000000,4.900000000));
#93 = CARTESIAN_POINT('',(0.280000000,-0.820000000,4.900000000));
#94 = DIRECTION('',(0.280000000,0.380000000,0.000000000));
#95 = LINE('',#92,#94);
#96 = EDGE_CURVE('',#92,#93,#95,.T.);
#97 = ORIENTED_EDGE('',*,*,#96,.T.);
#98 = CARTESIAN_POINT('',(0.280000000,-0.820000000,4.900000000));
#99 = CARTESIAN_POINT('',(0.480000000,0.000000000,4.900000000));
#100 = DIRECTION('',(0.200000000,0.820000000,0.000000000));
#101 = LINE('',#98,#100);
#102 = EDGE_CURVE('',#98,#99,#101,.T.);
#103 = ORIENTED_EDGE('',*,*,#102,.T.);
#104 = CARTESIAN_POINT('',(0.480000000,0.000000000,4.900000000));
#105 = CARTESIAN_POINT('',(0.280000000,0.820000000,4.900000000));
#106 = DIRECTION('',(-0.200000000,0.820000000,0.000000000));
#107 = LINE('',#104,#106);
#108 = EDGE_CURVE('',#104,#105,#107,.T.);
#109 = ORIENTED_EDGE('',*,*,#108,.T.);
#110 = CARTESIAN_POINT('',(0.280000000,0.820000000,4.900000000));
#111 = CARTESIAN_POINT('',(0.000000000,1.200000000,4.900000000));
#112 = DIRECTION('',(-0.280000000,0.380000000,0.000000000));
#113 = LINE('',#110,#112);
#114 = EDGE_CURVE('',#110,#111,#113,.T.);
#115 = ORIENTED_EDGE('',*,*,#114,.T.);
#116 = CARTESIAN_POINT('',(0.000000000,1.200000000,4.900000000));
#117 = CARTESIAN_POINT('',(2.300000000,3.150000000,4.900000000));
#118 = DIRECTION('',(2.300000000,1.950000000,0.000000000));
#119 = LINE('',#116,#118);
#120 = EDGE_CURVE('',#116,#117,#119,.T.);
#121 = ORIENTED_EDGE('',*,*,#120,.T.);
#122 = CARTESIAN_POINT('',(2.300000000,3.150000000,4.900000000));
#123 = CARTESIAN_POINT('',(5.200000000,4.950000000,4.900000000));
#124 = DIRECTION('',(2.900000000,1.800000000,0.000000000));
#125 = LINE('',#122,#124);
#126 = EDGE_CURVE('',#122,#123,#125,.T.);
#127 = ORIENTED_EDGE('',*,*,#126,.T.);
#128 = CARTESIAN_POINT('',(5.200000000,4.950000000,4.900000000));
#129 = CARTESIAN_POINT('',(8.500000000,5.935000000,4.900000000));
#130 = DIRECTION('',(3.300000000,0.985000000,0.000000000));
#131 = LINE('',#128,#130);
#132 = EDGE_CURVE('',#128,#129,#131,.T.);
#133 = ORIENTED_EDGE('',*,*,#132,.T.);
#134 = CARTESIAN_POINT('',(8.500000000,5.935000000,4.900000000));
#135 = CARTESIAN_POINT('',(17.000000000,5.935000000,4.900000000));
#136 = DIRECTION('',(8.500000000,0.000000000,0.000000000));
#137 = LINE('',#134,#136);
#138 = EDGE_CURVE('',#134,#135,#137,.T.);
#139 = ORIENTED_EDGE('',*,*,#138,.T.);
#140 = CARTESIAN_POINT('',(17.000000000,5.935000000,4.900000000));
#141 = CARTESIAN_POINT('',(17.000000000,-5.935000000,4.900000000));
#142 = DIRECTION('',(0.000000000,-11.870000000,0.000000000));
#143 = LINE('',#140,#142);
#144 = EDGE_CURVE('',#140,#141,#143,.T.);
#145 = ORIENTED_EDGE('',*,*,#144,.T.);
#146 = CARTESIAN_POINT('',(17.000000000,-5.935000000,4.900000000));
#147 = CARTESIAN_POINT('',(8.500000000,-5.935000000,4.900000000));
#148 = DIRECTION('',(-8.500000000,0.000000000,0.000000000));
#149 = LINE('',#146,#148);
#150 = EDGE_CURVE('',#146,#147,#149,.T.);
#151 = ORIENTED_EDGE('',*,*,#150,.T.);
#152 = CARTESIAN_POINT('',(8.500000000,-5.935000000,4.900000000));
#153 = CARTESIAN_POINT('',(5.200000000,-4.950000000,4.900000000));
#154 = DIRECTION('',(-3.300000000,0.985000000,0.000000000));
#155 = LINE('',#152,#154);
#156 = EDGE_CURVE('',#152,#153,#155,.T.);
#157 = ORIENTED_EDGE('',*,*,#156,.T.);
#158 = CARTESIAN_POINT('',(5.200000000,-4.950000000,4.900000000));
#159 = CARTESIAN_POINT('',(2.300000000,-3.150000000,4.900000000));
#160 = DIRECTION('',(-2.900000000,1.800000000,0.000000000));
#161 = LINE('',#158,#160);
#162 = EDGE_CURVE('',#158,#159,#161,.T.);
#163 = ORIENTED_EDGE('',*,*,#162,.T.);
#164 = CARTESIAN_POINT('',(2.300000000,-3.150000000,4.900000000));
#165 = CARTESIAN_POINT('',(0.000000000,-1.200000000,4.900000000));
#166 = DIRECTION('',(-2.300000000,1.950000000,0.000000000));
#167 = LINE('',#164,#166);
#168 = EDGE_CURVE('',#164,#165,#167,.T.);
#169 = ORIENTED_EDGE('',*,*,#168,.T.);
#170 = EDGE_LOOP('',(#97,#103,#109,#115,#121,#127,#133,#139,#145,#151,#157,#163,#169));
#171 = FACE_OUTER_BOUND('',#170,.T.);
#172 = ADVANCED_FACE('',(#171),#10,.T.);
#173 = CARTESIAN_POINT('',(0.000000000,-1.200000000,-4.900000000));
#174 = DIRECTION('',(0.805055837,-0.593199038,0.000000000));
#175 = DIRECTION('',(0.000000000,1.000000000,0.000000000));
#176 = AXIS2_PLACEMENT_3D('',#173,#174,#175);
#177 = PLANE('',#176);
#178 = CARTESIAN_POINT('',(0.000000000,-1.200000000,-4.900000000));
#179 = CARTESIAN_POINT('',(0.280000000,-0.820000000,-4.900000000));
#180 = DIRECTION('',(0.280000000,0.380000000,0.000000000));
#181 = LINE('',#178,#180);
#182 = EDGE_CURVE('',#178,#179,#181,.T.);
#183 = ORIENTED_EDGE('',*,*,#182,.T.);
#184 = CARTESIAN_POINT('',(0.280000000,-0.820000000,-4.900000000));
#185 = CARTESIAN_POINT('',(0.280000000,-0.820000000,4.900000000));
#186 = DIRECTION('',(0.000000000,0.000000000,9.800000000));
#187 = LINE('',#184,#186);
#188 = EDGE_CURVE('',#184,#185,#187,.T.);
#189 = ORIENTED_EDGE('',*,*,#188,.T.);
#190 = CARTESIAN_POINT('',(0.280000000,-0.820000000,4.900000000));
#191 = CARTESIAN_POINT('',(0.000000000,-1.200000000,4.900000000));
#192 = DIRECTION('',(-0.280000000,-0.380000000,0.000000000));
#193 = LINE('',#190,#192);
#194 = EDGE_CURVE('',#190,#191,#193,.T.);
#195 = ORIENTED_EDGE('',*,*,#194,.T.);
#196 = CARTESIAN_POINT('',(0.000000000,-1.200000000,4.900000000));
#197 = CARTESIAN_POINT('',(0.000000000,-1.200000000,-4.900000000));
#198 = DIRECTION('',(0.000000000,0.000000000,-9.800000000));
#199 = LINE('',#196,#198);
#200 = EDGE_CURVE('',#196,#197,#199,.T.);
#201 = ORIENTED_EDGE('',*,*,#200,.T.);
#202 = EDGE_LOOP('',(#183,#189,#195,#201));
#203 = FACE_OUTER_BOUND('',#202,.T.);
#204 = ADVANCED_FACE('',(#203),#177,.T.);
#205 = CARTESIAN_POINT('',(0.280000000,-0.820000000,-4.900000000));
#206 = DIRECTION('',(0.971520339,-0.236956180,0.000000000));
#207 = DIRECTION('',(0.000000000,1.000000000,0.000000000));
#208 = AXIS2_PLACEMENT_3D('',#205,#206,#207);
#209 = PLANE('',#208);
#210 = CARTESIAN_POINT('',(0.280000000,-0.820000000,-4.900000000));
#211 = CARTESIAN_POINT('',(0.480000000,0.000000000,-4.900000000));
#212 = DIRECTION('',(0.200000000,0.820000000,0.000000000));
#213 = LINE('',#210,#212);
#214 = EDGE_CURVE('',#210,#211,#213,.T.);
#215 = ORIENTED_EDGE('',*,*,#214,.T.);
#216 = CARTESIAN_POINT('',(0.480000000,0.000000000,-4.900000000));
#217 = CARTESIAN_POINT('',(0.480000000,0.000000000,4.900000000));
#218 = DIRECTION('',(0.000000000,0.000000000,9.800000000));
#219 = LINE('',#216,#218);
#220 = EDGE_CURVE('',#216,#217,#219,.T.);
#221 = ORIENTED_EDGE('',*,*,#220,.T.);
#222 = CARTESIAN_POINT('',(0.480000000,0.000000000,4.900000000));
#223 = CARTESIAN_POINT('',(0.280000000,-0.820000000,4.900000000));
#224 = DIRECTION('',(-0.200000000,-0.820000000,0.000000000));
#225 = LINE('',#222,#224);
#226 = EDGE_CURVE('',#222,#223,#225,.T.);
#227 = ORIENTED_EDGE('',*,*,#226,.T.);
#228 = CARTESIAN_POINT('',(0.280000000,-0.820000000,4.900000000));
#229 = CARTESIAN_POINT('',(0.280000000,-0.820000000,-4.900000000));
#230 = DIRECTION('',(0.000000000,0.000000000,-9.800000000));
#231 = LINE('',#228,#230);
#232 = EDGE_CURVE('',#228,#229,#231,.T.);
#233 = ORIENTED_EDGE('',*,*,#232,.T.);
#234 = EDGE_LOOP('',(#215,#221,#227,#233));
#235 = FACE_OUTER_BOUND('',#234,.T.);
#236 = ADVANCED_FACE('',(#235),#209,.T.);
#237 = CARTESIAN_POINT('',(0.480000000,0.000000000,-4.900000000));
#238 = DIRECTION('',(0.971520339,0.236956180,0.000000000));
#239 = DIRECTION('',(0.000000000,1.000000000,0.000000000));
#240 = AXIS2_PLACEMENT_3D('',#237,#238,#239);
#241 = PLANE('',#240);
#242 = CARTESIAN_POINT('',(0.480000000,0.000000000,-4.900000000));
#243 = CARTESIAN_POINT('',(0.280000000,0.820000000,-4.900000000));
#244 = DIRECTION('',(-0.200000000,0.820000000,0.000000000));
#245 = LINE('',#242,#244);
#246 = EDGE_CURVE('',#242,#243,#245,.T.);
#247 = ORIENTED_EDGE('',*,*,#246,.T.);
#248 = CARTESIAN_POINT('',(0.280000000,0.820000000,-4.900000000));
#249 = CARTESIAN_POINT('',(0.280000000,0.820000000,4.900000000));
#250 = DIRECTION('',(0.000000000,0.000000000,9.800000000));
#251 = LINE('',#248,#250);
#252 = EDGE_CURVE('',#248,#249,#251,.T.);
#253 = ORIENTED_EDGE('',*,*,#252,.T.);
#254 = CARTESIAN_POINT('',(0.280000000,0.820000000,4.900000000));
#255 = CARTESIAN_POINT('',(0.480000000,0.000000000,4.900000000));
#256 = DIRECTION('',(0.200000000,-0.820000000,0.000000000));
#257 = LINE('',#254,#256);
#258 = EDGE_CURVE('',#254,#255,#257,.T.);
#259 = ORIENTED_EDGE('',*,*,#258,.T.);
#260 = CARTESIAN_POINT('',(0.480000000,0.000000000,4.900000000));
#261 = CARTESIAN_POINT('',(0.480000000,0.000000000,-4.900000000));
#262 = DIRECTION('',(0.000000000,0.000000000,-9.800000000));
#263 = LINE('',#260,#262);
#264 = EDGE_CURVE('',#260,#261,#263,.T.);
#265 = ORIENTED_EDGE('',*,*,#264,.T.);
#266 = EDGE_LOOP('',(#247,#253,#259,#265));
#267 = FACE_OUTER_BOUND('',#266,.T.);
#268 = ADVANCED_FACE('',(#267),#241,.T.);
#269 = CARTESIAN_POINT('',(0.280000000,0.820000000,-4.900000000));
#270 = DIRECTION('',(0.805055837,0.593199038,0.000000000));
#271 = DIRECTION('',(0.000000000,1.000000000,0.000000000));
#272 = AXIS2_PLACEMENT_3D('',#269,#270,#271);
#273 = PLANE('',#272);
#274 = CARTESIAN_POINT('',(0.280000000,0.820000000,-4.900000000));
#275 = CARTESIAN_POINT('',(0.000000000,1.200000000,-4.900000000));
#276 = DIRECTION('',(-0.280000000,0.380000000,0.000000000));
#277 = LINE('',#274,#276);
#278 = EDGE_CURVE('',#274,#275,#277,.T.);
#279 = ORIENTED_EDGE('',*,*,#278,.T.);
#280 = CARTESIAN_POINT('',(0.000000000,1.200000000,-4.900000000));
#281 = CARTESIAN_POINT('',(0.000000000,1.200000000,4.900000000));
#282 = DIRECTION('',(0.000000000,0.000000000,9.800000000));
#283 = LINE('',#280,#282);
#284 = EDGE_CURVE('',#280,#281,#283,.T.);
#285 = ORIENTED_EDGE('',*,*,#284,.T.);
#286 = CARTESIAN_POINT('',(0.000000000,1.200000000,4.900000000));
#287 = CARTESIAN_POINT('',(0.280000000,0.820000000,4.900000000));
#288 = DIRECTION('',(0.280000000,-0.380000000,0.000000000));
#289 = LINE('',#286,#288);
#290 = EDGE_CURVE('',#286,#287,#289,.T.);
#291 = ORIENTED_EDGE('',*,*,#290,.T.);
#292 = CARTESIAN_POINT('',(0.280000000,0.820000000,4.900000000));
#293 = CARTESIAN_POINT('',(0.280000000,0.820000000,-4.900000000));
#294 = DIRECTION('',(0.000000000,0.000000000,-9.800000000));
#295 = LINE('',#292,#294);
#296 = EDGE_CURVE('',#292,#293,#295,.T.);
#297 = ORIENTED_EDGE('',*,*,#296,.T.);
#298 = EDGE_LOOP('',(#279,#285,#291,#297));
#299 = FACE_OUTER_BOUND('',#298,.T.);
#300 = ADVANCED_FACE('',(#299),#273,.T.);
#301 = CARTESIAN_POINT('',(0.000000000,1.200000000,-4.900000000));
#302 = DIRECTION('',(0.646685252,-0.762756963,0.000000000));
#303 = DIRECTION('',(0.000000000,1.000000000,0.000000000));
#304 = AXIS2_PLACEMENT_3D('',#301,#302,#303);
#305 = PLANE('',#304);
#306 = CARTESIAN_POINT('',(0.000000000,1.200000000,-4.900000000));
#307 = CARTESIAN_POINT('',(2.300000000,3.150000000,-4.900000000));
#308 = DIRECTION('',(2.300000000,1.950000000,0.000000000));
#309 = LINE('',#306,#308);
#310 = EDGE_CURVE('',#306,#307,#309,.T.);
#311 = ORIENTED_EDGE('',*,*,#310,.T.);
#312 = CARTESIAN_POINT('',(2.300000000,3.150000000,-4.900000000));
#313 = CARTESIAN_POINT('',(2.300000000,3.150000000,4.900000000));
#314 = DIRECTION('',(0.000000000,0.000000000,9.800000000));
#315 = LINE('',#312,#314);
#316 = EDGE_CURVE('',#312,#313,#315,.T.);
#317 = ORIENTED_EDGE('',*,*,#316,.T.);
#318 = CARTESIAN_POINT('',(2.300000000,3.150000000,4.900000000));
#319 = CARTESIAN_POINT('',(0.000000000,1.200000000,4.900000000));
#320 = DIRECTION('',(-2.300000000,-1.950000000,0.000000000));
#321 = LINE('',#318,#320);
#322 = EDGE_CURVE('',#318,#319,#321,.T.);
#323 = ORIENTED_EDGE('',*,*,#322,.T.);
#324 = CARTESIAN_POINT('',(0.000000000,1.200000000,4.900000000));
#325 = CARTESIAN_POINT('',(0.000000000,1.200000000,-4.900000000));
#326 = DIRECTION('',(0.000000000,0.000000000,-9.800000000));
#327 = LINE('',#324,#326);
#328 = EDGE_CURVE('',#324,#325,#327,.T.);
#329 = ORIENTED_EDGE('',*,*,#328,.T.);
#330 = EDGE_LOOP('',(#311,#317,#323,#329));
#331 = FACE_OUTER_BOUND('',#330,.T.);
#332 = ADVANCED_FACE('',(#331),#305,.T.);
#333 = CARTESIAN_POINT('',(2.300000000,3.150000000,-4.900000000));
#334 = DIRECTION('',(0.527362862,-0.849640166,0.000000000));
#335 = DIRECTION('',(0.000000000,1.000000000,0.000000000));
#336 = AXIS2_PLACEMENT_3D('',#333,#334,#335);
#337 = PLANE('',#336);
#338 = CARTESIAN_POINT('',(2.300000000,3.150000000,-4.900000000));
#339 = CARTESIAN_POINT('',(5.200000000,4.950000000,-4.900000000));
#340 = DIRECTION('',(2.900000000,1.800000000,0.000000000));
#341 = LINE('',#338,#340);
#342 = EDGE_CURVE('',#338,#339,#341,.T.);
#343 = ORIENTED_EDGE('',*,*,#342,.T.);
#344 = CARTESIAN_POINT('',(5.200000000,4.950000000,-4.900000000));
#345 = CARTESIAN_POINT('',(5.200000000,4.950000000,4.900000000));
#346 = DIRECTION('',(0.000000000,0.000000000,9.800000000));
#347 = LINE('',#344,#346);
#348 = EDGE_CURVE('',#344,#345,#347,.T.);
#349 = ORIENTED_EDGE('',*,*,#348,.T.);
#350 = CARTESIAN_POINT('',(5.200000000,4.950000000,4.900000000));
#351 = CARTESIAN_POINT('',(2.300000000,3.150000000,4.900000000));
#352 = DIRECTION('',(-2.900000000,-1.800000000,0.000000000));
#353 = LINE('',#350,#352);
#354 = EDGE_CURVE('',#350,#351,#353,.T.);
#355 = ORIENTED_EDGE('',*,*,#354,.T.);
#356 = CARTESIAN_POINT('',(2.300000000,3.150000000,4.900000000));
#357 = CARTESIAN_POINT('',(2.300000000,3.150000000,-4.900000000));
#358 = DIRECTION('',(0.000000000,0.000000000,-9.800000000));
#359 = LINE('',#356,#358);
#360 = EDGE_CURVE('',#356,#357,#359,.T.);
#361 = ORIENTED_EDGE('',*,*,#360,.T.);
#362 = EDGE_LOOP('',(#343,#349,#355,#361));
#363 = FACE_OUTER_BOUND('',#362,.T.);
#364 = ADVANCED_FACE('',(#363),#337,.T.);
#365 = CARTESIAN_POINT('',(5.200000000,4.950000000,-4.900000000));
#366 = DIRECTION('',(0.286015630,-0.958224952,0.000000000));
#367 = DIRECTION('',(0.000000000,1.000000000,0.000000000));
#368 = AXIS2_PLACEMENT_3D('',#365,#366,#367);
#369 = PLANE('',#368);
#370 = CARTESIAN_POINT('',(5.200000000,4.950000000,-4.900000000));
#371 = CARTESIAN_POINT('',(8.500000000,5.935000000,-4.900000000));
#372 = DIRECTION('',(3.300000000,0.985000000,0.000000000));
#373 = LINE('',#370,#372);
#374 = EDGE_CURVE('',#370,#371,#373,.T.);
#375 = ORIENTED_EDGE('',*,*,#374,.T.);
#376 = CARTESIAN_POINT('',(8.500000000,5.935000000,-4.900000000));
#377 = CARTESIAN_POINT('',(8.500000000,5.935000000,4.900000000));
#378 = DIRECTION('',(0.000000000,0.000000000,9.800000000));
#379 = LINE('',#376,#378);
#380 = EDGE_CURVE('',#376,#377,#379,.T.);
#381 = ORIENTED_EDGE('',*,*,#380,.T.);
#382 = CARTESIAN_POINT('',(8.500000000,5.935000000,4.900000000));
#383 = CARTESIAN_POINT('',(5.200000000,4.950000000,4.900000000));
#384 = DIRECTION('',(-3.300000000,-0.985000000,0.000000000));
#385 = LINE('',#382,#384);
#386 = EDGE_CURVE('',#382,#383,#385,.T.);
#387 = ORIENTED_EDGE('',*,*,#386,.T.);
#388 = CARTESIAN_POINT('',(5.200000000,4.950000000,4.900000000));
#389 = CARTESIAN_POINT('',(5.200000000,4.950000000,-4.900000000));
#390 = DIRECTION('',(0.000000000,0.000000000,-9.800000000));
#391 = LINE('',#388,#390);
#392 = EDGE_CURVE('',#388,#389,#391,.T.);
#393 = ORIENTED_EDGE('',*,*,#392,.T.);
#394 = EDGE_LOOP('',(#375,#381,#387,#393));
#395 = FACE_OUTER_BOUND('',#394,.T.);
#396 = ADVANCED_FACE('',(#395),#369,.T.);
#397 = CARTESIAN_POINT('',(8.500000000,5.935000000,-4.900000000));
#398 = DIRECTION('',(0.000000000,-1.000000000,0.000000000));
#399 = DIRECTION('',(0.000000000,1.000000000,0.000000000));
#400 = AXIS2_PLACEMENT_3D('',#397,#398,#399);
#401 = PLANE('',#400);
#402 = CARTESIAN_POINT('',(8.500000000,5.935000000,-4.900000000));
#403 = CARTESIAN_POINT('',(17.000000000,5.935000000,-4.900000000));
#404 = DIRECTION('',(8.500000000,0.000000000,0.000000000));
#405 = LINE('',#402,#404);
#406 = EDGE_CURVE('',#402,#403,#405,.T.);
#407 = ORIENTED_EDGE('',*,*,#406,.T.);
#408 = CARTESIAN_POINT('',(17.000000000,5.935000000,-4.900000000));
#409 = CARTESIAN_POINT('',(17.000000000,5.935000000,4.900000000));
#410 = DIRECTION('',(0.000000000,0.000000000,9.800000000));
#411 = LINE('',#408,#410);
#412 = EDGE_CURVE('',#408,#409,#411,.T.);
#413 = ORIENTED_EDGE('',*,*,#412,.T.);
#414 = CARTESIAN_POINT('',(17.000000000,5.935000000,4.900000000));
#415 = CARTESIAN_POINT('',(8.500000000,5.935000000,4.900000000));
#416 = DIRECTION('',(-8.500000000,0.000000000,0.000000000));
#417 = LINE('',#414,#416);
#418 = EDGE_CURVE('',#414,#415,#417,.T.);
#419 = ORIENTED_EDGE('',*,*,#418,.T.);
#420 = CARTESIAN_POINT('',(8.500000000,5.935000000,4.900000000));
#421 = CARTESIAN_POINT('',(8.500000000,5.935000000,-4.900000000));
#422 = DIRECTION('',(0.000000000,0.000000000,-9.800000000));
#423 = LINE('',#420,#422);
#424 = EDGE_CURVE('',#420,#421,#423,.T.);
#425 = ORIENTED_EDGE('',*,*,#424,.T.);
#426 = EDGE_LOOP('',(#407,#413,#419,#425));
#427 = FACE_OUTER_BOUND('',#426,.T.);
#428 = ADVANCED_FACE('',(#427),#401,.T.);
#429 = CARTESIAN_POINT('',(17.000000000,5.935000000,-4.900000000));
#430 = DIRECTION('',(-1.000000000,-0.000000000,0.000000000));
#431 = DIRECTION('',(0.000000000,1.000000000,0.000000000));
#432 = AXIS2_PLACEMENT_3D('',#429,#430,#431);
#433 = PLANE('',#432);
#434 = CARTESIAN_POINT('',(17.000000000,5.935000000,-4.900000000));
#435 = CARTESIAN_POINT('',(17.000000000,-5.935000000,-4.900000000));
#436 = DIRECTION('',(0.000000000,-11.870000000,0.000000000));
#437 = LINE('',#434,#436);
#438 = EDGE_CURVE('',#434,#435,#437,.T.);
#439 = ORIENTED_EDGE('',*,*,#438,.T.);
#440 = CARTESIAN_POINT('',(17.000000000,-5.935000000,-4.900000000));
#441 = CARTESIAN_POINT('',(17.000000000,-5.935000000,4.900000000));
#442 = DIRECTION('',(0.000000000,0.000000000,9.800000000));
#443 = LINE('',#440,#442);
#444 = EDGE_CURVE('',#440,#441,#443,.T.);
#445 = ORIENTED_EDGE('',*,*,#444,.T.);
#446 = CARTESIAN_POINT('',(17.000000000,-5.935000000,4.900000000));
#447 = CARTESIAN_POINT('',(17.000000000,5.935000000,4.900000000));
#448 = DIRECTION('',(0.000000000,11.870000000,0.000000000));
#449 = LINE('',#446,#448);
#450 = EDGE_CURVE('',#446,#447,#449,.T.);
#451 = ORIENTED_EDGE('',*,*,#450,.T.);
#452 = CARTESIAN_POINT('',(17.000000000,5.935000000,4.900000000));
#453 = CARTESIAN_POINT('',(17.000000000,5.935000000,-4.900000000));
#454 = DIRECTION('',(0.000000000,0.000000000,-9.800000000));
#455 = LINE('',#452,#454);
#456 = EDGE_CURVE('',#452,#453,#455,.T.);
#457 = ORIENTED_EDGE('',*,*,#456,.T.);
#458 = EDGE_LOOP('',(#439,#445,#451,#457));
#459 = FACE_OUTER_BOUND('',#458,.T.);
#460 = ADVANCED_FACE('',(#459),#433,.T.);
#461 = CARTESIAN_POINT('',(17.000000000,-5.935000000,-4.900000000));
#462 = DIRECTION('',(0.000000000,1.000000000,0.000000000));
#463 = DIRECTION('',(0.000000000,1.000000000,0.000000000));
#464 = AXIS2_PLACEMENT_3D('',#461,#462,#463);
#465 = PLANE('',#464);
#466 = CARTESIAN_POINT('',(17.000000000,-5.935000000,-4.900000000));
#467 = CARTESIAN_POINT('',(8.500000000,-5.935000000,-4.900000000));
#468 = DIRECTION('',(-8.500000000,0.000000000,0.000000000));
#469 = LINE('',#466,#468);
#470 = EDGE_CURVE('',#466,#467,#469,.T.);
#471 = ORIENTED_EDGE('',*,*,#470,.T.);
#472 = CARTESIAN_POINT('',(8.500000000,-5.935000000,-4.900000000));
#473 = CARTESIAN_POINT('',(8.500000000,-5.935000000,4.900000000));
#474 = DIRECTION('',(0.000000000,0.000000000,9.800000000));
#475 = LINE('',#472,#474);
#476 = EDGE_CURVE('',#472,#473,#475,.T.);
#477 = ORIENTED_EDGE('',*,*,#476,.T.);
#478 = CARTESIAN_POINT('',(8.500000000,-5.935000000,4.900000000));
#479 = CARTESIAN_POINT('',(17.000000000,-5.935000000,4.900000000));
#480 = DIRECTION('',(8.500000000,0.000000000,0.000000000));
#481 = LINE('',#478,#480);
#482 = EDGE_CURVE('',#478,#479,#481,.T.);
#483 = ORIENTED_EDGE('',*,*,#482,.T.);
#484 = CARTESIAN_POINT('',(17.000000000,-5.935000000,4.900000000));
#485 = CARTESIAN_POINT('',(17.000000000,-5.935000000,-4.900000000));
#486 = DIRECTION('',(0.000000000,0.000000000,-9.800000000));
#487 = LINE('',#484,#486);
#488 = EDGE_CURVE('',#484,#485,#487,.T.);
#489 = ORIENTED_EDGE('',*,*,#488,.T.);
#490 = EDGE_LOOP('',(#471,#477,#483,#489));
#491 = FACE_OUTER_BOUND('',#490,.T.);
#492 = ADVANCED_FACE('',(#491),#465,.T.);
#493 = CARTESIAN_POINT('',(8.500000000,-5.935000000,-4.900000000));
#494 = DIRECTION('',(0.286015630,0.958224952,0.000000000));
#495 = DIRECTION('',(0.000000000,1.000000000,0.000000000));
#496 = AXIS2_PLACEMENT_3D('',#493,#494,#495);
#497 = PLANE('',#496);
#498 = CARTESIAN_POINT('',(8.500000000,-5.935000000,-4.900000000));
#499 = CARTESIAN_POINT('',(5.200000000,-4.950000000,-4.900000000));
#500 = DIRECTION('',(-3.300000000,0.985000000,0.000000000));
#501 = LINE('',#498,#500);
#502 = EDGE_CURVE('',#498,#499,#501,.T.);
#503 = ORIENTED_EDGE('',*,*,#502,.T.);
#504 = CARTESIAN_POINT('',(5.200000000,-4.950000000,-4.900000000));
#505 = CARTESIAN_POINT('',(5.200000000,-4.950000000,4.900000000));
#506 = DIRECTION('',(0.000000000,0.000000000,9.800000000));
#507 = LINE('',#504,#506);
#508 = EDGE_CURVE('',#504,#505,#507,.T.);
#509 = ORIENTED_EDGE('',*,*,#508,.T.);
#510 = CARTESIAN_POINT('',(5.200000000,-4.950000000,4.900000000));
#511 = CARTESIAN_POINT('',(8.500000000,-5.935000000,4.900000000));
#512 = DIRECTION('',(3.300000000,-0.985000000,0.000000000));
#513 = LINE('',#510,#512);
#514 = EDGE_CURVE('',#510,#511,#513,.T.);
#515 = ORIENTED_EDGE('',*,*,#514,.T.);
#516 = CARTESIAN_POINT('',(8.500000000,-5.935000000,4.900000000));
#517 = CARTESIAN_POINT('',(8.500000000,-5.935000000,-4.900000000));
#518 = DIRECTION('',(0.000000000,0.000000000,-9.800000000));
#519 = LINE('',#516,#518);
#520 = EDGE_CURVE('',#516,#517,#519,.T.);
#521 = ORIENTED_EDGE('',*,*,#520,.T.);
#522 = EDGE_LOOP('',(#503,#509,#515,#521));
#523 = FACE_OUTER_BOUND('',#522,.T.);
#524 = ADVANCED_FACE('',(#523),#497,.T.);
#525 = CARTESIAN_POINT('',(5.200000000,-4.950000000,-4.900000000));
#526 = DIRECTION('',(0.527362862,0.849640166,0.000000000));
#527 = DIRECTION('',(0.000000000,1.000000000,0.000000000));
#528 = AXIS2_PLACEMENT_3D('',#525,#526,#527);
#529 = PLANE('',#528);
#530 = CARTESIAN_POINT('',(5.200000000,-4.950000000,-4.900000000));
#531 = CARTESIAN_POINT('',(2.300000000,-3.150000000,-4.900000000));
#532 = DIRECTION('',(-2.900000000,1.800000000,0.000000000));
#533 = LINE('',#530,#532);
#534 = EDGE_CURVE('',#530,#531,#533,.T.);
#535 = ORIENTED_EDGE('',*,*,#534,.T.);
#536 = CARTESIAN_POINT('',(2.300000000,-3.150000000,-4.900000000));
#537 = CARTESIAN_POINT('',(2.300000000,-3.150000000,4.900000000));
#538 = DIRECTION('',(0.000000000,0.000000000,9.800000000));
#539 = LINE('',#536,#538);
#540 = EDGE_CURVE('',#536,#537,#539,.T.);
#541 = ORIENTED_EDGE('',*,*,#540,.T.);
#542 = CARTESIAN_POINT('',(2.300000000,-3.150000000,4.900000000));
#543 = CARTESIAN_POINT('',(5.200000000,-4.950000000,4.900000000));
#544 = DIRECTION('',(2.900000000,-1.800000000,0.000000000));
#545 = LINE('',#542,#544);
#546 = EDGE_CURVE('',#542,#543,#545,.T.);
#547 = ORIENTED_EDGE('',*,*,#546,.T.);
#548 = CARTESIAN_POINT('',(5.200000000,-4.950000000,4.900000000));
#549 = CARTESIAN_POINT('',(5.200000000,-4.950000000,-4.900000000));
#550 = DIRECTION('',(0.000000000,0.000000000,-9.800000000));
#551 = LINE('',#548,#550);
#552 = EDGE_CURVE('',#548,#549,#551,.T.);
#553 = ORIENTED_EDGE('',*,*,#552,.T.);
#554 = EDGE_LOOP('',(#535,#541,#547,#553));
#555 = FACE_OUTER_BOUND('',#554,.T.);
#556 = ADVANCED_FACE('',(#555),#529,.T.);
#557 = CARTESIAN_POINT('',(2.300000000,-3.150000000,-4.900000000));
#558 = DIRECTION('',(0.646685252,0.762756963,0.000000000));
#559 = DIRECTION('',(0.000000000,1.000000000,0.000000000));
#560 = AXIS2_PLACEMENT_3D('',#557,#558,#559);
#561 = PLANE('',#560);
#562 = CARTESIAN_POINT('',(2.300000000,-3.150000000,-4.900000000));
#563 = CARTESIAN_POINT('',(0.000000000,-1.200000000,-4.900000000));
#564 = DIRECTION('',(-2.300000000,1.950000000,0.000000000));
#565 = LINE('',#562,#564);
#566 = EDGE_CURVE('',#562,#563,#565,.T.);
#567 = ORIENTED_EDGE('',*,*,#566,.T.);
#568 = CARTESIAN_POINT('',(0.000000000,-1.200000000,-4.900000000));
#569 = CARTESIAN_POINT('',(0.000000000,-1.200000000,4.900000000));
#570 = DIRECTION('',(0.000000000,0.000000000,9.800000000));
#571 = LINE('',#568,#570);
#572 = EDGE_CURVE('',#568,#569,#571,.T.);
#573 = ORIENTED_EDGE('',*,*,#572,.T.);
#574 = CARTESIAN_POINT('',(0.000000000,-1.200000000,4.900000000));
#575 = CARTESIAN_POINT('',(2.300000000,-3.150000000,4.900000000));
#576 = DIRECTION('',(2.300000000,-1.950000000,0.000000000));
#577 = LINE('',#574,#576);
#578 = EDGE_CURVE('',#574,#575,#577,.T.);
#579 = ORIENTED_EDGE('',*,*,#578,.T.);
#580 = CARTESIAN_POINT('',(2.300000000,-3.150000000,4.900000000));
#581 = CARTESIAN_POINT('',(2.300000000,-3.150000000,-4.900000000));
#582 = DIRECTION('',(0.000000000,0.000000000,-9.800000000));
#583 = LINE('',#580,#582);
#584 = EDGE_CURVE('',#580,#581,#583,.T.);
#585 = ORIENTED_EDGE('',*,*,#584,.T.);
#586 = EDGE_LOOP('',(#567,#573,#579,#585));
#587 = FACE_OUTER_BOUND('',#586,.T.);
#588 = ADVANCED_FACE('',(#587),#561,.T.);
#589 = CLOSED_SHELL('',(#91,#172,#204,#236,#268,#300,#332,#364,#396,#428,#460,#492,#524,#556,#588));
#590 = MANIFOLD_SOLID_BREP('TIR_Guide_PMMA_v1',#589);
#591 = GEOMETRIC_REPRESENTATION_CONTEXT(3) GLOBAL_UNCERTAINTY_ASSIGNED_CONTEXT((#592)) GLOBAL_UNIT_ASSIGNED_CONTEXT((#593)) REPRESENTATION_CONTEXT('PMMA guide','');
#592 = UNCERTAINTY_MEASURE_WITH_UNIT(LENGTH_MEASURE(0.001),#593,'distance_accuracy_value','');
#593 = (LENGTH_UNIT() NAMED_UNIT(*) SI_UNIT(.MILLI.,.METRE.));
#594 = ADVANCED_BREP_SHAPE_REPRESENTATION('PMMA n=1.49', (#590), #591);
#595 = PRODUCT('guia TIR PMMA LUXEON HL2Z v1','guia TIR PMMA LUXEON HL2Z v1','Concepto extruido 9.8 mm',());
ENDSEC;
END-ISO-10303-21;
