ISO-10303-21;
HEADER;
FILE_DESCRIPTION (( 'STEP AP203' ),
    '1' );
FILE_NAME ('lente dot l8_v6_croquis4_D1_plus1.STEP',
    '2026-08-26T22:49:21',
    ( '' ),
    ( '' ),
    'SwSTEP 2.0',
    'SolidWorks 2026',
    '' );
FILE_SCHEMA (( 'CONFIG_CONTROL_DESIGN' ));
ENDSEC;

DATA;
#1 = CARTESIAN_POINT ( 'NONE',  ( -0.9131553968141893352, 4.784689529730151492, 6.114353199310424536 ) ) ;
#2 = SECURITY_CLASSIFICATION_LEVEL ( 'unclassified' ) ;
#3 = PLANE ( 'NONE',  #342 ) ;
#4 = B_SPLINE_SURFACE_WITH_KNOTS ( 'NONE', 2, 1, ( 
 ( #144, #227 ),
 ( #540, #453 ),
 ( #408, #370 ) ),
 .UNSPECIFIED., .F., .F., .F.,
 ( 3, 3 ),
 ( 2, 2 ),
 ( 0.4988120746294950059, 0.4994128454637969949 ),
 ( 0.000000000000000000, 1.000000000000000000 ),
 .UNSPECIFIED. ) ;
#5 = CARTESIAN_POINT ( 'NONE',  ( -6.948876663721481606, -3.612404337174381475, -5.163769448045255395 ) ) ;
#6 = CARTESIAN_POINT ( 'NONE',  ( 0.3551250000566972265, 12.60815517220120086, -7.000000000000000000 ) ) ;
#7 = LINE ( 'NONE', #109, #326 ) ;
#8 = DIRECTION ( 'NONE',  ( -0.000000000000000000, -0.000000000000000000, -1.000000000000000000 ) ) ;
#9 = CARTESIAN_POINT ( 'NONE',  ( -0.09067036701419771416, -3.215542242876337387, 5.208695783788594547 ) ) ;
#10 = CARTESIAN_POINT ( 'NONE',  ( -1.023021868508782406, -0.4793968695130562674, -5.518438103482017354 ) ) ;
#11 = ORIENTED_EDGE ( 'NONE', *, *, #231, .T. ) ;
#12 = DIRECTION ( 'NONE',  ( -0.05233595624293717330, 0.9986295347545742773, 0.000000000000000000 ) ) ;
#13 = B_SPLINE_SURFACE_WITH_KNOTS ( 'NONE', 2, 1, ( 
 ( #536, #45 ),
 ( #220, #398 ),
 ( #581, #180 ) ),
 .UNSPECIFIED., .F., .F., .F.,
 ( 3, 3 ),
 ( 2, 2 ),
 ( 0.4976672411085089620, 0.4995542795880109632 ),
 ( 0.000000000000000000, 1.000000000000000000 ),
 .UNSPECIFIED. ) ;
#14 = DIRECTION ( 'NONE',  ( 1.000000000000000000, -2.081376414897577884E-10, 0.000000000000000000 ) ) ;
#15 = VERTEX_POINT ( 'NONE', #140 ) ;
#16 = CARTESIAN_POINT ( 'NONE',  ( -1.022530459175377437, 0.05020564446570145722, -5.578391172055129132 ) ) ;
#17 = CC_DESIGN_APPROVAL ( #208, ( #296 ) ) ;
#18 = EDGE_CURVE ( 'NONE', #376, #286, #252, .T. ) ;
#19 = LINE ( 'NONE', #508, #118 ) ;
#20 = ORIENTED_EDGE ( 'NONE', *, *, #494, .F. ) ;
#21 = APPROVAL_ROLE ( '' ) ;
#22 = EDGE_CURVE ( 'NONE', #204, #64, #218, .T. ) ;
#23 = CARTESIAN_POINT ( 'NONE',  ( -8.445166023051415394, -2.729959031358991872, 5.263665695769042863 ) ) ;
#24 = VERTEX_POINT ( 'NONE', #318 ) ;
#25 = CC_DESIGN_SECURITY_CLASSIFICATION ( #344, ( #296 ) ) ;
#26 = FACE_OUTER_BOUND ( 'NONE', #455, .T. ) ;
#27 = ORIENTED_EDGE ( 'NONE', *, *, #81, .F. ) ;
#28 = B_SPLINE_CURVE_WITH_KNOTS ( 'NONE', 3,
 ( #537, #492, #89, #488, #91, #439, #478, #1, #349, #172, #182, #395 ),
 .UNSPECIFIED., .F., .F.,
 ( 4, 2, 2, 2, 2, 4 ),
 ( 8.673617379884035472E-19, 0.002643073263770713728, 0.005286146527541426589, 0.007929219791312138582, 0.009250756423197496747, 0.01057229305508285144 ),
 .UNSPECIFIED. ) ;
#29 = DIRECTION ( 'NONE',  ( -0.000000000000000000, -0.000000000000000000, -1.000000000000000000 ) ) ;
#30 = ORIENTED_EDGE ( 'NONE', *, *, #245, .T. ) ;
#31 = PLANE ( 'NONE',  #429 ) ;
#32 = ORIENTED_EDGE ( 'NONE', *, *, #200, .F. ) ;
#33 = EDGE_CURVE ( 'NONE', #80, #480, #487, .T. ) ;
#34 = UNCERTAINTY_MEASURE_WITH_UNIT (LENGTH_MEASURE( 1.000000000000000082E-05 ), #234, 'distance_accuracy_value', 'NONE');
#35 = CARTESIAN_POINT ( 'NONE',  ( -23.03592114560350268, 11.87161228793415191, 6.916620475012943636 ) ) ;
#36 = ORIENTED_EDGE ( 'NONE', *, *, #373, .T. ) ;
#37 = CC_DESIGN_PERSON_AND_ORGANIZATION_ASSIGNMENT ( #556, #242, ( #185 ) ) ;
#38 = VECTOR ( 'NONE', #345, 1000.000000000000114 ) ;
#39 = FACE_OUTER_BOUND ( 'NONE', #156, .T. ) ;
#40 = SHAPE_DEFINITION_REPRESENTATION ( #575, #477 ) ;
#41 = CARTESIAN_POINT ( 'NONE',  ( -1.314328266767422315, -1.876649060913654798, 5.360263709981444080 ) ) ;
#42 = CARTESIAN_POINT ( 'NONE',  ( -1.688194259797113572, -4.405153456069165863, -5.074027158248894054 ) ) ;
#43 = CARTESIAN_POINT ( 'NONE',  ( -20.25388486837874069, 8.929371410749581628, 6.583547341082289783 ) ) ;
#44 = CARTESIAN_POINT ( 'NONE',  ( -0.9075306697980521919, -0.1237304348149260991, 5.865986263594099803 ) ) ;
#45 = CARTESIAN_POINT ( 'NONE',  ( -18.94519211359818911, 7.540918895746552053, -6.503485534507344568 ) ) ;
#46 = ADVANCED_FACE ( 'NONE', ( #226 ), #486, .F. ) ;
#47 = VECTOR ( 'NONE', #95, 1000.000000000000000 ) ;
#48 = CARTESIAN_POINT ( 'NONE',  ( -1.394874999943561011, -2.223730434814910062, -5.865986263594098915 ) ) ;
#49 = LOCAL_TIME ( 0, 49, 21.00000000000000000, #529 ) ;
#50 = CARTESIAN_POINT ( 'NONE',  ( 0.3551250000556511188, -1.237747038088879550E-13, 7.000000000000000000 ) ) ;
#51 = ADVANCED_FACE ( 'NONE', ( #305 ), #3, .F. ) ;
#52 = CARTESIAN_POINT ( 'NONE',  ( -10.57049231190724292, -1.233542265767109347, -5.433065905536727414 ) ) ;
#53 = APPROVAL_ROLE ( '' ) ;
#54 = CARTESIAN_POINT ( 'NONE',  ( -23.03592114560350268, 11.87161228793415191, -6.916620475012941860 ) ) ;
#55 = DIRECTION ( 'NONE',  ( 0.9986120086232370685, 0.05233503773731754127, 0.005924530234325171146 ) ) ;
#56 = PLANE ( 'NONE',  #168 ) ;
#57 = CARTESIAN_POINT ( 'NONE',  ( -23.03592114560350268, 0.000000000000000000, 7.000000000000000000 ) ) ;
#58 = AXIS2_PLACEMENT_3D ( 'NONE', #531, #578, #132 ) ;
#59 = VERTEX_POINT ( 'NONE', #484 ) ;
#60 = CARTESIAN_POINT ( 'NONE',  ( -0.6044451899352160096, -3.639840208172668401, 5.160663600523933248 ) ) ;
#61 = CARTESIAN_POINT ( 'NONE',  ( 0.3551250000564473708, -2.284841781425449359, 7.000000000000000000 ) ) ;
#62 =( NAMED_UNIT ( * ) PLANE_ANGLE_UNIT ( ) SI_UNIT ( $, .RADIAN. ) );
#63 = CARTESIAN_POINT ( 'NONE',  ( 0.3551250000566972265, 3.001549528634499975, 6.839894546441814605 ) ) ;
#64 = VERTEX_POINT ( 'NONE', #266 ) ;
#65 = CARTESIAN_POINT ( 'NONE',  ( -6.307292799264660133, 9.929550341479966846, -6.696771493983243673 ) ) ;
#66 = CARTESIAN_POINT ( 'NONE',  ( -8.981845694529429380, 12.60815517220120086, -7.000000000000000000 ) ) ;
#67 = ORIENTED_EDGE ( 'NONE', *, *, #114, .F. ) ;
#68 = ADVANCED_FACE ( 'NONE', ( #313 ), #13, .F. ) ;
#69 = DATE_AND_TIME ( #464, #521 ) ;
#70 = CARTESIAN_POINT ( 'NONE',  ( -9.173158054527712935, -2.249075457824854407, 5.318103590414180459 ) ) ;
#71 = ORIENTED_EDGE ( 'NONE', *, *, #316, .F. ) ;
#72 = CARTESIAN_POINT ( 'NONE',  ( -0.08590854173393609738, -2.269440550774463272, 5.315798182524555493 ) ) ;
#73 = ORIENTED_EDGE ( 'NONE', *, *, #18, .T. ) ;
#74 = CARTESIAN_POINT ( 'NONE',  ( 0.3551250000566972265, -2.284841781425458240, 5.314054703192494955 ) ) ;
#75 = VERTEX_POINT ( 'NONE', #138 ) ;
#76 = VECTOR ( 'NONE', #217, 1000.000000000000114 ) ;
#77 = DIRECTION ( 'NONE',  ( -0.000000000000000000, -0.000000000000000000, -1.000000000000000000 ) ) ;
#78 = ORIENTED_EDGE ( 'NONE', *, *, #404, .F. ) ;
#79 = CARTESIAN_POINT ( 'NONE',  ( 1.484527364560580320, 1.384344158600975039, 7.000000000000000000 ) ) ;
#80 = VERTEX_POINT ( 'NONE', #403 ) ;
#81 = EDGE_CURVE ( 'NONE', #480, #64, #184, .T. ) ;
#82 = CARTESIAN_POINT ( 'NONE',  ( -3.278073379930583897, -4.979360001396816671, -5.009024739494249090 ) ) ;
#83 = CALENDAR_DATE ( 2026, 27, 8 ) ;
#84 = VERTEX_POINT ( 'NONE', #54 ) ;
#85 = EDGE_CURVE ( 'NONE', #204, #24, #407, .T. ) ;
#86 = AXIS2_PLACEMENT_3D ( 'NONE', #571, #203, #466 ) ;
#87 = CARTESIAN_POINT ( 'NONE',  ( -3.702783848952148738, -4.876195828739250615, -5.020703325895141234 ) ) ;
#88 = ORIENTED_EDGE ( 'NONE', *, *, #290, .F. ) ;
#89 = CARTESIAN_POINT ( 'NONE',  ( -5.629041172254177994, 9.370777676637377596, 6.633516250649171830 ) ) ;
#90 = DIRECTION ( 'NONE',  ( 0.000000000000000000, 0.1124854344122625527, 0.9936533736897815716 ) ) ;
#91 = CARTESIAN_POINT ( 'NONE',  ( -3.645804699733607102, 7.633612604158144244, 6.436862394286697153 ) ) ;
#92 = DATE_AND_TIME ( #424, #551 ) ;
#93 = VERTEX_POINT ( 'NONE', #541 ) ;
#94 = VECTOR ( 'NONE', #332, 1000.000000000000000 ) ;
#95 = DIRECTION ( 'NONE',  ( -0.000000000000000000, -0.000000000000000000, -1.000000000000000000 ) ) ;
#96 = B_SPLINE_SURFACE_WITH_KNOTS ( 'NONE', 2, 1, ( 
 ( #63, #199 ),
 ( #232, #102 ),
 ( #457, #192 ) ),
 .UNSPECIFIED., .F., .F., .F.,
 ( 3, 3 ),
 ( 2, 2 ),
 ( 0.5008207051229819351, 0.5020133117822229707 ),
 ( 0.000000000000000000, 1.000000000000000000 ),
 .UNSPECIFIED. ) ;
#97 = LOCAL_TIME ( 0, 49, 21.00000000000000000, #490 ) ;
#98 = DIRECTION ( 'NONE',  ( -0.9993830276160453607, 0.03489922434133396756, -0.003950728206264357729 ) ) ;
#99 = ADVANCED_FACE ( 'NONE', ( #550 ), #96, .F. ) ;
#100 = CARTESIAN_POINT ( 'NONE',  ( -1.314368477922809086, 1.629361463898390650, 5.757157765171933228 ) ) ;
#101 = FACE_OUTER_BOUND ( 'NONE', #520, .T. ) ;
#102 = CARTESIAN_POINT ( 'NONE',  ( -1.448726270043842357, 6.058427314146597631, -6.839894546441814605 ) ) ;
#103 = ORIENTED_EDGE ( 'NONE', *, *, #509, .F. ) ;
#104 = ADVANCED_FACE ( 'NONE', ( #278 ), #411, .F. ) ;
#105 = CARTESIAN_POINT ( 'NONE',  ( -4.298359642104462530, 8.222722295426272865, -6.503551907242953511 ) ) ;
#106 = CLOSED_SHELL ( 'NONE', ( #46, #205, #68, #557, #271, #416, #462, #99, #299, #346, #104, #545, #283, #51 ) ) ;
#107 = DIRECTION ( 'NONE',  ( -0.000000000000000000, -0.000000000000000000, -1.000000000000000000 ) ) ;
#108 = ORIENTED_EDGE ( 'NONE', *, *, #22, .T. ) ;
#109 = CARTESIAN_POINT ( 'NONE',  ( -1.394874999943561011, 1.976269565185000854, 7.000000000000000000 ) ) ;
#110 = CC_DESIGN_DATE_AND_TIME_ASSIGNMENT ( #92, #448, ( #185 ) ) ;
#111 = DIRECTION ( 'NONE',  ( -1.000000000000000000, 0.000000000000000000, 0.000000000000000000 ) ) ;
#112 = CARTESIAN_POINT ( 'NONE',  ( 0.3551250000566972265, 3.001549528634499975, -5.912494801853048543 ) ) ;
#113 = DIRECTION ( 'NONE',  ( -0.000000000000000000, 0.9936533736897814606, 0.1124854344122625388 ) ) ;
#114 = EDGE_CURVE ( 'NONE', #337, #335, #189, .T. ) ;
#115 = PERSON_AND_ORGANIZATION ( #339, #400 ) ;
#116 = CARTESIAN_POINT ( 'NONE',  ( -23.03592114560350268, 11.54013782009825206, -6.879096273416728913 ) ) ;
#117 = ORIENTED_EDGE ( 'NONE', *, *, #190, .T. ) ;
#118 = VECTOR ( 'NONE', #113, 1000.000000000000114 ) ;
#119 = EDGE_CURVE ( 'NONE', #309, #171, #512, .T. ) ;
#120 = DIRECTION ( 'NONE',  ( 0.000000000000000000, 0.1124854344122625527, -0.9936533736897815716 ) ) ;
#121 = ORIENTED_EDGE ( 'NONE', *, *, #18, .F. ) ;
#122 = LINE ( 'NONE', #525, #325 ) ;
#123 = VERTEX_POINT ( 'NONE', #66 ) ;
#124 = CARTESIAN_POINT ( 'NONE',  ( 0.3551250000566972265, 2.067983178930323351, 5.806811452729805367 ) ) ;
#125 = ORIENTED_EDGE ( 'NONE', *, *, #333, .T. ) ;
#126 = APPROVAL_PERSON_ORGANIZATION ( #115, #128, #21 ) ;
#127 = DIRECTION ( 'NONE',  ( 0.9993830276160453607, -0.03489922434133396756, -0.003950728206264357729 ) ) ;
#128 = APPROVAL ( #284, 'UNSPECIFIED' ) ;
#129 = ORIENTED_EDGE ( 'NONE', *, *, #119, .T. ) ;
#130 = CARTESIAN_POINT ( 'NONE',  ( 2.198389076633395778, 0.6188211927258228107, -5.642760668152244641 ) ) ;
#131 = ORIENTED_EDGE ( 'NONE', *, *, #377, .T. ) ;
#132 = DIRECTION ( 'NONE',  ( 0.9993908270190959842, -0.03489949670249007513, 0.000000000000000000 ) ) ;
#133 = DIRECTION ( 'NONE',  ( -3.485384126420033333E-13, -1.000000000000000000, 0.000000000000000000 ) ) ;
#134 = VECTOR ( 'NONE', #225, 1000.000000000000114 ) ;
#135 = CARTESIAN_POINT ( 'NONE',  ( -2.846604824987382987, -5.059081103884319752, 7.000000000000000000 ) ) ;
#136 = CARTESIAN_POINT ( 'NONE',  ( -1.394874999943561011, -2.223730434814910062, 5.320972745794695591 ) ) ;
#137 = FACE_OUTER_BOUND ( 'NONE', #295, .T. ) ;
#138 = CARTESIAN_POINT ( 'NONE',  ( -18.94519211359817135, 7.540918895746568040, -6.426369105244412516 ) ) ;
#139 = LINE ( 'NONE', #135, #294 ) ;
#140 = CARTESIAN_POINT ( 'NONE',  ( -6.994875025828874548, 10.47738999221430234, 6.758789077511674570 ) ) ;
#141 = DIRECTION ( 'NONE',  ( 1.000000000000000000, 0.000000000000000000, 0.000000000000000000 ) ) ;
#142 = ORIENTED_EDGE ( 'NONE', *, *, #562, .T. ) ;
#143 = CC_DESIGN_PERSON_AND_ORGANIZATION_ASSIGNMENT ( #196, #153, ( #361 ) ) ;
#144 = CARTESIAN_POINT ( 'NONE',  ( -2.846604824987382987, -5.059081103884319752, 5.327597916784519327 ) ) ;
#145 = CARTESIAN_POINT ( 'NONE',  ( -1.091522743501208481, -0.8314751597095918489, -5.478581468896476458 ) ) ;
#146 = CARTESIAN_POINT ( 'NONE',  ( -0.1154426953836849429, 3.742922130493388622, -5.996421069694094719 ) ) ;
#147 = LINE ( 'NONE', #381, #229 ) ;
#148 = ORIENTED_EDGE ( 'NONE', *, *, #241, .F. ) ;
#149 = CARTESIAN_POINT ( 'NONE',  ( -3.645765441986447808, 7.633576839299838213, -6.436858345565287465 ) ) ;
#150 = VECTOR ( 'NONE', #360, 1000.000000000000114 ) ;
#151 = CARTESIAN_POINT ( 'NONE',  ( -6.994875025828874548, 10.47738999221430234, -6.758789077511675458 ) ) ;
#152 =( GEOMETRIC_REPRESENTATION_CONTEXT ( 3 ) GLOBAL_UNCERTAINTY_ASSIGNED_CONTEXT ( ( #34 ) ) GLOBAL_UNIT_ASSIGNED_CONTEXT ( ( #234, #62, #497 ) ) REPRESENTATION_CONTEXT ( 'NONE', 'WORKASPACE' ) );
#153 = PERSON_AND_ORGANIZATION_ROLE ( 'design_owner' ) ;
#154 = APPLICATION_CONTEXT ( 'configuration controlled 3d designs of mechanical parts and assemblies' ) ;
#155 = CARTESIAN_POINT ( 'NONE',  ( 1.413273706048157274, 1.460754352720367022, 5.738070783083370152 ) ) ;
#156 = EDGE_LOOP ( 'NONE', ( #202, #11, #524, #440 ) ) ;
#157 = COORDINATED_UNIVERSAL_TIME_OFFSET ( 1, 0, .AHEAD. ) ;
#158 = CARTESIAN_POINT ( 'NONE',  ( -69.88413394276419410, -40.47183154957589579, 7.000000000000000000 ) ) ;
#159 = CARTESIAN_POINT ( 'NONE',  ( -10.57744606323053027, -1.227969866569280644, 5.433696722842914717 ) ) ;
#160 = ORIENTED_EDGE ( 'NONE', *, *, #449, .F. ) ;
#161 = VECTOR ( 'NONE', #55, 1000.000000000000227 ) ;
#162 = CARTESIAN_POINT ( 'NONE',  ( -23.03592114560350268, 11.54013782009825206, 6.879096273416728913 ) ) ;
#163 = ORIENTED_EDGE ( 'NONE', *, *, #523, .T. ) ;
#164 = LINE ( 'NONE', #338, #249 ) ;
#165 = ORIENTED_EDGE ( 'NONE', *, *, #489, .T. ) ;
#166 = CARTESIAN_POINT ( 'NONE',  ( -18.94519211359817135, 7.540918895746568040, 6.426369105244415181 ) ) ;
#167 = ORIENTED_EDGE ( 'NONE', *, *, #119, .F. ) ;
#168 = AXIS2_PLACEMENT_3D ( 'NONE', #280, #12, #410 ) ;
#169 = DIRECTION ( 'NONE',  ( -0.9986120086232370685, -0.05233503773731754127, 0.005924530234325171146 ) ) ;
#170 = EDGE_CURVE ( 'NONE', #15, #175, #228, .T. ) ;
#171 = VERTEX_POINT ( 'NONE', #328 ) ;
#172 = CARTESIAN_POINT ( 'NONE',  ( -0.1154161255236817035, 3.742884659794891267, 5.996416827864985422 ) ) ;
#173 = DIRECTION ( 'NONE',  ( -1.000000000000000000, 3.485384126420033333E-13, 0.000000000000000000 ) ) ;
#174 = CARTESIAN_POINT ( 'NONE',  ( -17.87950527536434464, 6.169036122140490797, -6.271066628709013102 ) ) ;
#175 = VERTEX_POINT ( 'NONE', #151 ) ;
#176 = VECTOR ( 'NONE', #472, 1000.000000000000114 ) ;
#177 = AXIS2_PLACEMENT_3D ( 'NONE', #238, #421, #141 ) ;
#178 = CARTESIAN_POINT ( 'NONE',  ( -14.43747518705073141, 2.262203719805750080, -5.828797974881933186 ) ) ;
#179 = CALENDAR_DATE ( 2026, 27, 8 ) ;
#180 = CARTESIAN_POINT ( 'NONE',  ( -2.846604824987382987, -5.059081103884319752, -6.503485534507344568 ) ) ;
#181 = DESIGN_CONTEXT ( 'detailed design', #154, 'design' ) ;
#182 = CARTESIAN_POINT ( 'NONE',  ( 0.1312573155561916893, 3.380924570793871986, 5.955441535142953491 ) ) ;
#183 = PERSON_AND_ORGANIZATION_ROLE ( 'classification_officer' ) ;
#184 = LINE ( 'NONE', #362, #214 ) ;
#185 = PRODUCT_DEFINITION ( 'UNKNOWN', '', #296, #181 ) ;
#186 = CARTESIAN_POINT ( 'NONE',  ( -2.846604824987382987, -5.059081103884319752, -5.000000000000000000 ) ) ;
#187 = CARTESIAN_POINT ( 'NONE',  ( -1.040765121665585768, -0.4787116080806331775, 5.518515677746809622 ) ) ;
#188 = VECTOR ( 'NONE', #127, 1000.000000000000227 ) ;
#189 = LINE ( 'NONE', #451, #161 ) ;
#190 = EDGE_CURVE ( 'NONE', #298, #204, #544, .T. ) ;
#191 = LINE ( 'NONE', #414, #378 ) ;
#192 = CARTESIAN_POINT ( 'NONE',  ( -6.994875025828872772, 10.47738999221430234, -6.839894546441814605 ) ) ;
#193 = ORIENTED_EDGE ( 'NONE', *, *, #494, .T. ) ;
#194 = DIRECTION ( 'NONE',  ( -0.000000000000000000, -0.000000000000000000, -1.000000000000000000 ) ) ;
#195 = CARTESIAN_POINT ( 'NONE',  ( 0.3551250000566972265, -2.284841781425457352, -5.314054703192494955 ) ) ;
#196 = PERSON_AND_ORGANIZATION ( #339, #400 ) ;
#197 = CARTESIAN_POINT ( 'NONE',  ( -1.040318291896019209, 0.2276001758288153931, -5.598472924355377245 ) ) ;
#198 = EDGE_CURVE ( 'NONE', #501, #298, #19, .T. ) ;
#199 = CARTESIAN_POINT ( 'NONE',  ( 0.3551250000566972265, 3.001549528634499975, -6.839894546441814605 ) ) ;
#200 = EDGE_CURVE ( 'NONE', #75, #59, #355, .T. ) ;
#201 = LINE ( 'NONE', #566, #367 ) ;
#202 = ORIENTED_EDGE ( 'NONE', *, *, #81, .T. ) ;
#203 = DIRECTION ( 'NONE',  ( 0.05233595624294034437, -0.9986295347545741663, 0.000000000000000000 ) ) ;
#204 = VERTEX_POINT ( 'NONE', #195 ) ;
#205 = ADVANCED_FACE ( 'NONE', ( #459 ), #415, .T. ) ;
#206 = FACE_OUTER_BOUND ( 'NONE', #572, .T. ) ;
#207 = EDGE_LOOP ( 'NONE', ( #348, #125, #240, #315 ) ) ;
#208 = APPROVAL ( #350, 'UNSPECIFIED' ) ;
#209 = CARTESIAN_POINT ( 'NONE',  ( -8.071980441895290070, -2.962089301009908304, 5.237387644576053880 ) ) ;
#210 = ORIENTED_EDGE ( 'NONE', *, *, #445, .F. ) ;
#211 = B_SPLINE_CURVE_WITH_KNOTS ( 'NONE', 3,
 ( #379, #369, #237, #145, #10, #16, #197, #275, #555, #558, #375, #371 ),
 .UNSPECIFIED., .F., .F.,
 ( 4, 2, 2, 2, 2, 4 ),
 ( 0.000000000000000000, 0.001075217163368720084, 0.002150434326737440168, 0.002688042908421800319, 0.003225651490106160035, 0.004300868653474881204 ),
 .UNSPECIFIED. ) ;
#212 = CARTESIAN_POINT ( 'NONE',  ( 0.3551250000566972265, 3.001549528634499975, 7.000000000000000000 ) ) ;
#213 = EDGE_LOOP ( 'NONE', ( #36, #385, #470, #567, #458, #289, #210, #301, #419, #88, #467, #264 ) ) ;
#214 = VECTOR ( 'NONE', #270, 1000.000000000000000 ) ;
#215 = CARTESIAN_POINT ( 'NONE',  ( -1.394874999943561011, 1.976269565185000410, 5.865986263594100691 ) ) ;
#216 = CARTESIAN_POINT ( 'NONE',  ( -23.03592114560350268, 11.54013782009825206, 6.879096273416728913 ) ) ;
#217 = DIRECTION ( 'NONE',  ( -0.000000000000000000, 0.9936533736897814606, 0.1124854344122625388 ) ) ;
#218 = LINE ( 'NONE', #396, #482 ) ;
#219 = CARTESIAN_POINT ( 'NONE',  ( -2.260123282944291212, -4.745841028287424379, -5.035459997330865356 ) ) ;
#220 = CARTESIAN_POINT ( 'NONE',  ( -10.21500838427921387, -3.697644103227559320, 6.503485534507348120 ) ) ;
#221 = CC_DESIGN_APPROVAL ( #128, ( #185 ) ) ;
#222 = CARTESIAN_POINT ( 'NONE',  ( -0.6035205376108018216, -3.639126207244638866, -5.160744428211647694 ) ) ;
#223 = PERSON_AND_ORGANIZATION ( #339, #400 ) ;
#224 = CARTESIAN_POINT ( 'NONE',  ( -23.03592114560350268, 12.60815517220120086, -7.000000000000000000 ) ) ;
#225 = DIRECTION ( 'NONE',  ( 0.6796729177606267713, -0.7288599724985126427, 0.08250978943266890075 ) ) ;
#226 = FACE_OUTER_BOUND ( 'NONE', #438, .T. ) ;
#227 = CARTESIAN_POINT ( 'NONE',  ( -2.846604824987382987, -5.059081103884319752, -5.327597916784519327 ) ) ;
#228 = LINE ( 'NONE', #422, #399 ) ;
#229 = VECTOR ( 'NONE', #321, 1000.000000000000000 ) ;
#230 = CARTESIAN_POINT ( 'NONE',  ( -2.846604824987382987, -5.059081103884319752, 5.000000000000000000 ) ) ;
#231 = EDGE_CURVE ( 'NONE', #64, #276, #211, .T. ) ;
#232 = CARTESIAN_POINT ( 'NONE',  ( -1.448726270043842357, 6.058427314146597631, 6.839894546441814605 ) ) ;
#233 = VERTEX_POINT ( 'NONE', #460 ) ;
#234 =( LENGTH_UNIT ( ) NAMED_UNIT ( * ) SI_UNIT ( .MILLI., .METRE. ) );
#235 = CARTESIAN_POINT ( 'NONE',  ( -20.25388486837870516, 8.929371410749542548, -6.583547341082284454 ) ) ;
#236 = ORIENTED_EDGE ( 'NONE', *, *, #352, .T. ) ;
#237 = CARTESIAN_POINT ( 'NONE',  ( -1.234563142446286843, -1.529462512548840580, -5.399566580327396004 ) ) ;
#238 = CARTESIAN_POINT ( 'NONE',  ( 0.000000000000000000, 0.000000000000000000, 0.000000000000000000 ) ) ;
#239 = CARTESIAN_POINT ( 'NONE',  ( 0.3551250000564474263, 2.067983178930311805, 7.000000000000000000 ) ) ;
#240 = ORIENTED_EDGE ( 'NONE', *, *, #523, .F. ) ;
#241 = EDGE_CURVE ( 'NONE', #15, #335, #548, .T. ) ;
#242 = PERSON_AND_ORGANIZATION_ROLE ( 'creator' ) ;
#243 = CARTESIAN_POINT ( 'NONE',  ( 0.3551250000566972265, 12.60815517220120086, -7.000000000000000000 ) ) ;
#244 = ORIENTED_EDGE ( 'NONE', *, *, #85, .F. ) ;
#245 = EDGE_CURVE ( 'NONE', #286, #75, #147, .T. ) ;
#246 = PLANE ( 'NONE',  #563 ) ;
#247 = ORIENTED_EDGE ( 'NONE', *, *, #310, .F. ) ;
#248 = CARTESIAN_POINT ( 'NONE',  ( -3.716701824005764099, -4.898315988470651305, 5.018199237605860397 ) ) ;
#249 = VECTOR ( 'NONE', #29, 1000.000000000000000 ) ;
#250 = ORIENTED_EDGE ( 'NONE', *, *, #489, .F. ) ;
#251 = LOCAL_TIME ( 0, 49, 21.00000000000000000, #479 ) ;
#252 =( BOUNDED_CURVE ( )  B_SPLINE_CURVE ( 3, ( #216, #351, #43, #493 ),
 .UNSPECIFIED., .F., .F. ) 
 B_SPLINE_CURVE_WITH_KNOTS ( ( 4, 4 ),
 ( 3.874805315440086328, 3.956554119854400309 ),
 .UNSPECIFIED. ) 
 CURVE ( )  GEOMETRIC_REPRESENTATION_ITEM ( )  RATIONAL_B_SPLINE_CURVE ( ( 1.000000000000000000, 0.9994431719463756636, 0.9994431719463756636, 1.000000000000000000 ) ) 
 REPRESENTATION_ITEM ( '' )  );
#253 = CARTESIAN_POINT ( 'NONE',  ( -6.159235080415339958, -4.005835272886219656, 5.119231532825959441 ) ) ;
#254 = ORIENTED_EDGE ( 'NONE', *, *, #509, .T. ) ;
#255 = DIRECTION ( 'NONE',  ( 0.7313537027583412176, 0.6819983588408874420, -0.000000000000000000 ) ) ;
#256 = ORIENTED_EDGE ( 'NONE', *, *, #190, .F. ) ;
#257 = B_SPLINE_CURVE_WITH_KNOTS ( 'NONE', 3,
 ( #560, #248, #465, #253, #433, #209, #23, #70, #291, #159, #334, #336, #515, #431, #388, #166 ),
 .UNSPECIFIED., .F., .F.,
 ( 4, 2, 2, 2, 2, 2, 2, 4 ),
 ( 0.000000000000000000, 0.002600970095093021323, 0.005201940190186042645, 0.006502425237732555909, 0.007802910285279068305, 0.01040388038037209049, 0.01560582057055812967, 0.02080776076074417058 ),
 .UNSPECIFIED. ) ;
#258 = PRODUCT_RELATED_PRODUCT_CATEGORY ( 'detail', '', ( #361 ) ) ;
#259 = LINE ( 'NONE', #314, #76 ) ;
#260 = APPROVAL_DATE_TIME ( #538, #365 ) ;
#261 = ORIENTED_EDGE ( 'NONE', *, *, #198, .T. ) ;
#262 = VECTOR ( 'NONE', #435, 1000.000000000000114 ) ;
#263 = CARTESIAN_POINT ( 'NONE',  ( -6.173389071783079274, -3.999780770717780154, -5.119916926067322294 ) ) ;
#264 = ORIENTED_EDGE ( 'NONE', *, *, #562, .F. ) ;
#265 = CARTESIAN_POINT ( 'NONE',  ( 0.3551250000109473781, -2.723253226996779741, -5.264424818957035512 ) ) ;
#266 = CARTESIAN_POINT ( 'NONE',  ( -1.394874999943561011, -2.223730434814910062, -5.320972745794694703 ) ) ;
#267 = CARTESIAN_POINT ( 'NONE',  ( -1.234536082522798672, -1.529343570027420718, 5.399580045084379165 ) ) ;
#268 = APPLICATION_CONTEXT ( 'configuration controlled 3d designs of mechanical parts and assemblies' ) ;
#269 = CARTESIAN_POINT ( 'NONE',  ( 0.3551250000109473781, -2.723253226996780629, 5.264424818957035512 ) ) ;
#270 = DIRECTION ( 'NONE',  ( -0.000000000000000000, -0.000000000000000000, -1.000000000000000000 ) ) ;
#271 = ADVANCED_FACE ( 'NONE', ( #500 ), #324, .T. ) ;
#272 = CARTESIAN_POINT ( 'NONE',  ( -1.127255017630081957, -1.005829664611009866, 5.458843859439433288 ) ) ;
#273 = CC_DESIGN_PERSON_AND_ORGANIZATION_ASSIGNMENT ( #535, #183, ( #344 ) ) ;
#274 = CARTESIAN_POINT ( 'NONE',  ( -23.03592114560350268, 11.54013782009829825, 7.000000000000000000 ) ) ;
#275 = CARTESIAN_POINT ( 'NONE',  ( -1.092990794241189167, 0.5806537763005525932, -5.638439967865135571 ) ) ;
#276 = VERTEX_POINT ( 'NONE', #469 ) ;
#277 = VECTOR ( 'NONE', #366, 1000.000000000000114 ) ;
#278 = FACE_OUTER_BOUND ( 'NONE', #510, .T. ) ;
#279 = ORIENTED_EDGE ( 'NONE', *, *, #476, .T. ) ;
#280 = CARTESIAN_POINT ( 'NONE',  ( -1.394874999943561011, 1.976269565185000854, 7.000000000000000000 ) ) ;
#281 = DIRECTION ( 'NONE',  ( -0.000000000000000000, -0.000000000000000000, -1.000000000000000000 ) ) ;
#282 = DIRECTION ( 'NONE',  ( 0.000000000000000000, 0.000000000000000000, 1.000000000000000000 ) ) ;
#283 = ADVANCED_FACE ( 'NONE', ( #206 ), #246, .F. ) ;
#284 = APPROVAL_STATUS ( 'not_yet_approved' ) ;
#285 = CARTESIAN_POINT ( 'NONE',  ( -23.03592114560350268, 12.60815517220120086, 7.000000000000000000 ) ) ;
#286 = VERTEX_POINT ( 'NONE', #288 ) ;
#287 = EDGE_CURVE ( 'NONE', #276, #171, #427, .T. ) ;
#288 = CARTESIAN_POINT ( 'NONE',  ( -18.94519211359817135, 7.540918895746568040, 6.426369105244415181 ) ) ;
#289 = ORIENTED_EDGE ( 'NONE', *, *, #476, .F. ) ;
#290 = EDGE_CURVE ( 'NONE', #123, #84, #201, .T. ) ;
#291 = CARTESIAN_POINT ( 'NONE',  ( -9.529276192091355568, -1.999591181429739128, 5.346346182803447533 ) ) ;
#292 = VERTEX_POINT ( 'NONE', #382 ) ;
#293 = LINE ( 'NONE', #425, #262 ) ;
#294 = VECTOR ( 'NONE', #307, 1000.000000000000000 ) ;
#295 = EDGE_LOOP ( 'NONE', ( #117, #108, #27, #577 ) ) ;
#296 = PRODUCT_DEFINITION_FORMATION_WITH_SPECIFIED_SOURCE ( 'ANY', '', #361, .NOT_KNOWN. ) ;
#297 = LINE ( 'NONE', #243, #176 ) ;
#298 = VERTEX_POINT ( 'NONE', #74 ) ;
#299 = ADVANCED_FACE ( 'NONE', ( #26 ), #31, .T. ) ;
#300 = CARTESIAN_POINT ( 'NONE',  ( -4.954376963591368366, -4.484474009039209896, -5.065047762521066588 ) ) ;
#301 = ORIENTED_EDGE ( 'NONE', *, *, #200, .T. ) ;
#302 = CC_DESIGN_PERSON_AND_ORGANIZATION_ASSIGNMENT ( #358, #580, ( #296 ) ) ;
#303 = CARTESIAN_POINT ( 'NONE',  ( -2.846604824987382987, -5.059081103884319752, -5.000000000000000000 ) ) ;
#304 = APPROVAL_DATE_TIME ( #347, #208 ) ;
#305 = FACE_OUTER_BOUND ( 'NONE', #213, .T. ) ;
#306 = VECTOR ( 'NONE', #384, 1000.000000000000000 ) ;
#307 = DIRECTION ( 'NONE',  ( -0.000000000000000000, -0.000000000000000000, -1.000000000000000000 ) ) ;
#308 = PERSON_AND_ORGANIZATION ( #339, #400 ) ;
#309 = VERTEX_POINT ( 'NONE', #124 ) ;
#310 = EDGE_CURVE ( 'NONE', #337, #84, #164, .T. ) ;
#311 = CARTESIAN_POINT ( 'NONE',  ( -8.446328555618359601, -2.745180178998659404, -5.261942602535707003 ) ) ;
#312 = DATE_TIME_ROLE ( 'classification_date' ) ;
#313 = FACE_OUTER_BOUND ( 'NONE', #432, .T. ) ;
#314 = CARTESIAN_POINT ( 'NONE',  ( 0.3551250000566972265, 12.60815517220120086, 7.000000000000000000 ) ) ;
#315 = ORIENTED_EDGE ( 'NONE', *, *, #468, .T. ) ;
#316 = EDGE_CURVE ( 'NONE', #480, #298, #359, .T. ) ;
#317 = APPLICATION_PROTOCOL_DEFINITION ( 'international standard', 'config_control_design', 1994, #268 ) ;
#318 = CARTESIAN_POINT ( 'NONE',  ( 0.3551250000109473781, -2.723253226996779741, -5.264424818957035512 ) ) ;
#319 = CC_DESIGN_DATE_AND_TIME_ASSIGNMENT ( #526, #312, ( #344 ) ) ;
#320 = DIRECTION ( 'NONE',  ( -0.9986120086232371795, -0.05233503773731437714, -0.005924530234324812059 ) ) ;
#321 = DIRECTION ( 'NONE',  ( -0.000000000000000000, -0.000000000000000000, -1.000000000000000000 ) ) ;
#322 = EDGE_LOOP ( 'NONE', ( #475, #514, #167, #254 ) ) ;
#323 = CARTESIAN_POINT ( 'NONE',  ( -0.6375131954062542849, 4.444884897271351498, -6.075885990614199983 ) ) ;
#324 = PLANE ( 'NONE',  #430 ) ;
#325 = VECTOR ( 'NONE', #77, 1000.000000000000000 ) ;
#326 = VECTOR ( 'NONE', #194, 1000.000000000000000 ) ;
#327 = DIRECTION ( 'NONE',  ( -0.000000000000000000, -0.000000000000000000, -1.000000000000000000 ) ) ;
#328 = CARTESIAN_POINT ( 'NONE',  ( 0.3551250000564474263, 2.067983178930311805, -5.806811452729800926 ) ) ;
#329 = CARTESIAN_POINT ( 'NONE',  ( -0.9131558117480770287, 4.784688755421850459, -6.114353111655735695 ) ) ;
#330 = DIRECTION ( 'NONE',  ( -0.6796729177606267713, 0.7288599724985126427, 0.08250978943266890075 ) ) ;
#331 = APPROVAL_DATE_TIME ( #69, #128 ) ;
#332 = DIRECTION ( 'NONE',  ( -0.000000000000000000, -0.000000000000000000, -1.000000000000000000 ) ) ;
#333 = EDGE_CURVE ( 'NONE', #84, #59, #293, .T. ) ;
#334 = CARTESIAN_POINT ( 'NONE',  ( -11.24947534352793355, -0.6828503927219097269, 5.495406371746592633 ) ) ;
#335 = VERTEX_POINT ( 'NONE', #564 ) ;
#336 = CARTESIAN_POINT ( 'NONE',  ( -13.20455318623175067, 1.022537326510461142, 5.688462907877347874 ) ) ;
#337 = VERTEX_POINT ( 'NONE', #35 ) ;
#338 = CARTESIAN_POINT ( 'NONE',  ( -23.03592114560350268, 11.87161228793415191, 7.000000000000000000 ) ) ;
#339 = PERSON ( 'UNSPECIFIED', 'UNSPECIFIED', 'UNSPECIFIED', ('UNSPECIFIED'), ('UNSPECIFIED'), ('UNSPECIFIED') ) ;
#340 = ORIENTED_EDGE ( 'NONE', *, *, #245, .F. ) ;
#341 = DIRECTION ( 'NONE',  ( 0.000000000000000000, 0.9936533736897814606, 0.1124854344122625388 ) ) ;
#342 = AXIS2_PLACEMENT_3D ( 'NONE', #224, #90, #444 ) ;
#343 = ORIENTED_EDGE ( 'NONE', *, *, #452, .F. ) ;
#344 = SECURITY_CLASSIFICATION ( '', '', #2 ) ;
#345 = DIRECTION ( 'NONE',  ( 0.9986120086232371795, 0.05233503773731437714, -0.005924530234324812059 ) ) ;
#346 = ADVANCED_FACE ( 'NONE', ( #568 ), #517, .F. ) ;
#347 = DATE_AND_TIME ( #83, #49 ) ;
#348 = ORIENTED_EDGE ( 'NONE', *, *, #310, .T. ) ;
#349 = CARTESIAN_POINT ( 'NONE',  ( -0.6374960954314308204, 4.444863650470392002, 6.075883585393518693 ) ) ;
#350 = APPROVAL_STATUS ( 'not_yet_approved' ) ;
#351 = CARTESIAN_POINT ( 'NONE',  ( -21.61822091296472692, 10.26318709152289799, 6.734540474352236572 ) ) ;
#352 = EDGE_CURVE ( 'NONE', #292, #412, #390, .T. ) ;
#353 = CARTESIAN_POINT ( 'NONE',  ( -1.394874999943561011, -2.223730434814910062, 5.320972745794695591 ) ) ;
#354 = CARTESIAN_POINT ( 'NONE',  ( -1.127380764220178744, 0.7590097298487170629, 5.658630556903622377 ) ) ;
#355 =( BOUNDED_CURVE ( )  B_SPLINE_CURVE ( 3, ( #409, #235, #454, #116 ),
 .UNSPECIFIED., .F., .F. ) 
 B_SPLINE_CURVE_WITH_KNOTS ( ( 4, 4 ),
 ( 5.468223840914978595, 5.549972645329292575 ),
 .UNSPECIFIED. ) 
 CURVE ( )  GEOMETRIC_REPRESENTATION_ITEM ( )  RATIONAL_B_SPLINE_CURVE ( ( 1.000000000000000000, 0.9994431719463756636, 0.9994431719463756636, 1.000000000000000000 ) ) 
 REPRESENTATION_ITEM ( '' )  );
#356 = AXIS2_PLACEMENT_3D ( 'NONE', #158, #8, #111 ) ;
#357 = CARTESIAN_POINT ( 'NONE',  ( -13.20928844768828192, 1.026649603600847005, -5.688928433670470852 ) ) ;
#358 = PERSON_AND_ORGANIZATION ( #339, #400 ) ;
#359 = LINE ( 'NONE', #72, #188 ) ;
#360 = DIRECTION ( 'NONE',  ( -0.000000000000000000, 0.9936533736897814606, 0.1124854344122625388 ) ) ;
#361 = PRODUCT ( 'lente dot l8_v6_croquis4_D1_plus1', 'lente dot l8_v6_croquis4_D1_plus1', '', ( #450 ) ) ;
#362 = CARTESIAN_POINT ( 'NONE',  ( -1.394874999943561011, -2.223730434814909618, 7.000000000000000000 ) ) ;
#363 = MANIFOLD_SOLID_BREP ( 'Cortar-Extruir2', #106 ) ;
#364 = CARTESIAN_POINT ( 'NONE',  ( -11.24678723791021540, -0.6851860749068096057, -5.495141963420474340 ) ) ;
#365 = APPROVAL ( #483, 'UNSPECIFIED' ) ;
#366 = DIRECTION ( 'NONE',  ( 0.000000000000000000, -0.9936533736897814606, 0.1124854344122625388 ) ) ;
#367 = VECTOR ( 'NONE', #169, 1000.000000000000227 ) ;
#368 = FACE_OUTER_BOUND ( 'NONE', #322, .T. ) ;
#369 = CARTESIAN_POINT ( 'NONE',  ( -1.314338543873475373, -1.876693345665473078, -5.360258696774949705 ) ) ;
#370 = CARTESIAN_POINT ( 'NONE',  ( 0.3551249999651975298, -2.723253226996780185, -5.327597916784519327 ) ) ;
#371 = CARTESIAN_POINT ( 'NONE',  ( -1.394874999943561011, 1.976269565185000854, -5.796429114223417223 ) ) ;
#372 = ORIENTED_EDGE ( 'NONE', *, *, #404, .T. ) ;
#373 = EDGE_CURVE ( 'NONE', #412, #171, #297, .T. ) ;
#374 = CARTESIAN_POINT ( 'NONE',  ( -5.629019070786770662, 9.370759677855353686, -6.633514213116802338 ) ) ;
#375 = CARTESIAN_POINT ( 'NONE',  ( -1.314167363343947681, 1.628494847443690885, -5.757059660811843393 ) ) ;
#376 = VERTEX_POINT ( 'NONE', #162 ) ;
#377 = EDGE_CURVE ( 'NONE', #501, #24, #122, .T. ) ;
#378 = VECTOR ( 'NONE', #320, 1000.000000000000114 ) ;
#379 = CARTESIAN_POINT ( 'NONE',  ( -1.394874999943561011, -2.223730434814910062, -5.320972745794694703 ) ) ;
#380 = APPLICATION_PROTOCOL_DEFINITION ( 'international standard', 'config_control_design', 1994, #154 ) ;
#381 = CARTESIAN_POINT ( 'NONE',  ( -18.94519211359817135, 7.540918895746568040, 7.000000000000000000 ) ) ;
#382 = CARTESIAN_POINT ( 'NONE',  ( 0.3551250000566972265, 3.001549528634499975, 5.912494801853048543 ) ) ;
#383 = EDGE_LOOP ( 'NONE', ( #236, #142, #574, #461 ) ) ;
#384 = DIRECTION ( 'NONE',  ( -0.000000000000000000, -0.000000000000000000, -1.000000000000000000 ) ) ;
#385 = ORIENTED_EDGE ( 'NONE', *, *, #287, .F. ) ;
#386 = CARTESIAN_POINT ( 'NONE',  ( -1.470582603566247926, 1.972301897804295878, -5.795979958812949917 ) ) ;
#387 = EDGE_LOOP ( 'NONE', ( #193, #428, #247, #546 ) ) ;
#388 = CARTESIAN_POINT ( 'NONE',  ( -17.87813264845535954, 6.167269108470562422, 6.270866595875093097 ) ) ;
#389 = ORIENTED_EDGE ( 'NONE', *, *, #170, .T. ) ;
#390 = LINE ( 'NONE', #212, #306 ) ;
#391 = ORIENTED_EDGE ( 'NONE', *, *, #553, .F. ) ;
#392 = CARTESIAN_POINT ( 'NONE',  ( -16.77225510406512399, 4.832582587526371931, -6.119774880103934223 ) ) ;
#393 = PERSON_AND_ORGANIZATION ( #339, #400 ) ;
#394 = CARTESIAN_POINT ( 'NONE',  ( -1.394874999943561011, 1.976269565185000854, 5.796429114223418999 ) ) ;
#395 = CARTESIAN_POINT ( 'NONE',  ( 0.3551250000566972265, 3.001549528634499975, 5.912494801853048543 ) ) ;
#396 = CARTESIAN_POINT ( 'NONE',  ( -0.03063247170903194219, -2.271370833674211998, -5.315579666977519935 ) ) ;
#397 = CARTESIAN_POINT ( 'NONE',  ( -23.03592114560350268, 12.60815517220120086, 7.000000000000000000 ) ) ;
#398 = CARTESIAN_POINT ( 'NONE',  ( -10.21500838427921387, -3.697644103227559320, -6.503485534507344568 ) ) ;
#399 = VECTOR ( 'NONE', #281, 1000.000000000000000 ) ;
#400 = ORGANIZATION ( 'UNSPECIFIED', 'UNSPECIFIED', '' ) ;
#401 = LINE ( 'NONE', #441, #47 ) ;
#402 = PERSON_AND_ORGANIZATION_ROLE ( 'creator' ) ;
#403 = CARTESIAN_POINT ( 'NONE',  ( -1.394874999943561011, 1.976269565185000854, 5.796429114223418999 ) ) ;
#404 = EDGE_CURVE ( 'NONE', #233, #286, #257, .T. ) ;
#405 = PLANE ( 'NONE',  #58 ) ;
#406 = APPROVAL_ROLE ( '' ) ;
#407 = LINE ( 'NONE', #6, #277 ) ;
#408 = CARTESIAN_POINT ( 'NONE',  ( 0.3551249999651975298, -2.723253226996780185, 5.327597916784519327 ) ) ;
#409 = CARTESIAN_POINT ( 'NONE',  ( -18.94519211359817135, 7.540918895746568040, -6.426369105244412516 ) ) ;
#410 = DIRECTION ( 'NONE',  ( -0.9986295347545742773, -0.05233595624293717330, 0.000000000000000000 ) ) ;
#411 = CYLINDRICAL_SURFACE ( 'NONE', #356, 69.99999999999980105 ) ;
#412 = VERTEX_POINT ( 'NONE', #522 ) ;
#413 =( BOUNDED_SURFACE ( )  B_SPLINE_SURFACE ( 2, 1, ( 
 ( #528, #48 ),
 ( #44, #481 ),
 ( #215, #485 ) ),
 .UNSPECIFIED., .F., .F., .F. ) 
 B_SPLINE_SURFACE_WITH_KNOTS ( ( 3, 3 ),
 ( 2, 2 ),
 ( 0.000000000000000000, 1.000000000000000000 ),
 ( 0.000000000000000000, 1.000000000000000000 ),
 .UNSPECIFIED. ) 
 GEOMETRIC_REPRESENTATION_ITEM ( )  RATIONAL_B_SPLINE_SURFACE ( (
 ( 1.000000000000000000, 1.000000000000000000),
 ( 3.231801218513670193, 3.231801218513670193),
 ( 1.000000000000000000, 1.000000000000000000) ) ) 
 REPRESENTATION_ITEM ( '' )  SURFACE ( )  );
#414 = CARTESIAN_POINT ( 'NONE',  ( -1.387754305041973391, 1.976642744991745193, 5.796471359631915732 ) ) ;
#415 = PLANE ( 'NONE',  #463 ) ;
#416 = ADVANCED_FACE ( 'NONE', ( #137 ), #405, .F. ) ;
#417 = ORIENTED_EDGE ( 'NONE', *, *, #198, .F. ) ;
#418 = DIRECTION ( 'NONE',  ( -1.000000000000000000, 0.000000000000000000, 0.000000000000000000 ) ) ;
#419 = ORIENTED_EDGE ( 'NONE', *, *, #333, .F. ) ;
#420 = VECTOR ( 'NONE', #327, 1000.000000000000000 ) ;
#421 = DIRECTION ( 'NONE',  ( 0.000000000000000000, 0.000000000000000000, 1.000000000000000000 ) ) ;
#422 = CARTESIAN_POINT ( 'NONE',  ( -6.994875025828874548, 10.47738999221430234, 7.000000000000000000 ) ) ;
#423 = EDGE_CURVE ( 'NONE', #123, #175, #443, .T. ) ;
#424 = CALENDAR_DATE ( 2026, 27, 8 ) ;
#425 = CARTESIAN_POINT ( 'NONE',  ( -23.03592114560350268, 12.60815517220120086, -7.000000000000000000 ) ) ;
#426 = B_SPLINE_CURVE_WITH_KNOTS ( 'NONE', 3,
 ( #303, #219, #42, #222, #576, #265 ),
 .UNSPECIFIED., .F., .F.,
 ( 4, 2, 4 ),
 ( 0.000000000000000000, 0.001996494119117836388, 0.003992988238235672775 ),
 .UNSPECIFIED. ) ;
#427 = LINE ( 'NONE', #386, #38 ) ;
#428 = ORIENTED_EDGE ( 'NONE', *, *, #290, .T. ) ;
#429 = AXIS2_PLACEMENT_3D ( 'NONE', #79, #255, #519 ) ;
#430 = AXIS2_PLACEMENT_3D ( 'NONE', #503, #14, #474 ) ;
#431 = CARTESIAN_POINT ( 'NONE',  ( -16.76895539129553825, 4.828521513569937085, 6.119315150705019413 ) ) ;
#432 = EDGE_LOOP ( 'NONE', ( #30, #569, #250, #372 ) ) ;
#433 = CARTESIAN_POINT ( 'NONE',  ( -6.936916963199470487, -3.619105451226395154, 5.163010855818680689 ) ) ;
#434 = ORIENTED_EDGE ( 'NONE', *, *, #373, .F. ) ;
#435 = DIRECTION ( 'NONE',  ( 0.000000000000000000, -0.9936533736897814606, 0.1124854344122625388 ) ) ;
#436 = EDGE_LOOP ( 'NONE', ( #244, #256, #417, #131 ) ) ;
#437 = CARTESIAN_POINT ( 'NONE',  ( -4.540415514160765831, -4.628971769232971489, -5.048690052923965332 ) ) ;
#438 = EDGE_LOOP ( 'NONE', ( #434, #527, #343, #129 ) ) ;
#439 = CARTESIAN_POINT ( 'NONE',  ( -2.383328713366249740, 6.413285301805065508, 6.298716587745929907 ) ) ;
#440 = ORIENTED_EDGE ( 'NONE', *, *, #33, .T. ) ;
#441 = CARTESIAN_POINT ( 'NONE',  ( -8.981845694529432933, 12.60815517220120086, 7.000000000000000000 ) ) ;
#442 = CARTESIAN_POINT ( 'NONE',  ( -1.040877614602533141, 0.2321698866725886712, 5.598990233432112440 ) ) ;
#443 = LINE ( 'NONE', #130, #134 ) ;
#444 = DIRECTION ( 'NONE',  ( 0.000000000000000000, -0.9936533736897814606, 0.1124854344122625388 ) ) ;
#445 = EDGE_CURVE ( 'NONE', #75, #93, #496, .T. ) ;
#446 = APPROVAL_PERSON_ORGANIZATION ( #308, #208, #406 ) ;
#447 = CARTESIAN_POINT ( 'NONE',  ( -18.94519211359817135, 7.540918895746568040, -6.426369105244412516 ) ) ;
#448 = DATE_TIME_ROLE ( 'creation_date' ) ;
#449 = EDGE_CURVE ( 'NONE', #15, #292, #28, .T. ) ;
#450 = MECHANICAL_CONTEXT ( 'NONE', #268, 'mechanical' ) ;
#451 = CARTESIAN_POINT ( 'NONE',  ( -0.6838485580539450659, 13.04303477462088701, 7.049230065826236569 ) ) ;
#452 = EDGE_CURVE ( 'NONE', #309, #292, #259, .T. ) ;
#453 = CARTESIAN_POINT ( 'NONE',  ( -0.7423668819740020242, -3.935206599586729137, -5.327597916784519327 ) ) ;
#454 = CARTESIAN_POINT ( 'NONE',  ( -21.61822091296468074, 10.26318709152285535, -6.734540474352233019 ) ) ;
#455 = EDGE_LOOP ( 'NONE', ( #473, #20, #148, #389 ) ) ;
#456 = CARTESIAN_POINT ( 'NONE',  ( -6.994875025828874548, 10.47738999221430234, -6.758789077511675458 ) ) ;
#457 = CARTESIAN_POINT ( 'NONE',  ( -6.994875025828872772, 10.47738999221430234, 6.839894546441814605 ) ) ;
#458 = ORIENTED_EDGE ( 'NONE', *, *, #85, .T. ) ;
#459 = FACE_OUTER_BOUND ( 'NONE', #207, .T. ) ;
#460 = CARTESIAN_POINT ( 'NONE',  ( -2.846604824987382987, -5.059081103884319752, 5.000000000000000000 ) ) ;
#461 = ORIENTED_EDGE ( 'NONE', *, *, #449, .T. ) ;
#462 = ADVANCED_FACE ( 'NONE', ( #39 ), #413, .F. ) ;
#463 = AXIS2_PLACEMENT_3D ( 'NONE', #57, #418, #282 ) ;
#464 = CALENDAR_DATE ( 2026, 27, 8 ) ;
#465 = CARTESIAN_POINT ( 'NONE',  ( -4.549034324729157142, -4.645212691691345874, 5.046851517206813575 ) ) ;
#466 = DIRECTION ( 'NONE',  ( 0.9986295347545740553, 0.05233595624294033744, 0.000000000000000000 ) ) ;
#467 = ORIENTED_EDGE ( 'NONE', *, *, #423, .T. ) ;
#468 = EDGE_CURVE ( 'NONE', #376, #337, #573, .T. ) ;
#469 = CARTESIAN_POINT ( 'NONE',  ( -1.394874999943561011, 1.976269565185000854, -5.796429114223417223 ) ) ;
#470 = ORIENTED_EDGE ( 'NONE', *, *, #231, .F. ) ;
#471 = B_SPLINE_CURVE_WITH_KNOTS ( 'NONE', 3,
 ( #499, #9, #60, #554, #543, #230 ),
 .UNSPECIFIED., .F., .F.,
 ( 4, 2, 4 ),
 ( 3.318834807187760033E-14, 0.001993191866254305760, 0.003986383732475422791 ),
 .UNSPECIFIED. ) ;
#472 = DIRECTION ( 'NONE',  ( 0.000000000000000000, -0.9936533736897814606, 0.1124854344122625388 ) ) ;
#473 = ORIENTED_EDGE ( 'NONE', *, *, #423, .F. ) ;
#474 = DIRECTION ( 'NONE',  ( 2.081376414897577884E-10, 1.000000000000000000, 0.000000000000000000 ) ) ;
#475 = ORIENTED_EDGE ( 'NONE', *, *, #570, .T. ) ;
#476 = EDGE_CURVE ( 'NONE', #93, #24, #426, .T. ) ;
#477 = ADVANCED_BREP_SHAPE_REPRESENTATION ( 'lente dot l8_v6_croquis4_D1_plus1', ( #363, #177 ), #152 ) ;
#478 = CARTESIAN_POINT ( 'NONE',  ( -1.770984599449795249, 5.780608470118514752, 6.227095104702431883 ) ) ;
#479 = COORDINATED_UNIVERSAL_TIME_OFFSET ( 1, 0, .AHEAD. ) ;
#480 = VERTEX_POINT ( 'NONE', #353 ) ;
#481 = CARTESIAN_POINT ( 'NONE',  ( -0.9075306697980521919, -0.1237304348149260991, -5.865986263594098915 ) ) ;
#482 = VECTOR ( 'NONE', #98, 1000.000000000000227 ) ;
#483 = APPROVAL_STATUS ( 'not_yet_approved' ) ;
#484 = CARTESIAN_POINT ( 'NONE',  ( -23.03592114560350268, 11.54013782009825206, -6.879096273416728913 ) ) ;
#485 = CARTESIAN_POINT ( 'NONE',  ( -1.394874999943561011, 1.976269565185000410, -5.865986263594098915 ) ) ;
#486 = PLANE ( 'NONE',  #504 ) ;
#487 = B_SPLINE_CURVE_WITH_KNOTS ( 'NONE', 3,
 ( #394, #100, #530, #354, #498, #442, #491, #533, #187, #539, #272, #267, #41, #136 ),
 .UNSPECIFIED., .F., .F.,
 ( 4, 2, 2, 2, 2, 2, 4 ),
 ( 4.848699518061080308E-19, 0.001074770045781389812, 0.001612155068672084610, 0.002149540091562779191, 0.002686925114453473772, 0.003224310137344168787, 0.004299080183125557515 ),
 .UNSPECIFIED. ) ;
#488 = CARTESIAN_POINT ( 'NONE',  ( -4.298417309989350343, 8.222773118245870094, 6.503557660584298183 ) ) ;
#489 = EDGE_CURVE ( 'NONE', #233, #93, #139, .T. ) ;
#490 = COORDINATED_UNIVERSAL_TIME_OFFSET ( 1, 0, .AHEAD. ) ;
#491 = CARTESIAN_POINT ( 'NONE',  ( -1.022718589753846441, 0.05426382960666979727, 5.578850574428830811 ) ) ;
#492 = CARTESIAN_POINT ( 'NONE',  ( -6.307301893426086714, 9.929557587365660964, 6.696772314245740709 ) ) ;
#493 = CARTESIAN_POINT ( 'NONE',  ( -18.94519211359817135, 7.540918895746568040, 6.426369105244415181 ) ) ;
#494 = EDGE_CURVE ( 'NONE', #335, #123, #401, .T. ) ;
#495 = VECTOR ( 'NONE', #107, 1000.000000000000000 ) ;
#496 = B_SPLINE_CURVE_WITH_KNOTS ( 'NONE', 3,
 ( #447, #174, #392, #178, #357, #364, #52, #534, #311, #5, #263, #300, #437, #87, #82, #186 ),
 .UNSPECIFIED., .F., .F.,
 ( 4, 2, 2, 2, 2, 2, 2, 4 ),
 ( 0.000000000000000000, 0.005225300082522360903, 0.01045060016504471834, 0.01306325020630589792, 0.01567590024756707751, 0.01828855028882826056, 0.01959487530945885209, 0.02090120033008944014 ),
 .UNSPECIFIED. ) ;
#497 =( NAMED_UNIT ( * ) SI_UNIT ( $, .STERADIAN. ) SOLID_ANGLE_UNIT ( ) );
#498 = CARTESIAN_POINT ( 'NONE',  ( -1.093625826316168448, 0.5840707279637216143, 5.638826780110040460 ) ) ;
#499 = CARTESIAN_POINT ( 'NONE',  ( 0.3551250000109473781, -2.723253226996780629, 5.264424818957035512 ) ) ;
#500 = FACE_OUTER_BOUND ( 'NONE', #436, .T. ) ;
#501 = VERTEX_POINT ( 'NONE', #269 ) ;
#502 = CARTESIAN_POINT ( 'NONE',  ( -1.770903618263380386, 5.780516964818191994, -6.227084745945846045 ) ) ;
#503 = CARTESIAN_POINT ( 'NONE',  ( 0.3551250005320090164, -7.391488004478132823E-11, 7.000000000000000000 ) ) ;
#504 = AXIS2_PLACEMENT_3D ( 'NONE', #50, #173, #133 ) ;
#505 = APPROVAL_PERSON_ORGANIZATION ( #223, #365, #53 ) ;
#506 = CARTESIAN_POINT ( 'NONE',  ( -2.383270697099137525, 6.413227040045058835, -6.298709992287569115 ) ) ;
#507 = ORIENTED_EDGE ( 'NONE', *, *, #241, .T. ) ;
#508 = CARTESIAN_POINT ( 'NONE',  ( 0.3551250000566972265, 12.60815517220120086, 7.000000000000000000 ) ) ;
#509 = EDGE_CURVE ( 'NONE', #309, #80, #191, .T. ) ;
#510 = EDGE_LOOP ( 'NONE', ( #32, #340, #121, #163 ) ) ;
#511 = COORDINATED_UNIVERSAL_TIME_OFFSET ( 1, 0, .AHEAD. ) ;
#512 = LINE ( 'NONE', #239, #94 ) ;
#513 = CC_DESIGN_PERSON_AND_ORGANIZATION_ASSIGNMENT ( #393, #402, ( #296 ) ) ;
#514 = ORIENTED_EDGE ( 'NONE', *, *, #287, .T. ) ;
#515 = CARTESIAN_POINT ( 'NONE',  ( -14.42821775356789615, 2.252442830001658791, 5.827693004115485742 ) ) ;
#516 = ORIENTED_EDGE ( 'NONE', *, *, #452, .T. ) ;
#517 = PLANE ( 'NONE',  #86 ) ;
#518 = ORIENTED_EDGE ( 'NONE', *, *, #33, .F. ) ;
#519 = DIRECTION ( 'NONE',  ( -0.6819983588408874420, 0.7313537027583412176, 0.000000000000000000 ) ) ;
#520 = EDGE_LOOP ( 'NONE', ( #165, #279, #561, #559 ) ) ;
#521 = LOCAL_TIME ( 0, 49, 21.00000000000000000, #157 ) ;
#522 = CARTESIAN_POINT ( 'NONE',  ( 0.3551250000566972265, 3.001549528634499975, -5.912494801853048543 ) ) ;
#523 = EDGE_CURVE ( 'NONE', #376, #59, #549, .T. ) ;
#524 = ORIENTED_EDGE ( 'NONE', *, *, #570, .F. ) ;
#525 = CARTESIAN_POINT ( 'NONE',  ( 0.3551249999651975298, -2.723253226996780185, 7.000000000000000000 ) ) ;
#526 = DATE_AND_TIME ( #532, #97 ) ;
#527 = ORIENTED_EDGE ( 'NONE', *, *, #352, .F. ) ;
#528 = CARTESIAN_POINT ( 'NONE',  ( -1.394874999943561011, -2.223730434814910062, 5.865986263594100691 ) ) ;
#529 = COORDINATED_UNIVERSAL_TIME_OFFSET ( 1, 0, .AHEAD. ) ;
#530 = CARTESIAN_POINT ( 'NONE',  ( -1.234630267802966141, 1.282287552250058305, 5.717867645741297800 ) ) ;
#531 = CARTESIAN_POINT ( 'NONE',  ( -0.07925871954190913393, -2.269672767682391790, 7.000000000000000000 ) ) ;
#532 = CALENDAR_DATE ( 2026, 27, 8 ) ;
#533 = CARTESIAN_POINT ( 'NONE',  ( -1.022667581830746020, -0.3009204846150540513, 5.538642325818660339 ) ) ;
#534 = CARTESIAN_POINT ( 'NONE',  ( -9.168106562484524602, -2.265010598924417806, -5.316299670338580086 ) ) ;
#535 = PERSON_AND_ORGANIZATION ( #339, #400 ) ;
#536 = CARTESIAN_POINT ( 'NONE',  ( -18.94519211359818911, 7.540918895746552053, 6.503485534507348120 ) ) ;
#537 = CARTESIAN_POINT ( 'NONE',  ( -6.994875025828874548, 10.47738999221430234, 6.758789077511674570 ) ) ;
#538 = DATE_AND_TIME ( #179, #251 ) ;
#539 = CARTESIAN_POINT ( 'NONE',  ( -1.093493919861270536, -0.8308194969048432466, 5.478655692481221529 ) ) ;
#540 = CARTESIAN_POINT ( 'NONE',  ( -0.7423668819740020242, -3.935206599586729137, 5.327597916784519327 ) ) ;
#541 = CARTESIAN_POINT ( 'NONE',  ( -2.846604824987382987, -5.059081103884319752, -5.000000000000000000 ) ) ;
#542 = VECTOR ( 'NONE', #330, 1000.000000000000114 ) ;
#543 = CARTESIAN_POINT ( 'NONE',  ( -2.260328794758161397, -4.745950792246729222, 5.035447571622896135 ) ) ;
#544 = LINE ( 'NONE', #61, #495 ) ;
#545 = ADVANCED_FACE ( 'NONE', ( #368 ), #56, .F. ) ;
#546 = ORIENTED_EDGE ( 'NONE', *, *, #114, .T. ) ;
#547 = CARTESIAN_POINT ( 'NONE',  ( 0.1312382564655795725, 3.380956869083463712, -5.955445191435209118 ) ) ;
#548 = LINE ( 'NONE', #155, #542 ) ;
#549 = LINE ( 'NONE', #274, #420 ) ;
#550 = FACE_OUTER_BOUND ( 'NONE', #383, .T. ) ;
#551 = LOCAL_TIME ( 0, 49, 21.00000000000000000, #511 ) ;
#552 = B_SPLINE_CURVE_WITH_KNOTS ( 'NONE', 3,
 ( #112, #547, #146, #323, #329, #502, #506, #149, #105, #374, #65, #456 ),
 .UNSPECIFIED., .F., .F.,
 ( 4, 2, 2, 2, 2, 4 ),
 ( 5.421010862427522170E-20, 0.001317373638865555882, 0.002634747277731111764, 0.005269494555462220925, 0.007904241833193331387, 0.01053898911092444185 ),
 .UNSPECIFIED. ) ;
#553 = EDGE_CURVE ( 'NONE', #501, #233, #471, .T. ) ;
#554 = CARTESIAN_POINT ( 'NONE',  ( -1.688800069232066603, -4.405520224363512760, 5.073985638648562890 ) ) ;
#555 = CARTESIAN_POINT ( 'NONE',  ( -1.126772622086070541, 0.7559124068803506624, -5.658279927872573722 ) ) ;
#556 = PERSON_AND_ORGANIZATION ( #339, #400 ) ;
#557 = ADVANCED_FACE ( 'NONE', ( #101 ), #4, .F. ) ;
#558 = CARTESIAN_POINT ( 'NONE',  ( -1.234222067970938364, 1.280553300889269552, -5.717671321728448497 ) ) ;
#559 = ORIENTED_EDGE ( 'NONE', *, *, #553, .T. ) ;
#560 = CARTESIAN_POINT ( 'NONE',  ( -2.846604824987382987, -5.059081103884319752, 5.000000000000000000 ) ) ;
#561 = ORIENTED_EDGE ( 'NONE', *, *, #377, .F. ) ;
#562 = EDGE_CURVE ( 'NONE', #412, #175, #552, .T. ) ;
#563 = AXIS2_PLACEMENT_3D ( 'NONE', #285, #120, #341 ) ;
#564 = CARTESIAN_POINT ( 'NONE',  ( -8.981845694529427604, 12.60815517220120086, 7.000000000000000000 ) ) ;
#565 = ORIENTED_EDGE ( 'NONE', *, *, #468, .F. ) ;
#566 = CARTESIAN_POINT ( 'NONE',  ( -0.7666768565782249301, 13.03869392743343703, -7.048738665007272530 ) ) ;
#567 = ORIENTED_EDGE ( 'NONE', *, *, #22, .F. ) ;
#568 = FACE_OUTER_BOUND ( 'NONE', #387, .T. ) ;
#569 = ORIENTED_EDGE ( 'NONE', *, *, #445, .T. ) ;
#570 = EDGE_CURVE ( 'NONE', #80, #276, #7, .T. ) ;
#571 = CARTESIAN_POINT ( 'NONE',  ( -0.6835572876454348856, 13.04305003945616726, 7.000000000000000000 ) ) ;
#572 = EDGE_LOOP ( 'NONE', ( #507, #67, #565, #73, #78, #391, #261, #71, #518, #103, #516, #160 ) ) ;
#573 = LINE ( 'NONE', #397, #150 ) ;
#574 = ORIENTED_EDGE ( 'NONE', *, *, #170, .F. ) ;
#575 = PRODUCT_DEFINITION_SHAPE ( 'NONE', 'NONE',  #185 ) ;
#576 = CARTESIAN_POINT ( 'NONE',  ( -0.09106104864206086835, -3.215973670137249663, -5.208646944541281520 ) ) ;
#577 = ORIENTED_EDGE ( 'NONE', *, *, #316, .T. ) ;
#578 = DIRECTION ( 'NONE',  ( -0.03489949670249008207, -0.9993908270190960952, 0.000000000000000000 ) ) ;
#579 = CC_DESIGN_APPROVAL ( #365, ( #344 ) ) ;
#580 = PERSON_AND_ORGANIZATION_ROLE ( 'design_supplier' ) ;
#581 = CARTESIAN_POINT ( 'NONE',  ( -2.846604824987382987, -5.059081103884319752, 6.503485534507348120 ) ) ;
ENDSEC;
END-ISO-10303-21;
