ISO-10303-21;
HEADER;
FILE_DESCRIPTION (( 'STEP AP203' ),
    '1' );
FILE_NAME ('lente dot l8_original_export.STEP',
    '2026-08-26T22:47:05',
    ( '' ),
    ( '' ),
    'SwSTEP 2.0',
    'SolidWorks 2026',
    '' );
FILE_SCHEMA (( 'CONFIG_CONTROL_DESIGN' ));
ENDSEC;

DATA;
#1 = LINE ( 'NONE', #184, #562 ) ;
#2 = EDGE_CURVE ( 'NONE', #101, #411, #332, .T. ) ;
#3 = DIRECTION ( 'NONE',  ( 0.9993908270190959842, -0.03489949670249007513, 0.000000000000000000 ) ) ;
#4 = LINE ( 'NONE', #141, #427 ) ;
#5 = ORIENTED_EDGE ( 'NONE', *, *, #202, .T. ) ;
#6 = EDGE_CURVE ( 'NONE', #278, #53, #150, .T. ) ;
#7 = VERTEX_POINT ( 'NONE', #115 ) ;
#8 = LINE ( 'NONE', #560, #87 ) ;
#9 = B_SPLINE_CURVE_WITH_KNOTS ( 'NONE', 3,
 ( #283, #569, #167, #178, #358, #214, #352, #526, #476, #83, #434, #49 ),
 .UNSPECIFIED., .F., .F.,
 ( 4, 2, 2, 2, 2, 4 ),
 ( 0.000000000000000000, 0.001075217163368720084, 0.002150434326737440168, 0.002688042908421800319, 0.003225651490106160035, 0.004300868653474881204 ),
 .UNSPECIFIED. ) ;
#10 = EDGE_LOOP ( 'NONE', ( #333, #509, #331, #190 ) ) ;
#11 = CARTESIAN_POINT ( 'NONE',  ( 0.3551250000109473781, -2.723253226996780629, 5.264424818957035512 ) ) ;
#12 = APPROVAL_PERSON_ORGANIZATION ( #429, #153, #168 ) ;
#13 = ORIENTED_EDGE ( 'NONE', *, *, #6, .T. ) ;
#14 = PRODUCT ( 'lente dot l8_original_export', 'lente dot l8_original_export', '', ( #296 ) ) ;
#15 = CARTESIAN_POINT ( 'NONE',  ( -1.688800069232066603, -4.405520224363512760, 5.073985638648562890 ) ) ;
#16 = EDGE_CURVE ( 'NONE', #335, #462, #506, .T. ) ;
#17 = ORIENTED_EDGE ( 'NONE', *, *, #222, .T. ) ;
#18 = LINE ( 'NONE', #430, #254 ) ;
#19 = CARTESIAN_POINT ( 'NONE',  ( 0.3551249999651975298, -2.723253226996780185, 7.000000000000000000 ) ) ;
#20 = PERSON_AND_ORGANIZATION ( #112, #290 ) ;
#21 = FACE_OUTER_BOUND ( 'NONE', #366, .T. ) ;
#22 = B_SPLINE_SURFACE_WITH_KNOTS ( 'NONE', 2, 1, ( 
 ( #556, #61 ),
 ( #387, #207 ),
 ( #334, #30 ) ),
 .UNSPECIFIED., .F., .F., .F.,
 ( 3, 3 ),
 ( 2, 2 ),
 ( 0.5008207051229819351, 0.5020133117822229707 ),
 ( 0.000000000000000000, 1.000000000000000000 ),
 .UNSPECIFIED. ) ;
#23 = DIRECTION ( 'NONE',  ( -1.000000000000000000, 3.485384126420033333E-13, 0.000000000000000000 ) ) ;
#24 = CALENDAR_DATE ( 2026, 27, 8 ) ;
#25 = VECTOR ( 'NONE', #69, 1000.000000000000114 ) ;
#26 = DIRECTION ( 'NONE',  ( 0.000000000000000000, -0.9936533736897814606, 0.1124854344122625388 ) ) ;
#27 = EDGE_CURVE ( 'NONE', #154, #111, #249, .T. ) ;
#28 = DIRECTION ( 'NONE',  ( 0.000000000000000000, 0.000000000000000000, 1.000000000000000000 ) ) ;
#29 =( LENGTH_UNIT ( ) NAMED_UNIT ( * ) SI_UNIT ( .MILLI., .METRE. ) );
#30 = CARTESIAN_POINT ( 'NONE',  ( -6.994875025828872772, 10.47738999221430234, -6.839894546441814605 ) ) ;
#31 = CARTESIAN_POINT ( 'NONE',  ( -18.94519211359817135, 7.540918895746568040, 6.426369105244415181 ) ) ;
#32 = PERSON_AND_ORGANIZATION ( #112, #290 ) ;
#33 = ADVANCED_BREP_SHAPE_REPRESENTATION ( 'lente dot l8_original_export', ( #48, #245 ), #227 ) ;
#34 = LINE ( 'NONE', #525, #77 ) ;
#35 = LINE ( 'NONE', #38, #187 ) ;
#36 = CC_DESIGN_SECURITY_CLASSIFICATION ( #494, ( #351 ) ) ;
#37 = DIRECTION ( 'NONE',  ( -0.000000000000000000, 0.9936533736897814606, 0.1124854344122625388 ) ) ;
#38 = CARTESIAN_POINT ( 'NONE',  ( -18.94519211359817135, 7.540918895746568040, 7.000000000000000000 ) ) ;
#39 = EDGE_CURVE ( 'NONE', #287, #285, #8, .T. ) ;
#40 = CARTESIAN_POINT ( 'NONE',  ( -2.383270697099137525, 6.413227040045058835, -6.298709992287569115 ) ) ;
#41 = DIRECTION ( 'NONE',  ( 0.9993830276160453607, -0.03489922434133396756, -0.003950728206264357729 ) ) ;
#42 = CARTESIAN_POINT ( 'NONE',  ( 0.3551249999651975298, -2.723253226996780185, 5.327597916784519327 ) ) ;
#43 = CARTESIAN_POINT ( 'NONE',  ( -0.08590854173393609738, -2.269440550774463272, 5.315798182524555493 ) ) ;
#44 = CARTESIAN_POINT ( 'NONE',  ( -0.6375131954062542849, 4.444884897271351498, -6.075885990614199983 ) ) ;
#45 = AXIS2_PLACEMENT_3D ( 'NONE', #305, #216, #355 ) ;
#46 = CARTESIAN_POINT ( 'NONE',  ( -3.278073379930583897, -4.979360001396816671, -5.009024739494249090 ) ) ;
#47 = CC_DESIGN_DATE_AND_TIME_ASSIGNMENT ( #478, #303, ( #375 ) ) ;
#48 = MANIFOLD_SOLID_BREP ( 'Cortar-Extruir2', #105 ) ;
#49 = CARTESIAN_POINT ( 'NONE',  ( -1.394874999943561011, 1.976269565185000854, -5.796429114223418999 ) ) ;
#50 = ORIENTED_EDGE ( 'NONE', *, *, #222, .F. ) ;
#51 = CARTESIAN_POINT ( 'NONE',  ( -0.9131553968141893352, 4.784689529730151492, 6.114353199310424536 ) ) ;
#52 = EDGE_CURVE ( 'NONE', #454, #553, #412, .T. ) ;
#53 = VERTEX_POINT ( 'NONE', #196 ) ;
#54 = AXIS2_PLACEMENT_3D ( 'NONE', #86, #89, #261 ) ;
#55 = VERTEX_POINT ( 'NONE', #338 ) ;
#56 = APPLICATION_CONTEXT ( 'configuration controlled 3d designs of mechanical parts and assemblies' ) ;
#57 = ORIENTED_EDGE ( 'NONE', *, *, #27, .T. ) ;
#58 = VERTEX_POINT ( 'NONE', #152 ) ;
#59 = EDGE_LOOP ( 'NONE', ( #456, #492, #295, #284 ) ) ;
#60 = ORIENTED_EDGE ( 'NONE', *, *, #160, .F. ) ;
#61 = CARTESIAN_POINT ( 'NONE',  ( 0.3551250000566972265, 3.001549528634499975, -6.839894546441814605 ) ) ;
#62 = FACE_OUTER_BOUND ( 'NONE', #286, .T. ) ;
#63 = CC_DESIGN_APPROVAL ( #153, ( #375 ) ) ;
#64 = UNCERTAINTY_MEASURE_WITH_UNIT (LENGTH_MEASURE( 1.000000000000000082E-05 ), #29, 'distance_accuracy_value', 'NONE');
#65 = ORIENTED_EDGE ( 'NONE', *, *, #94, .F. ) ;
#66 = DIRECTION ( 'NONE',  ( 0.000000000000000000, -0.9936533736897814606, 0.1124854344122625388 ) ) ;
#67 = CARTESIAN_POINT ( 'NONE',  ( -0.7666768565782249301, 13.03869392743343703, -7.048738665007272530 ) ) ;
#68 = CARTESIAN_POINT ( 'NONE',  ( -1.394874999943561011, -2.223730434814910062, -5.320972745794694703 ) ) ;
#69 = DIRECTION ( 'NONE',  ( -0.000000000000000000, 0.9936533736897814606, 0.1124854344122625388 ) ) ;
#70 = ORIENTED_EDGE ( 'NONE', *, *, #268, .T. ) ;
#71 = CARTESIAN_POINT ( 'NONE',  ( -1.394874999943561011, 1.976269565185000854, 7.000000000000000000 ) ) ;
#72 = B_SPLINE_CURVE_WITH_KNOTS ( 'NONE', 3,
 ( #419, #459, #294, #204, #423, #157, #79, #519, #165, #198, #467, #289, #120, #256, #563, #426 ),
 .UNSPECIFIED., .F., .F.,
 ( 4, 2, 2, 2, 2, 2, 2, 4 ),
 ( 0.000000000000000000, 0.002600970095093021323, 0.005201940190186042645, 0.006502425237732555909, 0.007802910285279068305, 0.01040388038037209049, 0.01560582057055812967, 0.02080776076074417058 ),
 .UNSPECIFIED. ) ;
#73 = ADVANCED_FACE ( 'NONE', ( #62 ), #108, .F. ) ;
#74 = CARTESIAN_POINT ( 'NONE',  ( 0.3551250000566972265, -2.284841781425457352, -5.314054703192494955 ) ) ;
#75 = B_SPLINE_SURFACE_WITH_KNOTS ( 'NONE', 2, 1, ( 
 ( #539, #436 ),
 ( #131, #398 ),
 ( #42, #179 ) ),
 .UNSPECIFIED., .F., .F., .F.,
 ( 3, 3 ),
 ( 2, 2 ),
 ( 0.4988120746294950059, 0.4994128454637969949 ),
 ( 0.000000000000000000, 1.000000000000000000 ),
 .UNSPECIFIED. ) ;
#76 = LINE ( 'NONE', #485, #78 ) ;
#77 = VECTOR ( 'NONE', #37, 1000.000000000000114 ) ;
#78 = VECTOR ( 'NONE', #529, 1000.000000000000114 ) ;
#79 = CARTESIAN_POINT ( 'NONE',  ( -8.445166023051415394, -2.729959031358991872, 5.263665695769042863 ) ) ;
#80 = CARTESIAN_POINT ( 'NONE',  ( -6.994875025828874548, 10.47738999221430234, 7.000000000000000000 ) ) ;
#81 = CARTESIAN_POINT ( 'NONE',  ( 0.000000000000000000, 0.000000000000000000, 0.000000000000000000 ) ) ;
#82 = CARTESIAN_POINT ( 'NONE',  ( -1.394874999943561011, 1.976269565185000410, 5.865986263594100691 ) ) ;
#83 = CARTESIAN_POINT ( 'NONE',  ( -1.234222067970938364, 1.280553300889269552, -5.717671321728448497 ) ) ;
#84 = DIRECTION ( 'NONE',  ( -0.9993908270190958731, -0.03489949670249428010, 0.000000000000000000 ) ) ;
#85 = CARTESIAN_POINT ( 'NONE',  ( -23.03592114560350268, 12.60815517220120086, 7.000000000000000000 ) ) ;
#86 = CARTESIAN_POINT ( 'NONE',  ( -0.6835572876454348856, 13.04305003945616726, 7.000000000000000000 ) ) ;
#87 = VECTOR ( 'NONE', #106, 1000.000000000000114 ) ;
#88 = CARTESIAN_POINT ( 'NONE',  ( -0.9075306697980521919, -0.1237304348149260991, -5.865986263594098915 ) ) ;
#89 = DIRECTION ( 'NONE',  ( 0.05233595624294034437, -0.9986295347545741663, 0.000000000000000000 ) ) ;
#90 = CARTESIAN_POINT ( 'NONE',  ( -6.307292799264660133, 9.929550341479966846, -6.696771493983243673 ) ) ;
#91 = CARTESIAN_POINT ( 'NONE',  ( -1.127255017630081957, -1.005829664611009866, 5.458843859439433288 ) ) ;
#92 = APPROVAL ( #266, 'UNSPECIFIED' ) ;
#93 = CARTESIAN_POINT ( 'NONE',  ( -18.94519211359818911, 7.540918895746552053, 6.503485534507348120 ) ) ;
#94 = EDGE_CURVE ( 'NONE', #154, #278, #124, .T. ) ;
#95 = CARTESIAN_POINT ( 'NONE',  ( -4.540415514160765831, -4.628971769232971489, -5.048690052923965332 ) ) ;
#96 = VECTOR ( 'NONE', #174, 1000.000000000000114 ) ;
#97 = CARTESIAN_POINT ( 'NONE',  ( -18.94519211359817135, 7.540918895746568040, -6.426369105244412516 ) ) ;
#98 = ORIENTED_EDGE ( 'NONE', *, *, #328, .F. ) ;
#99 = CARTESIAN_POINT ( 'NONE',  ( -6.994875025828874548, 10.47738999221430234, 6.758789077511674570 ) ) ;
#100 = ADVANCED_FACE ( 'NONE', ( #516 ), #270, .F. ) ;
#101 = VERTEX_POINT ( 'NONE', #208 ) ;
#102 = CARTESIAN_POINT ( 'NONE',  ( -1.127380764220178744, 0.7590097298487170629, 5.658630556903622377 ) ) ;
#103 = CARTESIAN_POINT ( 'NONE',  ( 0.3551250000566972265, 3.001549528634499975, 5.912494801853048543 ) ) ;
#104 = ORIENTED_EDGE ( 'NONE', *, *, #94, .T. ) ;
#105 = CLOSED_SHELL ( 'NONE', ( #119, #188, #504, #466, #451, #308, #435, #406, #518, #100, #73, #548, #531, #384 ) ) ;
#106 = DIRECTION ( 'NONE',  ( -0.9993830276160452497, -0.03489922434133817253, -0.003950728206264833911 ) ) ;
#107 = ORIENTED_EDGE ( 'NONE', *, *, #126, .F. ) ;
#108 = CYLINDRICAL_SURFACE ( 'NONE', #312, 69.99999999999980105 ) ;
#109 = VERTEX_POINT ( 'NONE', #356 ) ;
#110 = CARTESIAN_POINT ( 'NONE',  ( -21.61822091296468074, 10.26318709152285535, -6.734540474352233019 ) ) ;
#111 = VERTEX_POINT ( 'NONE', #388 ) ;
#112 = PERSON ( 'UNSPECIFIED', 'UNSPECIFIED', 'UNSPECIFIED', ('UNSPECIFIED'), ('UNSPECIFIED'), ('UNSPECIFIED') ) ;
#113 = EDGE_LOOP ( 'NONE', ( #558, #329, #424, #70 ) ) ;
#114 = DIRECTION ( 'NONE',  ( -0.9993830276160453607, 0.03489922434133396756, -0.003950728206264357729 ) ) ;
#115 = CARTESIAN_POINT ( 'NONE',  ( 0.3551250000564474263, 2.037380911795548144, -5.803347156825617859 ) ) ;
#116 = VECTOR ( 'NONE', #117, 1000.000000000000000 ) ;
#117 = DIRECTION ( 'NONE',  ( -0.000000000000000000, -0.000000000000000000, -1.000000000000000000 ) ) ;
#118 = CARTESIAN_POINT ( 'NONE',  ( 0.3551250000566972265, 12.60815517220120086, -7.000000000000000000 ) ) ;
#119 = ADVANCED_FACE ( 'NONE', ( #521 ), #532, .F. ) ;
#120 = CARTESIAN_POINT ( 'NONE',  ( -14.42821775356789615, 2.252442830001658791, 5.827693004115485742 ) ) ;
#121 = CARTESIAN_POINT ( 'NONE',  ( 0.3551250000556511188, -1.237747038088879550E-13, 7.000000000000000000 ) ) ;
#122 = DIRECTION ( 'NONE',  ( 0.000000000000000000, 0.000000000000000000, 1.000000000000000000 ) ) ;
#123 = CARTESIAN_POINT ( 'NONE',  ( -1.688194259797113572, -4.405153456069165863, -5.074027158248894054 ) ) ;
#124 = B_SPLINE_CURVE_WITH_KNOTS ( 'NONE', 3,
 ( #11, #246, #417, #15, #205, #380 ),
 .UNSPECIFIED., .F., .F.,
 ( 4, 2, 4 ),
 ( 3.318834807187760033E-14, 0.001993191866254305760, 0.003986383732475422791 ),
 .UNSPECIFIED. ) ;
#125 = COORDINATED_UNIVERSAL_TIME_OFFSET ( 1, 0, .AHEAD. ) ;
#126 = EDGE_CURVE ( 'NONE', #53, #111, #489, .T. ) ;
#127 = CARTESIAN_POINT ( 'NONE',  ( -6.994875025828874548, 10.47738999221430234, 6.758789077511674570 ) ) ;
#128 = CARTESIAN_POINT ( 'NONE',  ( -1.394874999943561011, 1.976269565185000854, 7.000000000000000000 ) ) ;
#129 = SECURITY_CLASSIFICATION_LEVEL ( 'unclassified' ) ;
#130 = PLANE ( 'NONE',  #321 ) ;
#131 = CARTESIAN_POINT ( 'NONE',  ( -0.7423668819740020242, -3.935206599586729137, 5.327597916784519327 ) ) ;
#132 = CARTESIAN_POINT ( 'NONE',  ( 0.3551250000109473781, -2.723253226996779741, -5.264424818957035512 ) ) ;
#133 = PERSON_AND_ORGANIZATION ( #112, #290 ) ;
#134 = CARTESIAN_POINT ( 'NONE',  ( 0.3551250000566972265, 3.001549528634499975, -5.912494801853048543 ) ) ;
#135 = CARTESIAN_POINT ( 'NONE',  ( -23.03592114560350268, 11.87161228793415191, 7.000000000000000000 ) ) ;
#136 = EDGE_CURVE ( 'NONE', #55, #376, #470, .T. ) ;
#137 = EDGE_CURVE ( 'NONE', #457, #330, #35, .T. ) ;
#138 = LINE ( 'NONE', #433, #579 ) ;
#139 = CARTESIAN_POINT ( 'NONE',  ( -1.770984599449795249, 5.780608470118514752, 6.227095104702431883 ) ) ;
#140 = ORIENTED_EDGE ( 'NONE', *, *, #232, .F. ) ;
#141 = CARTESIAN_POINT ( 'NONE',  ( 2.198389076633395778, 0.6188211927258228107, -5.642760668152244641 ) ) ;
#142 = DATE_AND_TIME ( #343, #144 ) ;
#143 = ORIENTED_EDGE ( 'NONE', *, *, #359, .T. ) ;
#144 = LOCAL_TIME ( 0, 47, 4.000000000000000000, #561 ) ;
#145 = CARTESIAN_POINT ( 'NONE',  ( -23.03592114560350268, 11.54013782009825206, 6.879096273416728913 ) ) ;
#146 = VERTEX_POINT ( 'NONE', #166 ) ;
#147 = CARTESIAN_POINT ( 'NONE',  ( 0.1312573155561916893, 3.380924570793871986, 5.955441535142953491 ) ) ;
#148 = EDGE_CURVE ( 'NONE', #285, #109, #306, .T. ) ;
#149 = EDGE_LOOP ( 'NONE', ( #156, #240, #370, #5 ) ) ;
#150 = LINE ( 'NONE', #501, #453 ) ;
#151 = ORIENTED_EDGE ( 'NONE', *, *, #275, .F. ) ;
#152 = CARTESIAN_POINT ( 'NONE',  ( -8.981845694529427604, 12.60815517220120086, 7.000000000000000000 ) ) ;
#153 = APPROVAL ( #299, 'UNSPECIFIED' ) ;
#154 = VERTEX_POINT ( 'NONE', #520 ) ;
#155 = ORIENTED_EDGE ( 'NONE', *, *, #126, .T. ) ;
#156 = ORIENTED_EDGE ( 'NONE', *, *, #422, .F. ) ;
#157 = CARTESIAN_POINT ( 'NONE',  ( -8.071980441895290070, -2.962089301009908304, 5.237387644576053880 ) ) ;
#158 = ORIENTED_EDGE ( 'NONE', *, *, #148, .T. ) ;
#159 = ORIENTED_EDGE ( 'NONE', *, *, #173, .F. ) ;
#160 = EDGE_CURVE ( 'NONE', #146, #58, #349, .T. ) ;
#161 = LOCAL_TIME ( 0, 47, 4.000000000000000000, #577 ) ;
#162 = CARTESIAN_POINT ( 'NONE',  ( -69.88413394276419410, -40.47183154957589579, 7.000000000000000000 ) ) ;
#163 = FACE_OUTER_BOUND ( 'NONE', #468, .T. ) ;
#164 = VECTOR ( 'NONE', #200, 1000.000000000000000 ) ;
#165 = CARTESIAN_POINT ( 'NONE',  ( -9.529276192091355568, -1.999591181429739128, 5.346346182803447533 ) ) ;
#166 = CARTESIAN_POINT ( 'NONE',  ( -23.03592114560350268, 11.87161228793415191, 6.916620475012943636 ) ) ;
#167 = CARTESIAN_POINT ( 'NONE',  ( -1.234563142446286843, -1.529462512548840580, -5.399566580327396004 ) ) ;
#168 = APPROVAL_ROLE ( '' ) ;
#169 = DIRECTION ( 'NONE',  ( -0.6796729177606267713, 0.7288599724985126427, 0.08250978943266890075 ) ) ;
#170 = CARTESIAN_POINT ( 'NONE',  ( -23.03592114560350268, 11.54013782009825206, 6.879096273416728913 ) ) ;
#171 = APPROVAL_DATE_TIME ( #381, #524 ) ;
#172 = CC_DESIGN_APPROVAL ( #524, ( #351 ) ) ;
#173 = EDGE_CURVE ( 'NONE', #505, #282, #346, .T. ) ;
#174 = DIRECTION ( 'NONE',  ( -0.000000000000000000, 0.9936533736897814606, 0.1124854344122625388 ) ) ;
#175 = DIRECTION ( 'NONE',  ( 0.9986120086232370685, 0.05233503773731754127, 0.005924530234325171146 ) ) ;
#176 = DIRECTION ( 'NONE',  ( 0.000000000000000000, -0.9936533736897814606, 0.1124854344122625388 ) ) ;
#177 = CARTESIAN_POINT ( 'NONE',  ( -5.629019070786770662, 9.370759677855353686, -6.633514213116802338 ) ) ;
#178 = CARTESIAN_POINT ( 'NONE',  ( -1.091522743501208481, -0.8314751597095918489, -5.478581468896476458 ) ) ;
#179 = CARTESIAN_POINT ( 'NONE',  ( 0.3551249999651975298, -2.723253226996780185, -5.327597916784519327 ) ) ;
#180 = EDGE_CURVE ( 'NONE', #323, #418, #474, .T. ) ;
#181 = CARTESIAN_POINT ( 'NONE',  ( -3.702783848952148738, -4.876195828739250615, -5.020703325895141234 ) ) ;
#182 = VECTOR ( 'NONE', #41, 1000.000000000000227 ) ;
#183 = CARTESIAN_POINT ( 'NONE',  ( -1.234630267802966141, 1.282287552250058305, 5.717867645741297800 ) ) ;
#184 = CARTESIAN_POINT ( 'NONE',  ( -8.981845694529432933, 12.60815517220120086, 7.000000000000000000 ) ) ;
#185 = EDGE_CURVE ( 'NONE', #411, #418, #76, .T. ) ;
#186 = CARTESIAN_POINT ( 'NONE',  ( -1.394874999943561011, -2.223730434814910062, 5.320972745794695591 ) ) ;
#187 = VECTOR ( 'NONE', #385, 1000.000000000000000 ) ;
#188 = ADVANCED_FACE ( 'NONE', ( #255 ), #391, .T. ) ;
#189 = CARTESIAN_POINT ( 'NONE',  ( -0.6374960954314308204, 4.444863650470392002, 6.075883585393518693 ) ) ;
#190 = ORIENTED_EDGE ( 'NONE', *, *, #348, .T. ) ;
#191 = ORIENTED_EDGE ( 'NONE', *, *, #239, .F. ) ;
#192 = CC_DESIGN_PERSON_AND_ORGANIZATION_ASSIGNMENT ( #20, #218, ( #351 ) ) ;
#193 = ORIENTED_EDGE ( 'NONE', *, *, #348, .F. ) ;
#194 = CARTESIAN_POINT ( 'NONE',  ( -1.394874999943561011, -2.223730434814909618, 7.000000000000000000 ) ) ;
#195 = ORIENTED_EDGE ( 'NONE', *, *, #160, .T. ) ;
#196 = CARTESIAN_POINT ( 'NONE',  ( -2.846604824987382987, -5.059081103884319752, -5.000000000000000000 ) ) ;
#197 = ORIENTED_EDGE ( 'NONE', *, *, #137, .F. ) ;
#198 = CARTESIAN_POINT ( 'NONE',  ( -10.57744606323053027, -1.227969866569280644, 5.433696722842914717 ) ) ;
#199 =( BOUNDED_SURFACE ( )  B_SPLINE_SURFACE ( 2, 1, ( 
 ( #350, #269 ),
 ( #263, #88 ),
 ( #82, #362 ) ),
 .UNSPECIFIED., .F., .F., .T. ) 
 B_SPLINE_SURFACE_WITH_KNOTS ( ( 3, 3 ),
 ( 2, 2 ),
 ( 0.000000000000000000, 1.000000000000000000 ),
 ( 0.000000000000000000, 1.000000000000000000 ),
 .UNSPECIFIED. ) 
 GEOMETRIC_REPRESENTATION_ITEM ( )  RATIONAL_B_SPLINE_SURFACE ( (
 ( 1.000000000000000000, 1.000000000000000000),
 ( 3.231801218513670193, 3.231801218513670193),
 ( 1.000000000000000000, 1.000000000000000000) ) ) 
 REPRESENTATION_ITEM ( '' )  SURFACE ( )  );
#200 = DIRECTION ( 'NONE',  ( -0.000000000000000000, -0.000000000000000000, -1.000000000000000000 ) ) ;
#201 = DESIGN_CONTEXT ( 'detailed design', #56, 'design' ) ;
#202 = EDGE_CURVE ( 'NONE', #287, #7, #566, .T. ) ;
#203 = EDGE_LOOP ( 'NONE', ( #495, #547, #373, #237 ) ) ;
#204 = CARTESIAN_POINT ( 'NONE',  ( -6.159235080415339958, -4.005835272886219656, 5.119231532825959441 ) ) ;
#205 = CARTESIAN_POINT ( 'NONE',  ( -2.260328794758161397, -4.745950792246729222, 5.035447571622896135 ) ) ;
#206 = PERSON_AND_ORGANIZATION_ROLE ( 'classification_officer' ) ;
#207 = CARTESIAN_POINT ( 'NONE',  ( -1.448726270043842357, 6.058427314146597631, -6.839894546441814605 ) ) ;
#208 = CARTESIAN_POINT ( 'NONE',  ( -8.981845694529429380, 12.60815517220120086, -7.000000000000000000 ) ) ;
#209 = PLANE ( 'NONE',  #402 ) ;
#210 = FACE_OUTER_BOUND ( 'NONE', #319, .T. ) ;
#211 = CARTESIAN_POINT ( 'NONE',  ( -0.6035205376108018216, -3.639126207244638866, -5.160744428211647694 ) ) ;
#212 = PERSON_AND_ORGANIZATION_ROLE ( 'creator' ) ;
#213 = LINE ( 'NONE', #559, #25 ) ;
#214 = CARTESIAN_POINT ( 'NONE',  ( -1.022530459175377437, 0.05020564446570145722, -5.578391172055129132 ) ) ;
#215 = COORDINATED_UNIVERSAL_TIME_OFFSET ( 1, 0, .AHEAD. ) ;
#216 = DIRECTION ( 'NONE',  ( 0.7313537027583412176, 0.6819983588408874420, -0.000000000000000000 ) ) ;
#217 = CARTESIAN_POINT ( 'NONE',  ( -0.09106104864206086835, -3.215973670137249663, -5.208646944541281520 ) ) ;
#218 = PERSON_AND_ORGANIZATION_ROLE ( 'design_supplier' ) ;
#219 = CC_DESIGN_APPROVAL ( #92, ( #494 ) ) ;
#220 = DIRECTION ( 'NONE',  ( 0.000000000000000000, 0.1124854344122625527, -0.9936533736897815716 ) ) ;
#221 = CARTESIAN_POINT ( 'NONE',  ( -0.6838485580539450659, 13.04303477462088701, 7.049230065826236569 ) ) ;
#222 = EDGE_CURVE ( 'NONE', #323, #457, #262, .T. ) ;
#223 = CARTESIAN_POINT ( 'NONE',  ( -1.022718589753846441, 0.05426382960666979727, 5.578850574428830811 ) ) ;
#224 = FACE_OUTER_BOUND ( 'NONE', #10, .T. ) ;
#225 = CARTESIAN_POINT ( 'NONE',  ( -6.994875025828874548, 10.47738999221430234, -6.758789077511675458 ) ) ;
#226 = CALENDAR_DATE ( 2026, 27, 8 ) ;
#227 =( GEOMETRIC_REPRESENTATION_CONTEXT ( 3 ) GLOBAL_UNCERTAINTY_ASSIGNED_CONTEXT ( ( #64 ) ) GLOBAL_UNIT_ASSIGNED_CONTEXT ( ( #29, #421, #565 ) ) REPRESENTATION_CONTEXT ( 'NONE', 'WORKASPACE' ) );
#228 = AXIS2_PLACEMENT_3D ( 'NONE', #257, #428, #28 ) ;
#229 = CARTESIAN_POINT ( 'NONE',  ( 0.3551250005320090164, -7.391488004478132823E-11, 7.000000000000000000 ) ) ;
#230 = CARTESIAN_POINT ( 'NONE',  ( -1.314368477922809086, 1.629361463898390650, 5.757157765171933228 ) ) ;
#231 = DIRECTION ( 'NONE',  ( -0.000000000000000000, -0.000000000000000000, -1.000000000000000000 ) ) ;
#232 = EDGE_CURVE ( 'NONE', #553, #109, #9, .T. ) ;
#233 = CARTESIAN_POINT ( 'NONE',  ( 0.3551250000566972265, 2.037380911795557026, 5.803347156825619635 ) ) ;
#234 = ORIENTED_EDGE ( 'NONE', *, *, #444, .T. ) ;
#235 = VECTOR ( 'NONE', #397, 1000.000000000000000 ) ;
#236 = CC_DESIGN_DATE_AND_TIME_ASSIGNMENT ( #142, #538, ( #494 ) ) ;
#237 = ORIENTED_EDGE ( 'NONE', *, *, #300, .T. ) ;
#238 =( BOUNDED_CURVE ( )  B_SPLINE_CURVE ( 3, ( #390, #568, #110, #244 ),
 .UNSPECIFIED., .F., .T. ) 
 B_SPLINE_CURVE_WITH_KNOTS ( ( 4, 4 ),
 ( 5.468223840914978595, 5.549972645329292575 ),
 .UNSPECIFIED. ) 
 CURVE ( )  GEOMETRIC_REPRESENTATION_ITEM ( )  RATIONAL_B_SPLINE_CURVE ( ( 1.000000000000000000, 0.9994431719463756636, 0.9994431719463756636, 1.000000000000000000 ) ) 
 REPRESENTATION_ITEM ( '' )  );
#239 = EDGE_CURVE ( 'NONE', #330, #53, #264, .T. ) ;
#240 = ORIENTED_EDGE ( 'NONE', *, *, #16, .F. ) ;
#241 = ORIENTED_EDGE ( 'NONE', *, *, #367, .F. ) ;
#242 = DIRECTION ( 'NONE',  ( -1.000000000000000000, 0.000000000000000000, 0.000000000000000000 ) ) ;
#243 = ORIENTED_EDGE ( 'NONE', *, *, #136, .F. ) ;
#244 = CARTESIAN_POINT ( 'NONE',  ( -23.03592114560350268, 11.54013782009825206, -6.879096273416728913 ) ) ;
#245 = AXIS2_PLACEMENT_3D ( 'NONE', #81, #122, #292 ) ;
#246 = CARTESIAN_POINT ( 'NONE',  ( -0.09067036701419771416, -3.215542242876337387, 5.208695783788594547 ) ) ;
#247 = ORIENTED_EDGE ( 'NONE', *, *, #486, .F. ) ;
#248 = FACE_OUTER_BOUND ( 'NONE', #113, .T. ) ;
#249 = LINE ( 'NONE', #19, #116 ) ;
#250 = CARTESIAN_POINT ( 'NONE',  ( -23.03592114560350268, 12.60815517220120086, -7.000000000000000000 ) ) ;
#251 = ORIENTED_EDGE ( 'NONE', *, *, #300, .F. ) ;
#252 = PRODUCT_DEFINITION_SHAPE ( 'NONE', 'NONE',  #375 ) ;
#253 = DIRECTION ( 'NONE',  ( -0.03489949670249428704, 0.9993908270190959842, 0.000000000000000000 ) ) ;
#254 = VECTOR ( 'NONE', #297, 1000.000000000000114 ) ;
#255 = FACE_OUTER_BOUND ( 'NONE', #59, .T. ) ;
#256 = CARTESIAN_POINT ( 'NONE',  ( -16.76895539129553825, 4.828521513569937085, 6.119315150705019413 ) ) ;
#257 = CARTESIAN_POINT ( 'NONE',  ( -23.03592114560350268, 0.000000000000000000, 7.000000000000000000 ) ) ;
#258 = CC_DESIGN_PERSON_AND_ORGANIZATION_ASSIGNMENT ( #432, #259, ( #14 ) ) ;
#259 = PERSON_AND_ORGANIZATION_ROLE ( 'design_owner' ) ;
#260 = DIRECTION ( 'NONE',  ( 2.081376414897577884E-10, 1.000000000000000000, 0.000000000000000000 ) ) ;
#261 = DIRECTION ( 'NONE',  ( 0.9986295347545740553, 0.05233595624294033744, 0.000000000000000000 ) ) ;
#262 =( BOUNDED_CURVE ( )  B_SPLINE_CURVE ( 3, ( #170, #574, #480, #31 ),
 .UNSPECIFIED., .F., .T. ) 
 B_SPLINE_CURVE_WITH_KNOTS ( ( 4, 4 ),
 ( 3.874805315440086328, 3.956554119854400309 ),
 .UNSPECIFIED. ) 
 CURVE ( )  GEOMETRIC_REPRESENTATION_ITEM ( )  RATIONAL_B_SPLINE_CURVE ( ( 1.000000000000000000, 0.9994431719463756636, 0.9994431719463756636, 1.000000000000000000 ) ) 
 REPRESENTATION_ITEM ( '' )  );
#263 = CARTESIAN_POINT ( 'NONE',  ( -0.9075306697980521919, -0.1237304348149260991, 5.865986263594099803 ) ) ;
#264 = B_SPLINE_CURVE_WITH_KNOTS ( 'NONE', 3,
 ( #97, #368, #543, #320, #496, #581, #365, #317, #447, #542, #576, #407, #95, #181, #46, #491 ),
 .UNSPECIFIED., .F., .F.,
 ( 4, 2, 2, 2, 2, 2, 2, 4 ),
 ( 0.000000000000000000, 0.005225300082522360903, 0.01045060016504471834, 0.01306325020630589792, 0.01567590024756707751, 0.01828855028882826056, 0.01959487530945885209, 0.02090120033008944014 ),
 .UNSPECIFIED. ) ;
#265 = DIRECTION ( 'NONE',  ( -3.485384126420033333E-13, -1.000000000000000000, 0.000000000000000000 ) ) ;
#266 = APPROVAL_STATUS ( 'not_yet_approved' ) ;
#267 = VECTOR ( 'NONE', #302, 1000.000000000000000 ) ;
#268 = EDGE_CURVE ( 'NONE', #285, #454, #395, .T. ) ;
#269 = CARTESIAN_POINT ( 'NONE',  ( -1.394874999943561011, -2.223730434814910062, -5.865986263594098915 ) ) ;
#270 = PLANE ( 'NONE',  #54 ) ;
#271 = LINE ( 'NONE', #307, #96 ) ;
#272 = CARTESIAN_POINT ( 'NONE',  ( -0.07925871954190913393, -2.269672767682391790, 7.000000000000000000 ) ) ;
#273 = FACE_OUTER_BOUND ( 'NONE', #557, .T. ) ;
#274 = ORIENTED_EDGE ( 'NONE', *, *, #202, .F. ) ;
#275 = EDGE_CURVE ( 'NONE', #146, #411, #488, .T. ) ;
#276 = CARTESIAN_POINT ( 'NONE',  ( -1.234536082522798672, -1.529343570027420718, 5.399580045084379165 ) ) ;
#277 = DIRECTION ( 'NONE',  ( 0.6796729177606267713, -0.7288599724985126427, 0.08250978943266890075 ) ) ;
#278 = VERTEX_POINT ( 'NONE', #404 ) ;
#279 = CARTESIAN_POINT ( 'NONE',  ( -4.298417309989350343, 8.222773118245870094, 6.503557660584298183 ) ) ;
#280 = ORIENTED_EDGE ( 'NONE', *, *, #572, .F. ) ;
#281 = EDGE_CURVE ( 'NONE', #58, #101, #1, .T. ) ;
#282 = VERTEX_POINT ( 'NONE', #225 ) ;
#283 = CARTESIAN_POINT ( 'NONE',  ( -1.394874999943561011, -2.223730434814910062, -5.320972745794694703 ) ) ;
#284 = ORIENTED_EDGE ( 'NONE', *, *, #367, .T. ) ;
#285 = VERTEX_POINT ( 'NONE', #314 ) ;
#286 = EDGE_LOOP ( 'NONE', ( #514, #197, #50, #369 ) ) ;
#287 = VERTEX_POINT ( 'NONE', #233 ) ;
#288 = ORIENTED_EDGE ( 'NONE', *, *, #2, .T. ) ;
#289 = CARTESIAN_POINT ( 'NONE',  ( -13.20455318623175067, 1.022537326510461142, 5.688462907877347874 ) ) ;
#290 = ORGANIZATION ( 'UNSPECIFIED', 'UNSPECIFIED', '' ) ;
#291 = DIRECTION ( 'NONE',  ( -0.000000000000000000, -0.000000000000000000, -1.000000000000000000 ) ) ;
#292 = DIRECTION ( 'NONE',  ( 1.000000000000000000, 0.000000000000000000, 0.000000000000000000 ) ) ;
#293 = EDGE_CURVE ( 'NONE', #101, #282, #4, .T. ) ;
#294 = CARTESIAN_POINT ( 'NONE',  ( -4.549034324729157142, -4.645212691691345874, 5.046851517206813575 ) ) ;
#295 = ORIENTED_EDGE ( 'NONE', *, *, #180, .F. ) ;
#296 = MECHANICAL_CONTEXT ( 'NONE', #325, 'mechanical' ) ;
#297 = DIRECTION ( 'NONE',  ( 0.9993830276160452497, 0.03489922434133817253, -0.003950728206264833911 ) ) ;
#298 = DIRECTION ( 'NONE',  ( -0.000000000000000000, -0.000000000000000000, -1.000000000000000000 ) ) ;
#299 = APPROVAL_STATUS ( 'not_yet_approved' ) ;
#300 = EDGE_CURVE ( 'NONE', #454, #55, #540, .T. ) ;
#301 = VECTOR ( 'NONE', #66, 1000.000000000000114 ) ;
#302 = DIRECTION ( 'NONE',  ( -0.000000000000000000, -0.000000000000000000, -1.000000000000000000 ) ) ;
#303 = DATE_TIME_ROLE ( 'creation_date' ) ;
#304 = VECTOR ( 'NONE', #372, 1000.000000000000000 ) ;
#305 = CARTESIAN_POINT ( 'NONE',  ( 1.484527364560580320, 1.384344158600975039, 7.000000000000000000 ) ) ;
#306 = LINE ( 'NONE', #128, #267 ) ;
#307 = CARTESIAN_POINT ( 'NONE',  ( 0.3551250000566972265, 12.60815517220120086, 7.000000000000000000 ) ) ;
#308 = ADVANCED_FACE ( 'NONE', ( #405 ), #493, .F. ) ;
#309 = CARTESIAN_POINT ( 'NONE',  ( -23.03592114560350268, 11.54013782009829825, 7.000000000000000000 ) ) ;
#310 = CARTESIAN_POINT ( 'NONE',  ( -0.9131558117480770287, 4.784688755421850459, -6.114353111655735695 ) ) ;
#311 = DIRECTION ( 'NONE',  ( -0.000000000000000000, -0.000000000000000000, -1.000000000000000000 ) ) ;
#312 = AXIS2_PLACEMENT_3D ( 'NONE', #162, #414, #242 ) ;
#313 = CARTESIAN_POINT ( 'NONE',  ( -18.94519211359817135, 7.540918895746568040, 6.426369105244415181 ) ) ;
#314 = CARTESIAN_POINT ( 'NONE',  ( -1.394874999943561011, 1.976269565185000854, 5.796429114223418999 ) ) ;
#315 = APPROVAL_ROLE ( '' ) ;
#316 = FACE_OUTER_BOUND ( 'NONE', #409, .T. ) ;
#317 = CARTESIAN_POINT ( 'NONE',  ( -9.168106562484524602, -2.265010598924417806, -5.316299670338580086 ) ) ;
#318 = CARTESIAN_POINT ( 'NONE',  ( -18.94519211359817135, 7.540918895746568040, -6.426369105244412516 ) ) ;
#319 = EDGE_LOOP ( 'NONE', ( #420, #455, #140, #415, #326, #107, #191, #555, #371, #508, #551, #550 ) ) ;
#320 = CARTESIAN_POINT ( 'NONE',  ( -14.43747518705073141, 2.262203719805750080, -5.828797974881933186 ) ) ;
#321 = AXIS2_PLACEMENT_3D ( 'NONE', #85, #220, #396 ) ;
#322 = CARTESIAN_POINT ( 'NONE',  ( 0.3551250000566972265, 3.001549528634499975, 5.912494801853048543 ) ) ;
#323 = VERTEX_POINT ( 'NONE', #145 ) ;
#324 = CARTESIAN_POINT ( 'NONE',  ( -5.629041172254177994, 9.370777676637377596, 6.633516250649171830 ) ) ;
#325 = APPLICATION_CONTEXT ( 'configuration controlled 3d designs of mechanical parts and assemblies' ) ;
#326 = ORIENTED_EDGE ( 'NONE', *, *, #572, .T. ) ;
#327 = CARTESIAN_POINT ( 'NONE',  ( -1.093493919861270536, -0.8308194969048432466, 5.478655692481221529 ) ) ;
#328 = EDGE_CURVE ( 'NONE', #505, #335, #342, .T. ) ;
#329 = ORIENTED_EDGE ( 'NONE', *, *, #232, .T. ) ;
#330 = VERTEX_POINT ( 'NONE', #318 ) ;
#331 = ORIENTED_EDGE ( 'NONE', *, *, #6, .F. ) ;
#332 = LINE ( 'NONE', #67, #473 ) ;
#333 = ORIENTED_EDGE ( 'NONE', *, *, #137, .T. ) ;
#334 = CARTESIAN_POINT ( 'NONE',  ( -6.994875025828872772, 10.47738999221430234, 6.839894546441814605 ) ) ;
#335 = VERTEX_POINT ( 'NONE', #322 ) ;
#336 = ORIENTED_EDGE ( 'NONE', *, *, #486, .T. ) ;
#337 = LINE ( 'NONE', #510, #301 ) ;
#338 = CARTESIAN_POINT ( 'NONE',  ( 0.3551250000566972265, -2.284841781425458240, 5.314054703192494955 ) ) ;
#339 = ORIENTED_EDGE ( 'NONE', *, *, #477, .F. ) ;
#340 = CARTESIAN_POINT ( 'NONE',  ( -0.03063247170903194219, -2.271370833674211998, -5.315579666977519935 ) ) ;
#341 = CARTESIAN_POINT ( 'NONE',  ( 0.3551250000566972265, 3.001549528634499975, 7.000000000000000000 ) ) ;
#342 = B_SPLINE_CURVE_WITH_KNOTS ( 'NONE', 3,
 ( #99, #441, #324, #279, #401, #399, #139, #51, #189, #545, #147, #103 ),
 .UNSPECIFIED., .F., .F.,
 ( 4, 2, 2, 2, 2, 4 ),
 ( 8.673617379884035472E-19, 0.002643073263770713728, 0.005286146527541426589, 0.007929219791312138582, 0.009250756423197496747, 0.01057229305508285144 ),
 .UNSPECIFIED. ) ;
#343 = CALENDAR_DATE ( 2026, 27, 8 ) ;
#344 = CC_DESIGN_PERSON_AND_ORGANIZATION_ASSIGNMENT ( #527, #465, ( #351 ) ) ;
#345 = CARTESIAN_POINT ( 'NONE',  ( -23.03592114560350268, 11.54013782009825206, -6.879096273416728913 ) ) ;
#346 = LINE ( 'NONE', #80, #536 ) ;
#347 = EDGE_CURVE ( 'NONE', #376, #553, #515, .T. ) ;
#348 = EDGE_CURVE ( 'NONE', #278, #457, #72, .T. ) ;
#349 = LINE ( 'NONE', #221, #383 ) ;
#350 = CARTESIAN_POINT ( 'NONE',  ( -1.394874999943561011, -2.223730434814910062, 5.865986263594100691 ) ) ;
#351 = PRODUCT_DEFINITION_FORMATION_WITH_SPECIFIED_SOURCE ( 'ANY', '', #14, .NOT_KNOWN. ) ;
#352 = CARTESIAN_POINT ( 'NONE',  ( -1.040318291896019209, 0.2276001758288153931, -5.598472924355377245 ) ) ;
#353 = APPROVAL_DATE_TIME ( #389, #153 ) ;
#354 = B_SPLINE_CURVE_WITH_KNOTS ( 'NONE', 3,
 ( #575, #487, #443, #44, #310, #357, #40, #528, #360, #177, #90, #482 ),
 .UNSPECIFIED., .F., .F.,
 ( 4, 2, 2, 2, 2, 4 ),
 ( 5.421010862427522170E-20, 0.001317373638865555882, 0.002634747277731111764, 0.005269494555462220925, 0.007904241833193331387, 0.01053898911092444185 ),
 .UNSPECIFIED. ) ;
#355 = DIRECTION ( 'NONE',  ( -0.6819983588408874420, 0.7313537027583412176, 0.000000000000000000 ) ) ;
#356 = CARTESIAN_POINT ( 'NONE',  ( -1.394874999943561011, 1.976269565185000854, -5.796429114223418999 ) ) ;
#357 = CARTESIAN_POINT ( 'NONE',  ( -1.770903618263380386, 5.780516964818191994, -6.227084745945846045 ) ) ;
#358 = CARTESIAN_POINT ( 'NONE',  ( -1.023021868508782406, -0.4793968695130562674, -5.518438103482017354 ) ) ;
#359 = EDGE_CURVE ( 'NONE', #109, #7, #18, .T. ) ;
#360 = CARTESIAN_POINT ( 'NONE',  ( -4.298359642104462530, 8.222722295426272865, -6.503551907242953511 ) ) ;
#361 = CARTESIAN_POINT ( 'NONE',  ( -1.394874999943561011, 1.976269565185000854, 5.796429114223418999 ) ) ;
#362 = CARTESIAN_POINT ( 'NONE',  ( -1.394874999943561011, 1.976269565185000410, -5.865986263594098915 ) ) ;
#363 = CARTESIAN_POINT ( 'NONE',  ( -1.314328266767422315, -1.876649060913654798, 5.360263709981444080 ) ) ;
#364 = CARTESIAN_POINT ( 'NONE',  ( -1.022667581830746020, -0.3009204846150540513, 5.538642325818660339 ) ) ;
#365 = CARTESIAN_POINT ( 'NONE',  ( -10.57049231190724292, -1.233542265767109347, -5.433065905536727414 ) ) ;
#366 = EDGE_LOOP ( 'NONE', ( #498, #378, #159, #452 ) ) ;
#367 = EDGE_CURVE ( 'NONE', #323, #146, #213, .T. ) ;
#368 = CARTESIAN_POINT ( 'NONE',  ( -17.87950527536434464, 6.169036122140490797, -6.271066628709013102 ) ) ;
#369 = ORIENTED_EDGE ( 'NONE', *, *, #180, .T. ) ;
#370 = ORIENTED_EDGE ( 'NONE', *, *, #444, .F. ) ;
#371 = ORIENTED_EDGE ( 'NONE', *, *, #185, .F. ) ;
#372 = DIRECTION ( 'NONE',  ( -0.000000000000000000, -0.000000000000000000, -1.000000000000000000 ) ) ;
#373 = ORIENTED_EDGE ( 'NONE', *, *, #52, .F. ) ;
#374 = ORIENTED_EDGE ( 'NONE', *, *, #39, .T. ) ;
#375 = PRODUCT_DEFINITION ( 'UNKNOWN', '', #351, #201 ) ;
#376 = VERTEX_POINT ( 'NONE', #74 ) ;
#377 = PLANE ( 'NONE',  #523 ) ;
#378 = ORIENTED_EDGE ( 'NONE', *, *, #442, .T. ) ;
#379 = ORIENTED_EDGE ( 'NONE', *, *, #268, .F. ) ;
#380 = CARTESIAN_POINT ( 'NONE',  ( -2.846604824987382987, -5.059081103884319752, 5.000000000000000000 ) ) ;
#381 = DATE_AND_TIME ( #570, #472 ) ;
#382 = CC_DESIGN_PERSON_AND_ORGANIZATION_ASSIGNMENT ( #394, #206, ( #494 ) ) ;
#383 = VECTOR ( 'NONE', #175, 1000.000000000000227 ) ;
#384 = ADVANCED_FACE ( 'NONE', ( #210 ), #377, .F. ) ;
#385 = DIRECTION ( 'NONE',  ( -0.000000000000000000, -0.000000000000000000, -1.000000000000000000 ) ) ;
#386 = APPROVAL_ROLE ( '' ) ;
#387 = CARTESIAN_POINT ( 'NONE',  ( -1.448726270043842357, 6.058427314146597631, 6.839894546441814605 ) ) ;
#388 = CARTESIAN_POINT ( 'NONE',  ( 0.3551250000109473781, -2.723253226996779741, -5.264424818957035512 ) ) ;
#389 = DATE_AND_TIME ( #24, #535 ) ;
#390 = CARTESIAN_POINT ( 'NONE',  ( -18.94519211359817135, 7.540918895746568040, -6.426369105244412516 ) ) ;
#391 = PLANE ( 'NONE',  #228 ) ;
#392 = LINE ( 'NONE', #118, #483 ) ;
#393 = CARTESIAN_POINT ( 'NONE',  ( 0.3551250000564473708, -2.284841781425449359, 7.000000000000000000 ) ) ;
#394 = PERSON_AND_ORGANIZATION ( #112, #290 ) ;
#395 = B_SPLINE_CURVE_WITH_KNOTS ( 'NONE', 3,
 ( #361, #230, #183, #102, #448, #450, #223, #364, #537, #327, #91, #276, #363, #186 ),
 .UNSPECIFIED., .F., .F.,
 ( 4, 2, 2, 2, 2, 2, 4 ),
 ( 4.848699518061080308E-19, 0.001074770045781389812, 0.001612155068672084610, 0.002149540091562779191, 0.002686925114453473772, 0.003224310137344168787, 0.004299080183125557515 ),
 .UNSPECIFIED. ) ;
#396 = DIRECTION ( 'NONE',  ( 0.000000000000000000, 0.9936533736897814606, 0.1124854344122625388 ) ) ;
#397 = DIRECTION ( 'NONE',  ( -0.000000000000000000, -0.000000000000000000, -1.000000000000000000 ) ) ;
#398 = CARTESIAN_POINT ( 'NONE',  ( -0.7423668819740020242, -3.935206599586729137, -5.327597916784519327 ) ) ;
#399 = CARTESIAN_POINT ( 'NONE',  ( -2.383328713366249740, 6.413285301805065508, 6.298716587745929907 ) ) ;
#400 = CARTESIAN_POINT ( 'NONE',  ( -18.94519211359818911, 7.540918895746552053, -6.503485534507344568 ) ) ;
#401 = CARTESIAN_POINT ( 'NONE',  ( -3.645804699733607102, 7.633612604158144244, 6.436862394286697153 ) ) ;
#402 = AXIS2_PLACEMENT_3D ( 'NONE', #71, #253, #84 ) ;
#403 = PLANE ( 'NONE',  #461 ) ;
#404 = CARTESIAN_POINT ( 'NONE',  ( -2.846604824987382987, -5.059081103884319752, 5.000000000000000000 ) ) ;
#405 = FACE_OUTER_BOUND ( 'NONE', #203, .T. ) ;
#406 = ADVANCED_FACE ( 'NONE', ( #21 ), #22, .F. ) ;
#407 = CARTESIAN_POINT ( 'NONE',  ( -4.954376963591368366, -4.484474009039209896, -5.065047762521066588 ) ) ;
#408 = APPROVAL_PERSON_ORGANIZATION ( #133, #92, #315 ) ;
#409 = EDGE_LOOP ( 'NONE', ( #280, #243, #247, #57 ) ) ;
#410 = EDGE_CURVE ( 'NONE', #330, #418, #238, .T. ) ;
#411 = VERTEX_POINT ( 'NONE', #416 ) ;
#412 = LINE ( 'NONE', #194, #304 ) ;
#413 = ORIENTED_EDGE ( 'NONE', *, *, #477, .T. ) ;
#414 = DIRECTION ( 'NONE',  ( -0.000000000000000000, -0.000000000000000000, -1.000000000000000000 ) ) ;
#415 = ORIENTED_EDGE ( 'NONE', *, *, #347, .F. ) ;
#416 = CARTESIAN_POINT ( 'NONE',  ( -23.03592114560350268, 11.87161228793415191, -6.916620475012941860 ) ) ;
#417 = CARTESIAN_POINT ( 'NONE',  ( -0.6044451899352160096, -3.639840208172668401, 5.160663600523933248 ) ) ;
#418 = VERTEX_POINT ( 'NONE', #345 ) ;
#419 = CARTESIAN_POINT ( 'NONE',  ( -2.846604824987382987, -5.059081103884319752, 5.000000000000000000 ) ) ;
#420 = ORIENTED_EDGE ( 'NONE', *, *, #422, .T. ) ;
#421 =( NAMED_UNIT ( * ) PLANE_ANGLE_UNIT ( ) SI_UNIT ( $, .RADIAN. ) );
#422 = EDGE_CURVE ( 'NONE', #462, #7, #337, .T. ) ;
#423 = CARTESIAN_POINT ( 'NONE',  ( -6.936916963199470487, -3.619105451226395154, 5.163010855818680689 ) ) ;
#424 = ORIENTED_EDGE ( 'NONE', *, *, #148, .F. ) ;
#425 = PERSON_AND_ORGANIZATION ( #112, #290 ) ;
#426 = CARTESIAN_POINT ( 'NONE',  ( -18.94519211359817135, 7.540918895746568040, 6.426369105244415181 ) ) ;
#427 = VECTOR ( 'NONE', #277, 1000.000000000000114 ) ;
#428 = DIRECTION ( 'NONE',  ( -1.000000000000000000, 0.000000000000000000, 0.000000000000000000 ) ) ;
#429 = PERSON_AND_ORGANIZATION ( #112, #290 ) ;
#430 = CARTESIAN_POINT ( 'NONE',  ( -1.445399022214034046, 1.974505227449498079, -5.796229384315703115 ) ) ;
#431 = CARTESIAN_POINT ( 'NONE',  ( 0.3551250000564474263, 2.037380911795548144, 7.000000000000000000 ) ) ;
#432 = PERSON_AND_ORGANIZATION ( #112, #290 ) ;
#433 = CARTESIAN_POINT ( 'NONE',  ( 1.413273706048157274, 1.460754352720367022, 5.738070783083370152 ) ) ;
#434 = CARTESIAN_POINT ( 'NONE',  ( -1.314167363343947681, 1.628494847443690885, -5.757059660811843393 ) ) ;
#435 = ADVANCED_FACE ( 'NONE', ( #248 ), #199, .F. ) ;
#436 = CARTESIAN_POINT ( 'NONE',  ( -2.846604824987382987, -5.059081103884319752, -5.327597916784519327 ) ) ;
#437 = LOCAL_TIME ( 0, 47, 4.000000000000000000, #125 ) ;
#438 = AXIS2_PLACEMENT_3D ( 'NONE', #272, #445, #3 ) ;
#439 = CARTESIAN_POINT ( 'NONE',  ( -2.260123282944291212, -4.745841028287424379, -5.035459997330865356 ) ) ;
#440 = CARTESIAN_POINT ( 'NONE',  ( -1.394874999943561011, -2.223730434814910062, 5.320972745794695591 ) ) ;
#441 = CARTESIAN_POINT ( 'NONE',  ( -6.307301893426086714, 9.929557587365660964, 6.696772314245740709 ) ) ;
#442 = EDGE_CURVE ( 'NONE', #462, #282, #354, .T. ) ;
#443 = CARTESIAN_POINT ( 'NONE',  ( -0.1154426953836849429, 3.742922130493388622, -5.996421069694094719 ) ) ;
#444 = EDGE_CURVE ( 'NONE', #287, #335, #271, .T. ) ;
#445 = DIRECTION ( 'NONE',  ( -0.03489949670249008207, -0.9993908270190960952, 0.000000000000000000 ) ) ;
#446 = PLANE ( 'NONE',  #45 ) ;
#447 = CARTESIAN_POINT ( 'NONE',  ( -8.446328555618359601, -2.745180178998659404, -5.261942602535707003 ) ) ;
#448 = CARTESIAN_POINT ( 'NONE',  ( -1.093625826316168448, 0.5840707279637216143, 5.638826780110040460 ) ) ;
#449 = ORIENTED_EDGE ( 'NONE', *, *, #293, .F. ) ;
#450 = CARTESIAN_POINT ( 'NONE',  ( -1.040877614602533141, 0.2321698866725886712, 5.598990233432112440 ) ) ;
#451 = ADVANCED_FACE ( 'NONE', ( #316 ), #403, .T. ) ;
#452 = ORIENTED_EDGE ( 'NONE', *, *, #328, .T. ) ;
#453 = VECTOR ( 'NONE', #291, 1000.000000000000000 ) ;
#454 = VERTEX_POINT ( 'NONE', #440 ) ;
#455 = ORIENTED_EDGE ( 'NONE', *, *, #359, .F. ) ;
#456 = ORIENTED_EDGE ( 'NONE', *, *, #275, .T. ) ;
#457 = VERTEX_POINT ( 'NONE', #313 ) ;
#458 = EDGE_LOOP ( 'NONE', ( #413, #60, #241, #17, #193, #65, #336, #251, #379, #511, #234, #98 ) ) ;
#459 = CARTESIAN_POINT ( 'NONE',  ( -3.716701824005764099, -4.898315988470651305, 5.018199237605860397 ) ) ;
#460 = ORIENTED_EDGE ( 'NONE', *, *, #281, .F. ) ;
#461 = AXIS2_PLACEMENT_3D ( 'NONE', #229, #530, #260 ) ;
#462 = VERTEX_POINT ( 'NONE', #134 ) ;
#463 = DIRECTION ( 'NONE',  ( 0.000000000000000000, 0.1124854344122625527, 0.9936533736897815716 ) ) ;
#464 = ORIENTED_EDGE ( 'NONE', *, *, #27, .F. ) ;
#465 = PERSON_AND_ORGANIZATION_ROLE ( 'creator' ) ;
#466 = ADVANCED_FACE ( 'NONE', ( #534 ), #75, .F. ) ;
#467 = CARTESIAN_POINT ( 'NONE',  ( -11.24947534352793355, -0.6828503927219097269, 5.495406371746592633 ) ) ;
#468 = EDGE_LOOP ( 'NONE', ( #158, #143, #274, #374 ) ) ;
#469 = APPROVAL_STATUS ( 'not_yet_approved' ) ;
#470 = LINE ( 'NONE', #393, #513 ) ;
#471 = COORDINATED_UNIVERSAL_TIME_OFFSET ( 1, 0, .AHEAD. ) ;
#472 = LOCAL_TIME ( 0, 47, 4.000000000000000000, #215 ) ;
#473 = VECTOR ( 'NONE', #549, 1000.000000000000227 ) ;
#474 = LINE ( 'NONE', #309, #484 ) ;
#475 = CARTESIAN_POINT ( 'NONE',  ( -10.21500838427921387, -3.697644103227559320, -6.503485534507344568 ) ) ;
#476 = CARTESIAN_POINT ( 'NONE',  ( -1.126772622086070541, 0.7559124068803506624, -5.658279927872573722 ) ) ;
#477 = EDGE_CURVE ( 'NONE', #505, #58, #138, .T. ) ;
#478 = DATE_AND_TIME ( #567, #437 ) ;
#479 = CARTESIAN_POINT ( 'NONE',  ( -2.846604824987382987, -5.059081103884319752, 6.503485534507348120 ) ) ;
#480 = CARTESIAN_POINT ( 'NONE',  ( -20.25388486837874069, 8.929371410749581628, 6.583547341082289783 ) ) ;
#481 = SHAPE_DEFINITION_REPRESENTATION ( #252, #33 ) ;
#482 = CARTESIAN_POINT ( 'NONE',  ( -6.994875025828874548, 10.47738999221430234, -6.758789077511675458 ) ) ;
#483 = VECTOR ( 'NONE', #176, 1000.000000000000114 ) ;
#484 = VECTOR ( 'NONE', #311, 1000.000000000000000 ) ;
#485 = CARTESIAN_POINT ( 'NONE',  ( -23.03592114560350268, 12.60815517220120086, -7.000000000000000000 ) ) ;
#486 = EDGE_CURVE ( 'NONE', #154, #55, #34, .T. ) ;
#487 = CARTESIAN_POINT ( 'NONE',  ( 0.1312382564655795725, 3.380956869083463712, -5.955445191435209118 ) ) ;
#488 = LINE ( 'NONE', #135, #552 ) ;
#489 = B_SPLINE_CURVE_WITH_KNOTS ( 'NONE', 3,
 ( #571, #439, #123, #211, #217, #132 ),
 .UNSPECIFIED., .F., .F.,
 ( 4, 2, 4 ),
 ( 0.000000000000000000, 0.001996494119117836388, 0.003992988238235672775 ),
 .UNSPECIFIED. ) ;
#490 = CARTESIAN_POINT ( 'NONE',  ( -2.846604824987382987, -5.059081103884319752, -6.503485534507344568 ) ) ;
#491 = CARTESIAN_POINT ( 'NONE',  ( -2.846604824987382987, -5.059081103884319752, -5.000000000000000000 ) ) ;
#492 = ORIENTED_EDGE ( 'NONE', *, *, #185, .T. ) ;
#493 = PLANE ( 'NONE',  #438 ) ;
#494 = SECURITY_CLASSIFICATION ( '', '', #129 ) ;
#495 = ORIENTED_EDGE ( 'NONE', *, *, #136, .T. ) ;
#496 = CARTESIAN_POINT ( 'NONE',  ( -13.20928844768828192, 1.026649603600847005, -5.688928433670470852 ) ) ;
#497 = CC_DESIGN_PERSON_AND_ORGANIZATION_ASSIGNMENT ( #32, #212, ( #375 ) ) ;
#498 = ORIENTED_EDGE ( 'NONE', *, *, #16, .T. ) ;
#499 = DIRECTION ( 'NONE',  ( -0.000000000000000000, -0.000000000000000000, -1.000000000000000000 ) ) ;
#500 = ORIENTED_EDGE ( 'NONE', *, *, #173, .T. ) ;
#501 = CARTESIAN_POINT ( 'NONE',  ( -2.846604824987382987, -5.059081103884319752, 7.000000000000000000 ) ) ;
#502 = B_SPLINE_SURFACE_WITH_KNOTS ( 'NONE', 2, 1, ( 
 ( #93, #400 ),
 ( #578, #475 ),
 ( #479, #490 ) ),
 .UNSPECIFIED., .F., .F., .F.,
 ( 3, 3 ),
 ( 2, 2 ),
 ( 0.4976672411085089620, 0.4995542795880109632 ),
 ( 0.000000000000000000, 1.000000000000000000 ),
 .UNSPECIFIED. ) ;
#503 = VECTOR ( 'NONE', #114, 1000.000000000000227 ) ;
#504 = ADVANCED_FACE ( 'NONE', ( #224 ), #502, .F. ) ;
#505 = VERTEX_POINT ( 'NONE', #127 ) ;
#506 = LINE ( 'NONE', #341, #164 ) ;
#507 = EDGE_LOOP ( 'NONE', ( #13, #155, #464, #104 ) ) ;
#508 = ORIENTED_EDGE ( 'NONE', *, *, #2, .F. ) ;
#509 = ORIENTED_EDGE ( 'NONE', *, *, #239, .T. ) ;
#510 = CARTESIAN_POINT ( 'NONE',  ( 0.3551250000566972265, 12.60815517220120086, -7.000000000000000000 ) ) ;
#511 = ORIENTED_EDGE ( 'NONE', *, *, #39, .F. ) ;
#512 = APPROVAL_PERSON_ORGANIZATION ( #425, #524, #386 ) ;
#513 = VECTOR ( 'NONE', #564, 1000.000000000000000 ) ;
#514 = ORIENTED_EDGE ( 'NONE', *, *, #410, .F. ) ;
#515 = LINE ( 'NONE', #340, #503 ) ;
#516 = FACE_OUTER_BOUND ( 'NONE', #544, .T. ) ;
#517 = APPLICATION_PROTOCOL_DEFINITION ( 'international standard', 'config_control_design', 1994, #325 ) ;
#518 = ADVANCED_FACE ( 'NONE', ( #273 ), #446, .T. ) ;
#519 = CARTESIAN_POINT ( 'NONE',  ( -9.173158054527712935, -2.249075457824854407, 5.318103590414180459 ) ) ;
#520 = CARTESIAN_POINT ( 'NONE',  ( 0.3551250000109473781, -2.723253226996780629, 5.264424818957035512 ) ) ;
#521 = FACE_OUTER_BOUND ( 'NONE', #149, .T. ) ;
#522 = APPLICATION_PROTOCOL_DEFINITION ( 'international standard', 'config_control_design', 1994, #56 ) ;
#523 = AXIS2_PLACEMENT_3D ( 'NONE', #250, #463, #26 ) ;
#524 = APPROVAL ( #469, 'UNSPECIFIED' ) ;
#525 = CARTESIAN_POINT ( 'NONE',  ( 0.3551250000566972265, 12.60815517220120086, 7.000000000000000000 ) ) ;
#526 = CARTESIAN_POINT ( 'NONE',  ( -1.092990794241189167, 0.5806537763005525932, -5.638439967865135571 ) ) ;
#527 = PERSON_AND_ORGANIZATION ( #112, #290 ) ;
#528 = CARTESIAN_POINT ( 'NONE',  ( -3.645765441986447808, 7.633576839299838213, -6.436858345565287465 ) ) ;
#529 = DIRECTION ( 'NONE',  ( 0.000000000000000000, -0.9936533736897814606, 0.1124854344122625388 ) ) ;
#530 = DIRECTION ( 'NONE',  ( 1.000000000000000000, -2.081376414897577884E-10, 0.000000000000000000 ) ) ;
#531 = ADVANCED_FACE ( 'NONE', ( #573 ), #130, .F. ) ;
#532 = PLANE ( 'NONE',  #580 ) ;
#533 = APPROVAL_DATE_TIME ( #541, #92 ) ;
#534 = FACE_OUTER_BOUND ( 'NONE', #507, .T. ) ;
#535 = LOCAL_TIME ( 0, 47, 4.000000000000000000, #471 ) ;
#536 = VECTOR ( 'NONE', #298, 1000.000000000000000 ) ;
#537 = CARTESIAN_POINT ( 'NONE',  ( -1.040765121665585768, -0.4787116080806331775, 5.518515677746809622 ) ) ;
#538 = DATE_TIME_ROLE ( 'classification_date' ) ;
#539 = CARTESIAN_POINT ( 'NONE',  ( -2.846604824987382987, -5.059081103884319752, 5.327597916784519327 ) ) ;
#540 = LINE ( 'NONE', #43, #182 ) ;
#541 = DATE_AND_TIME ( #226, #161 ) ;
#542 = CARTESIAN_POINT ( 'NONE',  ( -6.948876663721481606, -3.612404337174381475, -5.163769448045255395 ) ) ;
#543 = CARTESIAN_POINT ( 'NONE',  ( -16.77225510406512399, 4.832582587526371931, -6.119774880103934223 ) ) ;
#544 = EDGE_LOOP ( 'NONE', ( #554, #288, #151, #195 ) ) ;
#545 = CARTESIAN_POINT ( 'NONE',  ( -0.1154161255236817035, 3.742884659794891267, 5.996416827864985422 ) ) ;
#546 = PRODUCT_RELATED_PRODUCT_CATEGORY ( 'detail', '', ( #14 ) ) ;
#547 = ORIENTED_EDGE ( 'NONE', *, *, #347, .T. ) ;
#548 = ADVANCED_FACE ( 'NONE', ( #163 ), #209, .F. ) ;
#549 = DIRECTION ( 'NONE',  ( -0.9986120086232370685, -0.05233503773731754127, 0.005924530234325171146 ) ) ;
#550 = ORIENTED_EDGE ( 'NONE', *, *, #442, .F. ) ;
#551 = ORIENTED_EDGE ( 'NONE', *, *, #293, .T. ) ;
#552 = VECTOR ( 'NONE', #499, 1000.000000000000000 ) ;
#553 = VERTEX_POINT ( 'NONE', #68 ) ;
#554 = ORIENTED_EDGE ( 'NONE', *, *, #281, .T. ) ;
#555 = ORIENTED_EDGE ( 'NONE', *, *, #410, .T. ) ;
#556 = CARTESIAN_POINT ( 'NONE',  ( 0.3551250000566972265, 3.001549528634499975, 6.839894546441814605 ) ) ;
#557 = EDGE_LOOP ( 'NONE', ( #449, #460, #339, #500 ) ) ;
#558 = ORIENTED_EDGE ( 'NONE', *, *, #52, .T. ) ;
#559 = CARTESIAN_POINT ( 'NONE',  ( -23.03592114560350268, 12.60815517220120086, 7.000000000000000000 ) ) ;
#560 = CARTESIAN_POINT ( 'NONE',  ( -1.390122952189123184, 1.976435510349247693, 5.796447899862740449 ) ) ;
#561 = COORDINATED_UNIVERSAL_TIME_OFFSET ( 1, 0, .AHEAD. ) ;
#562 = VECTOR ( 'NONE', #231, 1000.000000000000000 ) ;
#563 = CARTESIAN_POINT ( 'NONE',  ( -17.87813264845535954, 6.167269108470562422, 6.270866595875093097 ) ) ;
#564 = DIRECTION ( 'NONE',  ( -0.000000000000000000, -0.000000000000000000, -1.000000000000000000 ) ) ;
#565 =( NAMED_UNIT ( * ) SI_UNIT ( $, .STERADIAN. ) SOLID_ANGLE_UNIT ( ) );
#566 = LINE ( 'NONE', #431, #235 ) ;
#567 = CALENDAR_DATE ( 2026, 27, 8 ) ;
#568 = CARTESIAN_POINT ( 'NONE',  ( -20.25388486837870516, 8.929371410749542548, -6.583547341082284454 ) ) ;
#569 = CARTESIAN_POINT ( 'NONE',  ( -1.314338543873475373, -1.876693345665473078, -5.360258696774949705 ) ) ;
#570 = CALENDAR_DATE ( 2026, 27, 8 ) ;
#571 = CARTESIAN_POINT ( 'NONE',  ( -2.846604824987382987, -5.059081103884319752, -5.000000000000000000 ) ) ;
#572 = EDGE_CURVE ( 'NONE', #376, #111, #392, .T. ) ;
#573 = FACE_OUTER_BOUND ( 'NONE', #458, .T. ) ;
#574 = CARTESIAN_POINT ( 'NONE',  ( -21.61822091296472692, 10.26318709152289799, 6.734540474352236572 ) ) ;
#575 = CARTESIAN_POINT ( 'NONE',  ( 0.3551250000566972265, 3.001549528634499975, -5.912494801853048543 ) ) ;
#576 = CARTESIAN_POINT ( 'NONE',  ( -6.173389071783079274, -3.999780770717780154, -5.119916926067322294 ) ) ;
#577 = COORDINATED_UNIVERSAL_TIME_OFFSET ( 1, 0, .AHEAD. ) ;
#578 = CARTESIAN_POINT ( 'NONE',  ( -10.21500838427921387, -3.697644103227559320, 6.503485534507348120 ) ) ;
#579 = VECTOR ( 'NONE', #169, 1000.000000000000114 ) ;
#580 = AXIS2_PLACEMENT_3D ( 'NONE', #121, #23, #265 ) ;
#581 = CARTESIAN_POINT ( 'NONE',  ( -11.24678723791021540, -0.6851860749068096057, -5.495141963420474340 ) ) ;
ENDSEC;
END-ISO-10303-21;
