ISO-10303-21;
HEADER;
FILE_DESCRIPTION (( 'STEP AP203' ),
    '1' );
FILE_NAME ('lente dot l8_v7_croquis6_D1_plus1.STEP',
    '2026-08-26T22:49:23',
    ( '' ),
    ( '' ),
    'SwSTEP 2.0',
    'SolidWorks 2026',
    '' );
FILE_SCHEMA (( 'CONFIG_CONTROL_DESIGN' ));
ENDSEC;

DATA;
#1 = CARTESIAN_POINT ( 'NONE',  ( -2.846604824987382987, -5.059081103884319752, 7.000000000000000000 ) ) ;
#2 = VECTOR ( 'NONE', #413, 1000.000000000000114 ) ;
#3 = CARTESIAN_POINT ( 'NONE',  ( -0.7423668819740020242, -3.935206599586729137, -7.000000000000000000 ) ) ;
#4 = B_SPLINE_CURVE_WITH_KNOTS ( 'NONE', 2,
 ( #250, #175, #372 ),
 .UNSPECIFIED., .F., .F.,
 ( 3, 3 ),
 ( 0.4988120746294950059, 0.4994128454637969949 ),
 .UNSPECIFIED. ) ;
#5 = EDGE_CURVE ( 'NONE', #166, #249, #455, .T. ) ;
#6 = CARTESIAN_POINT ( 'NONE',  ( -1.394874999943561011, -2.223730434814909618, -7.000000000000000000 ) ) ;
#7 = ORIENTED_EDGE ( 'NONE', *, *, #246, .T. ) ;
#8 = DIRECTION ( 'NONE',  ( -0.000000000000000000, -0.000000000000000000, -1.000000000000000000 ) ) ;
#9 = EDGE_LOOP ( 'NONE', ( #218, #56, #361, #99 ) ) ;
#10 = CARTESIAN_POINT ( 'NONE',  ( -10.21500838427921387, -3.697644103227559320, 7.000000000000000000 ) ) ;
#11 = ORIENTED_EDGE ( 'NONE', *, *, #333, .T. ) ;
#12 = LINE ( 'NONE', #352, #258 ) ;
#13 = ORIENTED_EDGE ( 'NONE', *, *, #217, .T. ) ;
#14 = LINE ( 'NONE', #83, #380 ) ;
#15 = VERTEX_POINT ( 'NONE', #215 ) ;
#16 = LINE ( 'NONE', #495, #263 ) ;
#17 = ORIENTED_EDGE ( 'NONE', *, *, #500, .F. ) ;
#18 = CIRCLE ( 'NONE', #469, 69.99999999999981526 ) ;
#19 = DIRECTION ( 'NONE',  ( -2.081376414897577625E-10, -1.000000000000000000, 0.000000000000000000 ) ) ;
#20 = EDGE_CURVE ( 'NONE', #499, #240, #4, .T. ) ;
#21 = ORIENTED_EDGE ( 'NONE', *, *, #176, .F. ) ;
#22 = CARTESIAN_POINT ( 'NONE',  ( -6.994875025828874548, 10.47738999221430234, -7.000000000000000000 ) ) ;
#23 = CARTESIAN_POINT ( 'NONE',  ( -18.94519211359818911, 7.540918895746552053, 7.000000000000000000 ) ) ;
#24 = ORGANIZATION ( 'UNSPECIFIED', 'UNSPECIFIED', '' ) ;
#25 = CARTESIAN_POINT ( 'NONE',  ( -2.846604824987382987, -5.059081103884319752, -7.000000000000000000 ) ) ;
#26 = PRODUCT ( 'lente dot l8_v7_croquis6_D1_plus1', 'lente dot l8_v7_croquis6_D1_plus1', '', ( #185 ) ) ;
#27 = ORIENTED_EDGE ( 'NONE', *, *, #508, .T. ) ;
#28 = EDGE_CURVE ( 'NONE', #446, #30, #257, .T. ) ;
#29 = CARTESIAN_POINT ( 'NONE',  ( -8.981845694529432933, 12.60815517220120086, -7.000000000000000000 ) ) ;
#30 = VERTEX_POINT ( 'NONE', #299 ) ;
#31 = SECURITY_CLASSIFICATION_LEVEL ( 'unclassified' ) ;
#32 = DIRECTION ( 'NONE',  ( -0.000000000000000000, -0.000000000000000000, -1.000000000000000000 ) ) ;
#33 = VERTEX_POINT ( 'NONE', #134 ) ;
#34 = COORDINATED_UNIVERSAL_TIME_OFFSET ( 1, 0, .AHEAD. ) ;
#35 = CARTESIAN_POINT ( 'NONE',  ( -2.846604824987382987, -5.059081103884319752, 7.000000000000000000 ) ) ;
#36 = PERSON_AND_ORGANIZATION ( #212, #24 ) ;
#37 = B_SPLINE_CURVE_WITH_KNOTS ( 'NONE', 2,
 ( #202, #358, #51 ),
 .UNSPECIFIED., .F., .F.,
 ( 3, 3 ),
 ( 0.4988120746294950059, 0.4994128454637969949 ),
 .UNSPECIFIED. ) ;
#38 = LINE ( 'NONE', #311, #343 ) ;
#39 = CC_DESIGN_PERSON_AND_ORGANIZATION_ASSIGNMENT ( #81, #384, ( #164 ) ) ;
#40 = DATE_TIME_ROLE ( 'creation_date' ) ;
#41 = DIRECTION ( 'NONE',  ( -0.000000000000000000, -0.000000000000000000, -1.000000000000000000 ) ) ;
#42 = DIRECTION ( 'NONE',  ( 0.9993908270190959842, -0.03489949670249007513, 0.000000000000000000 ) ) ;
#43 = EDGE_CURVE ( 'NONE', #53, #203, #457, .T. ) ;
#44 = DIRECTION ( 'NONE',  ( -0.000000000000000000, -0.000000000000000000, -1.000000000000000000 ) ) ;
#45 = EDGE_LOOP ( 'NONE', ( #297, #132, #145, #200 ) ) ;
#46 = CARTESIAN_POINT ( 'NONE',  ( -18.94519211359817135, 7.540918895746568040, -7.000000000000000000 ) ) ;
#47 = ORIENTED_EDGE ( 'NONE', *, *, #138, .T. ) ;
#48 = DIRECTION ( 'NONE',  ( 0.05233595624294034437, -0.9986295347545741663, 0.000000000000000000 ) ) ;
#49 = EDGE_CURVE ( 'NONE', #15, #53, #65, .T. ) ;
#50 = ORIENTED_EDGE ( 'NONE', *, *, #87, .T. ) ;
#51 = CARTESIAN_POINT ( 'NONE',  ( 0.3551249999651975298, -2.723253226996780185, 7.000000000000000000 ) ) ;
#52 = PRODUCT_DEFINITION_SHAPE ( 'NONE', 'NONE',  #164 ) ;
#53 = VERTEX_POINT ( 'NONE', #70 ) ;
#54 = CC_DESIGN_DATE_AND_TIME_ASSIGNMENT ( #308, #40, ( #164 ) ) ;
#55 = DIRECTION ( 'NONE',  ( -0.9993908270190958731, -0.03489949670249428010, 0.000000000000000000 ) ) ;
#56 = ORIENTED_EDGE ( 'NONE', *, *, #277, .F. ) ;
#57 = DIRECTION ( 'NONE',  ( 0.000000000000000000, 0.000000000000000000, 1.000000000000000000 ) ) ;
#58 = VERTEX_POINT ( 'NONE', #292 ) ;
#59 = PRODUCT_DEFINITION_FORMATION_WITH_SPECIFIED_SOURCE ( 'ANY', '', #26, .NOT_KNOWN. ) ;
#60 = ADVANCED_FACE ( 'NONE', ( #328 ), #204, .F. ) ;
#61 = DIRECTION ( 'NONE',  ( -3.485384126420033333E-13, -1.000000000000000000, 0.000000000000000000 ) ) ;
#62 = ORIENTED_EDGE ( 'NONE', *, *, #113, .T. ) ;
#63 = CC_DESIGN_PERSON_AND_ORGANIZATION_ASSIGNMENT ( #390, #340, ( #59 ) ) ;
#64 = DIRECTION ( 'NONE',  ( -0.000000000000000000, -0.000000000000000000, -1.000000000000000000 ) ) ;
#65 = LINE ( 'NONE', #407, #438 ) ;
#66 = CARTESIAN_POINT ( 'NONE',  ( 0.3551250000566972265, 3.001549528634499975, -7.000000000000000000 ) ) ;
#67 = CARTESIAN_POINT ( 'NONE',  ( 1.484527364560580320, 1.384344158600975039, -7.000000000000000000 ) ) ;
#68 = ADVANCED_FACE ( 'NONE', ( #140 ), #464, .F. ) ;
#69 = CARTESIAN_POINT ( 'NONE',  ( -6.994875025828872772, 10.47738999221430234, -7.000000000000000000 ) ) ;
#70 = CARTESIAN_POINT ( 'NONE',  ( 0.3551250000564474263, 2.037380911795548144, 7.000000000000000000 ) ) ;
#71 = CC_DESIGN_DATE_AND_TIME_ASSIGNMENT ( #336, #77, ( #278 ) ) ;
#72 = COORDINATED_UNIVERSAL_TIME_OFFSET ( 1, 0, .AHEAD. ) ;
#73 = DIRECTION ( 'NONE',  ( -0.03489949670249008207, -0.9993908270190960952, 0.000000000000000000 ) ) ;
#74 = APPROVAL_STATUS ( 'not_yet_approved' ) ;
#75 = LINE ( 'NONE', #226, #310 ) ;
#76 = ADVANCED_FACE ( 'NONE', ( #391 ), #256, .F. ) ;
#77 = DATE_TIME_ROLE ( 'classification_date' ) ;
#78 = LINE ( 'NONE', #191, #325 ) ;
#79 = APPROVAL ( #417, 'UNSPECIFIED' ) ;
#80 = PLANE ( 'NONE',  #350 ) ;
#81 = PERSON_AND_ORGANIZATION ( #212, #24 ) ;
#82 = DIRECTION ( 'NONE',  ( -0.9986295347545740553, -0.05233595624294033744, 0.000000000000000000 ) ) ;
#83 = CARTESIAN_POINT ( 'NONE',  ( -23.03592114560350268, 11.54013782009829825, 7.000000000000000000 ) ) ;
#84 = CARTESIAN_POINT ( 'NONE',  ( -23.03592114560350268, 0.000000000000000000, 7.000000000000000000 ) ) ;
#85 = VECTOR ( 'NONE', #479, 1000.000000000000227 ) ;
#86 = VERTEX_POINT ( 'NONE', #309 ) ;
#87 = EDGE_CURVE ( 'NONE', #505, #240, #273, .T. ) ;
#88 = DIRECTION ( 'NONE',  ( 0.9986295347545740553, 0.05233595624294033744, 0.000000000000000000 ) ) ;
#89 = EDGE_LOOP ( 'NONE', ( #444, #339, #127, #324 ) ) ;
#90 = AXIS2_PLACEMENT_3D ( 'NONE', #199, #398, #91 ) ;
#91 = DIRECTION ( 'NONE',  ( 1.000000000000000000, 0.000000000000000000, 0.000000000000000000 ) ) ;
#92 = ORIENTED_EDGE ( 'NONE', *, *, #508, .F. ) ;
#93 = CARTESIAN_POINT ( 'NONE',  ( -1.394874999943561011, 1.976269565185000854, 7.000000000000000000 ) ) ;
#94 = ORIENTED_EDGE ( 'NONE', *, *, #162, .T. ) ;
#95 =( NAMED_UNIT ( * ) PLANE_ANGLE_UNIT ( ) SI_UNIT ( $, .RADIAN. ) );
#96 = ORIENTED_EDGE ( 'NONE', *, *, #5, .F. ) ;
#97 = ADVANCED_FACE ( 'NONE', ( #264 ), #80, .T. ) ;
#98 = CARTESIAN_POINT ( 'NONE',  ( -1.394874999943561011, -2.223730434814910062, -7.000000000000000000 ) ) ;
#99 = ORIENTED_EDGE ( 'NONE', *, *, #192, .T. ) ;
#100 = CARTESIAN_POINT ( 'NONE',  ( -18.94519211359817135, 7.540918895746568040, -7.000000000000000000 ) ) ;
#101 = VERTEX_POINT ( 'NONE', #418 ) ;
#102 = CARTESIAN_POINT ( 'NONE',  ( -1.394874999943561011, -2.223730434814909618, 7.000000000000000000 ) ) ;
#103 = CARTESIAN_POINT ( 'NONE',  ( -0.07925871954190913393, -2.269672767682391790, 7.000000000000000000 ) ) ;
#104 = B_SPLINE_SURFACE_WITH_KNOTS ( 'NONE', 2, 1, ( 
 ( #174, #135 ),
 ( #179, #482 ),
 ( #449, #69 ) ),
 .UNSPECIFIED., .F., .F., .F.,
 ( 3, 3 ),
 ( 2, 2 ),
 ( 0.5008207051229819351, 0.5020133117822229707 ),
 ( 0.000000000000000000, 1.000000000000000000 ),
 .UNSPECIFIED. ) ;
#105 = CARTESIAN_POINT ( 'NONE',  ( -1.394874999943561011, -2.223730434814910062, 7.000000000000000000 ) ) ;
#106 = VERTEX_POINT ( 'NONE', #428 ) ;
#107 = APPROVAL_PERSON_ORGANIZATION ( #225, #79, #503 ) ;
#108 = DIRECTION ( 'NONE',  ( 0.000000000000000000, 0.000000000000000000, 1.000000000000000000 ) ) ;
#109 = DIRECTION ( 'NONE',  ( -0.6819983588408874420, 0.7313537027583412176, 0.000000000000000000 ) ) ;
#110 = COORDINATED_UNIVERSAL_TIME_OFFSET ( 1, 0, .AHEAD. ) ;
#111 = CARTESIAN_POINT ( 'NONE',  ( -69.88413394276419410, -40.47183154957589579, 7.000000000000000000 ) ) ;
#112 = EDGE_LOOP ( 'NONE', ( #129, #486, #149, #27 ) ) ;
#113 = EDGE_CURVE ( 'NONE', #220, #499, #234, .T. ) ;
#114 = DIRECTION ( 'NONE',  ( 1.000000000000000000, 0.000000000000000000, 0.000000000000000000 ) ) ;
#115 = DIRECTION ( 'NONE',  ( -0.000000000000000000, 0.000000000000000000, 1.000000000000000000 ) ) ;
#116 = VECTOR ( 'NONE', #408, 1000.000000000000000 ) ;
#117 = CARTESIAN_POINT ( 'NONE',  ( -0.07925871954190913393, -2.269672767682391790, -7.000000000000000000 ) ) ;
#118 = CARTESIAN_POINT ( 'NONE',  ( 0.3551249999651975298, -2.723253226996780185, 7.000000000000000000 ) ) ;
#119 = LINE ( 'NONE', #287, #379 ) ;
#120 = ORIENTED_EDGE ( 'NONE', *, *, #246, .F. ) ;
#121 = VECTOR ( 'NONE', #275, 1000.000000000000114 ) ;
#122 = FACE_OUTER_BOUND ( 'NONE', #9, .T. ) ;
#123 = EDGE_LOOP ( 'NONE', ( #173, #11, #288, #440, #359, #399, #286, #183, #363, #235, #319, #197 ) ) ;
#124 = PLANE ( 'NONE',  #478 ) ;
#125 = ORIENTED_EDGE ( 'NONE', *, *, #28, .T. ) ;
#126 = CYLINDRICAL_SURFACE ( 'NONE', #490, 69.99999999999980105 ) ;
#127 = ORIENTED_EDGE ( 'NONE', *, *, #342, .F. ) ;
#128 = VECTOR ( 'NONE', #416, 1000.000000000000114 ) ;
#129 = ORIENTED_EDGE ( 'NONE', *, *, #355, .T. ) ;
#130 = CARTESIAN_POINT ( 'NONE',  ( -18.94519211359817135, 7.540918895746568040, 7.000000000000000000 ) ) ;
#131 = VECTOR ( 'NONE', #32, 1000.000000000000000 ) ;
#132 = ORIENTED_EDGE ( 'NONE', *, *, #217, .F. ) ;
#133 =( LENGTH_UNIT ( ) NAMED_UNIT ( * ) SI_UNIT ( .MILLI., .METRE. ) );
#134 = CARTESIAN_POINT ( 'NONE',  ( -6.994875025828874548, 10.47738999221430234, 7.000000000000000000 ) ) ;
#135 = CARTESIAN_POINT ( 'NONE',  ( 0.3551250000566972265, 3.001549528634499975, -7.000000000000000000 ) ) ;
#136 = ORIENTED_EDGE ( 'NONE', *, *, #228, .F. ) ;
#137 = LOCAL_TIME ( 0, 49, 23.00000000000000000, #506 ) ;
#138 = EDGE_CURVE ( 'NONE', #106, #101, #349, .T. ) ;
#139 = CARTESIAN_POINT ( 'NONE',  ( -1.394874999943561011, 1.976269565185000410, 7.000000000000000000 ) ) ;
#140 = FACE_OUTER_BOUND ( 'NONE', #294, .T. ) ;
#141 = VECTOR ( 'NONE', #382, 1000.000000000000000 ) ;
#142 = CARTESIAN_POINT ( 'NONE',  ( 1.484527364560580320, 1.384344158600975039, 7.000000000000000000 ) ) ;
#143 = EDGE_LOOP ( 'NONE', ( #254, #17, #321, #393 ) ) ;
#144 = PERSON_AND_ORGANIZATION_ROLE ( 'design_owner' ) ;
#145 = ORIENTED_EDGE ( 'NONE', *, *, #260, .F. ) ;
#146 = DIRECTION ( 'NONE',  ( 2.081376414897577884E-10, 1.000000000000000000, 0.000000000000000000 ) ) ;
#147 =( BOUNDED_CURVE ( )  B_SPLINE_CURVE ( 2, ( #442, #318, #93 ),
 .UNSPECIFIED., .F., .F. ) 
 B_SPLINE_CURVE_WITH_KNOTS ( ( 3, 3 ),
 ( 0.000000000000000000, 1.000000000000000000 ),
 .UNSPECIFIED. ) 
 CURVE ( )  GEOMETRIC_REPRESENTATION_ITEM ( )  RATIONAL_B_SPLINE_CURVE ( ( 1.000000000000000000, 3.231801218513670193, 1.000000000000000000 ) ) 
 REPRESENTATION_ITEM ( '' )  );
#148 = EDGE_CURVE ( 'NONE', #480, #446, #385, .T. ) ;
#149 = ORIENTED_EDGE ( 'NONE', *, *, #43, .F. ) ;
#150 = PLANE ( 'NONE',  #303 ) ;
#151 = VECTOR ( 'NONE', #195, 1000.000000000000000 ) ;
#152 = LINE ( 'NONE', #117, #238 ) ;
#153 = PERSON_AND_ORGANIZATION ( #212, #24 ) ;
#154 = DIRECTION ( 'NONE',  ( 1.000000000000000000, -2.081376414897577884E-10, 0.000000000000000000 ) ) ;
#155 = PRODUCT_RELATED_PRODUCT_CATEGORY ( 'detail', '', ( #26 ) ) ;
#156 = CARTESIAN_POINT ( 'NONE',  ( 1.484527364560580320, 1.384344158600975039, 7.000000000000000000 ) ) ;
#157 = CARTESIAN_POINT ( 'NONE',  ( -1.448726270043842357, 6.058427314146597631, 7.000000000000000000 ) ) ;
#158 = CLOSED_SHELL ( 'NONE', ( #60, #76, #198, #68, #419, #405, #443, #97, #295, #381, #348, #267, #327, #223 ) ) ;
#159 = EDGE_LOOP ( 'NONE', ( #211, #436, #252, #50 ) ) ;
#160 = CARTESIAN_POINT ( 'NONE',  ( 0.3551249999651975298, -2.723253226996780185, -7.000000000000000000 ) ) ;
#161 = ORIENTED_EDGE ( 'NONE', *, *, #167, .F. ) ;
#162 = EDGE_CURVE ( 'NONE', #243, #106, #497, .T. ) ;
#163 = ORIENTED_EDGE ( 'NONE', *, *, #493, .T. ) ;
#164 = PRODUCT_DEFINITION ( 'UNKNOWN', '', #59, #187 ) ;
#165 = DIRECTION ( 'NONE',  ( 3.485384126420032828E-13, 1.000000000000000000, 0.000000000000000000 ) ) ;
#166 = VERTEX_POINT ( 'NONE', #194 ) ;
#167 = EDGE_CURVE ( 'NONE', #480, #58, #38, .T. ) ;
#168 = VECTOR ( 'NONE', #485, 1000.000000000000000 ) ;
#169 =( BOUNDED_CURVE ( )  B_SPLINE_CURVE ( 2, ( #205, #362, #476 ),
 .UNSPECIFIED., .F., .F. ) 
 B_SPLINE_CURVE_WITH_KNOTS ( ( 3, 3 ),
 ( 0.000000000000000000, 1.000000000000000000 ),
 .UNSPECIFIED. ) 
 CURVE ( )  GEOMETRIC_REPRESENTATION_ITEM ( )  RATIONAL_B_SPLINE_CURVE ( ( 1.000000000000000000, 3.231801218513670193, 1.000000000000000000 ) ) 
 REPRESENTATION_ITEM ( '' )  );
#170 = CARTESIAN_POINT ( 'NONE',  ( -18.94519211359817135, 7.540918895746568040, 7.000000000000000000 ) ) ;
#171 = ORIENTED_EDGE ( 'NONE', *, *, #148, .F. ) ;
#172 = LINE ( 'NONE', #293, #245 ) ;
#173 = ORIENTED_EDGE ( 'NONE', *, *, #283, .T. ) ;
#174 = CARTESIAN_POINT ( 'NONE',  ( 0.3551250000566972265, 3.001549528634499975, 7.000000000000000000 ) ) ;
#175 = CARTESIAN_POINT ( 'NONE',  ( -0.7423668819740020242, -3.935206599586729137, -7.000000000000000000 ) ) ;
#176 = EDGE_CURVE ( 'NONE', #86, #367, #152, .T. ) ;
#177 = FACE_OUTER_BOUND ( 'NONE', #112, .T. ) ;
#178 = CARTESIAN_POINT ( 'NONE',  ( -2.846604824987382987, -5.059081103884319752, 7.000000000000000000 ) ) ;
#179 = CARTESIAN_POINT ( 'NONE',  ( -1.448726270043842357, 6.058427314146597631, 7.000000000000000000 ) ) ;
#180 = ORIENTED_EDGE ( 'NONE', *, *, #28, .F. ) ;
#181 = AXIS2_PLACEMENT_3D ( 'NONE', #186, #154, #146 ) ;
#182 = APPLICATION_PROTOCOL_DEFINITION ( 'international standard', 'config_control_design', 1994, #284 ) ;
#183 = ORIENTED_EDGE ( 'NONE', *, *, #260, .T. ) ;
#184 = EDGE_CURVE ( 'NONE', #356, #58, #78, .T. ) ;
#185 = MECHANICAL_CONTEXT ( 'NONE', #284, 'mechanical' ) ;
#186 = CARTESIAN_POINT ( 'NONE',  ( 0.3551250005320090164, -7.391488004478132823E-11, 7.000000000000000000 ) ) ;
#187 = DESIGN_CONTEXT ( 'detailed design', #214, 'design' ) ;
#188 = CALENDAR_DATE ( 2026, 27, 8 ) ;
#189 = CARTESIAN_POINT ( 'NONE',  ( -69.88413394276419410, -40.47183154957589579, -7.000000000000000000 ) ) ;
#190 = PERSON_AND_ORGANIZATION ( #212, #24 ) ;
#191 = CARTESIAN_POINT ( 'NONE',  ( -23.03592114560350268, 0.000000000000000000, 7.000000000000000000 ) ) ;
#192 = EDGE_CURVE ( 'NONE', #58, #101, #504, .T. ) ;
#193 = SHAPE_DEFINITION_REPRESENTATION ( #52, #269 ) ;
#194 = CARTESIAN_POINT ( 'NONE',  ( 0.3551250000564473708, -2.284841781425449359, 7.000000000000000000 ) ) ;
#195 = DIRECTION ( 'NONE',  ( -0.000000000000000000, -0.000000000000000000, -1.000000000000000000 ) ) ;
#196 = CARTESIAN_POINT ( 'NONE',  ( -1.394874999943561011, 1.976269565185000854, -7.000000000000000000 ) ) ;
#197 = ORIENTED_EDGE ( 'NONE', *, *, #207, .F. ) ;
#198 = ADVANCED_FACE ( 'NONE', ( #387 ), #378, .T. ) ;
#199 = CARTESIAN_POINT ( 'NONE',  ( 0.000000000000000000, 0.000000000000000000, -7.000000000000000000 ) ) ;
#200 = ORIENTED_EDGE ( 'NONE', *, *, #458, .T. ) ;
#201 = VECTOR ( 'NONE', #44, 1000.000000000000000 ) ;
#202 = CARTESIAN_POINT ( 'NONE',  ( -2.846604824987382987, -5.059081103884319752, 7.000000000000000000 ) ) ;
#203 = VERTEX_POINT ( 'NONE', #302 ) ;
#204 = B_SPLINE_SURFACE_WITH_KNOTS ( 'NONE', 2, 1, ( 
 ( #23, #450 ),
 ( #291, #496 ),
 ( #178, #448 ) ),
 .UNSPECIFIED., .F., .F., .F.,
 ( 3, 3 ),
 ( 2, 2 ),
 ( 0.4976672411085089620, 0.4995542795880109632 ),
 ( 0.000000000000000000, 1.000000000000000000 ),
 .UNSPECIFIED. ) ;
#205 = CARTESIAN_POINT ( 'NONE',  ( -1.394874999943561011, -2.223730434814909618, -7.000000000000000000 ) ) ;
#206 = ORIENTED_EDGE ( 'NONE', *, *, #113, .F. ) ;
#207 = EDGE_CURVE ( 'NONE', #433, #356, #18, .T. ) ;
#208 = LINE ( 'NONE', #400, #121 ) ;
#209 = ORIENTED_EDGE ( 'NONE', *, *, #333, .F. ) ;
#210 = CARTESIAN_POINT ( 'NONE',  ( -8.981845694529432933, 12.60815517220120086, 7.000000000000000000 ) ) ;
#211 = ORIENTED_EDGE ( 'NONE', *, *, #389, .F. ) ;
#212 = PERSON ( 'UNSPECIFIED', 'UNSPECIFIED', 'UNSPECIFIED', ('UNSPECIFIED'), ('UNSPECIFIED'), ('UNSPECIFIED') ) ;
#213 = CARTESIAN_POINT ( 'NONE',  ( 0.3551250000564474263, 2.037380911795548144, -7.000000000000000000 ) ) ;
#214 = APPLICATION_CONTEXT ( 'configuration controlled 3d designs of mechanical parts and assemblies' ) ;
#215 = CARTESIAN_POINT ( 'NONE',  ( -1.394874999943561011, 1.976269565185000854, 7.000000000000000000 ) ) ;
#216 = CARTESIAN_POINT ( 'NONE',  ( 0.3551250000566972265, 3.001549528634499975, -7.000000000000000000 ) ) ;
#217 = EDGE_CURVE ( 'NONE', #33, #30, #75, .T. ) ;
#218 = ORIENTED_EDGE ( 'NONE', *, *, #138, .F. ) ;
#219 = FACE_OUTER_BOUND ( 'NONE', #89, .T. ) ;
#220 = VERTEX_POINT ( 'NONE', #507 ) ;
#221 = CARTESIAN_POINT ( 'NONE',  ( 0.3551250000556511188, -1.237747038088879550E-13, 7.000000000000000000 ) ) ;
#222 = DIRECTION ( 'NONE',  ( 0.9993908270190958731, 0.03489949670249428010, 0.000000000000000000 ) ) ;
#223 = ADVANCED_FACE ( 'NONE', ( #306 ), #150, .F. ) ;
#224 = CARTESIAN_POINT ( 'NONE',  ( -23.03592114560350268, 11.87161228793415191, 7.000000000000000000 ) ) ;
#225 = PERSON_AND_ORGANIZATION ( #212, #24 ) ;
#226 = CARTESIAN_POINT ( 'NONE',  ( -6.994875025828874548, 10.47738999221430234, 7.000000000000000000 ) ) ;
#227 = APPROVAL_DATE_TIME ( #463, #79 ) ;
#228 = EDGE_CURVE ( 'NONE', #367, #401, #169, .T. ) ;
#229 = CARTESIAN_POINT ( 'NONE',  ( -8.981845694529432933, 12.60815517220120086, 7.000000000000000000 ) ) ;
#230 = CARTESIAN_POINT ( 'NONE',  ( 0.000000000000000000, 0.000000000000000000, 0.000000000000000000 ) ) ;
#231 = CARTESIAN_POINT ( 'NONE',  ( 0.3551249999651975298, -2.723253226996780185, 7.000000000000000000 ) ) ;
#232 = APPROVAL ( #262, 'UNSPECIFIED' ) ;
#233 = PERSON_AND_ORGANIZATION ( #212, #24 ) ;
#234 = LINE ( 'NONE', #1, #141 ) ;
#235 = ORIENTED_EDGE ( 'NONE', *, *, #167, .T. ) ;
#236 = FACE_OUTER_BOUND ( 'NONE', #276, .T. ) ;
#237 = EDGE_CURVE ( 'NONE', #401, #404, #430, .T. ) ;
#238 = VECTOR ( 'NONE', #460, 1000.000000000000114 ) ;
#239 = FACE_OUTER_BOUND ( 'NONE', #396, .T. ) ;
#240 = VERTEX_POINT ( 'NONE', #160 ) ;
#241 = CC_DESIGN_PERSON_AND_ORGANIZATION_ASSIGNMENT ( #190, #268, ( #278 ) ) ;
#242 = PLANE ( 'NONE',  #90 ) ;
#243 = VERTEX_POINT ( 'NONE', #46 ) ;
#244 = CARTESIAN_POINT ( 'NONE',  ( -2.846604824987382987, -5.059081103884319752, 7.000000000000000000 ) ) ;
#245 = VECTOR ( 'NONE', #64, 1000.000000000000000 ) ;
#246 = EDGE_CURVE ( 'NONE', #446, #101, #208, .T. ) ;
#247 = ORIENTED_EDGE ( 'NONE', *, *, #473, .F. ) ;
#248 = DIRECTION ( 'NONE',  ( -0.000000000000000000, -0.000000000000000000, -1.000000000000000000 ) ) ;
#249 = VERTEX_POINT ( 'NONE', #315 ) ;
#250 = CARTESIAN_POINT ( 'NONE',  ( -2.846604824987382987, -5.059081103884319752, -7.000000000000000000 ) ) ;
#251 = LINE ( 'NONE', #102, #116 ) ;
#252 = ORIENTED_EDGE ( 'NONE', *, *, #397, .T. ) ;
#253 = CARTESIAN_POINT ( 'NONE',  ( -10.21500838427921387, -3.697644103227559320, -7.000000000000000000 ) ) ;
#254 = ORIENTED_EDGE ( 'NONE', *, *, #162, .F. ) ;
#255 = LINE ( 'NONE', #142, #2 ) ;
#256 = B_SPLINE_SURFACE_WITH_KNOTS ( 'NONE', 2, 1, ( 
 ( #35, #274 ),
 ( #346, #3 ),
 ( #231, #338 ) ),
 .UNSPECIFIED., .F., .F., .F.,
 ( 3, 3 ),
 ( 2, 2 ),
 ( 0.4988120746294950059, 0.4994128454637969949 ),
 ( 0.000000000000000000, 1.000000000000000000 ),
 .UNSPECIFIED. ) ;
#257 = LINE ( 'NONE', #67, #488 ) ;
#258 = VECTOR ( 'NONE', #165, 1000.000000000000000 ) ;
#259 = ORIENTED_EDGE ( 'NONE', *, *, #434, .F. ) ;
#260 = EDGE_CURVE ( 'NONE', #203, #33, #487, .T. ) ;
#261 = CC_DESIGN_APPROVAL ( #232, ( #278 ) ) ;
#262 = APPROVAL_STATUS ( 'not_yet_approved' ) ;
#263 = VECTOR ( 'NONE', #19, 1000.000000000000000 ) ;
#264 = FACE_OUTER_BOUND ( 'NONE', #475, .T. ) ;
#265 = COORDINATED_UNIVERSAL_TIME_OFFSET ( 1, 0, .AHEAD. ) ;
#266 = DIRECTION ( 'NONE',  ( -0.000000000000000000, 0.000000000000000000, 1.000000000000000000 ) ) ;
#267 = ADVANCED_FACE ( 'NONE', ( #471 ), #431, .T. ) ;
#268 = PERSON_AND_ORGANIZATION_ROLE ( 'classification_officer' ) ;
#269 = ADVANCED_BREP_SHAPE_REPRESENTATION ( 'lente dot l8_v7_croquis6_D1_plus1', ( #494, #272 ), #364 ) ;
#270 = AXIS2_PLACEMENT_3D ( 'NONE', #84, #453, #57 ) ;
#271 = DIRECTION ( 'NONE',  ( -0.000000000000000000, -0.000000000000000000, -1.000000000000000000 ) ) ;
#272 = AXIS2_PLACEMENT_3D ( 'NONE', #230, #108, #114 ) ;
#273 = LINE ( 'NONE', #118, #151 ) ;
#274 = CARTESIAN_POINT ( 'NONE',  ( -2.846604824987382987, -5.059081103884319752, -7.000000000000000000 ) ) ;
#275 = DIRECTION ( 'NONE',  ( -0.9986295347545740553, -0.05233595624294033744, 0.000000000000000000 ) ) ;
#276 = EDGE_LOOP ( 'NONE', ( #337, #94, #47, #120, #125, #247, #483, #414, #136, #21, #462, #280 ) ) ;
#277 = EDGE_CURVE ( 'NONE', #356, #106, #14, .T. ) ;
#278 = SECURITY_CLASSIFICATION ( '', '', #31 ) ;
#279 = PLANE ( 'NONE',  #270 ) ;
#280 = ORIENTED_EDGE ( 'NONE', *, *, #20, .F. ) ;
#281 = DIRECTION ( 'NONE',  ( -0.000000000000000000, -0.000000000000000000, -1.000000000000000000 ) ) ;
#282 = ORIENTED_EDGE ( 'NONE', *, *, #317, .T. ) ;
#283 = EDGE_CURVE ( 'NONE', #433, #220, #451, .T. ) ;
#284 = APPLICATION_CONTEXT ( 'configuration controlled 3d designs of mechanical parts and assemblies' ) ;
#285 = CARTESIAN_POINT ( 'NONE',  ( -69.88413394276419410, -40.47183154957589579, 7.000000000000000000 ) ) ;
#286 = ORIENTED_EDGE ( 'NONE', *, *, #43, .T. ) ;
#287 = CARTESIAN_POINT ( 'NONE',  ( 0.3551250000564473708, -2.284841781425449359, 7.000000000000000000 ) ) ;
#288 = ORIENTED_EDGE ( 'NONE', *, *, #397, .F. ) ;
#289 = LINE ( 'NONE', #326, #357 ) ;
#290 = ORIENTED_EDGE ( 'NONE', *, *, #500, .T. ) ;
#291 = CARTESIAN_POINT ( 'NONE',  ( -10.21500838427921387, -3.697644103227559320, 7.000000000000000000 ) ) ;
#292 = CARTESIAN_POINT ( 'NONE',  ( -23.03592114560350268, 11.87161228793415191, 7.000000000000000000 ) ) ;
#293 = CARTESIAN_POINT ( 'NONE',  ( 0.3551250000566972265, 3.001549528634499975, 7.000000000000000000 ) ) ;
#294 = EDGE_LOOP ( 'NONE', ( #335, #259, #96, #282 ) ) ;
#295 = ADVANCED_FACE ( 'NONE', ( #239 ), #124, .F. ) ;
#296 = DIRECTION ( 'NONE',  ( -0.000000000000000000, -0.000000000000000000, -1.000000000000000000 ) ) ;
#297 = ORIENTED_EDGE ( 'NONE', *, *, #473, .T. ) ;
#298 = PERSON_AND_ORGANIZATION ( #212, #24 ) ;
#299 = CARTESIAN_POINT ( 'NONE',  ( -6.994875025828874548, 10.47738999221430234, -7.000000000000000000 ) ) ;
#300 = CC_DESIGN_APPROVAL ( #351, ( #164 ) ) ;
#301 = APPROVAL_ROLE ( '' ) ;
#302 = CARTESIAN_POINT ( 'NONE',  ( 0.3551250000566972265, 3.001549528634499975, 7.000000000000000000 ) ) ;
#303 = AXIS2_PLACEMENT_3D ( 'NONE', #466, #345, #55 ) ;
#304 =( NAMED_UNIT ( * ) SI_UNIT ( $, .STERADIAN. ) SOLID_ANGLE_UNIT ( ) );
#305 = DIRECTION ( 'NONE',  ( 0.7313537027583412176, 0.6819983588408874420, -0.000000000000000000 ) ) ;
#306 = FACE_OUTER_BOUND ( 'NONE', #491, .T. ) ;
#307 = CC_DESIGN_APPROVAL ( #79, ( #59 ) ) ;
#308 = DATE_AND_TIME ( #456, #137 ) ;
#309 = CARTESIAN_POINT ( 'NONE',  ( 0.3551250000564473708, -2.284841781425449359, -7.000000000000000000 ) ) ;
#310 = VECTOR ( 'NONE', #41, 1000.000000000000000 ) ;
#311 = CARTESIAN_POINT ( 'NONE',  ( -0.6835572876454348856, 13.04305003945616726, 7.000000000000000000 ) ) ;
#312 = DIRECTION ( 'NONE',  ( -1.000000000000000000, 0.000000000000000000, 0.000000000000000000 ) ) ;
#313 = AXIS2_PLACEMENT_3D ( 'NONE', #392, #474, #354 ) ;
#314 = ORIENTED_EDGE ( 'NONE', *, *, #148, .T. ) ;
#315 = CARTESIAN_POINT ( 'NONE',  ( -1.394874999943561011, -2.223730434814909618, 7.000000000000000000 ) ) ;
#316 = ORIENTED_EDGE ( 'NONE', *, *, #87, .F. ) ;
#317 = EDGE_CURVE ( 'NONE', #166, #86, #119, .T. ) ;
#318 = CARTESIAN_POINT ( 'NONE',  ( -0.9075306697980521919, -0.1237304348149260991, 7.000000000000000000 ) ) ;
#319 = ORIENTED_EDGE ( 'NONE', *, *, #184, .F. ) ;
#320 = CARTESIAN_POINT ( 'NONE',  ( -23.03592114560350268, 11.54013782009829825, 7.000000000000000000 ) ) ;
#321 = ORIENTED_EDGE ( 'NONE', *, *, #207, .T. ) ;
#322 = LOCAL_TIME ( 0, 49, 23.00000000000000000, #265 ) ;
#323 = LINE ( 'NONE', #130, #168 ) ;
#324 = ORIENTED_EDGE ( 'NONE', *, *, #434, .T. ) ;
#325 = VECTOR ( 'NONE', #510, 1000.000000000000000 ) ;
#326 = CARTESIAN_POINT ( 'NONE',  ( 0.3551250000564474263, 2.037380911795548144, 7.000000000000000000 ) ) ;
#327 = ADVANCED_FACE ( 'NONE', ( #236 ), #242, .F. ) ;
#328 = FACE_OUTER_BOUND ( 'NONE', #374, .T. ) ;
#329 = CARTESIAN_POINT ( 'NONE',  ( -2.846604824987382987, -5.059081103884319752, -7.000000000000000000 ) ) ;
#330 = DIRECTION ( 'NONE',  ( 3.485384126420032828E-13, 1.000000000000000000, 0.000000000000000000 ) ) ;
#331 = CARTESIAN_POINT ( 'NONE',  ( -1.448726270043842357, 6.058427314146597631, -7.000000000000000000 ) ) ;
#332 = ORIENTED_EDGE ( 'NONE', *, *, #365, .T. ) ;
#333 = EDGE_CURVE ( 'NONE', #220, #505, #37, .T. ) ;
#334 = CARTESIAN_POINT ( 'NONE',  ( 0.3551249999651975298, -2.723253226996780185, 7.000000000000000000 ) ) ;
#335 = ORIENTED_EDGE ( 'NONE', *, *, #176, .T. ) ;
#336 = DATE_AND_TIME ( #423, #467 ) ;
#337 = ORIENTED_EDGE ( 'NONE', *, *, #410, .F. ) ;
#338 = CARTESIAN_POINT ( 'NONE',  ( 0.3551249999651975298, -2.723253226996780185, -7.000000000000000000 ) ) ;
#339 = ORIENTED_EDGE ( 'NONE', *, *, #365, .F. ) ;
#340 = PERSON_AND_ORGANIZATION_ROLE ( 'creator' ) ;
#341 = DIRECTION ( 'NONE',  ( 1.000000000000000000, 0.000000000000000000, 0.000000000000000000 ) ) ;
#342 = EDGE_CURVE ( 'NONE', #249, #15, #147, .T. ) ;
#343 = VECTOR ( 'NONE', #82, 1000.000000000000114 ) ;
#344 = CALENDAR_DATE ( 2026, 27, 8 ) ;
#345 = DIRECTION ( 'NONE',  ( -0.03489949670249428704, 0.9993908270190959842, 0.000000000000000000 ) ) ;
#346 = CARTESIAN_POINT ( 'NONE',  ( -0.7423668819740020242, -3.935206599586729137, 7.000000000000000000 ) ) ;
#347 = LOCAL_TIME ( 0, 49, 23.00000000000000000, #34 ) ;
#348 = ADVANCED_FACE ( 'NONE', ( #360 ), #126, .F. ) ;
#349 = LINE ( 'NONE', #425, #426 ) ;
#350 = AXIS2_PLACEMENT_3D ( 'NONE', #156, #305, #109 ) ;
#351 = APPROVAL ( #74, 'UNSPECIFIED' ) ;
#352 = CARTESIAN_POINT ( 'NONE',  ( 0.3551250000556511188, -1.237747038088879550E-13, -7.000000000000000000 ) ) ;
#353 = ORIENTED_EDGE ( 'NONE', *, *, #283, .F. ) ;
#354 = DIRECTION ( 'NONE',  ( 1.000000000000000000, 0.000000000000000000, 0.000000000000000000 ) ) ;
#355 = EDGE_CURVE ( 'NONE', #404, #409, #12, .T. ) ;
#356 = VERTEX_POINT ( 'NONE', #320 ) ;
#357 = VECTOR ( 'NONE', #296, 1000.000000000000000 ) ;
#358 = CARTESIAN_POINT ( 'NONE',  ( -0.7423668819740020242, -3.935206599586729137, 7.000000000000000000 ) ) ;
#359 = ORIENTED_EDGE ( 'NONE', *, *, #342, .T. ) ;
#360 = FACE_OUTER_BOUND ( 'NONE', #143, .T. ) ;
#361 = ORIENTED_EDGE ( 'NONE', *, *, #184, .T. ) ;
#362 = CARTESIAN_POINT ( 'NONE',  ( -0.9075306697980521919, -0.1237304348149260991, -7.000000000000000000 ) ) ;
#363 = ORIENTED_EDGE ( 'NONE', *, *, #493, .F. ) ;
#364 =( GEOMETRIC_REPRESENTATION_CONTEXT ( 3 ) GLOBAL_UNCERTAINTY_ASSIGNED_CONTEXT ( ( #492 ) ) GLOBAL_UNIT_ASSIGNED_CONTEXT ( ( #133, #95, #304 ) ) REPRESENTATION_CONTEXT ( 'NONE', 'WORKASPACE' ) );
#365 = EDGE_CURVE ( 'NONE', #15, #401, #403, .T. ) ;
#366 = LINE ( 'NONE', #375, #368 ) ;
#367 = VERTEX_POINT ( 'NONE', #6 ) ;
#368 = VECTOR ( 'NONE', #371, 1000.000000000000000 ) ;
#369 = DIRECTION ( 'NONE',  ( -1.000000000000000000, 3.485384126420033333E-13, 0.000000000000000000 ) ) ;
#370 = DIRECTION ( 'NONE',  ( 0.6819983588408874420, -0.7313537027583412176, 0.000000000000000000 ) ) ;
#371 = DIRECTION ( 'NONE',  ( -2.081376414897577625E-10, -1.000000000000000000, 0.000000000000000000 ) ) ;
#372 = CARTESIAN_POINT ( 'NONE',  ( 0.3551249999651975298, -2.723253226996780185, -7.000000000000000000 ) ) ;
#373 = CARTESIAN_POINT ( 'NONE',  ( -1.394874999943561011, 1.976269565185000854, -7.000000000000000000 ) ) ;
#374 = EDGE_LOOP ( 'NONE', ( #454, #206, #353, #290 ) ) ;
#375 = CARTESIAN_POINT ( 'NONE',  ( 0.3551250005320090164, -7.391488004478132823E-11, 7.000000000000000000 ) ) ;
#376 = ORIENTED_EDGE ( 'NONE', *, *, #192, .F. ) ;
#377 = DATE_AND_TIME ( #344, #502 ) ;
#378 = PLANE ( 'NONE',  #181 ) ;
#379 = VECTOR ( 'NONE', #281, 1000.000000000000000 ) ;
#380 = VECTOR ( 'NONE', #8, 1000.000000000000000 ) ;
#381 = ADVANCED_FACE ( 'NONE', ( #122 ), #279, .T. ) ;
#382 = DIRECTION ( 'NONE',  ( -0.000000000000000000, -0.000000000000000000, -1.000000000000000000 ) ) ;
#383 = APPROVAL_PERSON_ORGANIZATION ( #298, #232, #301 ) ;
#384 = PERSON_AND_ORGANIZATION_ROLE ( 'creator' ) ;
#385 = LINE ( 'NONE', #229, #131 ) ;
#386 = APPROVAL_DATE_TIME ( #511, #351 ) ;
#387 = FACE_OUTER_BOUND ( 'NONE', #159, .T. ) ;
#388 = B_SPLINE_CURVE_WITH_KNOTS ( 'NONE', 2,
 ( #100, #253, #329 ),
 .UNSPECIFIED., .F., .F.,
 ( 3, 3 ),
 ( 0.4976672411085089620, 0.4995542795880109632 ),
 .UNSPECIFIED. ) ;
#389 = EDGE_CURVE ( 'NONE', #86, #240, #16, .T. ) ;
#390 = PERSON_AND_ORGANIZATION ( #212, #24 ) ;
#391 = FACE_OUTER_BOUND ( 'NONE', #501, .T. ) ;
#392 = CARTESIAN_POINT ( 'NONE',  ( 0.000000000000000000, 0.000000000000000000, 7.000000000000000000 ) ) ;
#393 = ORIENTED_EDGE ( 'NONE', *, *, #277, .T. ) ;
#394 = CARTESIAN_POINT ( 'NONE',  ( -0.6835572876454348856, 13.04305003945616726, 7.000000000000000000 ) ) ;
#395 =( BOUNDED_SURFACE ( )  B_SPLINE_SURFACE ( 2, 1, ( 
 ( #105, #98 ),
 ( #447, #406 ),
 ( #139, #498 ) ),
 .UNSPECIFIED., .F., .F., .T. ) 
 B_SPLINE_SURFACE_WITH_KNOTS ( ( 3, 3 ),
 ( 2, 2 ),
 ( 0.000000000000000000, 1.000000000000000000 ),
 ( 0.000000000000000000, 1.000000000000000000 ),
 .UNSPECIFIED. ) 
 GEOMETRIC_REPRESENTATION_ITEM ( )  RATIONAL_B_SPLINE_SURFACE ( (
 ( 1.000000000000000000, 1.000000000000000000),
 ( 3.231801218513670193, 3.231801218513670193),
 ( 1.000000000000000000, 1.000000000000000000) ) ) 
 REPRESENTATION_ITEM ( '' )  SURFACE ( )  );
#396 = EDGE_LOOP ( 'NONE', ( #7, #376, #161, #314 ) ) ;
#397 = EDGE_CURVE ( 'NONE', #166, #505, #366, .T. ) ;
#398 = DIRECTION ( 'NONE',  ( -0.000000000000000000, 0.000000000000000000, 1.000000000000000000 ) ) ;
#399 = ORIENTED_EDGE ( 'NONE', *, *, #49, .T. ) ;
#400 = CARTESIAN_POINT ( 'NONE',  ( -0.6835572876454348856, 13.04305003945616726, -7.000000000000000000 ) ) ;
#401 = VERTEX_POINT ( 'NONE', #373 ) ;
#402 = VECTOR ( 'NONE', #271, 1000.000000000000000 ) ;
#403 = LINE ( 'NONE', #439, #201 ) ;
#404 = VERTEX_POINT ( 'NONE', #213 ) ;
#405 = ADVANCED_FACE ( 'NONE', ( #177 ), #415, .F. ) ;
#406 = CARTESIAN_POINT ( 'NONE',  ( -0.9075306697980521919, -0.1237304348149260991, -7.000000000000000000 ) ) ;
#407 = CARTESIAN_POINT ( 'NONE',  ( -1.394874999943561011, 1.976269565185000854, 7.000000000000000000 ) ) ;
#408 = DIRECTION ( 'NONE',  ( -0.000000000000000000, -0.000000000000000000, -1.000000000000000000 ) ) ;
#409 = VERTEX_POINT ( 'NONE', #66 ) ;
#410 = EDGE_CURVE ( 'NONE', #243, #499, #388, .T. ) ;
#411 = CARTESIAN_POINT ( 'NONE',  ( -18.94519211359817135, 7.540918895746568040, 7.000000000000000000 ) ) ;
#412 = CARTESIAN_POINT ( 'NONE',  ( 0.3551250000556511188, -1.237747038088879550E-13, 7.000000000000000000 ) ) ;
#413 = DIRECTION ( 'NONE',  ( 0.6819983588408874420, -0.7313537027583412176, 0.000000000000000000 ) ) ;
#414 = ORIENTED_EDGE ( 'NONE', *, *, #237, .F. ) ;
#415 = PLANE ( 'NONE',  #432 ) ;
#416 = DIRECTION ( 'NONE',  ( -0.9993908270190959842, 0.03489949670249007513, 0.000000000000000000 ) ) ;
#417 = APPROVAL_STATUS ( 'not_yet_approved' ) ;
#418 = CARTESIAN_POINT ( 'NONE',  ( -23.03592114560350268, 11.87161228793415191, -7.000000000000000000 ) ) ;
#419 = ADVANCED_FACE ( 'NONE', ( #219 ), #395, .F. ) ;
#420 = APPROVAL_ROLE ( '' ) ;
#421 = DIRECTION ( 'NONE',  ( 1.000000000000000000, 0.000000000000000000, 0.000000000000000000 ) ) ;
#422 = ORIENTED_EDGE ( 'NONE', *, *, #49, .F. ) ;
#423 = CALENDAR_DATE ( 2026, 27, 8 ) ;
#424 = DIRECTION ( 'NONE',  ( 0.000000000000000000, 1.000000000000000000, -0.000000000000000000 ) ) ;
#425 = CARTESIAN_POINT ( 'NONE',  ( -23.03592114560350268, 0.000000000000000000, -7.000000000000000000 ) ) ;
#426 = VECTOR ( 'NONE', #424, 1000.000000000000000 ) ;
#427 = APPLICATION_PROTOCOL_DEFINITION ( 'international standard', 'config_control_design', 1994, #214 ) ;
#428 = CARTESIAN_POINT ( 'NONE',  ( -23.03592114560350268, 11.54013782009829825, -7.000000000000000000 ) ) ;
#429 = CC_DESIGN_PERSON_AND_ORGANIZATION_ASSIGNMENT ( #36, #459, ( #59 ) ) ;
#430 = LINE ( 'NONE', #196, #85 ) ;
#431 = PLANE ( 'NONE',  #313 ) ;
#432 = AXIS2_PLACEMENT_3D ( 'NONE', #221, #369, #61 ) ;
#433 = VERTEX_POINT ( 'NONE', #411 ) ;
#434 = EDGE_CURVE ( 'NONE', #249, #367, #251, .T. ) ;
#435 = CARTESIAN_POINT ( 'NONE',  ( -6.994875025828874548, 10.47738999221430234, 7.000000000000000000 ) ) ;
#436 = ORIENTED_EDGE ( 'NONE', *, *, #317, .F. ) ;
#437 = VECTOR ( 'NONE', #330, 1000.000000000000000 ) ;
#438 = VECTOR ( 'NONE', #222, 1000.000000000000227 ) ;
#439 = CARTESIAN_POINT ( 'NONE',  ( -1.394874999943561011, 1.976269565185000854, 7.000000000000000000 ) ) ;
#440 = ORIENTED_EDGE ( 'NONE', *, *, #5, .T. ) ;
#441 = CC_DESIGN_SECURITY_CLASSIFICATION ( #278, ( #59 ) ) ;
#442 = CARTESIAN_POINT ( 'NONE',  ( -1.394874999943561011, -2.223730434814909618, 7.000000000000000000 ) ) ;
#443 = ADVANCED_FACE ( 'NONE', ( #489 ), #104, .F. ) ;
#444 = ORIENTED_EDGE ( 'NONE', *, *, #228, .T. ) ;
#445 = AXIS2_PLACEMENT_3D ( 'NONE', #468, #73, #42 ) ;
#446 = VERTEX_POINT ( 'NONE', #29 ) ;
#447 = CARTESIAN_POINT ( 'NONE',  ( -0.9075306697980521919, -0.1237304348149260991, 7.000000000000000000 ) ) ;
#448 = CARTESIAN_POINT ( 'NONE',  ( -2.846604824987382987, -5.059081103884319752, -7.000000000000000000 ) ) ;
#449 = CARTESIAN_POINT ( 'NONE',  ( -6.994875025828872772, 10.47738999221430234, 7.000000000000000000 ) ) ;
#450 = CARTESIAN_POINT ( 'NONE',  ( -18.94519211359818911, 7.540918895746552053, -7.000000000000000000 ) ) ;
#451 = B_SPLINE_CURVE_WITH_KNOTS ( 'NONE', 2,
 ( #170, #10, #244 ),
 .UNSPECIFIED., .F., .F.,
 ( 3, 3 ),
 ( 0.4976672411085089620, 0.4995542795880109632 ),
 .UNSPECIFIED. ) ;
#452 = B_SPLINE_CURVE_WITH_KNOTS ( 'NONE', 2,
 ( #216, #331, #22 ),
 .UNSPECIFIED., .F., .F.,
 ( 3, 3 ),
 ( 0.5008207051229819351, 0.5020133117822229707 ),
 .UNSPECIFIED. ) ;
#453 = DIRECTION ( 'NONE',  ( -1.000000000000000000, 0.000000000000000000, 0.000000000000000000 ) ) ;
#454 = ORIENTED_EDGE ( 'NONE', *, *, #410, .T. ) ;
#455 = LINE ( 'NONE', #103, #128 ) ;
#456 = CALENDAR_DATE ( 2026, 27, 8 ) ;
#457 = LINE ( 'NONE', #412, #437 ) ;
#458 = EDGE_CURVE ( 'NONE', #203, #409, #172, .T. ) ;
#459 = PERSON_AND_ORGANIZATION_ROLE ( 'design_supplier' ) ;
#460 = DIRECTION ( 'NONE',  ( -0.9993908270190959842, 0.03489949670249007513, 0.000000000000000000 ) ) ;
#461 = CC_DESIGN_PERSON_AND_ORGANIZATION_ASSIGNMENT ( #233, #144, ( #26 ) ) ;
#462 = ORIENTED_EDGE ( 'NONE', *, *, #389, .T. ) ;
#463 = DATE_AND_TIME ( #188, #347 ) ;
#464 = PLANE ( 'NONE',  #445 ) ;
#465 = CALENDAR_DATE ( 2026, 27, 8 ) ;
#466 = CARTESIAN_POINT ( 'NONE',  ( -1.394874999943561011, 1.976269565185000854, 7.000000000000000000 ) ) ;
#467 = LOCAL_TIME ( 0, 49, 23.00000000000000000, #110 ) ;
#468 = CARTESIAN_POINT ( 'NONE',  ( -0.07925871954190913393, -2.269672767682391790, 7.000000000000000000 ) ) ;
#469 = AXIS2_PLACEMENT_3D ( 'NONE', #111, #266, #341 ) ;
#470 = CARTESIAN_POINT ( 'NONE',  ( 0.3551250000566972265, 3.001549528634499975, 7.000000000000000000 ) ) ;
#471 = FACE_OUTER_BOUND ( 'NONE', #123, .T. ) ;
#472 = ORIENTED_EDGE ( 'NONE', *, *, #20, .T. ) ;
#473 = EDGE_CURVE ( 'NONE', #409, #30, #452, .T. ) ;
#474 = DIRECTION ( 'NONE',  ( -0.000000000000000000, 0.000000000000000000, 1.000000000000000000 ) ) ;
#475 = EDGE_LOOP ( 'NONE', ( #180, #171, #163, #13 ) ) ;
#476 = CARTESIAN_POINT ( 'NONE',  ( -1.394874999943561011, 1.976269565185000854, -7.000000000000000000 ) ) ;
#477 = ORIENTED_EDGE ( 'NONE', *, *, #237, .T. ) ;
#478 = AXIS2_PLACEMENT_3D ( 'NONE', #394, #48, #88 ) ;
#479 = DIRECTION ( 'NONE',  ( 0.9993908270190958731, 0.03489949670249428010, 0.000000000000000000 ) ) ;
#480 = VERTEX_POINT ( 'NONE', #210 ) ;
#481 = APPROVAL_PERSON_ORGANIZATION ( #153, #351, #420 ) ;
#482 = CARTESIAN_POINT ( 'NONE',  ( -1.448726270043842357, 6.058427314146597631, -7.000000000000000000 ) ) ;
#483 = ORIENTED_EDGE ( 'NONE', *, *, #355, .F. ) ;
#484 = AXIS2_PLACEMENT_3D ( 'NONE', #189, #115, #421 ) ;
#485 = DIRECTION ( 'NONE',  ( -0.000000000000000000, -0.000000000000000000, -1.000000000000000000 ) ) ;
#486 = ORIENTED_EDGE ( 'NONE', *, *, #458, .F. ) ;
#487 = B_SPLINE_CURVE_WITH_KNOTS ( 'NONE', 2,
 ( #470, #157, #435 ),
 .UNSPECIFIED., .F., .F.,
 ( 3, 3 ),
 ( 0.5008207051229819351, 0.5020133117822229707 ),
 .UNSPECIFIED. ) ;
#488 = VECTOR ( 'NONE', #370, 1000.000000000000114 ) ;
#489 = FACE_OUTER_BOUND ( 'NONE', #45, .T. ) ;
#490 = AXIS2_PLACEMENT_3D ( 'NONE', #285, #248, #312 ) ;
#491 = EDGE_LOOP ( 'NONE', ( #332, #477, #92, #422 ) ) ;
#492 = UNCERTAINTY_MEASURE_WITH_UNIT (LENGTH_MEASURE( 1.000000000000000082E-05 ), #133, 'distance_accuracy_value', 'NONE');
#493 = EDGE_CURVE ( 'NONE', #480, #33, #255, .T. ) ;
#494 = MANIFOLD_SOLID_BREP ( 'Saliente-Extruir2', #158 ) ;
#495 = CARTESIAN_POINT ( 'NONE',  ( 0.3551250005320090164, -7.391488004478132823E-11, -7.000000000000000000 ) ) ;
#496 = CARTESIAN_POINT ( 'NONE',  ( -10.21500838427921387, -3.697644103227559320, -7.000000000000000000 ) ) ;
#497 = CIRCLE ( 'NONE', #484, 69.99999999999981526 ) ;
#498 = CARTESIAN_POINT ( 'NONE',  ( -1.394874999943561011, 1.976269565185000410, -7.000000000000000000 ) ) ;
#499 = VERTEX_POINT ( 'NONE', #25 ) ;
#500 = EDGE_CURVE ( 'NONE', #433, #243, #323, .T. ) ;
#501 = EDGE_LOOP ( 'NONE', ( #472, #316, #209, #62 ) ) ;
#502 = LOCAL_TIME ( 0, 49, 23.00000000000000000, #72 ) ;
#503 = APPROVAL_ROLE ( '' ) ;
#504 = LINE ( 'NONE', #224, #402 ) ;
#505 = VERTEX_POINT ( 'NONE', #334 ) ;
#506 = COORDINATED_UNIVERSAL_TIME_OFFSET ( 1, 0, .AHEAD. ) ;
#507 = CARTESIAN_POINT ( 'NONE',  ( -2.846604824987382987, -5.059081103884319752, 7.000000000000000000 ) ) ;
#508 = EDGE_CURVE ( 'NONE', #53, #404, #289, .T. ) ;
#509 = APPROVAL_DATE_TIME ( #377, #232 ) ;
#510 = DIRECTION ( 'NONE',  ( 0.000000000000000000, 1.000000000000000000, -0.000000000000000000 ) ) ;
#511 = DATE_AND_TIME ( #465, #322 ) ;
ENDSEC;
END-ISO-10303-21;
