ISO-10303-21;
HEADER;
FILE_DESCRIPTION (( 'STEP AP203' ),
    '1' );
FILE_NAME ('lente dot l8_v5_croquis7_D2_plus1.STEP',
    '2026-08-26T22:48:49',
    ( '' ),
    ( '' ),
    'SwSTEP 2.0',
    'SolidWorks 2026',
    '' );
FILE_SCHEMA (( 'CONFIG_CONTROL_DESIGN' ));
ENDSEC;

DATA;
#1 = ORIENTED_EDGE ( 'NONE', *, *, #333, .T. ) ;
#2 = DIRECTION ( 'NONE',  ( -0.000000000000000000, -0.000000000000000000, -1.000000000000000000 ) ) ;
#3 = EDGE_CURVE ( 'NONE', #232, #354, #426, .T. ) ;
#4 = ORIENTED_EDGE ( 'NONE', *, *, #286, .F. ) ;
#5 = CARTESIAN_POINT ( 'NONE',  ( -23.03592114560350268, 11.54013782009829825, 7.000000000000000000 ) ) ;
#6 = CARTESIAN_POINT ( 'NONE',  ( -14.42821775356789615, 2.252442830001658791, 5.827693004115485742 ) ) ;
#7 = DIRECTION ( 'NONE',  ( 0.000000000000000000, 0.1124854344122625527, -0.9936533736897815716 ) ) ;
#8 = AXIS2_PLACEMENT_3D ( 'NONE', #239, #277, #460 ) ;
#9 = VERTEX_POINT ( 'NONE', #119 ) ;
#10 = CARTESIAN_POINT ( 'NONE',  ( -0.6044451899352160096, -3.639840208172668401, 5.160663600523933248 ) ) ;
#11 = CARTESIAN_POINT ( 'NONE',  ( 0.3551250000566972265, 2.037380911795557026, 5.803347156825619635 ) ) ;
#12 = ORIENTED_EDGE ( 'NONE', *, *, #535, .T. ) ;
#13 = DIRECTION ( 'NONE',  ( 0.05233595624294034437, -0.9986295347545741663, 0.000000000000000000 ) ) ;
#14 = CARTESIAN_POINT ( 'NONE',  ( -2.846604824987382987, -5.059081103884319752, -6.503485534507344568 ) ) ;
#15 = EDGE_CURVE ( 'NONE', #9, #242, #414, .T. ) ;
#16 = DIRECTION ( 'NONE',  ( -0.9993908270190958731, -0.03489949670249428010, 0.000000000000000000 ) ) ;
#17 = CARTESIAN_POINT ( 'NONE',  ( -16.77225510406512399, 4.832582587526371931, -6.119774880103934223 ) ) ;
#18 = B_SPLINE_CURVE_WITH_KNOTS ( 'NONE', 3,
 ( #407, #197, #10, #193, #550, #31 ),
 .UNSPECIFIED., .F., .F.,
 ( 4, 2, 4 ),
 ( 3.318834807187760033E-14, 0.001993191866254305760, 0.003986383732475422791 ),
 .UNSPECIFIED. ) ;
#19 = PLANE ( 'NONE',  #270 ) ;
#20 = VERTEX_POINT ( 'NONE', #424 ) ;
#21 = CARTESIAN_POINT ( 'NONE',  ( -18.94519211359817135, 7.540918895746568040, -6.426369105244412516 ) ) ;
#22 = CARTESIAN_POINT ( 'NONE',  ( -0.6035205376108018216, -3.639126207244638866, -5.160744428211647694 ) ) ;
#23 = ORIENTED_EDGE ( 'NONE', *, *, #383, .T. ) ;
#24 = CARTESIAN_POINT ( 'NONE',  ( -17.87950527536434464, 6.169036122140490797, -6.271066628709013102 ) ) ;
#25 = CC_DESIGN_PERSON_AND_ORGANIZATION_ASSIGNMENT ( #84, #43, ( #66 ) ) ;
#26 = DIRECTION ( 'NONE',  ( 0.9986120086232370685, 0.05233503773731754127, 0.005924530234325171146 ) ) ;
#27 = CARTESIAN_POINT ( 'NONE',  ( 0.3551250000109473781, -2.723253226996779741, -5.264424818957035512 ) ) ;
#28 = CARTESIAN_POINT ( 'NONE',  ( -2.846604824987382987, -5.059081103884319752, 6.503485534507348120 ) ) ;
#29 = MECHANICAL_CONTEXT ( 'NONE', #531, 'mechanical' ) ;
#30 = CARTESIAN_POINT ( 'NONE',  ( -1.091522743501208481, -0.8314751597095918489, -5.478581468896476458 ) ) ;
#31 = CARTESIAN_POINT ( 'NONE',  ( -2.846604824987382987, -5.059081103884319752, 5.000000000000000000 ) ) ;
#32 = CALENDAR_DATE ( 2026, 27, 8 ) ;
#33 = DIRECTION ( 'NONE',  ( 0.7313537027583412176, 0.6819983588408874420, -0.000000000000000000 ) ) ;
#34 = CARTESIAN_POINT ( 'NONE',  ( -3.645804699733607102, 7.633612604158144244, 6.436862394286697153 ) ) ;
#35 = EDGE_CURVE ( 'NONE', #369, #108, #509, .T. ) ;
#36 = ORIENTED_EDGE ( 'NONE', *, *, #104, .F. ) ;
#37 = CARTESIAN_POINT ( 'NONE',  ( -6.948876663721481606, -3.612404337174381475, -5.163769448045255395 ) ) ;
#38 = VECTOR ( 'NONE', #339, 1000.000000000000114 ) ;
#39 = VECTOR ( 'NONE', #472, 1000.000000000000000 ) ;
#40 = COORDINATED_UNIVERSAL_TIME_OFFSET ( 1, 0, .AHEAD. ) ;
#41 = ORIENTED_EDGE ( 'NONE', *, *, #484, .T. ) ;
#42 = CC_DESIGN_DATE_AND_TIME_ASSIGNMENT ( #224, #263, ( #141 ) ) ;
#43 = PERSON_AND_ORGANIZATION_ROLE ( 'creator' ) ;
#44 = CALENDAR_DATE ( 2026, 27, 8 ) ;
#45 = ORIENTED_EDGE ( 'NONE', *, *, #479, .T. ) ;
#46 = CLOSED_SHELL ( 'NONE', ( #67, #553, #155, #435, #526, #127, #316, #62, #211, #415, #113, #268, #132, #217 ) ) ;
#47 = EDGE_CURVE ( 'NONE', #108, #88, #549, .T. ) ;
#48 = VERTEX_POINT ( 'NONE', #154 ) ;
#49 = EDGE_LOOP ( 'NONE', ( #356, #322, #143, #352 ) ) ;
#50 = LINE ( 'NONE', #189, #403 ) ;
#51 = VERTEX_POINT ( 'NONE', #27 ) ;
#52 = LINE ( 'NONE', #235, #310 ) ;
#53 = VECTOR ( 'NONE', #420, 1000.000000000000114 ) ;
#54 = CARTESIAN_POINT ( 'NONE',  ( -1.314368477922809086, 1.629361463898390650, 5.757157765171933228 ) ) ;
#55 = ORIENTED_EDGE ( 'NONE', *, *, #47, .T. ) ;
#56 = CARTESIAN_POINT ( 'NONE',  ( -17.87813264845535954, 6.167269108470562422, 6.270866595875093097 ) ) ;
#57 = EDGE_CURVE ( 'NONE', #98, #88, #477, .T. ) ;
#58 = DIRECTION ( 'NONE',  ( -0.000000000000000000, 0.9936533736897814606, 0.1124854344122625388 ) ) ;
#59 = DIRECTION ( 'NONE',  ( 0.000000000000000000, -0.9936533736897814606, 0.1124854344122625388 ) ) ;
#60 = ORIENTED_EDGE ( 'NONE', *, *, #86, .T. ) ;
#61 = B_SPLINE_SURFACE_WITH_KNOTS ( 'NONE', 2, 1, ( 
 ( #537, #363 ),
 ( #229, #231 ),
 ( #233, #493 ) ),
 .UNSPECIFIED., .F., .F., .F.,
 ( 3, 3 ),
 ( 2, 2 ),
 ( 0.4988120746294950059, 0.4994128454637969949 ),
 ( 0.000000000000000000, 1.000000000000000000 ),
 .UNSPECIFIED. ) ;
#62 = ADVANCED_FACE ( 'NONE', ( #209 ), #157, .F. ) ;
#63 = CARTESIAN_POINT ( 'NONE',  ( 2.198389076633395778, 0.6188211927258228107, -5.642760668152244641 ) ) ;
#64 = VERTEX_POINT ( 'NONE', #511 ) ;
#65 = CARTESIAN_POINT ( 'NONE',  ( -0.1154161255236817035, 3.742884659794891267, 5.996416827864985422 ) ) ;
#66 = PRODUCT_DEFINITION_FORMATION_WITH_SPECIFIED_SOURCE ( 'ANY', '', #317, .NOT_KNOWN. ) ;
#67 = ADVANCED_FACE ( 'NONE', ( #470 ), #340, .F. ) ;
#68 = CARTESIAN_POINT ( 'NONE',  ( -0.9131558117480770287, 4.784688755421850459, -6.114353111655735695 ) ) ;
#69 = CARTESIAN_POINT ( 'NONE',  ( -1.022530459175377437, 0.05020564446570145722, -5.578391172055129132 ) ) ;
#70 = LINE ( 'NONE', #528, #39 ) ;
#71 = CARTESIAN_POINT ( 'NONE',  ( -2.260123282944291212, -4.745841028287424379, -5.035459997330865356 ) ) ;
#72 = VERTEX_POINT ( 'NONE', #93 ) ;
#73 = CARTESIAN_POINT ( 'NONE',  ( -10.21500838427921387, -3.697644103227559320, -6.503485534507344568 ) ) ;
#74 = DIRECTION ( 'NONE',  ( 1.000000000000000000, 0.000000000000000000, 0.000000000000000000 ) ) ;
#75 = ORIENTED_EDGE ( 'NONE', *, *, #538, .T. ) ;
#76 = FACE_OUTER_BOUND ( 'NONE', #265, .T. ) ;
#77 = FACE_OUTER_BOUND ( 'NONE', #228, .T. ) ;
#78 = CARTESIAN_POINT ( 'NONE',  ( 0.3551250000566972265, 12.60815517220120086, -7.000000000000000000 ) ) ;
#79 = CARTESIAN_POINT ( 'NONE',  ( -10.57744606323053027, -1.227969866569280644, 5.433696722842914717 ) ) ;
#80 = EDGE_CURVE ( 'NONE', #176, #184, #398, .T. ) ;
#81 = DIRECTION ( 'NONE',  ( -1.000000000000000000, 0.000000000000000000, 0.000000000000000000 ) ) ;
#82 = ORIENTED_EDGE ( 'NONE', *, *, #35, .T. ) ;
#83 = CARTESIAN_POINT ( 'NONE',  ( -23.03592114560350268, 0.000000000000000000, 7.000000000000000000 ) ) ;
#84 = PERSON_AND_ORGANIZATION ( #494, #429 ) ;
#85 = B_SPLINE_CURVE_WITH_KNOTS ( 'NONE', 3,
 ( #419, #204, #436, #521, #381, #567, #128, #302, #482, #79, #385, #304, #6, #315, #56, #272 ),
 .UNSPECIFIED., .F., .F.,
 ( 4, 2, 2, 2, 2, 2, 2, 4 ),
 ( 0.000000000000000000, 0.002600970095093021323, 0.005201940190186042645, 0.006502425237732555909, 0.007802910285279068305, 0.01040388038037209049, 0.01560582057055812967, 0.02080776076074417058 ),
 .UNSPECIFIED. ) ;
#86 = EDGE_CURVE ( 'NONE', #354, #259, #577, .T. ) ;
#87 = VECTOR ( 'NONE', #2, 1000.000000000000000 ) ;
#88 = VERTEX_POINT ( 'NONE', #142 ) ;
#89 = PERSON_AND_ORGANIZATION ( #494, #429 ) ;
#90 = CARTESIAN_POINT ( 'NONE',  ( 0.3551250000556511188, -1.237747038088879550E-13, 7.000000000000000000 ) ) ;
#91 = APPROVAL_STATUS ( 'not_yet_approved' ) ;
#92 = CARTESIAN_POINT ( 'NONE',  ( -18.94519211359817135, 7.540918895746568040, -6.426369105244412516 ) ) ;
#93 = CARTESIAN_POINT ( 'NONE',  ( -6.994875025828874548, 10.47738999221430234, -6.758789077511675458 ) ) ;
#94 = CARTESIAN_POINT ( 'NONE',  ( 0.3551249999651975298, -2.723253226996780185, 7.000000000000000000 ) ) ;
#95 = ORIENTED_EDGE ( 'NONE', *, *, #313, .F. ) ;
#96 = AXIS2_PLACEMENT_3D ( 'NONE', #300, #387, #74 ) ;
#97 = EDGE_CURVE ( 'NONE', #452, #9, #169, .T. ) ;
#98 = VERTEX_POINT ( 'NONE', #240 ) ;
#99 = CARTESIAN_POINT ( 'NONE',  ( -6.307301893426086714, 9.929557587365660964, 6.696772314245740709 ) ) ;
#100 = ORIENTED_EDGE ( 'NONE', *, *, #274, .F. ) ;
#101 = PLANE ( 'NONE',  #8 ) ;
#102 = CARTESIAN_POINT ( 'NONE',  ( -1.093625826316168448, 0.5840707279637216143, 5.638826780110040460 ) ) ;
#103 = ORIENTED_EDGE ( 'NONE', *, *, #498, .F. ) ;
#104 = EDGE_CURVE ( 'NONE', #88, #557, #425, .T. ) ;
#105 = VECTOR ( 'NONE', #412, 1000.000000000000114 ) ;
#106 = CARTESIAN_POINT ( 'NONE',  ( -18.94519211359817135, 7.540918895746568040, 6.426369105244415181 ) ) ;
#107 = LINE ( 'NONE', #163, #38 ) ;
#108 = VERTEX_POINT ( 'NONE', #215 ) ;
#109 = EDGE_CURVE ( 'NONE', #232, #557, #336, .T. ) ;
#110 = CARTESIAN_POINT ( 'NONE',  ( -1.394874999943561011, 1.976269565185000854, 7.000000000000000000 ) ) ;
#111 = DIRECTION ( 'NONE',  ( -0.000000000000000000, -0.000000000000000000, -1.000000000000000000 ) ) ;
#112 = CARTESIAN_POINT ( 'NONE',  ( -0.9131553968141893352, 4.784689529730151492, 6.114353199310424536 ) ) ;
#113 = ADVANCED_FACE ( 'NONE', ( #301 ), #344, .F. ) ;
#114 = FACE_OUTER_BOUND ( 'NONE', #49, .T. ) ;
#115 = ORIENTED_EDGE ( 'NONE', *, *, #97, .T. ) ;
#116 = VECTOR ( 'NONE', #158, 1000.000000000000114 ) ;
#117 = APPROVAL_PERSON_ORGANIZATION ( #135, #145, #443 ) ;
#118 = CARTESIAN_POINT ( 'NONE',  ( -23.03592114560350268, 12.60815517220120086, -7.000000000000000000 ) ) ;
#119 = CARTESIAN_POINT ( 'NONE',  ( -8.981845694529427604, 12.60815517220120086, 7.000000000000000000 ) ) ;
#120 = CARTESIAN_POINT ( 'NONE',  ( -10.21500838427921387, -3.697644103227559320, 6.503485534507348120 ) ) ;
#121 = LINE ( 'NONE', #249, #389 ) ;
#122 = CARTESIAN_POINT ( 'NONE',  ( -0.7666768565782249301, 13.03869392743343703, -7.048738665007272530 ) ) ;
#123 = CARTESIAN_POINT ( 'NONE',  ( 0.3551250000566972265, 12.60815517220120086, 7.000000000000000000 ) ) ;
#124 = CARTESIAN_POINT ( 'NONE',  ( -1.234536082522798672, -1.529343570027420718, 5.399580045084379165 ) ) ;
#125 =( NAMED_UNIT ( * ) PLANE_ANGLE_UNIT ( ) SI_UNIT ( $, .RADIAN. ) );
#126 = DIRECTION ( 'NONE',  ( -0.6796729177606267713, 0.7288599724985126427, 0.08250978943266890075 ) ) ;
#127 = ADVANCED_FACE ( 'NONE', ( #76 ), #376, .F. ) ;
#128 = CARTESIAN_POINT ( 'NONE',  ( -8.445166023051415394, -2.729959031358991872, 5.263665695769042863 ) ) ;
#129 = COORDINATED_UNIVERSAL_TIME_OFFSET ( 1, 0, .AHEAD. ) ;
#130 = VECTOR ( 'NONE', #540, 1000.000000000000000 ) ;
#131 = CARTESIAN_POINT ( 'NONE',  ( -21.61822091296468074, 10.26318709152285535, -6.734540474352233019 ) ) ;
#132 = ADVANCED_FACE ( 'NONE', ( #321 ), #160, .F. ) ;
#133 = DATE_TIME_ROLE ( 'creation_date' ) ;
#134 = EDGE_CURVE ( 'NONE', #369, #51, #255, .T. ) ;
#135 = PERSON_AND_ORGANIZATION ( #494, #429 ) ;
#136 = VECTOR ( 'NONE', #295, 1000.000000000000227 ) ;
#137 = CALENDAR_DATE ( 2026, 27, 8 ) ;
#138 = EDGE_LOOP ( 'NONE', ( #318, #275, #267, #465 ) ) ;
#139 = EDGE_LOOP ( 'NONE', ( #186, #55, #458, #575 ) ) ;
#140 = VECTOR ( 'NONE', #357, 1000.000000000000000 ) ;
#141 = SECURITY_CLASSIFICATION ( '', '', #306 ) ;
#142 = CARTESIAN_POINT ( 'NONE',  ( -1.394874999943561011, 1.976269565185000854, -5.796429114223418999 ) ) ;
#143 = ORIENTED_EDGE ( 'NONE', *, *, #109, .F. ) ;
#144 = CARTESIAN_POINT ( 'NONE',  ( -1.022667581830746020, -0.3009204846150540513, 5.538642325818660339 ) ) ;
#145 = APPROVAL ( #349, 'UNSPECIFIED' ) ;
#146 = ORIENTED_EDGE ( 'NONE', *, *, #535, .F. ) ;
#147 = DIRECTION ( 'NONE',  ( -0.000000000000000000, -0.000000000000000000, -1.000000000000000000 ) ) ;
#148 = DIRECTION ( 'NONE',  ( -0.000000000000000000, -0.000000000000000000, -1.000000000000000000 ) ) ;
#149 = CARTESIAN_POINT ( 'NONE',  ( -18.94519211359818911, 7.540918895746552053, -6.503485534507344568 ) ) ;
#150 = CARTESIAN_POINT ( 'NONE',  ( -1.394874999943561011, -2.223730434814910062, 5.320972745794695591 ) ) ;
#151 = CARTESIAN_POINT ( 'NONE',  ( -2.383270697099137525, 6.413227040045058835, -6.298709992287569115 ) ) ;
#152 = ORIENTED_EDGE ( 'NONE', *, *, #190, .T. ) ;
#153 = CARTESIAN_POINT ( 'NONE',  ( -5.629019070786770662, 9.370759677855353686, -6.633514213116802338 ) ) ;
#154 = CARTESIAN_POINT ( 'NONE',  ( -23.03592114560350268, 11.54013782009825206, -6.879096273416728913 ) ) ;
#155 = ADVANCED_FACE ( 'NONE', ( #236 ), #471, .F. ) ;
#156 = CARTESIAN_POINT ( 'NONE',  ( -6.994875025828872772, 10.47738999221430234, 6.839894546441814605 ) ) ;
#157 = B_SPLINE_SURFACE_WITH_KNOTS ( 'NONE', 2, 1, ( 
 ( #202, #555 ),
 ( #562, #288 ),
 ( #156, #164 ) ),
 .UNSPECIFIED., .F., .F., .F.,
 ( 3, 3 ),
 ( 2, 2 ),
 ( 0.5008207051229819351, 0.5020133117822229707 ),
 ( 0.000000000000000000, 1.000000000000000000 ),
 .UNSPECIFIED. ) ;
#158 = DIRECTION ( 'NONE',  ( 0.000000000000000000, -0.9936533736897814606, 0.1124854344122625388 ) ) ;
#159 = CARTESIAN_POINT ( 'NONE',  ( -8.981845694529432933, 12.60815517220120086, 7.000000000000000000 ) ) ;
#160 = PLANE ( 'NONE',  #560 ) ;
#161 = AXIS2_PLACEMENT_3D ( 'NONE', #110, #294, #16 ) ;
#162 = B_SPLINE_CURVE_WITH_KNOTS ( 'NONE', 3,
 ( #319, #99, #542, #173, #34, #260, #346, #112, #466, #65, #245, #170 ),
 .UNSPECIFIED., .F., .F.,
 ( 4, 2, 2, 2, 2, 4 ),
 ( 8.673617379884035472E-19, 0.002643073263770713728, 0.005286146527541426589, 0.007929219791312138582, 0.009250756423197496747, 0.01057229305508285144 ),
 .UNSPECIFIED. ) ;
#163 = CARTESIAN_POINT ( 'NONE',  ( -23.03592114560350268, 12.60815517220120086, -7.000000000000000000 ) ) ;
#164 = CARTESIAN_POINT ( 'NONE',  ( -6.994875025828872772, 10.47738999221430234, -6.839894546441814605 ) ) ;
#165 = CARTESIAN_POINT ( 'NONE',  ( -1.127380764220178744, 0.7590097298487170629, 5.658630556903622377 ) ) ;
#166 = CARTESIAN_POINT ( 'NONE',  ( -2.846604824987382987, -5.059081103884319752, -5.000000000000000000 ) ) ;
#167 = EDGE_CURVE ( 'NONE', #98, #396, #205, .T. ) ;
#168 = CARTESIAN_POINT ( 'NONE',  ( -1.126772622086070541, 0.7559124068803506624, -5.658279927872573722 ) ) ;
#169 = LINE ( 'NONE', #252, #337 ) ;
#170 = CARTESIAN_POINT ( 'NONE',  ( 0.3551250000566972265, 3.001549528634499975, 5.912494801853048543 ) ) ;
#171 = PLANE ( 'NONE',  #573 ) ;
#172 = EDGE_CURVE ( 'NONE', #320, #314, #18, .T. ) ;
#173 = CARTESIAN_POINT ( 'NONE',  ( -4.298417309989350343, 8.222773118245870094, 6.503557660584298183 ) ) ;
#174 = COORDINATED_UNIVERSAL_TIME_OFFSET ( 1, 0, .AHEAD. ) ;
#175 = LOCAL_TIME ( 0, 48, 49.00000000000000000, #179 ) ;
#176 = VERTEX_POINT ( 'NONE', #566 ) ;
#177 = EDGE_CURVE ( 'NONE', #452, #72, #359, .T. ) ;
#178 = CARTESIAN_POINT ( 'NONE',  ( -8.446328555618359601, -2.745180178998659404, -5.261942602535707003 ) ) ;
#179 = COORDINATED_UNIVERSAL_TIME_OFFSET ( 1, 0, .AHEAD. ) ;
#180 = EDGE_LOOP ( 'NONE', ( #60, #1, #400, #214 ) ) ;
#181 = DESIGN_CONTEXT ( 'detailed design', #257, 'design' ) ;
#182 = CARTESIAN_POINT ( 'NONE',  ( -21.61822091296472692, 10.26318709152289799, 6.734540474352236572 ) ) ;
#183 = ORIENTED_EDGE ( 'NONE', *, *, #3, .T. ) ;
#184 = VERTEX_POINT ( 'NONE', #106 ) ;
#185 = CARTESIAN_POINT ( 'NONE',  ( -6.994875025828874548, 10.47738999221430234, 6.758789077511674570 ) ) ;
#186 = ORIENTED_EDGE ( 'NONE', *, *, #447, .T. ) ;
#187 = VECTOR ( 'NONE', #408, 1000.000000000000000 ) ;
#188 = CC_DESIGN_APPROVAL ( #350, ( #558 ) ) ;
#189 = CARTESIAN_POINT ( 'NONE',  ( 0.3551250000564473708, -2.284841781425449359, 7.000000000000000000 ) ) ;
#190 = EDGE_CURVE ( 'NONE', #176, #64, #283, .T. ) ;
#191 = CARTESIAN_POINT ( 'NONE',  ( -1.394874999943561011, 1.976269565185000854, 5.796429114223418999 ) ) ;
#192 = VERTEX_POINT ( 'NONE', #569 ) ;
#193 = CARTESIAN_POINT ( 'NONE',  ( -1.688800069232066603, -4.405520224363512760, 5.073985638648562890 ) ) ;
#194 = CARTESIAN_POINT ( 'NONE',  ( -0.6375131954062542849, 4.444884897271351498, -6.075885990614199983 ) ) ;
#195 = ORIENTED_EDGE ( 'NONE', *, *, #447, .F. ) ;
#196 = CARTESIAN_POINT ( 'NONE',  ( 0.3551250000566972265, 12.60815517220120086, 7.000000000000000000 ) ) ;
#197 = CARTESIAN_POINT ( 'NONE',  ( -0.09067036701419771416, -3.215542242876337387, 5.208695783788594547 ) ) ;
#198 = FACE_OUTER_BOUND ( 'NONE', #362, .T. ) ;
#199 = DIRECTION ( 'NONE',  ( -0.000000000000000000, -0.000000000000000000, -1.000000000000000000 ) ) ;
#200 = LOCAL_TIME ( 0, 48, 49.00000000000000000, #129 ) ;
#201 = CARTESIAN_POINT ( 'NONE',  ( 0.3551250000566972265, 3.001549528634499975, 5.912494801853048543 ) ) ;
#202 = CARTESIAN_POINT ( 'NONE',  ( 0.3551250000566972265, 3.001549528634499975, 6.839894546441814605 ) ) ;
#203 = PRODUCT_RELATED_PRODUCT_CATEGORY ( 'detail', '', ( #317 ) ) ;
#204 = CARTESIAN_POINT ( 'NONE',  ( -3.716701824005764099, -4.898315988470651305, 5.018199237605860397 ) ) ;
#205 = B_SPLINE_CURVE_WITH_KNOTS ( 'NONE', 3,
 ( #191, #54, #478, #165, #102, #278, #500, #144, #456, #341, #517, #124, #299, #428 ),
 .UNSPECIFIED., .F., .F.,
 ( 4, 2, 2, 2, 2, 2, 4 ),
 ( 4.848699518061080308E-19, 0.001074770045781389812, 0.001612155068672084610, 0.002149540091562779191, 0.002686925114453473772, 0.003224310137344168787, 0.004299080183125557515 ),
 .UNSPECIFIED. ) ;
#206 = CARTESIAN_POINT ( 'NONE',  ( -1.394874999943561011, 1.976269565185000410, 5.865986263594100691 ) ) ;
#207 = ORIENTED_EDGE ( 'NONE', *, *, #15, .T. ) ;
#208 = CARTESIAN_POINT ( 'NONE',  ( -0.6838485580539450659, 13.04303477462088701, 7.049230065826236569 ) ) ;
#209 = FACE_OUTER_BOUND ( 'NONE', #180, .T. ) ;
#210 = DIRECTION ( 'NONE',  ( -0.000000000000000000, -0.000000000000000000, -1.000000000000000000 ) ) ;
#211 = ADVANCED_FACE ( 'NONE', ( #258 ), #218, .T. ) ;
#212 = AXIS2_PLACEMENT_3D ( 'NONE', #351, #13, #454 ) ;
#213 = PERSON_AND_ORGANIZATION_ROLE ( 'design_owner' ) ;
#214 = ORIENTED_EDGE ( 'NONE', *, *, #455, .T. ) ;
#215 = CARTESIAN_POINT ( 'NONE',  ( -1.394874999943561011, -2.223730434814910062, -5.320972745794694703 ) ) ;
#216 = DATE_AND_TIME ( #32, #338 ) ;
#217 = ADVANCED_FACE ( 'NONE', ( #198 ), #19, .F. ) ;
#218 = PLANE ( 'NONE',  #309 ) ;
#219 = CARTESIAN_POINT ( 'NONE',  ( -23.03592114560350268, 11.54013782009825206, -6.879096273416728913 ) ) ;
#220 = CARTESIAN_POINT ( 'NONE',  ( -11.24678723791021540, -0.6851860749068096057, -5.495141963420474340 ) ) ;
#221 = AXIS2_PLACEMENT_3D ( 'NONE', #544, #210, #520 ) ;
#222 = VECTOR ( 'NONE', #327, 1000.000000000000114 ) ;
#223 = EDGE_LOOP ( 'NONE', ( #545, #251, #307, #445 ) ) ;
#224 = DATE_AND_TIME ( #137, #175 ) ;
#225 = FACE_OUTER_BOUND ( 'NONE', #276, .T. ) ;
#226 = SHAPE_DEFINITION_REPRESENTATION ( #402, #386 ) ;
#227 = EDGE_CURVE ( 'NONE', #396, #20, #324, .T. ) ;
#228 = EDGE_LOOP ( 'NONE', ( #499, #410, #230, #152 ) ) ;
#229 = CARTESIAN_POINT ( 'NONE',  ( -0.7423668819740020242, -3.935206599586729137, 5.327597916784519327 ) ) ;
#230 = ORIENTED_EDGE ( 'NONE', *, *, #431, .F. ) ;
#231 = CARTESIAN_POINT ( 'NONE',  ( -0.7423668819740020242, -3.935206599586729137, -5.327597916784519327 ) ) ;
#232 = VERTEX_POINT ( 'NONE', #11 ) ;
#233 = CARTESIAN_POINT ( 'NONE',  ( 0.3551249999651975298, -2.723253226996780185, 5.327597916784519327 ) ) ;
#234 = ORIENTED_EDGE ( 'NONE', *, *, #572, .T. ) ;
#235 = CARTESIAN_POINT ( 'NONE',  ( -23.03592114560350268, 11.87161228793415191, 7.000000000000000000 ) ) ;
#236 = FACE_OUTER_BOUND ( 'NONE', #488, .T. ) ;
#237 = CARTESIAN_POINT ( 'NONE',  ( 0.3551250000566972265, 3.001549528634499975, -5.912494801853048543 ) ) ;
#238 = ORIENTED_EDGE ( 'NONE', *, *, #177, .T. ) ;
#239 = CARTESIAN_POINT ( 'NONE',  ( 0.3551250005320090164, -7.391488004478132823E-11, 7.000000000000000000 ) ) ;
#240 = CARTESIAN_POINT ( 'NONE',  ( -1.394874999943561011, 1.976269565185000854, 5.796429114223418999 ) ) ;
#241 = CARTESIAN_POINT ( 'NONE',  ( -3.645765441986447808, 7.633576839299838213, -6.436858345565287465 ) ) ;
#242 = VERTEX_POINT ( 'NONE', #328 ) ;
#243 = DIRECTION ( 'NONE',  ( 0.000000000000000000, 0.1124854344122625527, 0.9936533736897815716 ) ) ;
#244 = CARTESIAN_POINT ( 'NONE',  ( -1.023021868508782406, -0.4793968695130562674, -5.518438103482017354 ) ) ;
#245 = CARTESIAN_POINT ( 'NONE',  ( 0.1312573155561916893, 3.380924570793871986, 5.955441535142953491 ) ) ;
#246 =( BOUNDED_CURVE ( )  B_SPLINE_CURVE ( 3, ( #21, #525, #131, #219 ),
 .UNSPECIFIED., .F., .F. ) 
 B_SPLINE_CURVE_WITH_KNOTS ( ( 4, 4 ),
 ( 5.468223840914978595, 5.549972645329292575 ),
 .UNSPECIFIED. ) 
 CURVE ( )  GEOMETRIC_REPRESENTATION_ITEM ( )  RATIONAL_B_SPLINE_CURVE ( ( 1.000000000000000000, 0.9994431719463756636, 0.9994431719463756636, 1.000000000000000000 ) ) 
 REPRESENTATION_ITEM ( '' )  );
#247 = CARTESIAN_POINT ( 'NONE',  ( -1.390122952189123184, 1.976435510349247693, 5.796447899862740449 ) ) ;
#248 = CARTESIAN_POINT ( 'NONE',  ( -1.394874999943561011, -2.223730434814910062, -5.320972745794694703 ) ) ;
#249 = CARTESIAN_POINT ( 'NONE',  ( -18.94519211359817135, 7.540918895746568040, 7.000000000000000000 ) ) ;
#250 = CARTESIAN_POINT ( 'NONE',  ( -0.09106104864206086835, -3.215973670137249663, -5.208646944541281520 ) ) ;
#251 = ORIENTED_EDGE ( 'NONE', *, *, #86, .F. ) ;
#252 = CARTESIAN_POINT ( 'NONE',  ( 1.413273706048157274, 1.460754352720367022, 5.738070783083370152 ) ) ;
#253 = APPLICATION_PROTOCOL_DEFINITION ( 'international standard', 'config_control_design', 1994, #531 ) ;
#254 = ORIENTED_EDGE ( 'NONE', *, *, #333, .F. ) ;
#255 = LINE ( 'NONE', #78, #427 ) ;
#256 = VECTOR ( 'NONE', #476, 1000.000000000000227 ) ;
#257 = APPLICATION_CONTEXT ( 'configuration controlled 3d designs of mechanical parts and assemblies' ) ;
#258 = FACE_OUTER_BOUND ( 'NONE', #579, .T. ) ;
#259 = VERTEX_POINT ( 'NONE', #462 ) ;
#260 = CARTESIAN_POINT ( 'NONE',  ( -2.383328713366249740, 6.413285301805065508, 6.298716587745929907 ) ) ;
#261 =( NAMED_UNIT ( * ) SI_UNIT ( $, .STERADIAN. ) SOLID_ANGLE_UNIT ( ) );
#262 = ORIENTED_EDGE ( 'NONE', *, *, #455, .F. ) ;
#263 = DATE_TIME_ROLE ( 'classification_date' ) ;
#264 = VECTOR ( 'NONE', #147, 1000.000000000000000 ) ;
#265 = EDGE_LOOP ( 'NONE', ( #325, #82, #195, #285 ) ) ;
#266 = DIRECTION ( 'NONE',  ( -3.485384126420033333E-13, -1.000000000000000000, 0.000000000000000000 ) ) ;
#267 = ORIENTED_EDGE ( 'NONE', *, *, #383, .F. ) ;
#268 = ADVANCED_FACE ( 'NONE', ( #114 ), #334, .F. ) ;
#269 = APPROVAL_ROLE ( '' ) ;
#270 = AXIS2_PLACEMENT_3D ( 'NONE', #118, #243, #59 ) ;
#271 = ORIENTED_EDGE ( 'NONE', *, *, #35, .F. ) ;
#272 = CARTESIAN_POINT ( 'NONE',  ( -18.94519211359817135, 7.540918895746568040, 6.426369105244415181 ) ) ;
#273 = DIRECTION ( 'NONE',  ( -1.000000000000000000, 3.485384126420033333E-13, 0.000000000000000000 ) ) ;
#274 = EDGE_CURVE ( 'NONE', #64, #9, #508, .T. ) ;
#275 = ORIENTED_EDGE ( 'NONE', *, *, #313, .T. ) ;
#276 = EDGE_LOOP ( 'NONE', ( #207, #527, #279, #379 ) ) ;
#277 = DIRECTION ( 'NONE',  ( 1.000000000000000000, -2.081376414897577884E-10, 0.000000000000000000 ) ) ;
#278 = CARTESIAN_POINT ( 'NONE',  ( -1.040877614602533141, 0.2321698866725886712, 5.598990233432112440 ) ) ;
#279 = ORIENTED_EDGE ( 'NONE', *, *, #532, .F. ) ;
#280 = FACE_OUTER_BOUND ( 'NONE', #138, .T. ) ;
#281 = VECTOR ( 'NONE', #111, 1000.000000000000000 ) ;
#282 = FACE_OUTER_BOUND ( 'NONE', #492, .T. ) ;
#283 = LINE ( 'NONE', #461, #504 ) ;
#284 = CARTESIAN_POINT ( 'NONE',  ( -1.770903618263380386, 5.780516964818191994, -6.227084745945846045 ) ) ;
#285 = ORIENTED_EDGE ( 'NONE', *, *, #227, .T. ) ;
#286 = EDGE_CURVE ( 'NONE', #242, #192, #473, .T. ) ;
#287 = CARTESIAN_POINT ( 'NONE',  ( -1.394874999943561011, -2.223730434814910062, 5.865986263594100691 ) ) ;
#288 = CARTESIAN_POINT ( 'NONE',  ( -1.448726270043842357, 6.058427314146597631, -6.839894546441814605 ) ) ;
#289 = CARTESIAN_POINT ( 'NONE',  ( 0.3551250000566972265, 12.60815517220120086, -7.000000000000000000 ) ) ;
#290 = ORIENTED_EDGE ( 'NONE', *, *, #431, .T. ) ;
#291 = VECTOR ( 'NONE', #26, 1000.000000000000227 ) ;
#292 = CARTESIAN_POINT ( 'NONE',  ( -6.173389071783079274, -3.999780770717780154, -5.119916926067322294 ) ) ;
#293 = APPROVAL ( #91, 'UNSPECIFIED' ) ;
#294 = DIRECTION ( 'NONE',  ( -0.03489949670249428704, 0.9993908270190959842, 0.000000000000000000 ) ) ;
#295 = DIRECTION ( 'NONE',  ( -0.9993830276160453607, 0.03489922434133396756, -0.003950728206264357729 ) ) ;
#296 = CARTESIAN_POINT ( 'NONE',  ( -0.07925871954190913393, -2.269672767682391790, 7.000000000000000000 ) ) ;
#297 = CARTESIAN_POINT ( 'NONE',  ( -0.1154426953836849429, 3.742922130493388622, -5.996421069694094719 ) ) ;
#298 = CARTESIAN_POINT ( 'NONE',  ( -1.040318291896019209, 0.2276001758288153931, -5.598472924355377245 ) ) ;
#299 = CARTESIAN_POINT ( 'NONE',  ( -1.314328266767422315, -1.876649060913654798, 5.360263709981444080 ) ) ;
#300 = CARTESIAN_POINT ( 'NONE',  ( 0.000000000000000000, 0.000000000000000000, 0.000000000000000000 ) ) ;
#301 = FACE_OUTER_BOUND ( 'NONE', #358, .T. ) ;
#302 = CARTESIAN_POINT ( 'NONE',  ( -9.173158054527712935, -2.249075457824854407, 5.318103590414180459 ) ) ;
#303 = CALENDAR_DATE ( 2026, 27, 8 ) ;
#304 = CARTESIAN_POINT ( 'NONE',  ( -13.20455318623175067, 1.022537326510461142, 5.688462907877347874 ) ) ;
#305 = DIRECTION ( 'NONE',  ( -0.000000000000000000, -0.000000000000000000, -1.000000000000000000 ) ) ;
#306 = SECURITY_CLASSIFICATION_LEVEL ( 'unclassified' ) ;
#307 = ORIENTED_EDGE ( 'NONE', *, *, #3, .F. ) ;
#308 = PERSON_AND_ORGANIZATION_ROLE ( 'design_supplier' ) ;
#309 = AXIS2_PLACEMENT_3D ( 'NONE', #433, #33, #384 ) ;
#310 = VECTOR ( 'NONE', #148, 1000.000000000000000 ) ;
#311 = EDGE_CURVE ( 'NONE', #242, #72, #413, .T. ) ;
#312 = APPROVAL_DATE_TIME ( #486, #145 ) ;
#313 = EDGE_CURVE ( 'NONE', #548, #51, #501, .T. ) ;
#314 = VERTEX_POINT ( 'NONE', #556 ) ;
#315 = CARTESIAN_POINT ( 'NONE',  ( -16.76895539129553825, 4.828521513569937085, 6.119315150705019413 ) ) ;
#316 = ADVANCED_FACE ( 'NONE', ( #361 ), #446, .F. ) ;
#317 = PRODUCT ( 'lente dot l8_v5_croquis7_D2_plus1', 'lente dot l8_v5_croquis7_D2_plus1', '', ( #29 ) ) ;
#318 = ORIENTED_EDGE ( 'NONE', *, *, #578, .T. ) ;
#319 = CARTESIAN_POINT ( 'NONE',  ( -6.994875025828874548, 10.47738999221430234, 6.758789077511674570 ) ) ;
#320 = VERTEX_POINT ( 'NONE', #374 ) ;
#321 = FACE_OUTER_BOUND ( 'NONE', #529, .T. ) ;
#322 = ORIENTED_EDGE ( 'NONE', *, *, #104, .T. ) ;
#323 = DIRECTION ( 'NONE',  ( -0.000000000000000000, -0.000000000000000000, -1.000000000000000000 ) ) ;
#324 = LINE ( 'NONE', #512, #539 ) ;
#325 = ORIENTED_EDGE ( 'NONE', *, *, #498, .T. ) ;
#326 = EDGE_CURVE ( 'NONE', #192, #48, #107, .T. ) ;
#327 = DIRECTION ( 'NONE',  ( -0.000000000000000000, 0.9936533736897814606, 0.1124854344122625388 ) ) ;
#328 = CARTESIAN_POINT ( 'NONE',  ( -8.981845694529429380, 12.60815517220120086, -7.000000000000000000 ) ) ;
#329 = CARTESIAN_POINT ( 'NONE',  ( -1.394874999943561011, 1.976269565185000854, 7.000000000000000000 ) ) ;
#330 = EDGE_CURVE ( 'NONE', #259, #557, #515, .T. ) ;
#331 = CARTESIAN_POINT ( 'NONE',  ( -1.394874999943561011, 1.976269565185000410, -5.865986263594098915 ) ) ;
#332 = CARTESIAN_POINT ( 'NONE',  ( -1.314167363343947681, 1.628494847443690885, -5.757059660811843393 ) ) ;
#333 = EDGE_CURVE ( 'NONE', #259, #72, #467, .T. ) ;
#334 = PLANE ( 'NONE',  #161 ) ;
#335 = CARTESIAN_POINT ( 'NONE',  ( -1.234563142446286843, -1.529462512548840580, -5.399566580327396004 ) ) ;
#336 = LINE ( 'NONE', #514, #140 ) ;
#337 = VECTOR ( 'NONE', #126, 1000.000000000000114 ) ;
#338 = LOCAL_TIME ( 0, 48, 49.00000000000000000, #174 ) ;
#339 = DIRECTION ( 'NONE',  ( 0.000000000000000000, -0.9936533736897814606, 0.1124854344122625388 ) ) ;
#340 = PLANE ( 'NONE',  #388 ) ;
#341 = CARTESIAN_POINT ( 'NONE',  ( -1.093493919861270536, -0.8308194969048432466, 5.478655692481221529 ) ) ;
#342 = CARTESIAN_POINT ( 'NONE',  ( 0.3551250000564474263, 2.037380911795548144, -5.803347156825617859 ) ) ;
#343 = DIRECTION ( 'NONE',  ( -0.000000000000000000, 0.9936533736897814606, 0.1124854344122625388 ) ) ;
#344 = CYLINDRICAL_SURFACE ( 'NONE', #221, 69.99999999999980105 ) ;
#345 = PERSON_AND_ORGANIZATION_ROLE ( 'creator' ) ;
#346 = CARTESIAN_POINT ( 'NONE',  ( -1.770984599449795249, 5.780608470118514752, 6.227095104702431883 ) ) ;
#347 = DATE_AND_TIME ( #303, #200 ) ;
#348 = DIRECTION ( 'NONE',  ( 0.000000000000000000, 0.000000000000000000, 1.000000000000000000 ) ) ;
#349 = APPROVAL_STATUS ( 'not_yet_approved' ) ;
#350 = APPROVAL ( #437, 'UNSPECIFIED' ) ;
#351 = CARTESIAN_POINT ( 'NONE',  ( -0.6835572876454348856, 13.04305003945616726, 7.000000000000000000 ) ) ;
#352 = ORIENTED_EDGE ( 'NONE', *, *, #370, .T. ) ;
#353 = ORIENTED_EDGE ( 'NONE', *, *, #134, .T. ) ;
#354 = VERTEX_POINT ( 'NONE', #201 ) ;
#355 = CARTESIAN_POINT ( 'NONE',  ( 0.3551250000566972265, 3.001549528634499975, 7.000000000000000000 ) ) ;
#356 = ORIENTED_EDGE ( 'NONE', *, *, #57, .T. ) ;
#357 = DIRECTION ( 'NONE',  ( -0.000000000000000000, -0.000000000000000000, -1.000000000000000000 ) ) ;
#358 = EDGE_LOOP ( 'NONE', ( #453, #536, #502, #290 ) ) ;
#359 = LINE ( 'NONE', #546, #468 ) ;
#360 = CC_DESIGN_PERSON_AND_ORGANIZATION_ASSIGNMENT ( #568, #345, ( #558 ) ) ;
#361 = FACE_OUTER_BOUND ( 'NONE', #139, .T. ) ;
#362 = EDGE_LOOP ( 'NONE', ( #421, #36, #405, #271, #353, #95, #519, #45, #571, #4, #442, #254 ) ) ;
#363 = CARTESIAN_POINT ( 'NONE',  ( -2.846604824987382987, -5.059081103884319752, -5.327597916784519327 ) ) ;
#364 = CARTESIAN_POINT ( 'NONE',  ( -1.445399022214034046, 1.974505227449498079, -5.796229384315703115 ) ) ;
#365 = VECTOR ( 'NONE', #343, 1000.000000000000114 ) ;
#366 = CARTESIAN_POINT ( 'NONE',  ( -1.688194259797113572, -4.405153456069165863, -5.074027158248894054 ) ) ;
#367 = CARTESIAN_POINT ( 'NONE',  ( -1.314338543873475373, -1.876693345665473078, -5.360258696774949705 ) ) ;
#368 = CARTESIAN_POINT ( 'NONE',  ( 0.1312382564655795725, 3.380956869083463712, -5.955445191435209118 ) ) ;
#369 = VERTEX_POINT ( 'NONE', #554 ) ;
#370 = EDGE_CURVE ( 'NONE', #232, #98, #510, .T. ) ;
#371 = CARTESIAN_POINT ( 'NONE',  ( -2.846604824987382987, -5.059081103884319752, -5.000000000000000000 ) ) ;
#372 = ORIENTED_EDGE ( 'NONE', *, *, #172, .F. ) ;
#373 =( LENGTH_UNIT ( ) NAMED_UNIT ( * ) SI_UNIT ( .MILLI., .METRE. ) );
#374 = CARTESIAN_POINT ( 'NONE',  ( 0.3551250000109473781, -2.723253226996780629, 5.264424818957035512 ) ) ;
#375 = CARTESIAN_POINT ( 'NONE',  ( -1.394874999943561011, 1.976269565185000854, -5.796429114223418999 ) ) ;
#376 = PLANE ( 'NONE',  #523 ) ;
#377 = VECTOR ( 'NONE', #199, 1000.000000000000000 ) ;
#378 = APPLICATION_PROTOCOL_DEFINITION ( 'international standard', 'config_control_design', 1994, #257 ) ;
#379 = ORIENTED_EDGE ( 'NONE', *, *, #274, .T. ) ;
#380 = DIRECTION ( 'NONE',  ( -0.03489949670249008207, -0.9993908270190960952, 0.000000000000000000 ) ) ;
#381 = CARTESIAN_POINT ( 'NONE',  ( -6.936916963199470487, -3.619105451226395154, 5.163010855818680689 ) ) ;
#382 = APPROVAL_DATE_TIME ( #216, #350 ) ;
#383 = EDGE_CURVE ( 'NONE', #320, #51, #533, .T. ) ;
#384 = DIRECTION ( 'NONE',  ( -0.6819983588408874420, 0.7313537027583412176, 0.000000000000000000 ) ) ;
#385 = CARTESIAN_POINT ( 'NONE',  ( -11.24947534352793355, -0.6828503927219097269, 5.495406371746592633 ) ) ;
#386 = ADVANCED_BREP_SHAPE_REPRESENTATION ( 'lente dot l8_v5_croquis7_D2_plus1', ( #487, #96 ), #404 ) ;
#387 = DIRECTION ( 'NONE',  ( 0.000000000000000000, 0.000000000000000000, 1.000000000000000000 ) ) ;
#388 = AXIS2_PLACEMENT_3D ( 'NONE', #90, #273, #266 ) ;
#389 = VECTOR ( 'NONE', #305, 1000.000000000000000 ) ;
#390 = CARTESIAN_POINT ( 'NONE',  ( -4.954376963591368366, -4.484474009039209896, -5.065047762521066588 ) ) ;
#391 = CC_DESIGN_PERSON_AND_ORGANIZATION_ASSIGNMENT ( #89, #490, ( #141 ) ) ;
#392 = PERSON_AND_ORGANIZATION ( #494, #429 ) ;
#393 = LOCAL_TIME ( 0, 48, 49.00000000000000000, #40 ) ;
#394 = VERTEX_POINT ( 'NONE', #92 ) ;
#395 = CC_DESIGN_PERSON_AND_ORGANIZATION_ASSIGNMENT ( #530, #308, ( #66 ) ) ;
#396 = VERTEX_POINT ( 'NONE', #150 ) ;
#397 = CARTESIAN_POINT ( 'NONE',  ( -1.394874999943561011, -2.223730434814909618, 7.000000000000000000 ) ) ;
#398 =( BOUNDED_CURVE ( )  B_SPLINE_CURVE ( 3, ( #580, #182, #451, #399 ),
 .UNSPECIFIED., .F., .F. ) 
 B_SPLINE_CURVE_WITH_KNOTS ( ( 4, 4 ),
 ( 3.874805315440086328, 3.956554119854400309 ),
 .UNSPECIFIED. ) 
 CURVE ( )  GEOMETRIC_REPRESENTATION_ITEM ( )  RATIONAL_B_SPLINE_CURVE ( ( 1.000000000000000000, 0.9994431719463756636, 0.9994431719463756636, 1.000000000000000000 ) ) 
 REPRESENTATION_ITEM ( '' )  );
#399 = CARTESIAN_POINT ( 'NONE',  ( -18.94519211359817135, 7.540918895746568040, 6.426369105244415181 ) ) ;
#400 = ORIENTED_EDGE ( 'NONE', *, *, #177, .F. ) ;
#401 = DIRECTION ( 'NONE',  ( 0.000000000000000000, -0.9936533736897814606, 0.1124854344122625388 ) ) ;
#402 = PRODUCT_DEFINITION_SHAPE ( 'NONE', 'NONE',  #558 ) ;
#403 = VECTOR ( 'NONE', #543, 1000.000000000000000 ) ;
#404 =( GEOMETRIC_REPRESENTATION_CONTEXT ( 3 ) GLOBAL_UNCERTAINTY_ASSIGNED_CONTEXT ( ( #495 ) ) GLOBAL_UNIT_ASSIGNED_CONTEXT ( ( #373, #125, #261 ) ) REPRESENTATION_CONTEXT ( 'NONE', 'WORKASPACE' ) );
#405 = ORIENTED_EDGE ( 'NONE', *, *, #47, .F. ) ;
#406 = CC_DESIGN_PERSON_AND_ORGANIZATION_ASSIGNMENT ( #570, #213, ( #317 ) ) ;
#407 = CARTESIAN_POINT ( 'NONE',  ( 0.3551250000109473781, -2.723253226996780629, 5.264424818957035512 ) ) ;
#408 = DIRECTION ( 'NONE',  ( -0.000000000000000000, -0.000000000000000000, -1.000000000000000000 ) ) ;
#409 = DIRECTION ( 'NONE',  ( 0.6796729177606267713, -0.7288599724985126427, 0.08250978943266890075 ) ) ;
#410 = ORIENTED_EDGE ( 'NONE', *, *, #326, .T. ) ;
#411 = LINE ( 'NONE', #196, #222 ) ;
#412 = DIRECTION ( 'NONE',  ( 0.9993830276160452497, 0.03489922434133817253, -0.003950728206264833911 ) ) ;
#413 = LINE ( 'NONE', #63, #457 ) ;
#414 = LINE ( 'NONE', #159, #377 ) ;
#415 = ADVANCED_FACE ( 'NONE', ( #225 ), #444, .F. ) ;
#416 = CARTESIAN_POINT ( 'NONE',  ( -0.9075306697980521919, -0.1237304348149260991, -5.865986263594098915 ) ) ;
#417 = CARTESIAN_POINT ( 'NONE',  ( -0.03063247170903194219, -2.271370833674211998, -5.315579666977519935 ) ) ;
#418 = LOCAL_TIME ( 0, 48, 49.00000000000000000, #441 ) ;
#419 = CARTESIAN_POINT ( 'NONE',  ( -2.846604824987382987, -5.059081103884319752, 5.000000000000000000 ) ) ;
#420 = DIRECTION ( 'NONE',  ( -0.9993830276160452497, -0.03489922434133817253, -0.003950728206264833911 ) ) ;
#421 = ORIENTED_EDGE ( 'NONE', *, *, #330, .T. ) ;
#422 = CARTESIAN_POINT ( 'NONE',  ( -2.846604824987382987, -5.059081103884319752, -5.000000000000000000 ) ) ;
#423 = CARTESIAN_POINT ( 'NONE',  ( 0.3551250000109473781, -2.723253226996779741, -5.264424818957035512 ) ) ;
#424 = CARTESIAN_POINT ( 'NONE',  ( 0.3551250000566972265, -2.284841781425458240, 5.314054703192494955 ) ) ;
#425 = LINE ( 'NONE', #364, #105 ) ;
#426 = LINE ( 'NONE', #123, #365 ) ;
#427 = VECTOR ( 'NONE', #401, 1000.000000000000114 ) ;
#428 = CARTESIAN_POINT ( 'NONE',  ( -1.394874999943561011, -2.223730434814910062, 5.320972745794695591 ) ) ;
#429 = ORGANIZATION ( 'UNSPECIFIED', 'UNSPECIFIED', '' ) ;
#430 = CARTESIAN_POINT ( 'NONE',  ( -18.94519211359817135, 7.540918895746568040, -6.426369105244412516 ) ) ;
#431 = EDGE_CURVE ( 'NONE', #176, #48, #459, .T. ) ;
#432 = PERSON_AND_ORGANIZATION ( #494, #429 ) ;
#433 = CARTESIAN_POINT ( 'NONE',  ( 1.484527364560580320, 1.384344158600975039, 7.000000000000000000 ) ) ;
#434 = CARTESIAN_POINT ( 'NONE',  ( -3.278073379930583897, -4.979360001396816671, -5.009024739494249090 ) ) ;
#435 = ADVANCED_FACE ( 'NONE', ( #280 ), #61, .F. ) ;
#436 = CARTESIAN_POINT ( 'NONE',  ( -4.549034324729157142, -4.645212691691345874, 5.046851517206813575 ) ) ;
#437 = APPROVAL_STATUS ( 'not_yet_approved' ) ;
#438 = CC_DESIGN_APPROVAL ( #145, ( #66 ) ) ;
#439 = APPROVAL_DATE_TIME ( #489, #293 ) ;
#440 = ORIENTED_EDGE ( 'NONE', *, *, #484, .F. ) ;
#441 = COORDINATED_UNIVERSAL_TIME_OFFSET ( 1, 0, .AHEAD. ) ;
#442 = ORIENTED_EDGE ( 'NONE', *, *, #311, .T. ) ;
#443 = APPROVAL_ROLE ( '' ) ;
#444 = PLANE ( 'NONE',  #212 ) ;
#445 = ORIENTED_EDGE ( 'NONE', *, *, #109, .T. ) ;
#446 =( BOUNDED_SURFACE ( )  B_SPLINE_SURFACE ( 2, 1, ( 
 ( #287, #547 ),
 ( #506, #416 ),
 ( #206, #331 ) ),
 .UNSPECIFIED., .F., .F., .T. ) 
 B_SPLINE_SURFACE_WITH_KNOTS ( ( 3, 3 ),
 ( 2, 2 ),
 ( 0.000000000000000000, 1.000000000000000000 ),
 ( 0.000000000000000000, 1.000000000000000000 ),
 .UNSPECIFIED. ) 
 GEOMETRIC_REPRESENTATION_ITEM ( )  RATIONAL_B_SPLINE_SURFACE ( (
 ( 1.000000000000000000, 1.000000000000000000),
 ( 3.231801218513670193, 3.231801218513670193),
 ( 1.000000000000000000, 1.000000000000000000) ) ) 
 REPRESENTATION_ITEM ( '' )  SURFACE ( )  );
#447 = EDGE_CURVE ( 'NONE', #396, #108, #450, .T. ) ;
#448 = APPROVAL_PERSON_ORGANIZATION ( #392, #293, #269 ) ;
#449 = ORIENTED_EDGE ( 'NONE', *, *, #190, .F. ) ;
#450 = LINE ( 'NONE', #397, #87 ) ;
#451 = CARTESIAN_POINT ( 'NONE',  ( -20.25388486837874069, 8.929371410749581628, 6.583547341082289783 ) ) ;
#452 = VERTEX_POINT ( 'NONE', #185 ) ;
#453 = ORIENTED_EDGE ( 'NONE', *, *, #479, .F. ) ;
#454 = DIRECTION ( 'NONE',  ( 0.9986295347545740553, 0.05233595624294033744, 0.000000000000000000 ) ) ;
#455 = EDGE_CURVE ( 'NONE', #452, #354, #162, .T. ) ;
#456 = CARTESIAN_POINT ( 'NONE',  ( -1.040765121665585768, -0.4787116080806331775, 5.518515677746809622 ) ) ;
#457 = VECTOR ( 'NONE', #409, 1000.000000000000114 ) ;
#458 = ORIENTED_EDGE ( 'NONE', *, *, #57, .F. ) ;
#459 = LINE ( 'NONE', #5, #264 ) ;
#460 = DIRECTION ( 'NONE',  ( 2.081376414897577884E-10, 1.000000000000000000, 0.000000000000000000 ) ) ;
#461 = CARTESIAN_POINT ( 'NONE',  ( -23.03592114560350268, 12.60815517220120086, 7.000000000000000000 ) ) ;
#462 = CARTESIAN_POINT ( 'NONE',  ( 0.3551250000566972265, 3.001549528634499975, -5.912494801853048543 ) ) ;
#463 = ORIENTED_EDGE ( 'NONE', *, *, #311, .F. ) ;
#464 = CARTESIAN_POINT ( 'NONE',  ( -6.994875025828874548, 10.47738999221430234, -6.758789077511675458 ) ) ;
#465 = ORIENTED_EDGE ( 'NONE', *, *, #172, .T. ) ;
#466 = CARTESIAN_POINT ( 'NONE',  ( -0.6374960954314308204, 4.444863650470392002, 6.075883585393518693 ) ) ;
#467 = B_SPLINE_CURVE_WITH_KNOTS ( 'NONE', 3,
 ( #237, #368, #297, #194, #68, #284, #151, #241, #551, #153, #469, #464 ),
 .UNSPECIFIED., .F., .F.,
 ( 4, 2, 2, 2, 2, 4 ),
 ( 5.421010862427522170E-20, 0.001317373638865555882, 0.002634747277731111764, 0.005269494555462220925, 0.007904241833193331387, 0.01053898911092444185 ),
 .UNSPECIFIED. ) ;
#468 = VECTOR ( 'NONE', #323, 1000.000000000000000 ) ;
#469 = CARTESIAN_POINT ( 'NONE',  ( -6.307292799264660133, 9.929550341479966846, -6.696771493983243673 ) ) ;
#470 = FACE_OUTER_BOUND ( 'NONE', #223, .T. ) ;
#471 = B_SPLINE_SURFACE_WITH_KNOTS ( 'NONE', 2, 1, ( 
 ( #475, #149 ),
 ( #120, #73 ),
 ( #28, #14 ) ),
 .UNSPECIFIED., .F., .F., .F.,
 ( 3, 3 ),
 ( 2, 2 ),
 ( 0.4976672411085089620, 0.4995542795880109632 ),
 ( 0.000000000000000000, 1.000000000000000000 ),
 .UNSPECIFIED. ) ;
#472 = DIRECTION ( 'NONE',  ( -0.000000000000000000, -0.000000000000000000, -1.000000000000000000 ) ) ;
#473 = LINE ( 'NONE', #122, #256 ) ;
#474 = CARTESIAN_POINT ( 'NONE',  ( -1.234222067970938364, 1.280553300889269552, -5.717671321728448497 ) ) ;
#475 = CARTESIAN_POINT ( 'NONE',  ( -18.94519211359818911, 7.540918895746552053, 6.503485534507348120 ) ) ;
#476 = DIRECTION ( 'NONE',  ( -0.9986120086232370685, -0.05233503773731754127, 0.005924530234325171146 ) ) ;
#477 = LINE ( 'NONE', #329, #281 ) ;
#478 = CARTESIAN_POINT ( 'NONE',  ( -1.234630267802966141, 1.282287552250058305, 5.717867645741297800 ) ) ;
#479 = EDGE_CURVE ( 'NONE', #394, #48, #246, .T. ) ;
#480 = B_SPLINE_CURVE_WITH_KNOTS ( 'NONE', 3,
 ( #430, #24, #17, #485, #574, #220, #483, #559, #178, #37, #292, #390, #522, #518, #434, #422 ),
 .UNSPECIFIED., .F., .F.,
 ( 4, 2, 2, 2, 2, 2, 2, 4 ),
 ( 0.000000000000000000, 0.005225300082522360903, 0.01045060016504471834, 0.01306325020630589792, 0.01567590024756707751, 0.01828855028882826056, 0.01959487530945885209, 0.02090120033008944014 ),
 .UNSPECIFIED. ) ;
#481 = CARTESIAN_POINT ( 'NONE',  ( -23.03592114560350268, 12.60815517220120086, 7.000000000000000000 ) ) ;
#482 = CARTESIAN_POINT ( 'NONE',  ( -9.529276192091355568, -1.999591181429739128, 5.346346182803447533 ) ) ;
#483 = CARTESIAN_POINT ( 'NONE',  ( -10.57049231190724292, -1.233542265767109347, -5.433065905536727414 ) ) ;
#484 = EDGE_CURVE ( 'NONE', #314, #184, #85, .T. ) ;
#485 = CARTESIAN_POINT ( 'NONE',  ( -14.43747518705073141, 2.262203719805750080, -5.828797974881933186 ) ) ;
#486 = DATE_AND_TIME ( #576, #418 ) ;
#487 = MANIFOLD_SOLID_BREP ( 'Cortar-Extruir2', #46 ) ;
#488 = EDGE_LOOP ( 'NONE', ( #234, #75, #581, #41 ) ) ;
#489 = DATE_AND_TIME ( #44, #393 ) ;
#490 = PERSON_AND_ORGANIZATION_ROLE ( 'classification_officer' ) ;
#491 = CC_DESIGN_DATE_AND_TIME_ASSIGNMENT ( #347, #133, ( #558 ) ) ;
#492 = EDGE_LOOP ( 'NONE', ( #516, #103, #146, #23 ) ) ;
#493 = CARTESIAN_POINT ( 'NONE',  ( 0.3551249999651975298, -2.723253226996780185, -5.327597916784519327 ) ) ;
#494 = PERSON ( 'UNSPECIFIED', 'UNSPECIFIED', 'UNSPECIFIED', ('UNSPECIFIED'), ('UNSPECIFIED'), ('UNSPECIFIED') ) ;
#495 = UNCERTAINTY_MEASURE_WITH_UNIT (LENGTH_MEASURE( 1.000000000000000082E-05 ), #373, 'distance_accuracy_value', 'NONE');
#496 = APPROVAL_PERSON_ORGANIZATION ( #432, #350, #564 ) ;
#497 = ORIENTED_EDGE ( 'NONE', *, *, #227, .F. ) ;
#498 = EDGE_CURVE ( 'NONE', #20, #369, #50, .T. ) ;
#499 = ORIENTED_EDGE ( 'NONE', *, *, #532, .T. ) ;
#500 = CARTESIAN_POINT ( 'NONE',  ( -1.022718589753846441, 0.05426382960666979727, 5.578850574428830811 ) ) ;
#501 = B_SPLINE_CURVE_WITH_KNOTS ( 'NONE', 3,
 ( #371, #71, #366, #22, #250, #423 ),
 .UNSPECIFIED., .F., .F.,
 ( 4, 2, 4 ),
 ( 0.000000000000000000, 0.001996494119117836388, 0.003992988238235672775 ),
 .UNSPECIFIED. ) ;
#502 = ORIENTED_EDGE ( 'NONE', *, *, #80, .F. ) ;
#503 = DIRECTION ( 'NONE',  ( 0.000000000000000000, 0.9936533736897814606, 0.1124854344122625388 ) ) ;
#504 = VECTOR ( 'NONE', #58, 1000.000000000000114 ) ;
#505 = CC_DESIGN_APPROVAL ( #293, ( #141 ) ) ;
#506 = CARTESIAN_POINT ( 'NONE',  ( -0.9075306697980521919, -0.1237304348149260991, 5.865986263594099803 ) ) ;
#507 = ORIENTED_EDGE ( 'NONE', *, *, #167, .F. ) ;
#508 = LINE ( 'NONE', #208, #291 ) ;
#509 = LINE ( 'NONE', #417, #136 ) ;
#510 = LINE ( 'NONE', #247, #53 ) ;
#511 = CARTESIAN_POINT ( 'NONE',  ( -23.03592114560350268, 11.87161228793415191, 6.916620475012943636 ) ) ;
#512 = CARTESIAN_POINT ( 'NONE',  ( -0.08590854173393609738, -2.269440550774463272, 5.315798182524555493 ) ) ;
#513 = ORIENTED_EDGE ( 'NONE', *, *, #97, .F. ) ;
#514 = CARTESIAN_POINT ( 'NONE',  ( 0.3551250000564474263, 2.037380911795548144, 7.000000000000000000 ) ) ;
#515 = LINE ( 'NONE', #289, #116 ) ;
#516 = ORIENTED_EDGE ( 'NONE', *, *, #134, .F. ) ;
#517 = CARTESIAN_POINT ( 'NONE',  ( -1.127255017630081957, -1.005829664611009866, 5.458843859439433288 ) ) ;
#518 = CARTESIAN_POINT ( 'NONE',  ( -3.702783848952148738, -4.876195828739250615, -5.020703325895141234 ) ) ;
#519 = ORIENTED_EDGE ( 'NONE', *, *, #538, .F. ) ;
#520 = DIRECTION ( 'NONE',  ( -1.000000000000000000, 0.000000000000000000, 0.000000000000000000 ) ) ;
#521 = CARTESIAN_POINT ( 'NONE',  ( -6.159235080415339958, -4.005835272886219656, 5.119231532825959441 ) ) ;
#522 = CARTESIAN_POINT ( 'NONE',  ( -4.540415514160765831, -4.628971769232971489, -5.048690052923965332 ) ) ;
#523 = AXIS2_PLACEMENT_3D ( 'NONE', #296, #380, #563 ) ;
#524 = CC_DESIGN_SECURITY_CLASSIFICATION ( #141, ( #66 ) ) ;
#525 = CARTESIAN_POINT ( 'NONE',  ( -20.25388486837870516, 8.929371410749542548, -6.583547341082284454 ) ) ;
#526 = ADVANCED_FACE ( 'NONE', ( #282 ), #101, .T. ) ;
#527 = ORIENTED_EDGE ( 'NONE', *, *, #286, .T. ) ;
#528 = CARTESIAN_POINT ( 'NONE',  ( -2.846604824987382987, -5.059081103884319752, 7.000000000000000000 ) ) ;
#529 = EDGE_LOOP ( 'NONE', ( #115, #100, #449, #565, #440, #372, #12, #497, #507, #541, #183, #262 ) ) ;
#530 = PERSON_AND_ORGANIZATION ( #494, #429 ) ;
#531 = APPLICATION_CONTEXT ( 'configuration controlled 3d designs of mechanical parts and assemblies' ) ;
#532 = EDGE_CURVE ( 'NONE', #64, #192, #52, .T. ) ;
#533 = LINE ( 'NONE', #94, #187 ) ;
#534 = ORIENTED_EDGE ( 'NONE', *, *, #15, .F. ) ;
#535 = EDGE_CURVE ( 'NONE', #320, #20, #411, .T. ) ;
#536 = ORIENTED_EDGE ( 'NONE', *, *, #572, .F. ) ;
#537 = CARTESIAN_POINT ( 'NONE',  ( -2.846604824987382987, -5.059081103884319752, 5.327597916784519327 ) ) ;
#538 = EDGE_CURVE ( 'NONE', #394, #548, #480, .T. ) ;
#539 = VECTOR ( 'NONE', #561, 1000.000000000000227 ) ;
#540 = DIRECTION ( 'NONE',  ( -0.000000000000000000, -0.000000000000000000, -1.000000000000000000 ) ) ;
#541 = ORIENTED_EDGE ( 'NONE', *, *, #370, .F. ) ;
#542 = CARTESIAN_POINT ( 'NONE',  ( -5.629041172254177994, 9.370777676637377596, 6.633516250649171830 ) ) ;
#543 = DIRECTION ( 'NONE',  ( -0.000000000000000000, -0.000000000000000000, -1.000000000000000000 ) ) ;
#544 = CARTESIAN_POINT ( 'NONE',  ( -69.88413394276419410, -40.47183154957589579, 7.000000000000000000 ) ) ;
#545 = ORIENTED_EDGE ( 'NONE', *, *, #330, .F. ) ;
#546 = CARTESIAN_POINT ( 'NONE',  ( -6.994875025828874548, 10.47738999221430234, 7.000000000000000000 ) ) ;
#547 = CARTESIAN_POINT ( 'NONE',  ( -1.394874999943561011, -2.223730434814910062, -5.865986263594098915 ) ) ;
#548 = VERTEX_POINT ( 'NONE', #166 ) ;
#549 = B_SPLINE_CURVE_WITH_KNOTS ( 'NONE', 3,
 ( #248, #367, #335, #30, #244, #69, #298, #552, #168, #474, #332, #375 ),
 .UNSPECIFIED., .F., .F.,
 ( 4, 2, 2, 2, 2, 4 ),
 ( 0.000000000000000000, 0.001075217163368720084, 0.002150434326737440168, 0.002688042908421800319, 0.003225651490106160035, 0.004300868653474881204 ),
 .UNSPECIFIED. ) ;
#550 = CARTESIAN_POINT ( 'NONE',  ( -2.260328794758161397, -4.745950792246729222, 5.035447571622896135 ) ) ;
#551 = CARTESIAN_POINT ( 'NONE',  ( -4.298359642104462530, 8.222722295426272865, -6.503551907242953511 ) ) ;
#552 = CARTESIAN_POINT ( 'NONE',  ( -1.092990794241189167, 0.5806537763005525932, -5.638439967865135571 ) ) ;
#553 = ADVANCED_FACE ( 'NONE', ( #77 ), #171, .T. ) ;
#554 = CARTESIAN_POINT ( 'NONE',  ( 0.3551250000566972265, -2.284841781425457352, -5.314054703192494955 ) ) ;
#555 = CARTESIAN_POINT ( 'NONE',  ( 0.3551250000566972265, 3.001549528634499975, -6.839894546441814605 ) ) ;
#556 = CARTESIAN_POINT ( 'NONE',  ( -2.846604824987382987, -5.059081103884319752, 5.000000000000000000 ) ) ;
#557 = VERTEX_POINT ( 'NONE', #342 ) ;
#558 = PRODUCT_DEFINITION ( 'UNKNOWN', '', #66, #181 ) ;
#559 = CARTESIAN_POINT ( 'NONE',  ( -9.168106562484524602, -2.265010598924417806, -5.316299670338580086 ) ) ;
#560 = AXIS2_PLACEMENT_3D ( 'NONE', #481, #7, #503 ) ;
#561 = DIRECTION ( 'NONE',  ( 0.9993830276160453607, -0.03489922434133396756, -0.003950728206264357729 ) ) ;
#562 = CARTESIAN_POINT ( 'NONE',  ( -1.448726270043842357, 6.058427314146597631, 6.839894546441814605 ) ) ;
#563 = DIRECTION ( 'NONE',  ( 0.9993908270190959842, -0.03489949670249007513, 0.000000000000000000 ) ) ;
#564 = APPROVAL_ROLE ( '' ) ;
#565 = ORIENTED_EDGE ( 'NONE', *, *, #80, .T. ) ;
#566 = CARTESIAN_POINT ( 'NONE',  ( -23.03592114560350268, 11.54013782009825206, 6.879096273416728913 ) ) ;
#567 = CARTESIAN_POINT ( 'NONE',  ( -8.071980441895290070, -2.962089301009908304, 5.237387644576053880 ) ) ;
#568 = PERSON_AND_ORGANIZATION ( #494, #429 ) ;
#569 = CARTESIAN_POINT ( 'NONE',  ( -23.03592114560350268, 11.87161228793415191, -6.916620475012941860 ) ) ;
#570 = PERSON_AND_ORGANIZATION ( #494, #429 ) ;
#571 = ORIENTED_EDGE ( 'NONE', *, *, #326, .F. ) ;
#572 = EDGE_CURVE ( 'NONE', #184, #394, #121, .T. ) ;
#573 = AXIS2_PLACEMENT_3D ( 'NONE', #83, #81, #348 ) ;
#574 = CARTESIAN_POINT ( 'NONE',  ( -13.20928844768828192, 1.026649603600847005, -5.688928433670470852 ) ) ;
#575 = ORIENTED_EDGE ( 'NONE', *, *, #167, .T. ) ;
#576 = CALENDAR_DATE ( 2026, 27, 8 ) ;
#577 = LINE ( 'NONE', #355, #130 ) ;
#578 = EDGE_CURVE ( 'NONE', #314, #548, #70, .T. ) ;
#579 = EDGE_LOOP ( 'NONE', ( #463, #534, #513, #238 ) ) ;
#580 = CARTESIAN_POINT ( 'NONE',  ( -23.03592114560350268, 11.54013782009825206, 6.879096273416728913 ) ) ;
#581 = ORIENTED_EDGE ( 'NONE', *, *, #578, .F. ) ;
ENDSEC;
END-ISO-10303-21;
