ISO-10303-21;
HEADER;
FILE_DESCRIPTION (( 'STEP AP203' ),
    '1' );
FILE_NAME ('lente dot l8_v3_extrusion_15mm.STEP',
    '2026-08-26T22:45:06',
    ( '' ),
    ( '' ),
    'SwSTEP 2.0',
    'SolidWorks 2026',
    '' );
FILE_SCHEMA (( 'CONFIG_CONTROL_DESIGN' ));
ENDSEC;

DATA;
#1 = CARTESIAN_POINT ( 'NONE',  ( -6.936916963199470487, -3.619105451226395154, 5.663010855818680689 ) ) ;
#2 = CC_DESIGN_DATE_AND_TIME_ASSIGNMENT ( #83, #36, ( #225 ) ) ;
#3 = VECTOR ( 'NONE', #324, 1000.000000000000000 ) ;
#4 = CARTESIAN_POINT ( 'NONE',  ( -1.234630267802965697, 1.282287552250057860, 6.217867645741293359 ) ) ;
#5 = VECTOR ( 'NONE', #457, 1000.000000000000114 ) ;
#6 = DIRECTION ( 'NONE',  ( -0.9993830276160453607, 0.03489922434133396756, -0.003950728206264357729 ) ) ;
#7 = CARTESIAN_POINT ( 'NONE',  ( 1.484527364560580320, 1.384344158600975039, 7.500000000000000000 ) ) ;
#8 = DIRECTION ( 'NONE',  ( -1.000000000000000000, 0.000000000000000000, 0.000000000000000000 ) ) ;
#9 = LINE ( 'NONE', #17, #142 ) ;
#10 = EDGE_CURVE ( 'NONE', #529, #40, #95, .T. ) ;
#11 = CARTESIAN_POINT ( 'NONE',  ( -2.846604824987382987, -5.059081103884319752, 5.833597916784519555 ) ) ;
#12 = CARTESIAN_POINT ( 'NONE',  ( -6.994875025828874548, 10.47738999221430234, 7.258789077511673682 ) ) ;
#13 = EDGE_CURVE ( 'NONE', #250, #352, #284, .T. ) ;
#14 = VECTOR ( 'NONE', #206, 1000.000000000000114 ) ;
#15 = CARTESIAN_POINT ( 'NONE',  ( -3.278073379930584341, -4.979360001396817559, -5.509024739494250866 ) ) ;
#16 = PRODUCT ( 'lente dot l8_v3_extrusion_15mm', 'lente dot l8_v3_extrusion_15mm', '', ( #80 ) ) ;
#17 = CARTESIAN_POINT ( 'NONE',  ( 2.254468745960912734, 0.5586831098690697717, -6.135952802800020756 ) ) ;
#18 = DIRECTION ( 'NONE',  ( -0.000000000000000000, 0.9936533736897814606, 0.1124854344122625388 ) ) ;
#19 = EDGE_LOOP ( 'NONE', ( #353, #68, #268, #314 ) ) ;
#20 = PLANE ( 'NONE',  #218 ) ;
#21 = B_SPLINE_SURFACE_WITH_KNOTS ( 'NONE', 2, 1, ( 
 ( #449, #409 ),
 ( #578, #498 ),
 ( #41, #403 ) ),
 .UNSPECIFIED., .F., .F., .F.,
 ( 3, 3 ),
 ( 2, 2 ),
 ( 0.5008207051229819351, 0.5020133117822229707 ),
 ( 0.000000000000000000, 1.000000000000000000 ),
 .UNSPECIFIED. ) ;
#22 = CARTESIAN_POINT ( 'NONE',  ( -18.94519211359817135, 7.540918895746568040, -6.926369105244411628 ) ) ;
#23 = CC_DESIGN_PERSON_AND_ORGANIZATION_ASSIGNMENT ( #406, #282, ( #225 ) ) ;
#24 = ORIENTED_EDGE ( 'NONE', *, *, #435, .T. ) ;
#25 = CARTESIAN_POINT ( 'NONE',  ( -18.94519211359817135, 7.540918895746568040, -6.926369105244411628 ) ) ;
#26 = DIRECTION ( 'NONE',  ( 0.000000000000000000, 0.1124854344122625527, 0.9936533736897815716 ) ) ;
#27 = VECTOR ( 'NONE', #336, 1000.000000000000000 ) ;
#28 = PERSON_AND_ORGANIZATION ( #340, #172 ) ;
#29 = DIRECTION ( 'NONE',  ( 0.000000000000000000, 0.9936533736897814606, 0.1124854344122625388 ) ) ;
#30 = VERTEX_POINT ( 'NONE', #150 ) ;
#31 = COORDINATED_UNIVERSAL_TIME_OFFSET ( 1, 0, .AHEAD. ) ;
#32 = EDGE_CURVE ( 'NONE', #202, #255, #544, .T. ) ;
#33 = COORDINATED_UNIVERSAL_TIME_OFFSET ( 1, 0, .AHEAD. ) ;
#34 = ORIENTED_EDGE ( 'NONE', *, *, #552, .F. ) ;
#35 = APPROVAL_DATE_TIME ( #122, #384 ) ;
#36 = DATE_TIME_ROLE ( 'classification_date' ) ;
#37 = APPROVAL_ROLE ( '' ) ;
#38 = ORIENTED_EDGE ( 'NONE', *, *, #435, .F. ) ;
#39 = SHAPE_DEFINITION_REPRESENTATION ( #514, #400 ) ;
#40 = VERTEX_POINT ( 'NONE', #193 ) ;
#41 = CARTESIAN_POINT ( 'NONE',  ( -6.994875025828872772, 10.47738999221430234, 7.345894546441813944 ) ) ;
#42 = EDGE_LOOP ( 'NONE', ( #532, #79, #302, #487 ) ) ;
#43 = DIRECTION ( 'NONE',  ( -0.9993830276160452497, -0.03489922434133817253, -0.003950728206264833911 ) ) ;
#44 = APPROVAL_STATUS ( 'not_yet_approved' ) ;
#45 = ORIENTED_EDGE ( 'NONE', *, *, #13, .F. ) ;
#46 = ADVANCED_FACE ( 'NONE', ( #454 ), #147, .F. ) ;
#47 = CARTESIAN_POINT ( 'NONE',  ( -1.688194259797113572, -4.405153456069167639, -5.574027158248896718 ) ) ;
#48 = CARTESIAN_POINT ( 'NONE',  ( 0.3551249999651975298, -2.723253226996780185, -5.833597916784519555 ) ) ;
#49 = LINE ( 'NONE', #123, #453 ) ;
#50 = DIRECTION ( 'NONE',  ( 0.000000000000000000, -0.9936533736897814606, 0.1124854344122625388 ) ) ;
#51 = CARTESIAN_POINT ( 'NONE',  ( -1.394874999943561011, -2.223730434814909618, 7.500000000000000000 ) ) ;
#52 = CARTESIAN_POINT ( 'NONE',  ( -8.445166023051415394, -2.729959031358991872, 5.763665695769042863 ) ) ;
#53 = VECTOR ( 'NONE', #62, 1000.000000000000000 ) ;
#54 = DIRECTION ( 'NONE',  ( -3.485384126420032828E-13, -1.000000000000000000, 0.000000000000000000 ) ) ;
#55 = LINE ( 'NONE', #189, #508 ) ;
#56 = EDGE_CURVE ( 'NONE', #114, #407, #55, .T. ) ;
#57 = CARTESIAN_POINT ( 'NONE',  ( -1.023021868508781962, -0.4793968695130558233, -6.018438103482016466 ) ) ;
#58 = DIRECTION ( 'NONE',  ( 0.000000000000000000, -0.9936533736897814606, 0.1124854344122625388 ) ) ;
#59 = ADVANCED_FACE ( 'NONE', ( #145 ), #113, .F. ) ;
#60 = CARTESIAN_POINT ( 'NONE',  ( -6.307301893426085826, 9.929557587365660964, 7.196772314245740709 ) ) ;
#61 = CARTESIAN_POINT ( 'NONE',  ( -6.307292799264659244, 9.929550341479963294, -7.196771493983243673 ) ) ;
#62 = DIRECTION ( 'NONE',  ( -0.000000000000000000, -0.000000000000000000, -1.000000000000000000 ) ) ;
#63 = VECTOR ( 'NONE', #546, 1000.000000000000227 ) ;
#64 = LINE ( 'NONE', #432, #110 ) ;
#65 = ORIENTED_EDGE ( 'NONE', *, *, #408, .T. ) ;
#66 = CARTESIAN_POINT ( 'NONE',  ( -18.94519211359817135, 7.540918895746568040, 6.926369105244414293 ) ) ;
#67 = CARTESIAN_POINT ( 'NONE',  ( -0.9131558117480773618, 4.784688755421851347, -6.614353111655731254 ) ) ;
#68 = ORIENTED_EDGE ( 'NONE', *, *, #566, .F. ) ;
#69 = UNCERTAINTY_MEASURE_WITH_UNIT (LENGTH_MEASURE( 1.000000000000000082E-05 ), #386, 'distance_accuracy_value', 'NONE');
#70 = CARTESIAN_POINT ( 'NONE',  ( -0.6838485580539450659, 13.04303477462088701, 7.549230065826236569 ) ) ;
#71 = LINE ( 'NONE', #82, #131 ) ;
#72 = PLANE ( 'NONE',  #492 ) ;
#73 = CC_DESIGN_APPROVAL ( #384, ( #157 ) ) ;
#74 = APPROVAL_PERSON_ORGANIZATION ( #126, #505, #447 ) ;
#75 = ORIENTED_EDGE ( 'NONE', *, *, #76, .F. ) ;
#76 = EDGE_CURVE ( 'NONE', #539, #30, #368, .T. ) ;
#77 = FACE_OUTER_BOUND ( 'NONE', #42, .T. ) ;
#78 = DATE_AND_TIME ( #543, #151 ) ;
#79 = ORIENTED_EDGE ( 'NONE', *, *, #173, .F. ) ;
#80 = MECHANICAL_CONTEXT ( 'NONE', #171, 'mechanical' ) ;
#81 = ORIENTED_EDGE ( 'NONE', *, *, #511, .F. ) ;
#82 = CARTESIAN_POINT ( 'NONE',  ( -8.981845694529432933, 12.60815517220120086, 7.500000000000000000 ) ) ;
#83 = DATE_AND_TIME ( #490, #551 ) ;
#84 = AXIS2_PLACEMENT_3D ( 'NONE', #562, #473, #29 ) ;
#85 = ORIENTED_EDGE ( 'NONE', *, *, #495, .T. ) ;
#86 = CARTESIAN_POINT ( 'NONE',  ( -23.03592114560350268, 11.87161228793415191, 7.416620475012943636 ) ) ;
#87 = ORIENTED_EDGE ( 'NONE', *, *, #223, .F. ) ;
#88 = CARTESIAN_POINT ( 'NONE',  ( -1.234536082522798450, -1.529343570027420052, 5.899580045084379165 ) ) ;
#89 = ORIENTED_EDGE ( 'NONE', *, *, #451, .T. ) ;
#90 = CARTESIAN_POINT ( 'NONE',  ( -1.093493919861270536, -0.8308194969048433576, 5.978655692481223305 ) ) ;
#91 = CARTESIAN_POINT ( 'NONE',  ( -0.9075306697980521919, -0.1237304348149260991, -6.371986263594100919 ) ) ;
#92 = EDGE_CURVE ( 'NONE', #407, #404, #503, .T. ) ;
#93 = EDGE_CURVE ( 'NONE', #529, #255, #412, .T. ) ;
#94 = CARTESIAN_POINT ( 'NONE',  ( -18.94519211359817135, 7.540918895746568040, -6.926369105244411628 ) ) ;
#95 = LINE ( 'NONE', #506, #124 ) ;
#96 = CARTESIAN_POINT ( 'NONE',  ( -18.94519211359818911, 7.540918895746552053, -7.009485534507345683 ) ) ;
#97 = CARTESIAN_POINT ( 'NONE',  ( 0.3551250000566972265, 12.60815517220120086, -7.500000000000000000 ) ) ;
#98 = PERSON_AND_ORGANIZATION_ROLE ( 'design_supplier' ) ;
#99 = LINE ( 'NONE', #239, #27 ) ;
#100 = LINE ( 'NONE', #572, #198 ) ;
#101 = CARTESIAN_POINT ( 'NONE',  ( -1.234563142446287287, -1.529462512548839692, -5.899566580327395116 ) ) ;
#102 = CARTESIAN_POINT ( 'NONE',  ( 0.3551250000566972265, 12.60815517220120086, -7.500000000000000000 ) ) ;
#103 = CARTESIAN_POINT ( 'NONE',  ( -2.846604824987382987, -5.059081103884319752, -5.500000000000000000 ) ) ;
#104 = CARTESIAN_POINT ( 'NONE',  ( -16.77225510406512399, 4.832582587526371931, -6.619774880103933334 ) ) ;
#105 = B_SPLINE_SURFACE_WITH_KNOTS ( 'NONE', 2, 1, ( 
 ( #347, #96 ),
 ( #272, #270 ),
 ( #279, #496 ) ),
 .UNSPECIFIED., .F., .F., .F.,
 ( 3, 3 ),
 ( 2, 2 ),
 ( 0.4976672411085089620, 0.4995542795880109632 ),
 ( 0.000000000000000000, 1.000000000000000000 ),
 .UNSPECIFIED. ) ;
#106 = CARTESIAN_POINT ( 'NONE',  ( -0.6374960954314305983, 4.444863650470392002, 6.575883585393515141 ) ) ;
#107 = CARTESIAN_POINT ( 'NONE',  ( -11.24678723791021895, -0.6851860749068096057, -5.995141963420477893 ) ) ;
#108 = ORIENTED_EDGE ( 'NONE', *, *, #92, .T. ) ;
#109 = DIRECTION ( 'NONE',  ( -1.000000000000000000, 3.485384126420032828E-13, 0.000000000000000000 ) ) ;
#110 = VECTOR ( 'NONE', #241, 1000.000000000000000 ) ;
#111 = CC_DESIGN_SECURITY_CLASSIFICATION ( #225, ( #568 ) ) ;
#112 = DIRECTION ( 'NONE',  ( -0.03489949670249428704, 0.9993908270190959842, 0.000000000000000000 ) ) ;
#113 = B_SPLINE_SURFACE_WITH_KNOTS ( 'NONE', 2, 1, ( 
 ( #11, #580 ),
 ( #500, #154 ),
 ( #370, #48 ) ),
 .UNSPECIFIED., .F., .F., .F.,
 ( 3, 3 ),
 ( 2, 2 ),
 ( 0.4988120746294950059, 0.4994128454637969949 ),
 ( 0.000000000000000000, 1.000000000000000000 ),
 .UNSPECIFIED. ) ;
#114 = VERTEX_POINT ( 'NONE', #509 ) ;
#115 =( NAMED_UNIT ( * ) PLANE_ANGLE_UNIT ( ) SI_UNIT ( $, .RADIAN. ) );
#116 = CARTESIAN_POINT ( 'NONE',  ( -1.394874999943561011, 1.976269565185000854, 7.500000000000000000 ) ) ;
#117 = ORIENTED_EDGE ( 'NONE', *, *, #328, .F. ) ;
#118 = APPLICATION_PROTOCOL_DEFINITION ( 'international standard', 'config_control_design', 1994, #171 ) ;
#119 = FACE_OUTER_BOUND ( 'NONE', #433, .T. ) ;
#120 = ADVANCED_FACE ( 'NONE', ( #228 ), #276, .F. ) ;
#121 = VERTEX_POINT ( 'NONE', #541 ) ;
#122 = DATE_AND_TIME ( #396, #499 ) ;
#123 = CARTESIAN_POINT ( 'NONE',  ( 0.3551250000564474263, 2.037380911795548144, 7.500000000000000000 ) ) ;
#124 = VECTOR ( 'NONE', #6, 1000.000000000000227 ) ;
#125 = ORIENTED_EDGE ( 'NONE', *, *, #288, .F. ) ;
#126 = PERSON_AND_ORGANIZATION ( #340, #172 ) ;
#127 = ORIENTED_EDGE ( 'NONE', *, *, #511, .T. ) ;
#128 = PLANE ( 'NONE',  #389 ) ;
#129 = EDGE_LOOP ( 'NONE', ( #169, #308, #87, #65, #345, #567, #178, #45, #214, #497, #183, #261 ) ) ;
#130 = B_SPLINE_CURVE_WITH_KNOTS ( 'NONE', 3,
 ( #238, #417, #549, #329, #1, #459, #52, #230, #232, #287, #415, #464, #421, #197, #332, #480 ),
 .UNSPECIFIED., .F., .F.,
 ( 4, 2, 2, 2, 2, 2, 2, 4 ),
 ( 0.000000000000000000, 0.002600970095093021323, 0.005201940190186042645, 0.006502425237732555909, 0.007802910285279068305, 0.01040388038037209049, 0.01560582057055812967, 0.02080776076074417058 ),
 .UNSPECIFIED. ) ;
#131 = VECTOR ( 'NONE', #569, 1000.000000000000000 ) ;
#132 = ORIENTED_EDGE ( 'NONE', *, *, #93, .T. ) ;
#133 = CARTESIAN_POINT ( 'NONE',  ( -23.03592114560350268, 11.54013782009825206, 7.379096273416728025 ) ) ;
#134 = ORIENTED_EDGE ( 'NONE', *, *, #144, .T. ) ;
#135 = DESIGN_CONTEXT ( 'detailed design', #190, 'design' ) ;
#136 = CARTESIAN_POINT ( 'NONE',  ( -0.09106104864206061855, -3.215973670137249663, -5.708646944541281520 ) ) ;
#137 = PERSON_AND_ORGANIZATION ( #340, #172 ) ;
#138 = ORIENTED_EDGE ( 'NONE', *, *, #477, .F. ) ;
#139 = EDGE_CURVE ( 'NONE', #219, #226, #141, .T. ) ;
#140 = LINE ( 'NONE', #51, #162 ) ;
#141 = LINE ( 'NONE', #102, #285 ) ;
#142 = VECTOR ( 'NONE', #374, 1000.000000000000114 ) ;
#143 = CARTESIAN_POINT ( 'NONE',  ( -1.394874999943561011, 1.976269565185000854, 6.296429114223418111 ) ) ;
#144 = EDGE_CURVE ( 'NONE', #573, #246, #130, .T. ) ;
#145 = FACE_OUTER_BOUND ( 'NONE', #484, .T. ) ;
#146 = CARTESIAN_POINT ( 'NONE',  ( -2.260328794758161841, -4.745950792246729222, 5.535447571622895246 ) ) ;
#147 = CYLINDRICAL_SURFACE ( 'NONE', #461, 69.99999999999980105 ) ;
#148 = CARTESIAN_POINT ( 'NONE',  ( -1.770984599449795249, 5.780608470118514752, 6.727095104702432771 ) ) ;
#149 = PRODUCT_RELATED_PRODUCT_CATEGORY ( 'detail', '', ( #16 ) ) ;
#150 = CARTESIAN_POINT ( 'NONE',  ( -8.981845694531926938, 12.60815517220113513, 7.499999999999992895 ) ) ;
#151 = LOCAL_TIME ( 0, 45, 6.000000000000000000, #257 ) ;
#152 = CARTESIAN_POINT ( 'NONE',  ( -1.040318291896018987, 0.2276001758288153931, -6.098472924355374580 ) ) ;
#153 = ADVANCED_FACE ( 'NONE', ( #512 ), #469, .F. ) ;
#154 = CARTESIAN_POINT ( 'NONE',  ( -0.7423668819740020242, -3.935206599586729137, -5.833597916784519555 ) ) ;
#155 = CARTESIAN_POINT ( 'NONE',  ( -1.022530459175376771, 0.05020564446570148498, -6.078391172055128244 ) ) ;
#156 = LINE ( 'NONE', #70, #209 ) ;
#157 = PRODUCT_DEFINITION ( 'UNKNOWN', '', #568, #135 ) ;
#158 = MANIFOLD_SOLID_BREP ( 'Cortar-Extruir2', #273 ) ;
#159 = CARTESIAN_POINT ( 'NONE',  ( -23.03592114560350268, 11.87161228793415191, -7.416620475012944524 ) ) ;
#160 = CARTESIAN_POINT ( 'NONE',  ( -4.298359642104462530, 8.222722295426271089, -7.003551907242952623 ) ) ;
#161 = EDGE_LOOP ( 'NONE', ( #445, #117, #81, #533, #132, #125, #211, #222, #448, #381, #24, #266 ) ) ;
#162 = VECTOR ( 'NONE', #323, 1000.000000000000000 ) ;
#163 = CARTESIAN_POINT ( 'NONE',  ( -4.540415514160765831, -4.628971769232971489, -5.548690052923967109 ) ) ;
#164 = APPROVAL_STATUS ( 'not_yet_approved' ) ;
#165 = EDGE_CURVE ( 'NONE', #219, #361, #466, .T. ) ;
#166 = CARTESIAN_POINT ( 'NONE',  ( -0.6835572876454348856, 13.04305003945616726, 7.500000000000000000 ) ) ;
#167 = PERSON_AND_ORGANIZATION ( #340, #172 ) ;
#168 = CARTESIAN_POINT ( 'NONE',  ( -6.173389071783080162, -3.999780770717781930, -5.619916926067322294 ) ) ;
#169 = ORIENTED_EDGE ( 'NONE', *, *, #76, .T. ) ;
#170 = DIRECTION ( 'NONE',  ( 1.000000000000000000, 0.000000000000000000, 0.000000000000000000 ) ) ;
#171 = APPLICATION_CONTEXT ( 'configuration controlled 3d designs of mechanical parts and assemblies' ) ;
#172 = ORGANIZATION ( 'UNSPECIFIED', 'UNSPECIFIED', '' ) ;
#173 = EDGE_CURVE ( 'NONE', #352, #529, #64, .T. ) ;
#174 = ORIENTED_EDGE ( 'NONE', *, *, #275, .T. ) ;
#175 = CARTESIAN_POINT ( 'NONE',  ( -2.846604824987382987, -5.059081103884319752, 5.500000000000000000 ) ) ;
#176 = ORIENTED_EDGE ( 'NONE', *, *, #13, .T. ) ;
#177 = SECURITY_CLASSIFICATION_LEVEL ( 'unclassified' ) ;
#178 = ORIENTED_EDGE ( 'NONE', *, *, #348, .T. ) ;
#179 = ADVANCED_FACE ( 'NONE', ( #394 ), #207, .F. ) ;
#180 = LINE ( 'NONE', #581, #234 ) ;
#181 = CALENDAR_DATE ( 2026, 27, 8 ) ;
#182 = EDGE_CURVE ( 'NONE', #577, #443, #502, .T. ) ;
#183 = ORIENTED_EDGE ( 'NONE', *, *, #556, .T. ) ;
#184 = CARTESIAN_POINT ( 'NONE',  ( -1.314368477922809086, 1.629361463898390872, 6.257157765171933228 ) ) ;
#185 = ADVANCED_FACE ( 'NONE', ( #341 ), #201, .F. ) ;
#186 = ORIENTED_EDGE ( 'NONE', *, *, #346, .F. ) ;
#187 = LINE ( 'NONE', #535, #534 ) ;
#188 = CARTESIAN_POINT ( 'NONE',  ( 0.3551250000566972265, -2.284841781425458240, 5.814054703192494955 ) ) ;
#189 = CARTESIAN_POINT ( 'NONE',  ( -0.7725931636156734283, 13.03838386692004825, -7.548703564948775480 ) ) ;
#190 = APPLICATION_CONTEXT ( 'configuration controlled 3d designs of mechanical parts and assemblies' ) ;
#191 = VECTOR ( 'NONE', #235, 1000.000000000000000 ) ;
#192 = CARTESIAN_POINT ( 'NONE',  ( -6.994875025828874548, 10.47738999221430234, 7.500000000000000000 ) ) ;
#193 = CARTESIAN_POINT ( 'NONE',  ( -1.394874999943561011, -2.223730434814910062, -5.820972745794695591 ) ) ;
#194 = CARTESIAN_POINT ( 'NONE',  ( -2.846604824987382987, -5.059081103884319752, 5.500000000000000000 ) ) ;
#195 = CARTESIAN_POINT ( 'NONE',  ( 0.3551249999651975298, -2.723253226996780185, 7.500000000000000000 ) ) ;
#196 = CARTESIAN_POINT ( 'NONE',  ( -0.6044451899352160096, -3.639840208172668401, 5.660663600523930583 ) ) ;
#197 = CARTESIAN_POINT ( 'NONE',  ( -16.76895539129553825, 4.828521513569937085, 6.619315150705020301 ) ) ;
#198 = VECTOR ( 'NONE', #43, 1000.000000000000114 ) ;
#199 = CARTESIAN_POINT ( 'NONE',  ( -1.314167363343947903, 1.628494847443690663, -6.257059660811844282 ) ) ;
#200 = EDGE_CURVE ( 'NONE', #258, #30, #156, .T. ) ;
#201 = PLANE ( 'NONE',  #414 ) ;
#202 = VERTEX_POINT ( 'NONE', #334 ) ;
#203 = DIRECTION ( 'NONE',  ( -0.9993908270190958731, -0.03489949670249428010, 0.000000000000000000 ) ) ;
#204 = EDGE_LOOP ( 'NONE', ( #481, #491, #138, #134 ) ) ;
#205 = PERSON_AND_ORGANIZATION ( #340, #172 ) ;
#206 = DIRECTION ( 'NONE',  ( -0.000000000000000000, 0.9936533736897814606, 0.1124854344122625388 ) ) ;
#207 = PLANE ( 'NONE',  #84 ) ;
#208 = ORIENTED_EDGE ( 'NONE', *, *, #165, .T. ) ;
#209 = VECTOR ( 'NONE', #251, 1000.000000000000114 ) ;
#210 = CARTESIAN_POINT ( 'NONE',  ( 0.3551250000566972265, 3.001549528634499975, -6.412494801853046766 ) ) ;
#211 = ORIENTED_EDGE ( 'NONE', *, *, #182, .F. ) ;
#212 = CARTESIAN_POINT ( 'NONE',  ( 0.3551250000566972265, 3.001549528634499975, 7.500000000000000000 ) ) ;
#213 = CARTESIAN_POINT ( 'NONE',  ( -13.20928844768828192, 1.026649603600848337, -6.188928433670470852 ) ) ;
#214 = ORIENTED_EDGE ( 'NONE', *, *, #275, .F. ) ;
#215 = LINE ( 'NONE', #253, #349 ) ;
#216 = ORIENTED_EDGE ( 'NONE', *, *, #408, .F. ) ;
#217 = CARTESIAN_POINT ( 'NONE',  ( -0.07925871954190913393, -2.269672767682391790, 7.500000000000000000 ) ) ;
#218 = AXIS2_PLACEMENT_3D ( 'NONE', #217, #488, #475 ) ;
#219 = VERTEX_POINT ( 'NONE', #210 ) ;
#220 = ORIENTED_EDGE ( 'NONE', *, *, #223, .T. ) ;
#221 = DIRECTION ( 'NONE',  ( 0.000000000000000000, 0.000000000000000000, 1.000000000000000000 ) ) ;
#222 = ORIENTED_EDGE ( 'NONE', *, *, #364, .T. ) ;
#223 = EDGE_CURVE ( 'NONE', #357, #258, #427, .T. ) ;
#224 = CARTESIAN_POINT ( 'NONE',  ( -18.94519211359817135, 7.540918895746568040, 6.926369105244414293 ) ) ;
#225 = SECURITY_CLASSIFICATION ( '', '', #177 ) ;
#226 = VERTEX_POINT ( 'NONE', #292 ) ;
#227 = FACE_OUTER_BOUND ( 'NONE', #471, .T. ) ;
#228 = FACE_OUTER_BOUND ( 'NONE', #401, .T. ) ;
#229 = CARTESIAN_POINT ( 'NONE',  ( -21.61822091296468074, 10.26318709152285535, -7.234540474352232131 ) ) ;
#230 = CARTESIAN_POINT ( 'NONE',  ( -9.173158054527712935, -2.249075457824854407, 5.818103590414179571 ) ) ;
#231 = FACE_OUTER_BOUND ( 'NONE', #204, .T. ) ;
#232 = CARTESIAN_POINT ( 'NONE',  ( -9.529276192091355568, -1.999591181429739128, 5.846346182803451086 ) ) ;
#233 = ADVANCED_FACE ( 'NONE', ( #515 ), #245, .F. ) ;
#234 = VECTOR ( 'NONE', #319, 1000.000000000000114 ) ;
#235 = DIRECTION ( 'NONE',  ( -0.000000000000000000, -0.000000000000000000, -1.000000000000000000 ) ) ;
#236 = CARTESIAN_POINT ( 'NONE',  ( 1.413273706048157274, 1.460754352720366800, 6.238070783083370152 ) ) ;
#237 = CARTESIAN_POINT ( 'NONE',  ( 0.3551250000566972265, 3.001549528634499975, 6.412494801853047655 ) ) ;
#238 = CARTESIAN_POINT ( 'NONE',  ( -2.846604824987382987, -5.059081103884319752, 5.500000000000000000 ) ) ;
#239 = CARTESIAN_POINT ( 'NONE',  ( -23.03592114560350268, 11.54013782009829825, 7.500000000000000000 ) ) ;
#240 = ADVANCED_FACE ( 'NONE', ( #119 ), #72, .T. ) ;
#241 = DIRECTION ( 'NONE',  ( -0.000000000000000000, -0.000000000000000000, -1.000000000000000000 ) ) ;
#242 = LOCAL_TIME ( 0, 45, 6.000000000000000000, #343 ) ;
#243 = CARTESIAN_POINT ( 'NONE',  ( 0.3551250000109473781, -2.723253226996780629, 5.764424818957034624 ) ) ;
#244 = CC_DESIGN_PERSON_AND_ORGANIZATION_ASSIGNMENT ( #28, #441, ( #16 ) ) ;
#245 = PLANE ( 'NONE',  #320 ) ;
#246 = VERTEX_POINT ( 'NONE', #224 ) ;
#247 = CARTESIAN_POINT ( 'NONE',  ( -23.03592114560350268, 11.54013782009825206, -7.379096273416728025 ) ) ;
#248 = DATE_AND_TIME ( #379, #242 ) ;
#249 = CARTESIAN_POINT ( 'NONE',  ( -5.629019070786771550, 9.370759677855353686, -7.133514213116801450 ) ) ;
#250 = VERTEX_POINT ( 'NONE', #411 ) ;
#251 = DIRECTION ( 'NONE',  ( 0.9986120086232370685, 0.05233503773731754127, 0.005924530234325171146 ) ) ;
#252 = ORIENTED_EDGE ( 'NONE', *, *, #328, .T. ) ;
#253 = CARTESIAN_POINT ( 'NONE',  ( -1.394874999943561011, 1.976269565185000854, 7.500000000000000000 ) ) ;
#254 = CARTESIAN_POINT ( 'NONE',  ( -23.03592114560350268, 0.000000000000000000, 7.500000000000000000 ) ) ;
#255 = VERTEX_POINT ( 'NONE', #405 ) ;
#256 = APPLICATION_PROTOCOL_DEFINITION ( 'international standard', 'config_control_design', 1994, #190 ) ;
#257 = COORDINATED_UNIVERSAL_TIME_OFFSET ( 1, 0, .AHEAD. ) ;
#258 = VERTEX_POINT ( 'NONE', #86 ) ;
#259 = EDGE_CURVE ( 'NONE', #494, #226, #49, .T. ) ;
#260 = APPROVAL_STATUS ( 'not_yet_approved' ) ;
#261 = ORIENTED_EDGE ( 'NONE', *, *, #485, .F. ) ;
#262 = CARTESIAN_POINT ( 'NONE',  ( 0.3551250000566972265, 12.60815517220120086, 7.500000000000000000 ) ) ;
#263 = PERSON_AND_ORGANIZATION ( #340, #172 ) ;
#264 = VECTOR ( 'NONE', #58, 1000.000000000000114 ) ;
#265 = CC_DESIGN_APPROVAL ( #505, ( #225 ) ) ;
#266 = ORIENTED_EDGE ( 'NONE', *, *, #165, .F. ) ;
#267 = CARTESIAN_POINT ( 'NONE',  ( 0.3551250000109473781, -2.723253226996779741, -5.764424818957034624 ) ) ;
#268 = ORIENTED_EDGE ( 'NONE', *, *, #556, .F. ) ;
#269 = ADVANCED_FACE ( 'NONE', ( #231 ), #105, .F. ) ;
#270 = CARTESIAN_POINT ( 'NONE',  ( -10.21500838427921387, -3.697644103227559320, -7.009485534507345683 ) ) ;
#271 = ORIENTED_EDGE ( 'NONE', *, *, #259, .F. ) ;
#272 = CARTESIAN_POINT ( 'NONE',  ( -10.21500838427921387, -3.697644103227559320, 7.009485534507347460 ) ) ;
#273 = CLOSED_SHELL ( 'NONE', ( #442, #240, #269, #59, #528, #536, #120, #307, #372, #233, #46, #153, #179, #185 ) ) ;
#274 = CARTESIAN_POINT ( 'NONE',  ( -1.394874999943561011, 1.976269565185000410, 6.371986263594099142 ) ) ;
#275 = EDGE_CURVE ( 'NONE', #121, #250, #547, .T. ) ;
#276 =( BOUNDED_SURFACE ( )  B_SPLINE_SURFACE ( 2, 1, ( 
 ( #281, #326 ),
 ( #373, #91 ),
 ( #274, #363 ) ),
 .UNSPECIFIED., .F., .F., .F. ) 
 B_SPLINE_SURFACE_WITH_KNOTS ( ( 3, 3 ),
 ( 2, 2 ),
 ( 0.000000000000000000, 1.000000000000000000 ),
 ( 0.000000000000000000, 1.000000000000000000 ),
 .UNSPECIFIED. ) 
 GEOMETRIC_REPRESENTATION_ITEM ( )  RATIONAL_B_SPLINE_SURFACE ( (
 ( 1.000000000000000000, 1.000000000000000000),
 ( 3.231801218513670193, 3.231801218513670193),
 ( 1.000000000000000000, 1.000000000000000000) ) ) 
 REPRESENTATION_ITEM ( '' )  SURFACE ( )  );
#277 = CARTESIAN_POINT ( 'NONE',  ( -20.25388486837870516, 8.929371410749542548, -7.083547341082283566 ) ) ;
#278 = DIRECTION ( 'NONE',  ( -0.6796729177606267713, 0.7288599724985127537, 0.08250978943266890075 ) ) ;
#279 = CARTESIAN_POINT ( 'NONE',  ( -2.846604824987382987, -5.059081103884319752, 7.009485534507347460 ) ) ;
#280 = CC_DESIGN_PERSON_AND_ORGANIZATION_ASSIGNMENT ( #167, #305, ( #157 ) ) ;
#281 = CARTESIAN_POINT ( 'NONE',  ( -1.394874999943561011, -2.223730434814910062, 6.371986263594099142 ) ) ;
#282 = PERSON_AND_ORGANIZATION_ROLE ( 'classification_officer' ) ;
#283 = CARTESIAN_POINT ( 'NONE',  ( 0.1312573155561916893, 3.380924570793871986, 6.455441535142951714 ) ) ;
#284 = LINE ( 'NONE', #462, #63 ) ;
#285 = VECTOR ( 'NONE', #50, 1000.000000000000114 ) ;
#286 = CARTESIAN_POINT ( 'NONE',  ( -1.091522743501208259, -0.8314751597095918489, -5.978581468896471129 ) ) ;
#287 = CARTESIAN_POINT ( 'NONE',  ( -10.57744606323053027, -1.227969866569280644, 5.933696722842916493 ) ) ;
#288 = EDGE_CURVE ( 'NONE', #443, #255, #455, .T. ) ;
#289 = CARTESIAN_POINT ( 'NONE',  ( -1.126772622086070319, 0.7559124068803505514, -6.158279927872573722 ) ) ;
#290 = CARTESIAN_POINT ( 'NONE',  ( -3.702783848952149182, -4.876195828739250615, -5.520703325895143010 ) ) ;
#291 = CARTESIAN_POINT ( 'NONE',  ( -1.394874999943561011, 1.976269565185000854, -6.296429114223419887 ) ) ;
#292 = CARTESIAN_POINT ( 'NONE',  ( 0.3551250000564474263, 2.037380911795548144, -6.303347156825619635 ) ) ;
#293 = ORIENTED_EDGE ( 'NONE', *, *, #346, .T. ) ;
#294 =( GEOMETRIC_REPRESENTATION_CONTEXT ( 3 ) GLOBAL_UNCERTAINTY_ASSIGNED_CONTEXT ( ( #69 ) ) GLOBAL_UNIT_ASSIGNED_CONTEXT ( ( #386, #115, #299 ) ) REPRESENTATION_CONTEXT ( 'NONE', 'WORKASPACE' ) );
#295 = LINE ( 'NONE', #460, #191 ) ;
#296 = DATE_TIME_ROLE ( 'creation_date' ) ;
#297 = DIRECTION ( 'NONE',  ( 0.000000000000000000, -0.9936533736897814606, 0.1124854344122625388 ) ) ;
#298 = EDGE_LOOP ( 'NONE', ( #397, #478, #186, #176 ) ) ;
#299 =( NAMED_UNIT ( * ) SI_UNIT ( $, .STERADIAN. ) SOLID_ANGLE_UNIT ( ) );
#300 = CARTESIAN_POINT ( 'NONE',  ( -10.57049231190724292, -1.233542265767109125, -5.933065905536726525 ) ) ;
#301 =( BOUNDED_CURVE ( )  B_SPLINE_CURVE ( 3, ( #94, #277, #229, #366 ),
 .UNSPECIFIED., .F., .F. ) 
 B_SPLINE_CURVE_WITH_KNOTS ( ( 4, 4 ),
 ( 5.468223840914978595, 5.549972645329292575 ),
 .UNSPECIFIED. ) 
 CURVE ( )  GEOMETRIC_REPRESENTATION_ITEM ( )  RATIONAL_B_SPLINE_CURVE ( ( 1.000000000000000000, 0.9994431719463756636, 0.9994431719463756636, 1.000000000000000000 ) ) 
 REPRESENTATION_ITEM ( '' )  );
#302 = ORIENTED_EDGE ( 'NONE', *, *, #348, .F. ) ;
#303 = LINE ( 'NONE', #351, #434 ) ;
#304 = CARTESIAN_POINT ( 'NONE',  ( -8.446328555618361378, -2.745180178998659848, -5.761942602535707891 ) ) ;
#305 = PERSON_AND_ORGANIZATION_ROLE ( 'creator' ) ;
#306 = CARTESIAN_POINT ( 'NONE',  ( -0.6035205376108018216, -3.639126207244639311, -5.660744428211651247 ) ) ;
#307 = ADVANCED_FACE ( 'NONE', ( #227 ), #21, .F. ) ;
#308 = ORIENTED_EDGE ( 'NONE', *, *, #200, .F. ) ;
#309 = CARTESIAN_POINT ( 'NONE',  ( 0.000000000000000000, 0.000000000000000000, 0.000000000000000000 ) ) ;
#310 = ORIENTED_EDGE ( 'NONE', *, *, #552, .T. ) ;
#311 = CARTESIAN_POINT ( 'NONE',  ( 0.3551250005320090164, -7.391488004478132823E-11, 7.500000000000000000 ) ) ;
#312 = ORIENTED_EDGE ( 'NONE', *, *, #495, .F. ) ;
#313 = AXIS2_PLACEMENT_3D ( 'NONE', #7, #371, #504 ) ;
#314 = ORIENTED_EDGE ( 'NONE', *, *, #259, .T. ) ;
#315 = CARTESIAN_POINT ( 'NONE',  ( -6.994875025828873660, 10.47738999221430234, -7.258789077511675458 ) ) ;
#316 = ORIENTED_EDGE ( 'NONE', *, *, #200, .T. ) ;
#317 = CARTESIAN_POINT ( 'NONE',  ( -1.040765121665585768, -0.4787116080806333995, 6.018515677746810510 ) ) ;
#318 = ORIENTED_EDGE ( 'NONE', *, *, #575, .F. ) ;
#319 = DIRECTION ( 'NONE',  ( -0.000000000000000000, 0.9936533736897814606, 0.1124854344122625388 ) ) ;
#320 = AXIS2_PLACEMENT_3D ( 'NONE', #166, #344, #524 ) ;
#321 = CARTESIAN_POINT ( 'NONE',  ( -69.88413394276419410, -40.47183154957589579, 7.500000000000000000 ) ) ;
#322 = EDGE_CURVE ( 'NONE', #494, #121, #100, .T. ) ;
#323 = DIRECTION ( 'NONE',  ( -0.000000000000000000, -0.000000000000000000, -1.000000000000000000 ) ) ;
#324 = DIRECTION ( 'NONE',  ( -0.000000000000000000, -0.000000000000000000, -1.000000000000000000 ) ) ;
#325 = CARTESIAN_POINT ( 'NONE',  ( -23.03592114560350268, 11.54013782009825206, 7.379096273416728025 ) ) ;
#326 = CARTESIAN_POINT ( 'NONE',  ( -1.394874999943561011, -2.223730434814910062, -6.371986263594100919 ) ) ;
#327 = CARTESIAN_POINT ( 'NONE',  ( -0.9131553968141891131, 4.784689529730152380, 6.614353199310426312 ) ) ;
#328 = EDGE_CURVE ( 'NONE', #523, #226, #187, .T. ) ;
#329 = CARTESIAN_POINT ( 'NONE',  ( -6.159235080415339958, -4.005835272886219656, 5.619231532825962105 ) ) ;
#330 = APPROVAL_PERSON_ORGANIZATION ( #439, #384, #342 ) ;
#331 = CARTESIAN_POINT ( 'NONE',  ( -1.092990794241188723, 0.5806537763005527042, -6.138439967865132019 ) ) ;
#332 = CARTESIAN_POINT ( 'NONE',  ( -17.87813264845535954, 6.167269108470562422, 6.770866595875093985 ) ) ;
#333 = CARTESIAN_POINT ( 'NONE',  ( -3.645804699733607102, 7.633612604158144244, 6.936862394286695377 ) ) ;
#334 = CARTESIAN_POINT ( 'NONE',  ( 0.3551250000109473781, -2.723253226996780629, 5.764424818957034624 ) ) ;
#335 = ORIENTED_EDGE ( 'NONE', *, *, #393, .F. ) ;
#336 = DIRECTION ( 'NONE',  ( -0.000000000000000000, -0.000000000000000000, -1.000000000000000000 ) ) ;
#337 = CARTESIAN_POINT ( 'NONE',  ( -6.948876663721483382, -3.612404337174380142, -5.663769448045255395 ) ) ;
#338 = AXIS2_PLACEMENT_3D ( 'NONE', #116, #112, #203 ) ;
#339 = CARTESIAN_POINT ( 'NONE',  ( 0.3551250000566972265, -2.284841781425457352, -5.814054703192494955 ) ) ;
#340 = PERSON ( 'UNSPECIFIED', 'UNSPECIFIED', 'UNSPECIFIED', ('UNSPECIFIED'), ('UNSPECIFIED'), ('UNSPECIFIED') ) ;
#341 = FACE_OUTER_BOUND ( 'NONE', #161, .T. ) ;
#342 = APPROVAL_ROLE ( '' ) ;
#343 = COORDINATED_UNIVERSAL_TIME_OFFSET ( 1, 0, .AHEAD. ) ;
#344 = DIRECTION ( 'NONE',  ( 0.05233595624294034437, -0.9986295347545741663, 0.000000000000000000 ) ) ;
#345 = ORIENTED_EDGE ( 'NONE', *, *, #144, .F. ) ;
#346 = EDGE_CURVE ( 'NONE', #250, #40, #140, .T. ) ;
#347 = CARTESIAN_POINT ( 'NONE',  ( -18.94519211359818911, 7.540918895746552053, 7.009485534507347460 ) ) ;
#348 = EDGE_CURVE ( 'NONE', #202, #352, #180, .T. ) ;
#349 = VECTOR ( 'NONE', #398, 1000.000000000000000 ) ;
#350 = ORIENTED_EDGE ( 'NONE', *, *, #56, .T. ) ;
#351 = CARTESIAN_POINT ( 'NONE',  ( -18.94519211359817135, 7.540918895746568040, 7.500000000000000000 ) ) ;
#352 = VERTEX_POINT ( 'NONE', #188 ) ;
#353 = ORIENTED_EDGE ( 'NONE', *, *, #139, .F. ) ;
#354 = DIRECTION ( 'NONE',  ( -0.000000000000000000, -0.000000000000000000, -1.000000000000000000 ) ) ;
#355 = DATE_AND_TIME ( #181, #520 ) ;
#356 = VECTOR ( 'NONE', #521, 1000.000000000000000 ) ;
#357 = VERTEX_POINT ( 'NONE', #133 ) ;
#358 = CARTESIAN_POINT ( 'NONE',  ( -1.394874999943561011, -2.223730434814910062, 5.820972745794694703 ) ) ;
#359 = PERSON_AND_ORGANIZATION_ROLE ( 'creator' ) ;
#360 =( BOUNDED_CURVE ( )  B_SPLINE_CURVE ( 3, ( #325, #545, #554, #66 ),
 .UNSPECIFIED., .F., .F. ) 
 B_SPLINE_CURVE_WITH_KNOTS ( ( 4, 4 ),
 ( 3.874805315440086328, 3.956554119854400309 ),
 .UNSPECIFIED. ) 
 CURVE ( )  GEOMETRIC_REPRESENTATION_ITEM ( )  RATIONAL_B_SPLINE_CURVE ( ( 1.000000000000000000, 0.9994431719463756636, 0.9994431719463756636, 1.000000000000000000 ) ) 
 REPRESENTATION_ITEM ( '' )  );
#361 = VERTEX_POINT ( 'NONE', #315 ) ;
#362 = CARTESIAN_POINT ( 'NONE',  ( -1.127255017630081957, -1.005829664611010310, 5.958843859439435064 ) ) ;
#363 = CARTESIAN_POINT ( 'NONE',  ( -1.394874999943561011, 1.976269565185000410, -6.371986263594100919 ) ) ;
#364 = EDGE_CURVE ( 'NONE', #577, #404, #301, .T. ) ;
#365 = APPROVAL_DATE_TIME ( #78, #419 ) ;
#366 = CARTESIAN_POINT ( 'NONE',  ( -23.03592114560350268, 11.54013782009825206, -7.379096273416728025 ) ) ;
#367 = APPROVAL_PERSON_ORGANIZATION ( #205, #419, #37 ) ;
#368 = LINE ( 'NONE', #236, #519 ) ;
#369 = PLANE ( 'NONE',  #470 ) ;
#370 = CARTESIAN_POINT ( 'NONE',  ( 0.3551249999651975298, -2.723253226996780185, 5.833597916784519555 ) ) ;
#371 = DIRECTION ( 'NONE',  ( 0.7313537027583412176, 0.6819983588408874420, -0.000000000000000000 ) ) ;
#372 = ADVANCED_FACE ( 'NONE', ( #542 ), #458, .T. ) ;
#373 = CARTESIAN_POINT ( 'NONE',  ( -0.9075306697980521919, -0.1237304348149260991, 6.371986263594099142 ) ) ;
#374 = DIRECTION ( 'NONE',  ( 0.6796729177606267713, -0.7288599724985127537, 0.08250978943266890075 ) ) ;
#375 = DIRECTION ( 'NONE',  ( -0.000000000000000000, -0.000000000000000000, -1.000000000000000000 ) ) ;
#376 = VECTOR ( 'NONE', #18, 1000.000000000000114 ) ;
#377 = CARTESIAN_POINT ( 'NONE',  ( -1.394874999943561011, 1.976269565185000854, -6.296429114223419887 ) ) ;
#378 = EDGE_CURVE ( 'NONE', #539, #361, #463, .T. ) ;
#379 = CALENDAR_DATE ( 2026, 27, 8 ) ;
#380 = CARTESIAN_POINT ( 'NONE',  ( -23.03592114560350268, 12.60815517220120086, -7.500000000000000000 ) ) ;
#381 = ORIENTED_EDGE ( 'NONE', *, *, #56, .F. ) ;
#382 = CARTESIAN_POINT ( 'NONE',  ( 0.3551250000556511188, -1.237747038088879550E-13, 7.500000000000000000 ) ) ;
#383 = CARTESIAN_POINT ( 'NONE',  ( 0.1312382564655795170, 3.380956869083463268, -6.455445191435208230 ) ) ;
#384 = APPROVAL ( #164, 'UNSPECIFIED' ) ;
#385 = EDGE_LOOP ( 'NONE', ( #563, #428, #216, #388 ) ) ;
#386 =( LENGTH_UNIT ( ) NAMED_UNIT ( * ) SI_UNIT ( .MILLI., .METRE. ) );
#387 = CARTESIAN_POINT ( 'NONE',  ( -9.168106562484526378, -2.265010598924418250, -5.816299670338580086 ) ) ;
#388 = ORIENTED_EDGE ( 'NONE', *, *, #393, .T. ) ;
#389 = AXIS2_PLACEMENT_3D ( 'NONE', #311, #531, #565 ) ;
#390 = DIRECTION ( 'NONE',  ( 0.000000000000000000, 0.000000000000000000, 1.000000000000000000 ) ) ;
#391 = CARTESIAN_POINT ( 'NONE',  ( -23.03592114560350268, 12.60815517220120086, 7.500000000000000000 ) ) ;
#392 = ORIENTED_EDGE ( 'NONE', *, *, #322, .T. ) ;
#393 = EDGE_CURVE ( 'NONE', #357, #404, #99, .T. ) ;
#394 = FACE_OUTER_BOUND ( 'NONE', #129, .T. ) ;
#395 = EDGE_LOOP ( 'NONE', ( #493, #252, #271, #392 ) ) ;
#396 = CALENDAR_DATE ( 2026, 27, 8 ) ;
#397 = ORIENTED_EDGE ( 'NONE', *, *, #173, .T. ) ;
#398 = DIRECTION ( 'NONE',  ( -0.000000000000000000, -0.000000000000000000, -1.000000000000000000 ) ) ;
#399 = VECTOR ( 'NONE', #557, 1000.000000000000000 ) ;
#400 = ADVANCED_BREP_SHAPE_REPRESENTATION ( 'lente dot l8_v3_extrusion_15mm', ( #158, #424 ), #294 ) ;
#401 = EDGE_LOOP ( 'NONE', ( #293, #127, #318, #174 ) ) ;
#402 = ORIENTED_EDGE ( 'NONE', *, *, #378, .T. ) ;
#403 = CARTESIAN_POINT ( 'NONE',  ( -6.994875025828872772, 10.47738999221430234, -7.345894546441815720 ) ) ;
#404 = VERTEX_POINT ( 'NONE', #247 ) ;
#405 = CARTESIAN_POINT ( 'NONE',  ( 0.3551250000109473781, -2.723253226996779741, -5.764424818957034624 ) ) ;
#406 = PERSON_AND_ORGANIZATION ( #340, #172 ) ;
#407 = VERTEX_POINT ( 'NONE', #159 ) ;
#408 = EDGE_CURVE ( 'NONE', #357, #246, #360, .T. ) ;
#409 = CARTESIAN_POINT ( 'NONE',  ( 0.3551250000566972265, 3.001549528634499975, -7.345894546441815720 ) ) ;
#410 = DIRECTION ( 'NONE',  ( -0.9986120086232370685, -0.05233503773731754127, 0.005924530234325171146 ) ) ;
#411 = CARTESIAN_POINT ( 'NONE',  ( -1.394874999943561011, -2.223730434814910062, 5.820972745794694703 ) ) ;
#412 = LINE ( 'NONE', #97, #5 ) ;
#413 = CARTESIAN_POINT ( 'NONE',  ( -1.040877614602533363, 0.2321698866725880050, 6.098990233432113328 ) ) ;
#414 = AXIS2_PLACEMENT_3D ( 'NONE', #380, #26, #297 ) ;
#415 = CARTESIAN_POINT ( 'NONE',  ( -11.24947534352793355, -0.6828503927219097269, 5.995406371746591745 ) ) ;
#416 = CARTESIAN_POINT ( 'NONE',  ( -1.394874999943561011, -2.223730434814910062, -5.820972745794695591 ) ) ;
#417 = CARTESIAN_POINT ( 'NONE',  ( -3.716701824005764099, -4.898315988470651305, 5.518199237605859508 ) ) ;
#418 = B_SPLINE_CURVE_WITH_KNOTS ( 'NONE', 3,
 ( #12, #60, #468, #422, #333, #517, #148, #327, #106, #510, #283, #237 ),
 .UNSPECIFIED., .F., .F.,
 ( 4, 2, 2, 2, 2, 4 ),
 ( 8.673617379884035472E-19, 0.002643073263770714595, 0.005286146527541428324, 0.007929219791312142052, 0.009250756423197500217, 0.01057229305508285491 ),
 .UNSPECIFIED. ) ;
#419 = APPROVAL ( #260, 'UNSPECIFIED' ) ;
#420 = CARTESIAN_POINT ( 'NONE',  ( 0.3551250000566972265, 2.037380911795557026, 6.303347156825619635 ) ) ;
#421 = CARTESIAN_POINT ( 'NONE',  ( -14.42821775356789615, 2.252442830001658791, 6.327693004115487518 ) ) ;
#422 = CARTESIAN_POINT ( 'NONE',  ( -4.298417309989350343, 8.222773118245870094, 7.003557660584299072 ) ) ;
#423 = CARTESIAN_POINT ( 'NONE',  ( -14.43747518705072963, 2.262203719805749191, -6.328797974881934074 ) ) ;
#424 = AXIS2_PLACEMENT_3D ( 'NONE', #309, #390, #170 ) ;
#425 = CARTESIAN_POINT ( 'NONE',  ( -1.688800069232066159, -4.405520224363512760, 5.573985638648560226 ) ) ;
#426 = CC_DESIGN_PERSON_AND_ORGANIZATION_ASSIGNMENT ( #263, #359, ( #568 ) ) ;
#427 = LINE ( 'NONE', #391, #376 ) ;
#428 = ORIENTED_EDGE ( 'NONE', *, *, #579, .F. ) ;
#429 = FACE_OUTER_BOUND ( 'NONE', #19, .T. ) ;
#430 = CARTESIAN_POINT ( 'NONE',  ( -0.1154426953836851788, 3.742922130493388622, -6.496421069694092942 ) ) ;
#431 = ORIENTED_EDGE ( 'NONE', *, *, #32, .F. ) ;
#432 = CARTESIAN_POINT ( 'NONE',  ( 0.3551250000564473708, -2.284841781425449359, 7.500000000000000000 ) ) ;
#433 = EDGE_LOOP ( 'NONE', ( #85, #108, #335, #220 ) ) ;
#434 = VECTOR ( 'NONE', #559, 1000.000000000000000 ) ;
#435 = EDGE_CURVE ( 'NONE', #114, #361, #9, .T. ) ;
#436 = LINE ( 'NONE', #262, #14 ) ;
#437 = CARTESIAN_POINT ( 'NONE',  ( -6.994875025828873660, 10.47738999221430234, -7.258789077511675458 ) ) ;
#438 = ORIENTED_EDGE ( 'NONE', *, *, #378, .F. ) ;
#439 = PERSON_AND_ORGANIZATION ( #340, #172 ) ;
#440 = EDGE_LOOP ( 'NONE', ( #38, #34, #75, #402 ) ) ;
#441 = PERSON_AND_ORGANIZATION_ROLE ( 'design_owner' ) ;
#442 = ADVANCED_FACE ( 'NONE', ( #429 ), #369, .F. ) ;
#443 = VERTEX_POINT ( 'NONE', #103 ) ;
#444 = APPROVAL_DATE_TIME ( #355, #505 ) ;
#445 = ORIENTED_EDGE ( 'NONE', *, *, #139, .T. ) ;
#446 = CARTESIAN_POINT ( 'NONE',  ( -1.314328266767421871, -1.876649060913654132, 5.860263709981441416 ) ) ;
#447 = APPROVAL_ROLE ( '' ) ;
#448 = ORIENTED_EDGE ( 'NONE', *, *, #92, .F. ) ;
#449 = CARTESIAN_POINT ( 'NONE',  ( 0.3551250000566972265, 3.001549528634499975, 7.345894546441813944 ) ) ;
#450 = ORIENTED_EDGE ( 'NONE', *, *, #485, .T. ) ;
#451 = EDGE_CURVE ( 'NONE', #202, #573, #474, .T. ) ;
#452 = CARTESIAN_POINT ( 'NONE',  ( -2.260123282944291212, -4.745841028287423491, -5.535459997330868021 ) ) ;
#453 = VECTOR ( 'NONE', #354, 1000.000000000000000 ) ;
#454 = FACE_OUTER_BOUND ( 'NONE', #385, .T. ) ;
#455 = B_SPLINE_CURVE_WITH_KNOTS ( 'NONE', 3,
 ( #574, #452, #47, #306, #136, #267 ),
 .UNSPECIFIED., .F., .F.,
 ( 4, 2, 4 ),
 ( 0.000000000000000000, 0.001996494119117836388, 0.003992988238235672775 ),
 .UNSPECIFIED. ) ;
#456 = CARTESIAN_POINT ( 'NONE',  ( -1.022718589753846219, 0.05426382960666917277, 6.078850574428827258 ) ) ;
#457 = DIRECTION ( 'NONE',  ( 0.000000000000000000, -0.9936533736897814606, 0.1124854344122625388 ) ) ;
#458 = PLANE ( 'NONE',  #313 ) ;
#459 = CARTESIAN_POINT ( 'NONE',  ( -8.071980441895290070, -2.962089301009908304, 5.737387644576052992 ) ) ;
#460 = CARTESIAN_POINT ( 'NONE',  ( -23.03592114560350268, 11.87161228793415191, 7.500000000000000000 ) ) ;
#461 = AXIS2_PLACEMENT_3D ( 'NONE', #321, #375, #8 ) ;
#462 = CARTESIAN_POINT ( 'NONE',  ( -0.08590854173393609738, -2.269440550774463272, 5.815798182524554605 ) ) ;
#463 = LINE ( 'NONE', #192, #399 ) ;
#464 = CARTESIAN_POINT ( 'NONE',  ( -13.20455318623175067, 1.022537326510461142, 6.188462907877347874 ) ) ;
#465 = CARTESIAN_POINT ( 'NONE',  ( -1.234222067970938808, 1.280553300889269774, -6.217671321728452938 ) ) ;
#466 = B_SPLINE_CURVE_WITH_KNOTS ( 'NONE', 3,
 ( #564, #383, #430, #467, #67, #558, #560, #522, #160, #249, #61, #437 ),
 .UNSPECIFIED., .F., .F.,
 ( 4, 2, 2, 2, 2, 4 ),
 ( 1.084202172485504434E-19, 0.001317373638865556099, 0.002634747277731111764, 0.005269494555462220925, 0.007904241833193329653, 0.01053898911092444012 ),
 .UNSPECIFIED. ) ;
#467 = CARTESIAN_POINT ( 'NONE',  ( -0.6375131954062539519, 4.444884897271350610, -6.575885990614199095 ) ) ;
#468 = CARTESIAN_POINT ( 'NONE',  ( -5.629041172254179770, 9.370777676637377596, 7.133516250649171830 ) ) ;
#469 = PLANE ( 'NONE',  #338 ) ;
#470 = AXIS2_PLACEMENT_3D ( 'NONE', #382, #109, #54 ) ;
#471 = EDGE_LOOP ( 'NONE', ( #525, #208, #438, #450 ) ) ;
#472 = LINE ( 'NONE', #550, #53 ) ;
#473 = DIRECTION ( 'NONE',  ( 0.000000000000000000, 0.1124854344122625527, -0.9936533736897815716 ) ) ;
#474 = B_SPLINE_CURVE_WITH_KNOTS ( 'NONE', 3,
 ( #243, #548, #196, #425, #146, #194 ),
 .UNSPECIFIED., .F., .F.,
 ( 4, 2, 4 ),
 ( 3.318834807187760033E-14, 0.001993191866254305326, 0.003986383732475421923 ),
 .UNSPECIFIED. ) ;
#475 = DIRECTION ( 'NONE',  ( 0.9993908270190959842, -0.03489949670249007513, 0.000000000000000000 ) ) ;
#476 = CARTESIAN_POINT ( 'NONE',  ( -2.846604824987382987, -5.059081103884319752, -5.500000000000000000 ) ) ;
#477 = EDGE_CURVE ( 'NONE', #573, #443, #472, .T. ) ;
#478 = ORIENTED_EDGE ( 'NONE', *, *, #10, .T. ) ;
#479 = FACE_OUTER_BOUND ( 'NONE', #298, .T. ) ;
#480 = CARTESIAN_POINT ( 'NONE',  ( -18.94519211359817135, 7.540918895746568040, 6.926369105244414293 ) ) ;
#481 = ORIENTED_EDGE ( 'NONE', *, *, #579, .T. ) ;
#482 = CC_DESIGN_APPROVAL ( #419, ( #568 ) ) ;
#483 = CARTESIAN_POINT ( 'NONE',  ( -1.093625826316168226, 0.5840707279637207261, 6.138826780110040460 ) ) ;
#484 = EDGE_LOOP ( 'NONE', ( #570, #571, #431, #89 ) ) ;
#485 = EDGE_CURVE ( 'NONE', #539, #516, #418, .T. ) ;
#486 = LINE ( 'NONE', #212, #356 ) ;
#487 = ORIENTED_EDGE ( 'NONE', *, *, #32, .T. ) ;
#488 = DIRECTION ( 'NONE',  ( -0.03489949670249008207, -0.9993908270190960952, 0.000000000000000000 ) ) ;
#489 = CC_DESIGN_PERSON_AND_ORGANIZATION_ASSIGNMENT ( #137, #98, ( #568 ) ) ;
#490 = CALENDAR_DATE ( 2026, 27, 8 ) ;
#491 = ORIENTED_EDGE ( 'NONE', *, *, #182, .T. ) ;
#492 = AXIS2_PLACEMENT_3D ( 'NONE', #254, #501, #221 ) ;
#493 = ORIENTED_EDGE ( 'NONE', *, *, #575, .T. ) ;
#494 = VERTEX_POINT ( 'NONE', #420 ) ;
#495 = EDGE_CURVE ( 'NONE', #258, #407, #295, .T. ) ;
#496 = CARTESIAN_POINT ( 'NONE',  ( -2.846604824987382987, -5.059081103884319752, -7.009485534507345683 ) ) ;
#497 = ORIENTED_EDGE ( 'NONE', *, *, #322, .F. ) ;
#498 = CARTESIAN_POINT ( 'NONE',  ( -1.448726270043842357, 6.058427314146597631, -7.345894546441815720 ) ) ;
#499 = LOCAL_TIME ( 0, 45, 6.000000000000000000, #31 ) ;
#500 = CARTESIAN_POINT ( 'NONE',  ( -0.7423668819740020242, -3.935206599586729137, 5.833597916784519555 ) ) ;
#501 = DIRECTION ( 'NONE',  ( -1.000000000000000000, 0.000000000000000000, 0.000000000000000000 ) ) ;
#502 = B_SPLINE_CURVE_WITH_KNOTS ( 'NONE', 3,
 ( #22, #555, #104, #423, #213, #107, #300, #387, #304, #337, #168, #518, #163, #290, #15, #476 ),
 .UNSPECIFIED., .F., .F.,
 ( 4, 2, 2, 2, 2, 2, 2, 4 ),
 ( 0.000000000000000000, 0.005225300082522363505, 0.01045060016504472181, 0.01306325020630590139, 0.01567590024756708444, 0.01828855028882826056, 0.01959487530945885209, 0.02090120033008944361 ),
 .UNSPECIFIED. ) ;
#503 = LINE ( 'NONE', #553, #264 ) ;
#504 = DIRECTION ( 'NONE',  ( -0.6819983588408874420, 0.7313537027583412176, 0.000000000000000000 ) ) ;
#505 = APPROVAL ( #44, 'UNSPECIFIED' ) ;
#506 = CARTESIAN_POINT ( 'NONE',  ( -0.02668418099296735596, -2.271508711024194049, -5.815564058724159935 ) ) ;
#507 = CARTESIAN_POINT ( 'NONE',  ( -1.314338543873474707, -1.876693345665472856, -5.860258696774948817 ) ) ;
#508 = VECTOR ( 'NONE', #410, 1000.000000000000114 ) ;
#509 = CARTESIAN_POINT ( 'NONE',  ( -8.981845694530678159, 12.60815517220116888, -7.499999999999996447 ) ) ;
#510 = CARTESIAN_POINT ( 'NONE',  ( -0.1154161255236817868, 3.742884659794892155, 6.496416827864981869 ) ) ;
#511 = EDGE_CURVE ( 'NONE', #40, #523, #561, .T. ) ;
#512 = FACE_OUTER_BOUND ( 'NONE', #395, .T. ) ;
#513 = CARTESIAN_POINT ( 'NONE',  ( 0.3551250000566972265, 3.001549528634499975, 6.412494801853047655 ) ) ;
#514 = PRODUCT_DEFINITION_SHAPE ( 'NONE', 'NONE',  #157 ) ;
#515 = FACE_OUTER_BOUND ( 'NONE', #537, .T. ) ;
#516 = VERTEX_POINT ( 'NONE', #513 ) ;
#517 = CARTESIAN_POINT ( 'NONE',  ( -2.383328713366248852, 6.413285301805065508, 6.798716587745927242 ) ) ;
#518 = CARTESIAN_POINT ( 'NONE',  ( -4.954376963591367478, -4.484474009039209896, -5.565047762521066588 ) ) ;
#519 = VECTOR ( 'NONE', #278, 1000.000000000000114 ) ;
#520 = LOCAL_TIME ( 0, 45, 6.000000000000000000, #33 ) ;
#521 = DIRECTION ( 'NONE',  ( -0.000000000000000000, -0.000000000000000000, -1.000000000000000000 ) ) ;
#522 = CARTESIAN_POINT ( 'NONE',  ( -3.645765441986446920, 7.633576839299833772, -6.936858345565285688 ) ) ;
#523 = VERTEX_POINT ( 'NONE', #291 ) ;
#524 = DIRECTION ( 'NONE',  ( 0.9986295347545740553, 0.05233595624294033744, 0.000000000000000000 ) ) ;
#525 = ORIENTED_EDGE ( 'NONE', *, *, #566, .T. ) ;
#526 = CARTESIAN_POINT ( 'NONE',  ( -6.994875025828874548, 10.47738999221430234, 7.258789077511673682 ) ) ;
#527 = CARTESIAN_POINT ( 'NONE',  ( -1.022667581830746242, -0.3009204846150544954, 6.038642325818660339 ) ) ;
#528 = ADVANCED_FACE ( 'NONE', ( #77 ), #128, .T. ) ;
#529 = VERTEX_POINT ( 'NONE', #339 ) ;
#530 = CC_DESIGN_DATE_AND_TIME_ASSIGNMENT ( #248, #296, ( #157 ) ) ;
#531 = DIRECTION ( 'NONE',  ( 1.000000000000000000, -2.081376414897577625E-10, 0.000000000000000000 ) ) ;
#532 = ORIENTED_EDGE ( 'NONE', *, *, #93, .F. ) ;
#533 = ORIENTED_EDGE ( 'NONE', *, *, #10, .F. ) ;
#534 = VECTOR ( 'NONE', #540, 1000.000000000000114 ) ;
#535 = CARTESIAN_POINT ( 'NONE',  ( -1.449347312930099108, 1.974367350099516027, -6.296213776062344891 ) ) ;
#536 = ADVANCED_FACE ( 'NONE', ( #479 ), #20, .F. ) ;
#537 = EDGE_LOOP ( 'NONE', ( #310, #350, #312, #316 ) ) ;
#538 = CARTESIAN_POINT ( 'NONE',  ( -1.127380764220177634, 0.7590097298487165078, 6.158630556903615272 ) ) ;
#539 = VERTEX_POINT ( 'NONE', #526 ) ;
#540 = DIRECTION ( 'NONE',  ( 0.9993830276160452497, 0.03489922434133817253, -0.003950728206264833911 ) ) ;
#541 = CARTESIAN_POINT ( 'NONE',  ( -1.394874999943561011, 1.976269565185000854, 6.296429114223418111 ) ) ;
#542 = FACE_OUTER_BOUND ( 'NONE', #440, .T. ) ;
#543 = CALENDAR_DATE ( 2026, 27, 8 ) ;
#544 = LINE ( 'NONE', #195, #3 ) ;
#545 = CARTESIAN_POINT ( 'NONE',  ( -21.61822091296472692, 10.26318709152289799, 7.234540474352236572 ) ) ;
#546 = DIRECTION ( 'NONE',  ( 0.9993830276160453607, -0.03489922434133396756, -0.003950728206264357729 ) ) ;
#547 = B_SPLINE_CURVE_WITH_KNOTS ( 'NONE', 3,
 ( #143, #184, #4, #538, #483, #413, #456, #527, #317, #90, #362, #88, #446, #358 ),
 .UNSPECIFIED., .F., .F.,
 ( 4, 2, 2, 2, 2, 2, 4 ),
 ( 4.336808689942017736E-19, 0.001074770045781389596, 0.001612155068672084177, 0.002149540091562778758, 0.002686925114453473339, 0.003224310137344168353, 0.004299080183125558383 ),
 .UNSPECIFIED. ) ;
#548 = CARTESIAN_POINT ( 'NONE',  ( -0.09067036701419764477, -3.215542242876337387, 5.708695783788595435 ) ) ;
#549 = CARTESIAN_POINT ( 'NONE',  ( -4.549034324729157142, -4.645212691691345874, 5.546851517206816240 ) ) ;
#550 = CARTESIAN_POINT ( 'NONE',  ( -2.846604824987382987, -5.059081103884319752, 7.500000000000000000 ) ) ;
#551 = LOCAL_TIME ( 0, 45, 6.000000000000000000, #576 ) ;
#552 = EDGE_CURVE ( 'NONE', #30, #114, #71, .T. ) ;
#553 = CARTESIAN_POINT ( 'NONE',  ( -23.03592114560350268, 12.60815517220120086, -7.500000000000000000 ) ) ;
#554 = CARTESIAN_POINT ( 'NONE',  ( -20.25388486837874069, 8.929371410749581628, 7.083547341082288895 ) ) ;
#555 = CARTESIAN_POINT ( 'NONE',  ( -17.87950527536434464, 6.169036122140492573, -6.771066628709014878 ) ) ;
#556 = EDGE_CURVE ( 'NONE', #494, #516, #436, .T. ) ;
#557 = DIRECTION ( 'NONE',  ( -0.000000000000000000, -0.000000000000000000, -1.000000000000000000 ) ) ;
#558 = CARTESIAN_POINT ( 'NONE',  ( -1.770903618263381052, 5.780516964818195547, -6.727084745945843380 ) ) ;
#559 = DIRECTION ( 'NONE',  ( -0.000000000000000000, -0.000000000000000000, -1.000000000000000000 ) ) ;
#560 = CARTESIAN_POINT ( 'NONE',  ( -2.383270697099137081, 6.413227040045057059, -6.798709992287570003 ) ) ;
#561 = B_SPLINE_CURVE_WITH_KNOTS ( 'NONE', 3,
 ( #416, #507, #101, #286, #57, #155, #152, #331, #289, #465, #199, #377 ),
 .UNSPECIFIED., .F., .F.,
 ( 4, 2, 2, 2, 2, 4 ),
 ( 0.000000000000000000, 0.001075217163368720301, 0.002150434326737440602, 0.002688042908421800752, 0.003225651490106160903, 0.004300868653474881204 ),
 .UNSPECIFIED. ) ;
#562 = CARTESIAN_POINT ( 'NONE',  ( -23.03592114560350268, 12.60815517220120086, 7.500000000000000000 ) ) ;
#563 = ORIENTED_EDGE ( 'NONE', *, *, #364, .F. ) ;
#564 = CARTESIAN_POINT ( 'NONE',  ( 0.3551250000566972265, 3.001549528634499975, -6.412494801853046766 ) ) ;
#565 = DIRECTION ( 'NONE',  ( 2.081376414897577625E-10, 1.000000000000000000, 0.000000000000000000 ) ) ;
#566 = EDGE_CURVE ( 'NONE', #516, #219, #486, .T. ) ;
#567 = ORIENTED_EDGE ( 'NONE', *, *, #451, .F. ) ;
#568 = PRODUCT_DEFINITION_FORMATION_WITH_SPECIFIED_SOURCE ( 'ANY', '', #16, .NOT_KNOWN. ) ;
#569 = DIRECTION ( 'NONE',  ( -0.000000000000000000, -0.000000000000000000, -1.000000000000000000 ) ) ;
#570 = ORIENTED_EDGE ( 'NONE', *, *, #477, .T. ) ;
#571 = ORIENTED_EDGE ( 'NONE', *, *, #288, .T. ) ;
#572 = CARTESIAN_POINT ( 'NONE',  ( -1.390122952189123184, 1.976435510349247693, 6.296447899862740449 ) ) ;
#573 = VERTEX_POINT ( 'NONE', #175 ) ;
#574 = CARTESIAN_POINT ( 'NONE',  ( -2.846604824987382987, -5.059081103884319752, -5.500000000000000000 ) ) ;
#575 = EDGE_CURVE ( 'NONE', #121, #523, #215, .T. ) ;
#576 = COORDINATED_UNIVERSAL_TIME_OFFSET ( 1, 0, .AHEAD. ) ;
#577 = VERTEX_POINT ( 'NONE', #25 ) ;
#578 = CARTESIAN_POINT ( 'NONE',  ( -1.448726270043842357, 6.058427314146597631, 7.345894546441813944 ) ) ;
#579 = EDGE_CURVE ( 'NONE', #246, #577, #303, .T. ) ;
#580 = CARTESIAN_POINT ( 'NONE',  ( -2.846604824987382987, -5.059081103884319752, -5.833597916784519555 ) ) ;
#581 = CARTESIAN_POINT ( 'NONE',  ( 0.3551250000566972265, 12.60815517220120086, 7.500000000000000000 ) ) ;
ENDSEC;
END-ISO-10303-21;
