ISO-10303-21;
HEADER;
FILE_DESCRIPTION (( 'STEP AP203' ),
    '1' );
FILE_NAME ('lente dot l8_v4_extrusion_16mm.STEP',
    '2026-08-26T22:45:08',
    ( '' ),
    ( '' ),
    'SwSTEP 2.0',
    'SolidWorks 2026',
    '' );
FILE_SCHEMA (( 'CONFIG_CONTROL_DESIGN' ));
ENDSEC;

DATA;
#1 = FACE_OUTER_BOUND ( 'NONE', #408, .T. ) ;
#2 = CARTESIAN_POINT ( 'NONE',  ( -16.76895539129553825, 4.828521513569937085, 7.119315150705022077 ) ) ;
#3 = ORIENTED_EDGE ( 'NONE', *, *, #464, .F. ) ;
#4 = ADVANCED_FACE ( 'NONE', ( #1 ), #54, .F. ) ;
#5 = CARTESIAN_POINT ( 'NONE',  ( -1.394874999943561011, 1.976269565185000410, -6.877986263594101146 ) ) ;
#6 = EDGE_LOOP ( 'NONE', ( #226, #258, #354, #173 ) ) ;
#7 = VECTOR ( 'NONE', #221, 1000.000000000000114 ) ;
#8 = ORIENTED_EDGE ( 'NONE', *, *, #242, .F. ) ;
#9 = CARTESIAN_POINT ( 'NONE',  ( -1.394874999943561011, -2.223730434814910062, 6.320972745794695591 ) ) ;
#10 = DIRECTION ( 'NONE',  ( 0.9993908270190959842, -0.03489949670249007513, 0.000000000000000000 ) ) ;
#11 = CARTESIAN_POINT ( 'NONE',  ( -1.023021868508781962, -0.4793968695130558233, -6.518438103482017354 ) ) ;
#12 = PLANE ( 'NONE',  #324 ) ;
#13 = CARTESIAN_POINT ( 'NONE',  ( -1.126772622086070541, 0.7559124068803501073, -6.658279927872573722 ) ) ;
#14 = LINE ( 'NONE', #418, #427 ) ;
#15 = LOCAL_TIME ( 0, 45, 8.000000000000000000, #291 ) ;
#16 = CARTESIAN_POINT ( 'NONE',  ( -6.307301893426085826, 9.929557587365660964, 7.696772314245741597 ) ) ;
#17 = AXIS2_PLACEMENT_3D ( 'NONE', #420, #52, #231 ) ;
#18 = CARTESIAN_POINT ( 'NONE',  ( -0.6835572876454348856, 13.04305003945616726, 8.000000000000000000 ) ) ;
#19 = CARTESIAN_POINT ( 'NONE',  ( -4.540415514160765831, -4.628971769232971489, -6.048690052923967997 ) ) ;
#20 = CC_DESIGN_DATE_AND_TIME_ASSIGNMENT ( #249, #338, ( #289 ) ) ;
#21 = CARTESIAN_POINT ( 'NONE',  ( 0.1312382564655795725, 3.380956869083463712, -6.955445191435209118 ) ) ;
#22 = DATE_AND_TIME ( #433, #319 ) ;
#23 = CARTESIAN_POINT ( 'NONE',  ( -18.94519211359817135, 7.540918895746568040, 7.426369105244415181 ) ) ;
#24 = DIRECTION ( 'NONE',  ( -0.000000000000000000, -0.000000000000000000, -1.000000000000000000 ) ) ;
#25 = CARTESIAN_POINT ( 'NONE',  ( -23.03592114560350268, 11.54013782009825206, -7.879096273416728913 ) ) ;
#26 = FACE_OUTER_BOUND ( 'NONE', #497, .T. ) ;
#27 = EDGE_LOOP ( 'NONE', ( #574, #485, #3, #361, #131, #489, #305, #313, #535, #8, #397, #224 ) ) ;
#28 = EDGE_CURVE ( 'NONE', #308, #125, #547, .T. ) ;
#29 = CARTESIAN_POINT ( 'NONE',  ( -6.307292799264660133, 9.929550341479966846, -7.696771493983245449 ) ) ;
#30 = CARTESIAN_POINT ( 'NONE',  ( 0.3551250000109473781, -2.723253226996780629, 6.264424818957035512 ) ) ;
#31 = ORIENTED_EDGE ( 'NONE', *, *, #421, .F. ) ;
#32 = CARTESIAN_POINT ( 'NONE',  ( 1.413273706048157274, 1.460754352720367022, 6.738070783083370152 ) ) ;
#33 = ORIENTED_EDGE ( 'NONE', *, *, #141, .T. ) ;
#34 = ADVANCED_FACE ( 'NONE', ( #479 ), #111, .F. ) ;
#35 = CARTESIAN_POINT ( 'NONE',  ( 0.3551250000566972265, -2.284841781425460905, -6.314054703192491402 ) ) ;
#36 = VERTEX_POINT ( 'NONE', #386 ) ;
#37 = DIRECTION ( 'NONE',  ( 0.7313537027583412176, 0.6819983588408874420, -0.000000000000000000 ) ) ;
#38 = EDGE_CURVE ( 'NONE', #86, #539, #441, .T. ) ;
#39 = VERTEX_POINT ( 'NONE', #567 ) ;
#40 = CARTESIAN_POINT ( 'NONE',  ( -1.093493919861270980, -0.8308194969048436906, 6.478655692481218864 ) ) ;
#41 = VERTEX_POINT ( 'NONE', #439 ) ;
#42 = CARTESIAN_POINT ( 'NONE',  ( -8.071980441895290070, -2.962089301009908304, 6.237387644576052992 ) ) ;
#43 = EDGE_CURVE ( 'NONE', #217, #447, #199, .T. ) ;
#44 = VERTEX_POINT ( 'NONE', #25 ) ;
#45 = CARTESIAN_POINT ( 'NONE',  ( 0.3551250000566972265, 3.001549528634499975, 7.851894546441815059 ) ) ;
#46 = EDGE_LOOP ( 'NONE', ( #212, #171, #79, #77 ) ) ;
#47 = LINE ( 'NONE', #302, #116 ) ;
#48 = ORIENTED_EDGE ( 'NONE', *, *, #343, .F. ) ;
#49 = CARTESIAN_POINT ( 'NONE',  ( -1.091522743501208259, -0.8314751597095916269, -6.478581468896475570 ) ) ;
#50 = VECTOR ( 'NONE', #190, 1000.000000000000000 ) ;
#51 = CARTESIAN_POINT ( 'NONE',  ( 0.3551250000566972265, 12.60815517220120086, -8.000000000000000000 ) ) ;
#52 = DIRECTION ( 'NONE',  ( -1.000000000000000000, 3.485384126420032828E-13, 0.000000000000000000 ) ) ;
#53 = CARTESIAN_POINT ( 'NONE',  ( -2.846604824987382987, -5.059081103884319752, 6.000000000000000000 ) ) ;
#54 = B_SPLINE_SURFACE_WITH_KNOTS ( 'NONE', 2, 1, ( 
 ( #175, #348 ),
 ( #340, #75 ),
 ( #113, #295 ) ),
 .UNSPECIFIED., .F., .F., .F.,
 ( 3, 3 ),
 ( 2, 2 ),
 ( 0.4988120746294950059, 0.4994128454637969949 ),
 ( 0.000000000000000000, 1.000000000000000000 ),
 .UNSPECIFIED. ) ;
#55 = LINE ( 'NONE', #234, #524 ) ;
#56 = PRODUCT_DEFINITION_SHAPE ( 'NONE', 'NONE',  #289 ) ;
#57 = EDGE_CURVE ( 'NONE', #311, #256, #481, .T. ) ;
#58 = CC_DESIGN_APPROVAL ( #148, ( #135 ) ) ;
#59 = PLANE ( 'NONE',  #425 ) ;
#60 = CARTESIAN_POINT ( 'NONE',  ( -4.954376963591366589, -4.484474009039209896, -6.065047762521067476 ) ) ;
#61 = COORDINATED_UNIVERSAL_TIME_OFFSET ( 1, 0, .AHEAD. ) ;
#62 = DIRECTION ( 'NONE',  ( 2.081376414897577625E-10, 1.000000000000000000, 0.000000000000000000 ) ) ;
#63 = ADVANCED_FACE ( 'NONE', ( #563 ), #554, .F. ) ;
#64 =( NAMED_UNIT ( * ) SI_UNIT ( $, .STERADIAN. ) SOLID_ANGLE_UNIT ( ) );
#65 = CARTESIAN_POINT ( 'NONE',  ( -0.6375131954062542849, 4.444884897271351498, -7.075885990614198207 ) ) ;
#66 = VECTOR ( 'NONE', #440, 1000.000000000000000 ) ;
#67 = APPROVAL ( #384, 'UNSPECIFIED' ) ;
#68 = PERSON_AND_ORGANIZATION ( #432, #218 ) ;
#69 = CARTESIAN_POINT ( 'NONE',  ( -21.61822091296472692, 10.26318709152289799, 7.734540474352236572 ) ) ;
#70 = ADVANCED_BREP_SHAPE_REPRESENTATION ( 'lente dot l8_v4_extrusion_16mm', ( #241, #156 ), #423 ) ;
#71 = VECTOR ( 'NONE', #24, 1000.000000000000000 ) ;
#72 = CARTESIAN_POINT ( 'NONE',  ( -23.03592114560350268, 12.60815517220120086, 8.000000000000000000 ) ) ;
#73 = CALENDAR_DATE ( 2026, 27, 8 ) ;
#74 = EDGE_CURVE ( 'NONE', #394, #36, #232, .T. ) ;
#75 = CARTESIAN_POINT ( 'NONE',  ( -0.7423668819740020242, -3.935206599586729137, -6.339597916784521558 ) ) ;
#76 = DIRECTION ( 'NONE',  ( 0.000000000000000000, 0.1124854344122625527, 0.9936533736897815716 ) ) ;
#77 = ORIENTED_EDGE ( 'NONE', *, *, #155, .T. ) ;
#78 = CARTESIAN_POINT ( 'NONE',  ( -10.57744606323053027, -1.227969866569280644, 6.433696722842916493 ) ) ;
#79 = ORIENTED_EDGE ( 'NONE', *, *, #419, .F. ) ;
#80 = CARTESIAN_POINT ( 'NONE',  ( -1.390122952189123184, 1.976435510349247693, 6.796447899862740449 ) ) ;
#81 = ORIENTED_EDGE ( 'NONE', *, *, #542, .F. ) ;
#82 = CARTESIAN_POINT ( 'NONE',  ( -6.936916963199470487, -3.619105451226395154, 6.163010855818682465 ) ) ;
#83 = ORIENTED_EDGE ( 'NONE', *, *, #28, .F. ) ;
#84 = EDGE_CURVE ( 'NONE', #36, #483, #288, .T. ) ;
#85 = DIRECTION ( 'NONE',  ( 0.000000000000000000, -0.9936533736897814606, 0.1124854344122625388 ) ) ;
#86 = VERTEX_POINT ( 'NONE', #243 ) ;
#87 = CARTESIAN_POINT ( 'NONE',  ( -0.6838485580539450659, 13.04303477462088701, 8.049230065826238345 ) ) ;
#88 = ORIENTED_EDGE ( 'NONE', *, *, #84, .T. ) ;
#89 = CARTESIAN_POINT ( 'NONE',  ( -8.981845694531934043, 12.60815517220113513, 7.999999999999992895 ) ) ;
#90 = ORIENTED_EDGE ( 'NONE', *, *, #467, .F. ) ;
#91 = CARTESIAN_POINT ( 'NONE',  ( -4.549034324729157142, -4.645212691691345874, 6.046851517206815352 ) ) ;
#92 = ORIENTED_EDGE ( 'NONE', *, *, #511, .F. ) ;
#93 = LINE ( 'NONE', #490, #66 ) ;
#94 = CARTESIAN_POINT ( 'NONE',  ( -0.9131553968141891131, 4.784689529730152380, 7.114353199310424536 ) ) ;
#95 = DIRECTION ( 'NONE',  ( -0.9986120086232370685, -0.05233503773731754821, 0.005924530234325172014 ) ) ;
#96 = VECTOR ( 'NONE', #466, 1000.000000000000114 ) ;
#97 = CARTESIAN_POINT ( 'NONE',  ( -2.260328794758161841, -4.745950792246729222, 6.035447571622897023 ) ) ;
#98 = CARTESIAN_POINT ( 'NONE',  ( -18.94519211359817135, 7.540918895746568040, -7.426369105244416069 ) ) ;
#99 = ADVANCED_FACE ( 'NONE', ( #191 ), #59, .F. ) ;
#100 = CARTESIAN_POINT ( 'NONE',  ( -1.040318291896019209, 0.2276001758288154486, -6.598472924355377245 ) ) ;
#101 = EDGE_CURVE ( 'NONE', #260, #121, #236, .T. ) ;
#102 = EDGE_CURVE ( 'NONE', #222, #181, #378, .T. ) ;
#103 = VECTOR ( 'NONE', #403, 1000.000000000000114 ) ;
#104 = CARTESIAN_POINT ( 'NONE',  ( 0.1312573155561916893, 3.380924570793871986, 6.955441535142950826 ) ) ;
#105 = CARTESIAN_POINT ( 'NONE',  ( -6.173389071783079274, -3.999780770717780154, -6.119916926067321405 ) ) ;
#106 = PERSON_AND_ORGANIZATION ( #432, #218 ) ;
#107 = CARTESIAN_POINT ( 'NONE',  ( -13.20928844768828370, 1.026649603600847671, -6.688928433670471740 ) ) ;
#108 = DIRECTION ( 'NONE',  ( -1.000000000000000000, 0.000000000000000000, 0.000000000000000000 ) ) ;
#109 = APPROVAL_DATE_TIME ( #514, #67 ) ;
#110 = APPROVAL_PERSON_ORGANIZATION ( #158, #148, #161 ) ;
#111 = PLANE ( 'NONE',  #115 ) ;
#112 = APPROVAL_ROLE ( '' ) ;
#113 = CARTESIAN_POINT ( 'NONE',  ( 0.3551249999651975298, -2.723253226996780185, 6.339597916784519782 ) ) ;
#114 = PERSON_AND_ORGANIZATION ( #432, #218 ) ;
#115 = AXIS2_PLACEMENT_3D ( 'NONE', #72, #254, #251 ) ;
#116 = VECTOR ( 'NONE', #360, 1000.000000000000114 ) ;
#117 = CARTESIAN_POINT ( 'NONE',  ( -3.645765441986447808, 7.633576839299838213, -7.436858345565288353 ) ) ;
#118 = CARTESIAN_POINT ( 'NONE',  ( -1.093625826316168226, 0.5840707279637211702, 6.638826780110041348 ) ) ;
#119 = ORIENTED_EDGE ( 'NONE', *, *, #57, .T. ) ;
#120 = CARTESIAN_POINT ( 'NONE',  ( -2.846604824987382987, -5.059081103884319752, 6.000000000000000000 ) ) ;
#121 = VERTEX_POINT ( 'NONE', #546 ) ;
#122 = CARTESIAN_POINT ( 'NONE',  ( -0.9075306697980521919, -0.1237304348149260991, 6.877986263594099370 ) ) ;
#123 = ORIENTED_EDGE ( 'NONE', *, *, #314, .T. ) ;
#124 = CARTESIAN_POINT ( 'NONE',  ( -18.94519211359817135, 7.540918895746568040, 7.426369105244415181 ) ) ;
#125 = VERTEX_POINT ( 'NONE', #283 ) ;
#126 = PLANE ( 'NONE',  #436 ) ;
#127 = ORIENTED_EDGE ( 'NONE', *, *, #144, .T. ) ;
#128 = DIRECTION ( 'NONE',  ( -0.000000000000000000, -0.000000000000000000, -1.000000000000000000 ) ) ;
#129 = EDGE_LOOP ( 'NONE', ( #92, #177, #90, #410 ) ) ;
#130 = CARTESIAN_POINT ( 'NONE',  ( -23.03592114560350268, 12.60815517220120086, -8.000000000000000000 ) ) ;
#131 = ORIENTED_EDGE ( 'NONE', *, *, #512, .F. ) ;
#132 = FACE_OUTER_BOUND ( 'NONE', #169, .T. ) ;
#133 = ORIENTED_EDGE ( 'NONE', *, *, #515, .F. ) ;
#134 = CARTESIAN_POINT ( 'NONE',  ( -1.040877614602533807, 0.2321698866725885324, 6.598990233432115105 ) ) ;
#135 = SECURITY_CLASSIFICATION ( '', '', #564 ) ;
#136 = EDGE_LOOP ( 'NONE', ( #210, #571, #220, #165 ) ) ;
#137 = ADVANCED_FACE ( 'NONE', ( #238 ), #469, .F. ) ;
#138 = LINE ( 'NONE', #273, #380 ) ;
#139 = CARTESIAN_POINT ( 'NONE',  ( -17.87950527536434464, 6.169036122140490797, -7.271066628709014878 ) ) ;
#140 = CARTESIAN_POINT ( 'NONE',  ( -1.394874999943561011, -2.223730434814910062, -6.320972745794696479 ) ) ;
#141 = EDGE_CURVE ( 'NONE', #311, #121, #509, .T. ) ;
#142 = LINE ( 'NONE', #328, #550 ) ;
#143 = DIRECTION ( 'NONE',  ( -0.000000000000000000, -0.000000000000000000, -1.000000000000000000 ) ) ;
#144 = EDGE_CURVE ( 'NONE', #483, #260, #325, .T. ) ;
#145 = CARTESIAN_POINT ( 'NONE',  ( -23.03592114560350268, 11.54013782009825206, -7.879096273416728913 ) ) ;
#146 = DIRECTION ( 'NONE',  ( 0.000000000000000000, -0.9936533736897814606, 0.1124854344122625388 ) ) ;
#147 = CARTESIAN_POINT ( 'NONE',  ( -0.6044451899352160096, -3.639840208172668401, 6.160663600523935024 ) ) ;
#148 = APPROVAL ( #252, 'UNSPECIFIED' ) ;
#149 = DESIGN_CONTEXT ( 'detailed design', #342, 'design' ) ;
#150 = CARTESIAN_POINT ( 'NONE',  ( -6.994875025828874548, 10.47738999221430234, 7.758789077511674570 ) ) ;
#151 = ADVANCED_FACE ( 'NONE', ( #195 ), #12, .T. ) ;
#152 = CARTESIAN_POINT ( 'NONE',  ( -23.03592114560350268, 11.54013782009825206, 7.879096273416728913 ) ) ;
#153 = B_SPLINE_CURVE_WITH_KNOTS ( 'NONE', 3,
 ( #310, #209, #166, #534, #118, #134, #205, #529, #300, #40, #401, #393, #568, #162 ),
 .UNSPECIFIED., .F., .F.,
 ( 4, 2, 2, 2, 2, 2, 4 ),
 ( 4.336808689942017736E-19, 0.001074770045781389162, 0.001612155068672083526, 0.002149540091562778324, 0.002686925114453472905, 0.003224310137344167920, 0.004299080183125556648 ),
 .UNSPECIFIED. ) ;
#154 = CARTESIAN_POINT ( 'NONE',  ( -23.03592114560350268, 11.87161228793415191, 7.916620475012944524 ) ) ;
#155 = EDGE_CURVE ( 'NONE', #39, #41, #290, .T. ) ;
#156 = AXIS2_PLACEMENT_3D ( 'NONE', #194, #560, #430 ) ;
#157 = DIRECTION ( 'NONE',  ( -0.000000000000000000, -0.000000000000000000, -1.000000000000000000 ) ) ;
#158 = PERSON_AND_ORGANIZATION ( #432, #218 ) ;
#159 = APPROVAL_DATE_TIME ( #207, #504 ) ;
#160 = CARTESIAN_POINT ( 'NONE',  ( -2.383270697099137525, 6.413227040045058835, -7.298709992287570003 ) ) ;
#161 = APPROVAL_ROLE ( '' ) ;
#162 = CARTESIAN_POINT ( 'NONE',  ( -1.394874999943561011, -2.223730434814910062, 6.320972745794695591 ) ) ;
#163 = ORIENTED_EDGE ( 'NONE', *, *, #84, .F. ) ;
#164 = PERSON_AND_ORGANIZATION_ROLE ( 'design_owner' ) ;
#165 = ORIENTED_EDGE ( 'NONE', *, *, #580, .T. ) ;
#166 = CARTESIAN_POINT ( 'NONE',  ( -1.234630267802965697, 1.282287552250058082, 6.717867645741295135 ) ) ;
#167 = EDGE_LOOP ( 'NONE', ( #495, #48, #578, #457 ) ) ;
#168 = CARTESIAN_POINT ( 'NONE',  ( -17.87813264845535954, 6.167269108470562422, 7.270866595875094873 ) ) ;
#169 = EDGE_LOOP ( 'NONE', ( #579, #262, #445, #267 ) ) ;
#170 = CARTESIAN_POINT ( 'NONE',  ( -1.448726270043842357, 6.058427314146597631, 7.851894546441815059 ) ) ;
#171 = ORIENTED_EDGE ( 'NONE', *, *, #28, .T. ) ;
#172 = LINE ( 'NONE', #536, #329 ) ;
#173 = ORIENTED_EDGE ( 'NONE', *, *, #555, .T. ) ;
#174 = CARTESIAN_POINT ( 'NONE',  ( -1.394874999943561011, 1.976269565185000854, 8.000000000000000000 ) ) ;
#175 = CARTESIAN_POINT ( 'NONE',  ( -2.846604824987382987, -5.059081103884319752, 6.339597916784519782 ) ) ;
#176 = CARTESIAN_POINT ( 'NONE',  ( -8.445166023051415394, -2.729959031358991872, 6.263665695769041974 ) ) ;
#177 = ORIENTED_EDGE ( 'NONE', *, *, #43, .F. ) ;
#178 = VECTOR ( 'NONE', #431, 1000.000000000000000 ) ;
#179 = VECTOR ( 'NONE', #219, 1000.000000000000000 ) ;
#180 = LINE ( 'NONE', #486, #287 ) ;
#181 = VERTEX_POINT ( 'NONE', #230 ) ;
#182 = EDGE_CURVE ( 'NONE', #86, #41, #142, .T. ) ;
#183 = CYLINDRICAL_SURFACE ( 'NONE', #297, 69.99999999999980105 ) ;
#184 = CARTESIAN_POINT ( 'NONE',  ( -18.94519211359817135, 7.540918895746568040, -7.426369105244416069 ) ) ;
#185 = DIRECTION ( 'NONE',  ( -1.000000000000000000, 0.000000000000000000, 0.000000000000000000 ) ) ;
#186 = CARTESIAN_POINT ( 'NONE',  ( -14.43747518705073141, 2.262203719805750524, -6.828797974881933186 ) ) ;
#187 = LINE ( 'NONE', #374, #50 ) ;
#188 = PRODUCT ( 'lente dot l8_v4_extrusion_16mm', 'lente dot l8_v4_extrusion_16mm', '', ( #246 ) ) ;
#189 = CC_DESIGN_PERSON_AND_ORGANIZATION_ASSIGNMENT ( #114, #387, ( #289 ) ) ;
#190 = DIRECTION ( 'NONE',  ( -0.000000000000000000, -0.000000000000000000, -1.000000000000000000 ) ) ;
#191 = FACE_OUTER_BOUND ( 'NONE', #272, .T. ) ;
#192 = VECTOR ( 'NONE', #304, 1000.000000000000000 ) ;
#193 = CARTESIAN_POINT ( 'NONE',  ( -8.446328555618359601, -2.745180178998659848, -6.261942602535707891 ) ) ;
#194 = CARTESIAN_POINT ( 'NONE',  ( 0.000000000000000000, 0.000000000000000000, 0.000000000000000000 ) ) ;
#195 = FACE_OUTER_BOUND ( 'NONE', #136, .T. ) ;
#196 = EDGE_CURVE ( 'NONE', #404, #311, #180, .T. ) ;
#197 = CARTESIAN_POINT ( 'NONE',  ( 0.3551249999651975298, -2.723253226996780185, 8.000000000000000000 ) ) ;
#198 = EDGE_CURVE ( 'NONE', #222, #404, #499, .T. ) ;
#199 = LINE ( 'NONE', #245, #178 ) ;
#200 = ADVANCED_FACE ( 'NONE', ( #223 ), #506, .F. ) ;
#201 = CARTESIAN_POINT ( 'NONE',  ( -18.94519211359817135, 7.540918895746568040, 8.000000000000000000 ) ) ;
#202 = PERSON_AND_ORGANIZATION ( #432, #218 ) ;
#203 =( BOUNDED_SURFACE ( )  B_SPLINE_SURFACE ( 2, 1, ( 
 ( #523, #255 ),
 ( #122, #543 ),
 ( #405, #5 ) ),
 .UNSPECIFIED., .F., .F., .F. ) 
 B_SPLINE_SURFACE_WITH_KNOTS ( ( 3, 3 ),
 ( 2, 2 ),
 ( 0.000000000000000000, 1.000000000000000000 ),
 ( 0.000000000000000000, 1.000000000000000000 ),
 .UNSPECIFIED. ) 
 GEOMETRIC_REPRESENTATION_ITEM ( )  RATIONAL_B_SPLINE_SURFACE ( (
 ( 1.000000000000000000, 1.000000000000000000),
 ( 3.231801218513670193, 3.231801218513670193),
 ( 1.000000000000000000, 1.000000000000000000) ) ) 
 REPRESENTATION_ITEM ( '' )  SURFACE ( )  );
#204 = CARTESIAN_POINT ( 'NONE',  ( -18.94519211359818911, 7.540918895746552053, -7.515485534507349463 ) ) ;
#205 = CARTESIAN_POINT ( 'NONE',  ( -1.022718589753846663, 0.05426382960666986666, 6.578850574428831699 ) ) ;
#206 = ORIENTED_EDGE ( 'NONE', *, *, #542, .T. ) ;
#207 = DATE_AND_TIME ( #253, #15 ) ;
#208 = DIRECTION ( 'NONE',  ( -0.9993830276160453607, 0.03489922434133396756, -0.003950728206264357729 ) ) ;
#209 = CARTESIAN_POINT ( 'NONE',  ( -1.314368477922809086, 1.629361463898391094, 6.757157765171932340 ) ) ;
#210 = ORIENTED_EDGE ( 'NONE', *, *, #141, .F. ) ;
#211 = CARTESIAN_POINT ( 'NONE',  ( 1.484527364560580320, 1.384344158600975039, 8.000000000000000000 ) ) ;
#212 = ORIENTED_EDGE ( 'NONE', *, *, #343, .T. ) ;
#213 = CARTESIAN_POINT ( 'NONE',  ( -2.846604824987382987, -5.059081103884319752, -6.000000000000000000 ) ) ;
#214 = EDGE_LOOP ( 'NONE', ( #443, #163, #451, #453 ) ) ;
#215 = DIRECTION ( 'NONE',  ( -0.6819983588408874420, 0.7313537027583412176, 0.000000000000000000 ) ) ;
#216 = CC_DESIGN_PERSON_AND_ORGANIZATION_ASSIGNMENT ( #476, #285, ( #237 ) ) ;
#217 = VERTEX_POINT ( 'NONE', #89 ) ;
#218 = ORGANIZATION ( 'UNSPECIFIED', 'UNSPECIFIED', '' ) ;
#219 = DIRECTION ( 'NONE',  ( -0.000000000000000000, -0.000000000000000000, -1.000000000000000000 ) ) ;
#220 = ORIENTED_EDGE ( 'NONE', *, *, #198, .F. ) ;
#221 = DIRECTION ( 'NONE',  ( 0.9986120086232370685, 0.05233503773731754821, 0.005924530234325172014 ) ) ;
#222 = VERTEX_POINT ( 'NONE', #30 ) ;
#223 = FACE_OUTER_BOUND ( 'NONE', #46, .T. ) ;
#224 = ORIENTED_EDGE ( 'NONE', *, *, #155, .F. ) ;
#225 = DIRECTION ( 'NONE',  ( 0.6796729177606267713, -0.7288599724985126427, 0.08250978943266890075 ) ) ;
#226 = ORIENTED_EDGE ( 'NONE', *, *, #43, .T. ) ;
#227 = EDGE_CURVE ( 'NONE', #569, #537, #93, .T. ) ;
#228 = VECTOR ( 'NONE', #225, 1000.000000000000114 ) ;
#229 = CARTESIAN_POINT ( 'NONE',  ( -1.092990794241188945, 0.5806537763005525932, -6.638439967865133795 ) ) ;
#230 = CARTESIAN_POINT ( 'NONE',  ( -2.846604824987382987, -5.059081103884319752, 6.000000000000000000 ) ) ;
#231 = DIRECTION ( 'NONE',  ( -3.485384126420032828E-13, -1.000000000000000000, 0.000000000000000000 ) ) ;
#232 =( BOUNDED_CURVE ( )  B_SPLINE_CURVE ( 3, ( #152, #69, #247, #23 ),
 .UNSPECIFIED., .F., .T. ) 
 B_SPLINE_CURVE_WITH_KNOTS ( ( 4, 4 ),
 ( 3.874805315440086328, 3.956554119854400309 ),
 .UNSPECIFIED. ) 
 CURVE ( )  GEOMETRIC_REPRESENTATION_ITEM ( )  RATIONAL_B_SPLINE_CURVE ( ( 1.000000000000000000, 0.9994431719463756636, 0.9994431719463756636, 1.000000000000000000 ) ) 
 REPRESENTATION_ITEM ( '' )  );
#233 = CARTESIAN_POINT ( 'NONE',  ( -4.298417309989350343, 8.222773118245870094, 7.503557660584296407 ) ) ;
#234 = CARTESIAN_POINT ( 'NONE',  ( 0.3551250000566972265, 3.001549528634499975, 8.000000000000000000 ) ) ;
#235 = PLANE ( 'NONE',  #17 ) ;
#236 = B_SPLINE_CURVE_WITH_KNOTS ( 'NONE', 3,
 ( #286, #561, #549, #463, #502, #429 ),
 .UNSPECIFIED., .F., .F.,
 ( 4, 2, 4 ),
 ( 0.000000000000000000, 0.001996494119117835954, 0.003992988238235671908 ),
 .UNSPECIFIED. ) ;
#237 = PRODUCT_DEFINITION_FORMATION_WITH_SPECIFIED_SOURCE ( 'ANY', '', #188, .NOT_KNOWN. ) ;
#238 = FACE_OUTER_BOUND ( 'NONE', #6, .T. ) ;
#239 = ADVANCED_FACE ( 'NONE', ( #581 ), #126, .F. ) ;
#240 = CARTESIAN_POINT ( 'NONE',  ( -3.278073379930584341, -4.979360001396816671, -6.009024739494250866 ) ) ;
#241 = MANIFOLD_SOLID_BREP ( 'Cortar-Extruir2', #434 ) ;
#242 = EDGE_CURVE ( 'NONE', #86, #532, #315, .T. ) ;
#243 = CARTESIAN_POINT ( 'NONE',  ( 0.3551250000566972265, 2.037380911795556138, 6.803347156825619635 ) ) ;
#244 = DIRECTION ( 'NONE',  ( 0.000000000000000000, 0.000000000000000000, 1.000000000000000000 ) ) ;
#245 = CARTESIAN_POINT ( 'NONE',  ( -8.981845694529432933, 12.60815517220120086, 8.000000000000000000 ) ) ;
#246 = MECHANICAL_CONTEXT ( 'NONE', #422, 'mechanical' ) ;
#247 = CARTESIAN_POINT ( 'NONE',  ( -20.25388486837874069, 8.929371410749581628, 7.583547341082289783 ) ) ;
#248 = SHAPE_DEFINITION_REPRESENTATION ( #56, #70 ) ;
#249 = DATE_AND_TIME ( #336, #292 ) ;
#250 = AXIS2_PLACEMENT_3D ( 'NONE', #211, #37, #215 ) ;
#251 = DIRECTION ( 'NONE',  ( 0.000000000000000000, 0.9936533736897814606, 0.1124854344122625388 ) ) ;
#252 = APPROVAL_STATUS ( 'not_yet_approved' ) ;
#253 = CALENDAR_DATE ( 2026, 27, 8 ) ;
#254 = DIRECTION ( 'NONE',  ( 0.000000000000000000, 0.1124854344122625527, -0.9936533736897815716 ) ) ;
#255 = CARTESIAN_POINT ( 'NONE',  ( -1.394874999943561011, -2.223730434814910062, -6.877986263594101146 ) ) ;
#256 = VERTEX_POINT ( 'NONE', #482 ) ;
#257 = CARTESIAN_POINT ( 'NONE',  ( -9.529276192091355568, -1.999591181429739128, 6.346346182803450198 ) ) ;
#258 = ORIENTED_EDGE ( 'NONE', *, *, #438, .T. ) ;
#259 = DIRECTION ( 'NONE',  ( -0.03489949670249428704, 0.9993908270190959842, 0.000000000000000000 ) ) ;
#260 = VERTEX_POINT ( 'NONE', #213 ) ;
#261 = CARTESIAN_POINT ( 'NONE',  ( -1.394874999943561011, 1.976269565185000854, -6.796429114223419887 ) ) ;
#262 = ORIENTED_EDGE ( 'NONE', *, *, #515, .T. ) ;
#263 = CARTESIAN_POINT ( 'NONE',  ( 0.3551250000566972265, 3.001549528634499975, -6.912494801853047655 ) ) ;
#264 = EDGE_LOOP ( 'NONE', ( #88, #127, #366, #303 ) ) ;
#265 = CARTESIAN_POINT ( 'NONE',  ( -18.94519211359817135, 7.540918895746568040, -7.426369105244416069 ) ) ;
#266 = ADVANCED_FACE ( 'NONE', ( #26 ), #203, .F. ) ;
#267 = ORIENTED_EDGE ( 'NONE', *, *, #464, .T. ) ;
#268 = UNCERTAINTY_MEASURE_WITH_UNIT (LENGTH_MEASURE( 1.000000000000000082E-05 ), #518, 'distance_accuracy_value', 'NONE');
#269 = APPROVAL_PERSON_ORGANIZATION ( #437, #504, #112 ) ;
#270 = EDGE_LOOP ( 'NONE', ( #123, #399, #491, #487 ) ) ;
#271 = CARTESIAN_POINT ( 'NONE',  ( -6.159235080415339958, -4.005835272886219656, 6.119231532825962105 ) ) ;
#272 = EDGE_LOOP ( 'NONE', ( #368, #119, #81, #576 ) ) ;
#273 = CARTESIAN_POINT ( 'NONE',  ( -6.994875025828874548, 10.47738999221430234, 8.000000000000000000 ) ) ;
#274 = CARTESIAN_POINT ( 'NONE',  ( 0.3551250000566972265, 3.001549528634499975, 6.912494801853048543 ) ) ;
#275 = VECTOR ( 'NONE', #208, 1000.000000000000114 ) ;
#276 = VECTOR ( 'NONE', #494, 1000.000000000000227 ) ;
#277 = FACE_OUTER_BOUND ( 'NONE', #167, .T. ) ;
#278 = CARTESIAN_POINT ( 'NONE',  ( -3.645804699733607102, 7.633612604158144244, 7.436862394286700706 ) ) ;
#279 = CARTESIAN_POINT ( 'NONE',  ( -8.981845694531934043, 12.60815517220113513, -7.999999999999992895 ) ) ;
#280 = LINE ( 'NONE', #503, #412 ) ;
#281 = B_SPLINE_CURVE_WITH_KNOTS ( 'NONE', 3,
 ( #120, #452, #91, #271, #82, #42, #176, #456, #257, #78, #444, #572, #407, #2, #168, #124 ),
 .UNSPECIFIED., .F., .F.,
 ( 4, 2, 2, 2, 2, 2, 2, 4 ),
 ( 0.000000000000000000, 0.002600970095093021323, 0.005201940190186042645, 0.006502425237732555909, 0.007802910285279068305, 0.01040388038037209049, 0.01560582057055812967, 0.02080776076074417058 ),
 .UNSPECIFIED. ) ;
#282 = EDGE_CURVE ( 'NONE', #532, #318, #153, .T. ) ;
#283 = CARTESIAN_POINT ( 'NONE',  ( -6.994875025828874548, 10.47738999221430234, -7.758789077511676346 ) ) ;
#284 = CARTESIAN_POINT ( 'NONE',  ( -10.57049231190724115, -1.233542265767109125, -6.433065905536726525 ) ) ;
#285 = PERSON_AND_ORGANIZATION_ROLE ( 'design_supplier' ) ;
#286 = CARTESIAN_POINT ( 'NONE',  ( -2.846604824987382987, -5.059081103884319752, -6.000000000000000000 ) ) ;
#287 = VECTOR ( 'NONE', #367, 1000.000000000000000 ) ;
#288 = LINE ( 'NONE', #201, #347 ) ;
#289 = PRODUCT_DEFINITION ( 'UNKNOWN', '', #237, #149 ) ;
#290 = B_SPLINE_CURVE_WITH_KNOTS ( 'NONE', 3,
 ( #150, #16, #322, #233, #278, #500, #468, #94, #416, #372, #104, #274 ),
 .UNSPECIFIED., .F., .F.,
 ( 4, 2, 2, 2, 2, 4 ),
 ( 8.673617379884035472E-19, 0.002643073263770714595, 0.005286146527541428324, 0.007929219791312142052, 0.009250756423197500217, 0.01057229305508285491 ),
 .UNSPECIFIED. ) ;
#291 = COORDINATED_UNIVERSAL_TIME_OFFSET ( 1, 0, .AHEAD. ) ;
#292 = LOCAL_TIME ( 0, 45, 8.000000000000000000, #395 ) ;
#293 = CARTESIAN_POINT ( 'NONE',  ( -10.21500838427921387, -3.697644103227559320, 7.515485534507347687 ) ) ;
#294 = APPROVAL_ROLE ( '' ) ;
#295 = CARTESIAN_POINT ( 'NONE',  ( 0.3551249999651975298, -2.723253226996780185, -6.339597916784521558 ) ) ;
#296 = LINE ( 'NONE', #197, #71 ) ;
#297 = AXIS2_PLACEMENT_3D ( 'NONE', #548, #143, #185 ) ;
#298 = CARTESIAN_POINT ( 'NONE',  ( -4.298359642104462530, 8.222722295426272865, -7.503551907242954400 ) ) ;
#299 = DATE_AND_TIME ( #73, #474 ) ;
#300 = CARTESIAN_POINT ( 'NONE',  ( -1.040765121665585990, -0.4787116080806338436, 6.518515677746807846 ) ) ;
#301 = ORIENTED_EDGE ( 'NONE', *, *, #498, .F. ) ;
#302 = CARTESIAN_POINT ( 'NONE',  ( -23.03592114560350268, 12.60815517220120086, 8.000000000000000000 ) ) ;
#303 = ORIENTED_EDGE ( 'NONE', *, *, #512, .T. ) ;
#304 = DIRECTION ( 'NONE',  ( -0.000000000000000000, -0.000000000000000000, -1.000000000000000000 ) ) ;
#305 = ORIENTED_EDGE ( 'NONE', *, *, #198, .T. ) ;
#306 = CARTESIAN_POINT ( 'NONE',  ( -23.03592114560350268, 12.60815517220120086, -8.000000000000000000 ) ) ;
#307 = EDGE_CURVE ( 'NONE', #394, #44, #346, .T. ) ;
#308 = VERTEX_POINT ( 'NONE', #263 ) ;
#309 = ADVANCED_FACE ( 'NONE', ( #450 ), #442, .F. ) ;
#310 = CARTESIAN_POINT ( 'NONE',  ( -1.394874999943561011, 1.976269565185000854, 6.796429114223418999 ) ) ;
#311 = VERTEX_POINT ( 'NONE', #35 ) ;
#312 = FACE_OUTER_BOUND ( 'NONE', #129, .T. ) ;
#313 = ORIENTED_EDGE ( 'NONE', *, *, #376, .F. ) ;
#314 = EDGE_CURVE ( 'NONE', #532, #493, #575, .T. ) ;
#315 = LINE ( 'NONE', #80, #276 ) ;
#316 = ORIENTED_EDGE ( 'NONE', *, *, #314, .F. ) ;
#317 = PLANE ( 'NONE',  #461 ) ;
#318 = VERTEX_POINT ( 'NONE', #9 ) ;
#319 = LOCAL_TIME ( 0, 45, 8.000000000000000000, #61 ) ;
#320 = CARTESIAN_POINT ( 'NONE',  ( 0.3551250000566972265, 12.60815517220120086, 8.000000000000000000 ) ) ;
#321 = CARTESIAN_POINT ( 'NONE',  ( -1.234563142446286843, -1.529462512548840358, -6.399566580327395116 ) ) ;
#322 = CARTESIAN_POINT ( 'NONE',  ( -5.629041172254179770, 9.370777676637377596, 7.633516250649171830 ) ) ;
#323 = CARTESIAN_POINT ( 'NONE',  ( -1.234222067970938586, 1.280553300889269552, -6.717671321728452938 ) ) ;
#324 = AXIS2_PLACEMENT_3D ( 'NONE', #471, #383, #62 ) ;
#325 = B_SPLINE_CURVE_WITH_KNOTS ( 'NONE', 3,
 ( #184, #139, #414, #186, #107, #424, #284, #332, #193, #331, #105, #60, #19, #370, #240, #510 ),
 .UNSPECIFIED., .F., .F.,
 ( 4, 2, 2, 2, 2, 2, 2, 4 ),
 ( 8.673617379884035472E-19, 0.005225300082522362638, 0.01045060016504472181, 0.01306325020630590139, 0.01567590024756708098, 0.01828855028882826403, 0.01959487530945885209, 0.02090120033008944361 ),
 .UNSPECIFIED. ) ;
#326 = CC_DESIGN_PERSON_AND_ORGANIZATION_ASSIGNMENT ( #106, #480, ( #237 ) ) ;
#327 = CARTESIAN_POINT ( 'NONE',  ( 0.3551250000566972265, -2.284841781425460017, 6.314054703192494955 ) ) ;
#328 = CARTESIAN_POINT ( 'NONE',  ( 0.3551250000566972265, 12.60815517220120086, 8.000000000000000000 ) ) ;
#329 = VECTOR ( 'NONE', #128, 1000.000000000000000 ) ;
#330 =( BOUNDED_CURVE ( )  B_SPLINE_CURVE ( 3, ( #98, #545, #369, #145 ),
 .UNSPECIFIED., .F., .T. ) 
 B_SPLINE_CURVE_WITH_KNOTS ( ( 4, 4 ),
 ( 5.468223840914978595, 5.549972645329292575 ),
 .UNSPECIFIED. ) 
 CURVE ( )  GEOMETRIC_REPRESENTATION_ITEM ( )  RATIONAL_B_SPLINE_CURVE ( ( 1.000000000000000000, 0.9994431719463756636, 0.9994431719463756636, 1.000000000000000000 ) ) 
 REPRESENTATION_ITEM ( '' )  );
#331 = CARTESIAN_POINT ( 'NONE',  ( -6.948876663721481606, -3.612404337174381030, -6.163769448045256283 ) ) ;
#332 = CARTESIAN_POINT ( 'NONE',  ( -9.168106562484524602, -2.265010598924418250, -6.316299670338580086 ) ) ;
#333 = PERSON_AND_ORGANIZATION ( #432, #218 ) ;
#334 = CC_DESIGN_PERSON_AND_ORGANIZATION_ASSIGNMENT ( #202, #164, ( #188 ) ) ;
#335 = CARTESIAN_POINT ( 'NONE',  ( -2.846604824987382987, -5.059081103884319752, 7.515485534507347687 ) ) ;
#336 = CALENDAR_DATE ( 2026, 27, 8 ) ;
#337 = CARTESIAN_POINT ( 'NONE',  ( -5.629019070786770662, 9.370759677855353686, -7.633514213116800562 ) ) ;
#338 = DATE_TIME_ROLE ( 'creation_date' ) ;
#339 = CC_DESIGN_SECURITY_CLASSIFICATION ( #135, ( #237 ) ) ;
#340 = CARTESIAN_POINT ( 'NONE',  ( -0.7423668819740020242, -3.935206599586729137, 6.339597916784519782 ) ) ;
#341 = COORDINATED_UNIVERSAL_TIME_OFFSET ( 1, 0, .AHEAD. ) ;
#342 = APPLICATION_CONTEXT ( 'configuration controlled 3d designs of mechanical parts and assemblies' ) ;
#343 = EDGE_CURVE ( 'NONE', #41, #308, #55, .T. ) ;
#344 = CARTESIAN_POINT ( 'NONE',  ( 0.3551250000566972265, 3.001549528634499975, -6.912494801853047655 ) ) ;
#345 = APPROVAL_DATE_TIME ( #299, #148 ) ;
#346 = LINE ( 'NONE', #352, #192 ) ;
#347 = VECTOR ( 'NONE', #157, 1000.000000000000000 ) ;
#348 = CARTESIAN_POINT ( 'NONE',  ( -2.846604824987382987, -5.059081103884319752, -6.339597916784521558 ) ) ;
#349 = LINE ( 'NONE', #531, #350 ) ;
#350 = VECTOR ( 'NONE', #355, 1000.000000000000227 ) ;
#351 = ORIENTED_EDGE ( 'NONE', *, *, #362, .T. ) ;
#352 = CARTESIAN_POINT ( 'NONE',  ( -23.03592114560350268, 11.54013782009829825, 8.000000000000000000 ) ) ;
#353 = EDGE_CURVE ( 'NONE', #181, #260, #187, .T. ) ;
#354 = ORIENTED_EDGE ( 'NONE', *, *, #227, .F. ) ;
#355 = DIRECTION ( 'NONE',  ( 0.9993830276160452497, 0.03489922434133817253, -0.003950728206264833911 ) ) ;
#356 = ORIENTED_EDGE ( 'NONE', *, *, #511, .T. ) ;
#357 = COORDINATED_UNIVERSAL_TIME_OFFSET ( 1, 0, .AHEAD. ) ;
#358 = CARTESIAN_POINT ( 'NONE',  ( -6.994875025828872772, 10.47738999221430234, -7.851894546441818612 ) ) ;
#359 = ORIENTED_EDGE ( 'NONE', *, *, #421, .T. ) ;
#360 = DIRECTION ( 'NONE',  ( -0.000000000000000000, 0.9936533736897814606, 0.1124854344122625388 ) ) ;
#361 = ORIENTED_EDGE ( 'NONE', *, *, #74, .T. ) ;
#362 = EDGE_CURVE ( 'NONE', #308, #539, #14, .T. ) ;
#363 = CARTESIAN_POINT ( 'NONE',  ( -1.394874999943561011, 1.976269565185000854, 8.000000000000000000 ) ) ;
#364 = EDGE_LOOP ( 'NONE', ( #351, #301, #31, #544, #33, #541, #411, #406, #133, #455, #356, #83 ) ) ;
#365 = CARTESIAN_POINT ( 'NONE',  ( -23.03592114560350268, 11.87161228793415191, -7.916620475012944524 ) ) ;
#366 = ORIENTED_EDGE ( 'NONE', *, *, #353, .F. ) ;
#367 = DIRECTION ( 'NONE',  ( -0.000000000000000000, -0.000000000000000000, -1.000000000000000000 ) ) ;
#368 = ORIENTED_EDGE ( 'NONE', *, *, #196, .T. ) ;
#369 = CARTESIAN_POINT ( 'NONE',  ( -21.61822091296468074, 10.26318709152285535, -7.734540474352233907 ) ) ;
#370 = CARTESIAN_POINT ( 'NONE',  ( -3.702783848952149182, -4.876195828739250615, -6.020703325895145674 ) ) ;
#371 = CARTESIAN_POINT ( 'NONE',  ( -23.03592114560350268, 11.54013782009825206, 7.879096273416728913 ) ) ;
#372 = CARTESIAN_POINT ( 'NONE',  ( -0.1154161255236817868, 3.742884659794892155, 6.996416827864984533 ) ) ;
#373 = CC_DESIGN_PERSON_AND_ORGANIZATION_ASSIGNMENT ( #68, #470, ( #135 ) ) ;
#374 = CARTESIAN_POINT ( 'NONE',  ( -2.846604824987382987, -5.059081103884319752, 8.000000000000000000 ) ) ;
#375 = B_SPLINE_CURVE_WITH_KNOTS ( 'NONE', 3,
 ( #140, #505, #321, #49, #11, #501, #100, #229, #13, #323, #551, #413 ),
 .UNSPECIFIED., .F., .F.,
 ( 4, 2, 2, 2, 2, 4 ),
 ( 0.000000000000000000, 0.001075217163368720301, 0.002150434326737440602, 0.002688042908421800752, 0.003225651490106161336, 0.004300868653474880336 ),
 .UNSPECIFIED. ) ;
#376 = EDGE_CURVE ( 'NONE', #318, #404, #465, .T. ) ;
#377 = FACE_OUTER_BOUND ( 'NONE', #214, .T. ) ;
#378 = B_SPLINE_CURVE_WITH_KNOTS ( 'NONE', 3,
 ( #381, #558, #147, #379, #97, #53 ),
 .UNSPECIFIED., .F., .F.,
 ( 4, 2, 4 ),
 ( 3.318834807187760033E-14, 0.001993191866254305326, 0.003986383732475421923 ),
 .UNSPECIFIED. ) ;
#379 = CARTESIAN_POINT ( 'NONE',  ( -1.688800069232066159, -4.405520224363512760, 6.073985638648563778 ) ) ;
#380 = VECTOR ( 'NONE', #458, 1000.000000000000000 ) ;
#381 = CARTESIAN_POINT ( 'NONE',  ( 0.3551250000109473781, -2.723253226996780629, 6.264424818957035512 ) ) ;
#382 = APPROVAL_STATUS ( 'not_yet_approved' ) ;
#383 = DIRECTION ( 'NONE',  ( 1.000000000000000000, -2.081376414897577625E-10, 0.000000000000000000 ) ) ;
#384 = APPROVAL_STATUS ( 'not_yet_approved' ) ;
#385 = PRODUCT_RELATED_PRODUCT_CATEGORY ( 'detail', '', ( #188 ) ) ;
#386 = CARTESIAN_POINT ( 'NONE',  ( -18.94519211359817135, 7.540918895746568040, 7.426369105244415181 ) ) ;
#387 = PERSON_AND_ORGANIZATION_ROLE ( 'creator' ) ;
#388 = CARTESIAN_POINT ( 'NONE',  ( -0.1154426953836849429, 3.742922130493388622, -6.996421069694093831 ) ) ;
#389 = APPLICATION_PROTOCOL_DEFINITION ( 'international standard', 'config_control_design', 1994, #342 ) ;
#390 = ADVANCED_FACE ( 'NONE', ( #377 ), #183, .F. ) ;
#391 = CC_DESIGN_APPROVAL ( #67, ( #237 ) ) ;
#392 = CARTESIAN_POINT ( 'NONE',  ( -6.994875025828874548, 10.47738999221430234, -7.758789077511676346 ) ) ;
#393 = CARTESIAN_POINT ( 'NONE',  ( -1.234536082522798672, -1.529343570027420718, 6.399580045084385382 ) ) ;
#394 = VERTEX_POINT ( 'NONE', #371 ) ;
#395 = COORDINATED_UNIVERSAL_TIME_OFFSET ( 1, 0, .AHEAD. ) ;
#396 = DIRECTION ( 'NONE',  ( -0.000000000000000000, 0.9936533736897814606, 0.1124854344122625388 ) ) ;
#397 = ORIENTED_EDGE ( 'NONE', *, *, #182, .T. ) ;
#398 = DIRECTION ( 'NONE',  ( -0.6796729177606267713, 0.7288599724985126427, 0.08250978943266890075 ) ) ;
#399 = ORIENTED_EDGE ( 'NONE', *, *, #498, .T. ) ;
#400 = AXIS2_PLACEMENT_3D ( 'NONE', #18, #557, #460 ) ;
#401 = CARTESIAN_POINT ( 'NONE',  ( -1.127255017630081513, -1.005829664611010310, 6.458843859439435953 ) ) ;
#402 = ORIENTED_EDGE ( 'NONE', *, *, #102, .T. ) ;
#403 = DIRECTION ( 'NONE',  ( 0.000000000000000000, -0.9936533736897814606, 0.1124854344122625388 ) ) ;
#404 = VERTEX_POINT ( 'NONE', #327 ) ;
#405 = CARTESIAN_POINT ( 'NONE',  ( -1.394874999943561011, 1.976269565185000410, 6.877986263594099370 ) ) ;
#406 = ORIENTED_EDGE ( 'NONE', *, *, #417, .T. ) ;
#407 = CARTESIAN_POINT ( 'NONE',  ( -14.42821775356789615, 2.252442830001658791, 6.827693004115486630 ) ) ;
#408 = EDGE_LOOP ( 'NONE', ( #449, #528, #525, #402 ) ) ;
#409 = CARTESIAN_POINT ( 'NONE',  ( -1.448726270043842357, 6.058427314146597631, -7.851894546441818612 ) ) ;
#410 = ORIENTED_EDGE ( 'NONE', *, *, #419, .T. ) ;
#411 = ORIENTED_EDGE ( 'NONE', *, *, #144, .F. ) ;
#412 = VECTOR ( 'NONE', #95, 1000.000000000000114 ) ;
#413 = CARTESIAN_POINT ( 'NONE',  ( -1.394874999943561011, 1.976269565185000854, -6.796429114223419887 ) ) ;
#414 = CARTESIAN_POINT ( 'NONE',  ( -16.77225510406512399, 4.832582587526371931, -7.119774880103935999 ) ) ;
#415 = DIRECTION ( 'NONE',  ( 0.000000000000000000, -0.9936533736897814606, 0.1124854344122625388 ) ) ;
#416 = CARTESIAN_POINT ( 'NONE',  ( -0.6374960954314305983, 4.444863650470392002, 7.075883585393516029 ) ) ;
#417 = EDGE_CURVE ( 'NONE', #483, #44, #330, .T. ) ;
#418 = CARTESIAN_POINT ( 'NONE',  ( 0.3551250000566972265, 12.60815517220120086, -8.000000000000000000 ) ) ;
#419 = EDGE_CURVE ( 'NONE', #39, #125, #138, .T. ) ;
#420 = CARTESIAN_POINT ( 'NONE',  ( 0.3551250000556511188, -1.237747038088879550E-13, 8.000000000000000000 ) ) ;
#421 = EDGE_CURVE ( 'NONE', #256, #493, #375, .T. ) ;
#422 = APPLICATION_CONTEXT ( 'configuration controlled 3d designs of mechanical parts and assemblies' ) ;
#423 =( GEOMETRIC_REPRESENTATION_CONTEXT ( 3 ) GLOBAL_UNCERTAINTY_ASSIGNED_CONTEXT ( ( #268 ) ) GLOBAL_UNIT_ASSIGNED_CONTEXT ( ( #518, #562, #64 ) ) REPRESENTATION_CONTEXT ( 'NONE', 'WORKASPACE' ) );
#424 = CARTESIAN_POINT ( 'NONE',  ( -11.24678723791021717, -0.6851860749068096057, -6.495141963420476117 ) ) ;
#425 = AXIS2_PLACEMENT_3D ( 'NONE', #508, #426, #10 ) ;
#426 = DIRECTION ( 'NONE',  ( -0.03489949670249008207, -0.9993908270190960952, 0.000000000000000000 ) ) ;
#427 = VECTOR ( 'NONE', #415, 1000.000000000000114 ) ;
#428 = DATE_TIME_ROLE ( 'classification_date' ) ;
#429 = CARTESIAN_POINT ( 'NONE',  ( 0.3551250000109473781, -2.723253226996781517, -6.264424818957035512 ) ) ;
#430 = DIRECTION ( 'NONE',  ( 1.000000000000000000, 0.000000000000000000, 0.000000000000000000 ) ) ;
#431 = DIRECTION ( 'NONE',  ( -0.000000000000000000, -0.000000000000000000, -1.000000000000000000 ) ) ;
#432 = PERSON ( 'UNSPECIFIED', 'UNSPECIFIED', 'UNSPECIFIED', ('UNSPECIFIED'), ('UNSPECIFIED'), ('UNSPECIFIED') ) ;
#433 = CALENDAR_DATE ( 2026, 27, 8 ) ;
#434 = CLOSED_SHELL ( 'NONE', ( #459, #559, #63, #4, #151, #99, #266, #200, #475, #137, #390, #309, #34, #239 ) ) ;
#435 = DIRECTION ( 'NONE',  ( -0.000000000000000000, -0.000000000000000000, -1.000000000000000000 ) ) ;
#436 = AXIS2_PLACEMENT_3D ( 'NONE', #130, #76, #85 ) ;
#437 = PERSON_AND_ORGANIZATION ( #432, #218 ) ;
#438 = EDGE_CURVE ( 'NONE', #447, #537, #280, .T. ) ;
#439 = CARTESIAN_POINT ( 'NONE',  ( 0.3551250000566972265, 3.001549528634499975, 6.912494801853048543 ) ) ;
#440 = DIRECTION ( 'NONE',  ( -0.000000000000000000, -0.000000000000000000, -1.000000000000000000 ) ) ;
#441 = LINE ( 'NONE', #565, #521 ) ;
#442 = PLANE ( 'NONE',  #556 ) ;
#443 = ORIENTED_EDGE ( 'NONE', *, *, #417, .F. ) ;
#444 = CARTESIAN_POINT ( 'NONE',  ( -11.24947534352793355, -0.6828503927219097269, 6.495406371746593521 ) ) ;
#445 = ORIENTED_EDGE ( 'NONE', *, *, #307, .F. ) ;
#446 = DIRECTION ( 'NONE',  ( -0.9993908270190958731, -0.03489949670249428010, 0.000000000000000000 ) ) ;
#447 = VERTEX_POINT ( 'NONE', #279 ) ;
#448 = PLANE ( 'NONE',  #250 ) ;
#449 = ORIENTED_EDGE ( 'NONE', *, *, #353, .T. ) ;
#450 = FACE_OUTER_BOUND ( 'NONE', #270, .T. ) ;
#451 = ORIENTED_EDGE ( 'NONE', *, *, #74, .F. ) ;
#452 = CARTESIAN_POINT ( 'NONE',  ( -3.716701824005764099, -4.898315988470651305, 6.018199237605858620 ) ) ;
#453 = ORIENTED_EDGE ( 'NONE', *, *, #307, .T. ) ;
#454 = DIRECTION ( 'NONE',  ( -0.000000000000000000, 0.9936533736897814606, 0.1124854344122625388 ) ) ;
#455 = ORIENTED_EDGE ( 'NONE', *, *, #438, .F. ) ;
#456 = CARTESIAN_POINT ( 'NONE',  ( -9.173158054527712935, -2.249075457824854407, 6.318103590414180459 ) ) ;
#457 = ORIENTED_EDGE ( 'NONE', *, *, #38, .T. ) ;
#458 = DIRECTION ( 'NONE',  ( -0.000000000000000000, -0.000000000000000000, -1.000000000000000000 ) ) ;
#459 = ADVANCED_FACE ( 'NONE', ( #277 ), #235, .F. ) ;
#460 = DIRECTION ( 'NONE',  ( 0.9986295347545740553, 0.05233595624294034437, 0.000000000000000000 ) ) ;
#461 = AXIS2_PLACEMENT_3D ( 'NONE', #478, #108, #244 ) ;
#462 = CARTESIAN_POINT ( 'NONE',  ( -0.08590854173393609738, -2.269440550774463272, 6.315798182524555493 ) ) ;
#463 = CARTESIAN_POINT ( 'NONE',  ( -0.6035205376108019326, -3.639126207244638866, -6.160744428211646806 ) ) ;
#464 = EDGE_CURVE ( 'NONE', #394, #569, #47, .T. ) ;
#465 = LINE ( 'NONE', #462, #96 ) ;
#466 = DIRECTION ( 'NONE',  ( 0.9993830276160453607, -0.03489922434133396756, -0.003950728206264357729 ) ) ;
#467 = EDGE_CURVE ( 'NONE', #39, #217, #496, .T. ) ;
#468 = CARTESIAN_POINT ( 'NONE',  ( -1.770984599449795249, 5.780608470118514752, 7.227095104702432771 ) ) ;
#469 = PLANE ( 'NONE',  #400 ) ;
#470 = PERSON_AND_ORGANIZATION_ROLE ( 'classification_officer' ) ;
#471 = CARTESIAN_POINT ( 'NONE',  ( 0.3551250005320090164, -7.391488004478132823E-11, 8.000000000000000000 ) ) ;
#472 = APPLICATION_PROTOCOL_DEFINITION ( 'international standard', 'config_control_design', 1994, #422 ) ;
#473 = CARTESIAN_POINT ( 'NONE',  ( -0.9131558117480770287, 4.784688755421850459, -7.114353111655733031 ) ) ;
#474 = LOCAL_TIME ( 0, 45, 8.000000000000000000, #357 ) ;
#475 = ADVANCED_FACE ( 'NONE', ( #312 ), #448, .T. ) ;
#476 = PERSON_AND_ORGANIZATION ( #432, #218 ) ;
#477 = CARTESIAN_POINT ( 'NONE',  ( -10.21500838427921387, -3.697644103227559320, -7.515485534507349463 ) ) ;
#478 = CARTESIAN_POINT ( 'NONE',  ( -23.03592114560350268, 0.000000000000000000, 8.000000000000000000 ) ) ;
#479 = FACE_OUTER_BOUND ( 'NONE', #27, .T. ) ;
#480 = PERSON_AND_ORGANIZATION_ROLE ( 'creator' ) ;
#481 = LINE ( 'NONE', #519, #275 ) ;
#482 = CARTESIAN_POINT ( 'NONE',  ( -1.394874999943561011, -2.223730434814910062, -6.320972745794696479 ) ) ;
#483 = VERTEX_POINT ( 'NONE', #265 ) ;
#484 = LINE ( 'NONE', #526, #228 ) ;
#485 = ORIENTED_EDGE ( 'NONE', *, *, #555, .F. ) ;
#486 = CARTESIAN_POINT ( 'NONE',  ( 0.3551250000564473708, -2.284841781425449359, 8.000000000000000000 ) ) ;
#487 = ORIENTED_EDGE ( 'NONE', *, *, #242, .T. ) ;
#488 = CARTESIAN_POINT ( 'NONE',  ( 0.3551250000564474263, 2.037380911795548144, -6.803347156825616082 ) ) ;
#489 = ORIENTED_EDGE ( 'NONE', *, *, #102, .F. ) ;
#490 = CARTESIAN_POINT ( 'NONE',  ( -23.03592114560350268, 11.87161228793415191, 8.000000000000000000 ) ) ;
#491 = ORIENTED_EDGE ( 'NONE', *, *, #38, .F. ) ;
#492 = LINE ( 'NONE', #87, #7 ) ;
#493 = VERTEX_POINT ( 'NONE', #261 ) ;
#494 = DIRECTION ( 'NONE',  ( -0.9993830276160452497, -0.03489922434133817253, -0.003950728206264833911 ) ) ;
#495 = ORIENTED_EDGE ( 'NONE', *, *, #362, .F. ) ;
#496 = LINE ( 'NONE', #32, #507 ) ;
#497 = EDGE_LOOP ( 'NONE', ( #206, #359, #316, #530 ) ) ;
#498 = EDGE_CURVE ( 'NONE', #493, #539, #349, .T. ) ;
#499 = LINE ( 'NONE', #320, #527 ) ;
#500 = CARTESIAN_POINT ( 'NONE',  ( -2.383328713366248852, 6.413285301805065508, 7.298716587745931683 ) ) ;
#501 = CARTESIAN_POINT ( 'NONE',  ( -1.022530459175377215, 0.05020564446570130457, -6.578391172055131797 ) ) ;
#502 = CARTESIAN_POINT ( 'NONE',  ( -0.09106104864206047977, -3.215973670137248774, -6.208646944541281520 ) ) ;
#503 = CARTESIAN_POINT ( 'NONE',  ( -0.7785094706531220377, 13.03807380640665947, -8.048668464890280205 ) ) ;
#504 = APPROVAL ( #382, 'UNSPECIFIED' ) ;
#505 = CARTESIAN_POINT ( 'NONE',  ( -1.314338543873475373, -1.876693345665473300, -6.360258696774950593 ) ) ;
#506 = B_SPLINE_SURFACE_WITH_KNOTS ( 'NONE', 2, 1, ( 
 ( #45, #570 ),
 ( #170, #409 ),
 ( #538, #358 ) ),
 .UNSPECIFIED., .F., .F., .F.,
 ( 3, 3 ),
 ( 2, 2 ),
 ( 0.5008207051229819351, 0.5020133117822229707 ),
 ( 0.000000000000000000, 1.000000000000000000 ),
 .UNSPECIFIED. ) ;
#507 = VECTOR ( 'NONE', #398, 1000.000000000000114 ) ;
#508 = CARTESIAN_POINT ( 'NONE',  ( -0.07925871954190913393, -2.269672767682391790, 8.000000000000000000 ) ) ;
#509 = LINE ( 'NONE', #51, #573 ) ;
#510 = CARTESIAN_POINT ( 'NONE',  ( -2.846604824987382987, -5.059081103884319752, -6.000000000000000000 ) ) ;
#511 = EDGE_CURVE ( 'NONE', #447, #125, #484, .T. ) ;
#512 = EDGE_CURVE ( 'NONE', #181, #36, #281, .T. ) ;
#513 = CARTESIAN_POINT ( 'NONE',  ( -2.846604824987382987, -5.059081103884319752, -7.515485534507349463 ) ) ;
#514 = DATE_AND_TIME ( #520, #552 ) ;
#515 = EDGE_CURVE ( 'NONE', #537, #44, #540, .T. ) ;
#516 = CARTESIAN_POINT ( 'NONE',  ( -18.94519211359818911, 7.540918895746552053, 7.515485534507347687 ) ) ;
#517 = CC_DESIGN_APPROVAL ( #504, ( #289 ) ) ;
#518 =( LENGTH_UNIT ( ) NAMED_UNIT ( * ) SI_UNIT ( .MILLI., .METRE. ) );
#519 = CARTESIAN_POINT ( 'NONE',  ( -0.02273589027690276626, -2.271646588374176101, -6.315548450470801711 ) ) ;
#520 = CALENDAR_DATE ( 2026, 27, 8 ) ;
#521 = VECTOR ( 'NONE', #435, 1000.000000000000000 ) ;
#522 = CARTESIAN_POINT ( 'NONE',  ( -1.770903618263380386, 5.780516964818191994, -7.227084745945842492 ) ) ;
#523 = CARTESIAN_POINT ( 'NONE',  ( -1.394874999943561011, -2.223730434814910062, 6.877986263594099370 ) ) ;
#524 = VECTOR ( 'NONE', #553, 1000.000000000000000 ) ;
#525 = ORIENTED_EDGE ( 'NONE', *, *, #580, .F. ) ;
#526 = CARTESIAN_POINT ( 'NONE',  ( 2.310548415288429691, 0.4985450270123165106, -6.629144937447798647 ) ) ;
#527 = VECTOR ( 'NONE', #396, 1000.000000000000114 ) ;
#528 = ORIENTED_EDGE ( 'NONE', *, *, #101, .T. ) ;
#529 = CARTESIAN_POINT ( 'NONE',  ( -1.022667581830746464, -0.3009204846150540513, 6.538642325818661227 ) ) ;
#530 = ORIENTED_EDGE ( 'NONE', *, *, #282, .T. ) ;
#531 = CARTESIAN_POINT ( 'NONE',  ( -1.453295603646164169, 1.974229472749533976, -6.796198167808984891 ) ) ;
#532 = VERTEX_POINT ( 'NONE', #577 ) ;
#533 = CC_DESIGN_DATE_AND_TIME_ASSIGNMENT ( #22, #428, ( #135 ) ) ;
#534 = CARTESIAN_POINT ( 'NONE',  ( -1.127380764220177856, 0.7590097298487165078, 6.658630556903617936 ) ) ;
#535 = ORIENTED_EDGE ( 'NONE', *, *, #282, .F. ) ;
#536 = CARTESIAN_POINT ( 'NONE',  ( -1.394874999943561011, -2.223730434814909618, 8.000000000000000000 ) ) ;
#537 = VERTEX_POINT ( 'NONE', #365 ) ;
#538 = CARTESIAN_POINT ( 'NONE',  ( -6.994875025828872772, 10.47738999221430234, 7.851894546441815059 ) ) ;
#539 = VERTEX_POINT ( 'NONE', #488 ) ;
#540 = LINE ( 'NONE', #306, #103 ) ;
#541 = ORIENTED_EDGE ( 'NONE', *, *, #101, .F. ) ;
#542 = EDGE_CURVE ( 'NONE', #318, #256, #172, .T. ) ;
#543 = CARTESIAN_POINT ( 'NONE',  ( -0.9075306697980521919, -0.1237304348149260991, -6.877986263594102034 ) ) ;
#544 = ORIENTED_EDGE ( 'NONE', *, *, #57, .F. ) ;
#545 = CARTESIAN_POINT ( 'NONE',  ( -20.25388486837870516, 8.929371410749542548, -7.583547341082286231 ) ) ;
#546 = CARTESIAN_POINT ( 'NONE',  ( 0.3551250000109473781, -2.723253226996781517, -6.264424818957035512 ) ) ;
#547 = B_SPLINE_CURVE_WITH_KNOTS ( 'NONE', 3,
 ( #344, #21, #388, #65, #473, #522, #160, #117, #298, #337, #29, #392 ),
 .UNSPECIFIED., .F., .F.,
 ( 4, 2, 2, 2, 2, 4 ),
 ( 1.084202172485504434E-19, 0.001317373638865556099, 0.002634747277731111764, 0.005269494555462220925, 0.007904241833193331387, 0.01053898911092444185 ),
 .UNSPECIFIED. ) ;
#548 = CARTESIAN_POINT ( 'NONE',  ( -69.88413394276419410, -40.47183154957589579, 8.000000000000000000 ) ) ;
#549 = CARTESIAN_POINT ( 'NONE',  ( -1.688194259797114016, -4.405153456069165863, -6.074027158248894942 ) ) ;
#550 = VECTOR ( 'NONE', #454, 1000.000000000000114 ) ;
#551 = CARTESIAN_POINT ( 'NONE',  ( -1.314167363343947903, 1.628494847443690441, -6.757059660811845170 ) ) ;
#552 = LOCAL_TIME ( 0, 45, 8.000000000000000000, #341 ) ;
#553 = DIRECTION ( 'NONE',  ( -0.000000000000000000, -0.000000000000000000, -1.000000000000000000 ) ) ;
#554 = B_SPLINE_SURFACE_WITH_KNOTS ( 'NONE', 2, 1, ( 
 ( #516, #204 ),
 ( #293, #477 ),
 ( #335, #513 ) ),
 .UNSPECIFIED., .F., .F., .F.,
 ( 3, 3 ),
 ( 2, 2 ),
 ( 0.4976672411085089620, 0.4995542795880109632 ),
 ( 0.000000000000000000, 1.000000000000000000 ),
 .UNSPECIFIED. ) ;
#555 = EDGE_CURVE ( 'NONE', #569, #217, #492, .T. ) ;
#556 = AXIS2_PLACEMENT_3D ( 'NONE', #174, #259, #446 ) ;
#557 = DIRECTION ( 'NONE',  ( 0.05233595624294034437, -0.9986295347545740553, 0.000000000000000000 ) ) ;
#558 = CARTESIAN_POINT ( 'NONE',  ( -0.09067036701419764477, -3.215542242876337387, 6.208695783788594547 ) ) ;
#559 = ADVANCED_FACE ( 'NONE', ( #132 ), #317, .T. ) ;
#560 = DIRECTION ( 'NONE',  ( 0.000000000000000000, 0.000000000000000000, 1.000000000000000000 ) ) ;
#561 = CARTESIAN_POINT ( 'NONE',  ( -2.260123282944292544, -4.745841028287424379, -6.035459997330866244 ) ) ;
#562 =( NAMED_UNIT ( * ) PLANE_ANGLE_UNIT ( ) SI_UNIT ( $, .RADIAN. ) );
#563 = FACE_OUTER_BOUND ( 'NONE', #264, .T. ) ;
#564 = SECURITY_CLASSIFICATION_LEVEL ( 'unclassified' ) ;
#565 = CARTESIAN_POINT ( 'NONE',  ( 0.3551250000564474263, 2.037380911795548144, 8.000000000000000000 ) ) ;
#566 = APPROVAL_PERSON_ORGANIZATION ( #333, #67, #294 ) ;
#567 = CARTESIAN_POINT ( 'NONE',  ( -6.994875025828874548, 10.47738999221430234, 7.758789077511674570 ) ) ;
#568 = CARTESIAN_POINT ( 'NONE',  ( -1.314328266767422093, -1.876649060913655020, 6.360263709981444968 ) ) ;
#569 = VERTEX_POINT ( 'NONE', #154 ) ;
#570 = CARTESIAN_POINT ( 'NONE',  ( 0.3551250000566972265, 3.001549528634499975, -7.851894546441818612 ) ) ;
#571 = ORIENTED_EDGE ( 'NONE', *, *, #196, .F. ) ;
#572 = CARTESIAN_POINT ( 'NONE',  ( -13.20455318623175067, 1.022537326510461142, 6.688462907877348762 ) ) ;
#573 = VECTOR ( 'NONE', #146, 1000.000000000000114 ) ;
#574 = ORIENTED_EDGE ( 'NONE', *, *, #467, .T. ) ;
#575 = LINE ( 'NONE', #363, #179 ) ;
#576 = ORIENTED_EDGE ( 'NONE', *, *, #376, .T. ) ;
#577 = CARTESIAN_POINT ( 'NONE',  ( -1.394874999943561011, 1.976269565185000854, 6.796429114223418999 ) ) ;
#578 = ORIENTED_EDGE ( 'NONE', *, *, #182, .F. ) ;
#579 = ORIENTED_EDGE ( 'NONE', *, *, #227, .T. ) ;
#580 = EDGE_CURVE ( 'NONE', #222, #121, #296, .T. ) ;
#581 = FACE_OUTER_BOUND ( 'NONE', #364, .T. ) ;
ENDSEC;
END-ISO-10303-21;
