ISO-10303-21;
HEADER;
FILE_DESCRIPTION (( 'STEP AP203' ),
    '1' );
FILE_NAME ('lente dot l8_v10_croquis6_D2_2p5mm.STEP',
    '2026-08-26T22:56:11',
    ( '' ),
    ( '' ),
    'SwSTEP 2.0',
    'SolidWorks 2026',
    '' );
FILE_SCHEMA (( 'CONFIG_CONTROL_DESIGN' ));
ENDSEC;

DATA;
#1 = ADVANCED_FACE ( 'NONE', ( #471 ), #562, .T. ) ;
#2 = CARTESIAN_POINT ( 'NONE',  ( -1.394874999943561011, -2.223730434814910062, -5.563288185821290810 ) ) ;
#3 = ORIENTED_EDGE ( 'NONE', *, *, #122, .F. ) ;
#4 = CARTESIAN_POINT ( 'NONE',  ( -0.09067036701419771416, -3.215542242876337387, 5.208695783788594547 ) ) ;
#5 = VECTOR ( 'NONE', #578, 1000.000000000000114 ) ;
#6 = DIRECTION ( 'NONE',  ( -0.9993908270190958731, -0.03489949670249428010, 0.000000000000000000 ) ) ;
#7 = ORIENTED_EDGE ( 'NONE', *, *, #307, .F. ) ;
#8 = DIRECTION ( 'NONE',  ( 0.9993786405320740363, 0.03489907114099006363, -0.004938388579235461831 ) ) ;
#9 = CARTESIAN_POINT ( 'NONE',  ( -1.394874999943561011, 1.976269565185000854, 7.000000000000000000 ) ) ;
#10 = PRODUCT_DEFINITION ( 'UNKNOWN', '', #102, #265 ) ;
#11 = VERTEX_POINT ( 'NONE', #429 ) ;
#12 = DIRECTION ( 'NONE',  ( -0.000000000000000000, 0.9936533736897814606, 0.1124854344122625388 ) ) ;
#13 = ORIENTED_EDGE ( 'NONE', *, *, #341, .T. ) ;
#14 = CARTESIAN_POINT ( 'NONE',  ( -8.981845694529432933, 12.60815517220120086, 7.000000000000000000 ) ) ;
#15 = LINE ( 'NONE', #463, #433 ) ;
#16 = CARTESIAN_POINT ( 'NONE',  ( 0.3551250000566972265, 12.60815517220120086, 7.000000000000000000 ) ) ;
#17 = FACE_OUTER_BOUND ( 'NONE', #503, .T. ) ;
#18 = CARTESIAN_POINT ( 'NONE',  ( -10.21500838427921387, -3.697644103227559320, -6.359217364476319467 ) ) ;
#19 = LINE ( 'NONE', #380, #457 ) ;
#20 = ORIENTED_EDGE ( 'NONE', *, *, #38, .F. ) ;
#21 = CARTESIAN_POINT ( 'NONE',  ( -1.394874999943561011, 1.976269565185000854, 5.796429114223418999 ) ) ;
#22 = EDGE_CURVE ( 'NONE', #206, #408, #338, .T. ) ;
#23 = LINE ( 'NONE', #16, #387 ) ;
#24 = ORIENTED_EDGE ( 'NONE', *, *, #523, .F. ) ;
#25 = COORDINATED_UNIVERSAL_TIME_OFFSET ( 1, 0, .AHEAD. ) ;
#26 = VERTEX_POINT ( 'NONE', #345 ) ;
#27 = ORIENTED_EDGE ( 'NONE', *, *, #47, .F. ) ;
#28 = COORDINATED_UNIVERSAL_TIME_OFFSET ( 1, 0, .AHEAD. ) ;
#29 = CARTESIAN_POINT ( 'NONE',  ( -2.259852082454787858, -4.745696179974657092, -4.544345493405476333 ) ) ;
#30 = CARTESIAN_POINT ( 'NONE',  ( -1.040877614602533141, 0.2321698866725886712, 5.598990233432112440 ) ) ;
#31 = DIRECTION ( 'NONE',  ( -0.000000000000000000, -0.000000000000000000, -1.000000000000000000 ) ) ;
#32 = PERSON_AND_ORGANIZATION ( #528, #296 ) ;
#33 = CARTESIAN_POINT ( 'NONE',  ( -3.278656206316192812, -4.979252314378871169, -4.511296162605455073 ) ) ;
#34 = CC_DESIGN_SECURITY_CLASSIFICATION ( #511, ( #102 ) ) ;
#35 = B_SPLINE_CURVE_WITH_KNOTS ( 'NONE', 3,
 ( #222, #29, #524, #271, #227, #128 ),
 .UNSPECIFIED., .F., .F.,
 ( 4, 2, 4 ),
 ( 0.000000000000000000, 0.001999008250563262881, 0.003998016501126526630 ),
 .UNSPECIFIED. ) ;
#36 = ADVANCED_FACE ( 'NONE', ( #342 ), #356, .F. ) ;
#37 = APPROVAL_PERSON_ORGANIZATION ( #400, #357, #397 ) ;
#38 = EDGE_CURVE ( 'NONE', #26, #57, #23, .T. ) ;
#39 = CARTESIAN_POINT ( 'NONE',  ( 0.3551250000566972265, 3.001549528634499975, 7.000000000000000000 ) ) ;
#40 = CALENDAR_DATE ( 2026, 27, 8 ) ;
#41 = CARTESIAN_POINT ( 'NONE',  ( -1.126768049774070413, 0.7558889214122750388, -5.322846586532580027 ) ) ;
#42 =( BOUNDED_CURVE ( )  B_SPLINE_CURVE ( 3, ( #64, #512, #504, #115 ),
 .UNSPECIFIED., .F., .T. ) 
 B_SPLINE_CURVE_WITH_KNOTS ( ( 4, 4 ),
 ( 3.874805315440086328, 3.956554119854400309 ),
 .UNSPECIFIED. ) 
 CURVE ( )  GEOMETRIC_REPRESENTATION_ITEM ( )  RATIONAL_B_SPLINE_CURVE ( ( 1.000000000000000000, 0.9994431719463756636, 0.9994431719463756636, 1.000000000000000000 ) ) 
 REPRESENTATION_ITEM ( '' )  );
#43 = CARTESIAN_POINT ( 'NONE',  ( -2.846604824987382987, -5.059081103884319752, 5.000000000000000000 ) ) ;
#44 = DIRECTION ( 'NONE',  ( -0.03489949670249008207, -0.9993908270190960952, 0.000000000000000000 ) ) ;
#45 = ORIENTED_EDGE ( 'NONE', *, *, #245, .T. ) ;
#46 = VECTOR ( 'NONE', #499, 1000.000000000000114 ) ;
#47 = EDGE_CURVE ( 'NONE', #11, #141, #114, .T. ) ;
#48 = CARTESIAN_POINT ( 'NONE',  ( -0.07925871954190913393, -2.269672767682391790, 7.000000000000000000 ) ) ;
#49 = ORIENTED_EDGE ( 'NONE', *, *, #315, .T. ) ;
#50 = CARTESIAN_POINT ( 'NONE',  ( -1.394874999943561011, 1.976269565185000410, 5.864180907265435394 ) ) ;
#51 = VERTEX_POINT ( 'NONE', #302 ) ;
#52 = LINE ( 'NONE', #135, #332 ) ;
#53 = ORIENTED_EDGE ( 'NONE', *, *, #559, .F. ) ;
#54 = DIRECTION ( 'NONE',  ( -0.000000000000000000, -0.000000000000000000, -1.000000000000000000 ) ) ;
#55 = VECTOR ( 'NONE', #465, 1000.000000000000000 ) ;
#56 = CARTESIAN_POINT ( 'NONE',  ( -1.770984599449795249, 5.780608470118514752, 6.227095104702431883 ) ) ;
#57 = VERTEX_POINT ( 'NONE', #509 ) ;
#58 = CARTESIAN_POINT ( 'NONE',  ( 0.3551249999651975298, -2.723253226996780185, -4.891100758752214617 ) ) ;
#59 = EDGE_CURVE ( 'NONE', #454, #372, #467, .T. ) ;
#60 = DIRECTION ( 'NONE',  ( -0.000000000000000000, -0.000000000000000000, -1.000000000000000000 ) ) ;
#61 = LINE ( 'NONE', #554, #440 ) ;
#62 = DIRECTION ( 'NONE',  ( 0.6783752655389538866, -0.7274684108548366002, 0.1029403240391852242 ) ) ;
#63 = CARTESIAN_POINT ( 'NONE',  ( -6.994875025828872772, 10.47738999221430234, 6.839532730058082599 ) ) ;
#64 = CARTESIAN_POINT ( 'NONE',  ( -23.03592114560350268, 11.54013782009825206, 6.879096273416728913 ) ) ;
#65 = CARTESIAN_POINT ( 'NONE',  ( -8.445166023051415394, -2.729959031358991872, 5.263665695769042863 ) ) ;
#66 = VECTOR ( 'NONE', #295, 1000.000000000000000 ) ;
#67 = VERTEX_POINT ( 'NONE', #560 ) ;
#68 = EDGE_CURVE ( 'NONE', #87, #331, #19, .T. ) ;
#69 = DIRECTION ( 'NONE',  ( 0.9993830276160453607, -0.03489922434133396756, -0.003950728206264357729 ) ) ;
#70 = ORIENTED_EDGE ( 'NONE', *, *, #368, .T. ) ;
#71 = DIRECTION ( 'NONE',  ( 0.000000000000000000, 0.000000000000000000, 1.000000000000000000 ) ) ;
#72 = CARTESIAN_POINT ( 'NONE',  ( -20.25388486837870516, 8.929371410749528337, -6.479434176352854458 ) ) ;
#73 = DIRECTION ( 'NONE',  ( 0.000000000000000000, 0.000000000000000000, 1.000000000000000000 ) ) ;
#74 = CARTESIAN_POINT ( 'NONE',  ( -1.394874999943561011, -2.223730434814910062, -4.901215932243369267 ) ) ;
#75 = AXIS2_PLACEMENT_3D ( 'NONE', #451, #142, #444 ) ;
#76 = CARTESIAN_POINT ( 'NONE',  ( 0.1314305587366309536, 3.380630986040762398, -5.694260375255907114 ) ) ;
#77 = CARTESIAN_POINT ( 'NONE',  ( -1.234536082522798672, -1.529343570027420718, 5.399580045084379165 ) ) ;
#78 = DIRECTION ( 'NONE',  ( 0.000000000000000000, -0.9901360746104197474, 0.1401090780608784392 ) ) ;
#79 = CARTESIAN_POINT ( 'NONE',  ( -1.040765121665585768, -0.4787116080806331775, 5.518515677746809622 ) ) ;
#80 = CARTESIAN_POINT ( 'NONE',  ( -4.542474791019257552, -4.628307756721554256, -4.560956527160077378 ) ) ;
#81 = EDGE_CURVE ( 'NONE', #26, #372, #384, .T. ) ;
#82 = LOCAL_TIME ( 0, 56, 11.00000000000000000, #25 ) ;
#83 = DATE_AND_TIME ( #40, #411 ) ;
#84 = CARTESIAN_POINT ( 'NONE',  ( -1.091510263756912735, -0.8314088290737610132, -5.098236222228694103 ) ) ;
#85 = CARTESIAN_POINT ( 'NONE',  ( -1.688800069232066603, -4.405520224363512760, 5.073985638648562890 ) ) ;
#86 = CARTESIAN_POINT ( 'NONE',  ( -0.6374960954314308204, 4.444863650470392002, 6.075883585393518693 ) ) ;
#87 = VERTEX_POINT ( 'NONE', #402 ) ;
#88 = EDGE_CURVE ( 'NONE', #331, #541, #314, .T. ) ;
#89 = FACE_OUTER_BOUND ( 'NONE', #163, .T. ) ;
#90 = EDGE_CURVE ( 'NONE', #541, #408, #35, .T. ) ;
#91 = VERTEX_POINT ( 'NONE', #394 ) ;
#92 = VECTOR ( 'NONE', #60, 1000.000000000000000 ) ;
#93 = LOCAL_TIME ( 0, 56, 11.00000000000000000, #28 ) ;
#94 = CARTESIAN_POINT ( 'NONE',  ( -16.76895539129553825, 4.828521513569937085, 6.119315150705019413 ) ) ;
#95 = CARTESIAN_POINT ( 'NONE',  ( -1.394874999943561011, 1.976269565185000410, -5.563288185821290810 ) ) ;
#96 = ORIENTED_EDGE ( 'NONE', *, *, #197, .T. ) ;
#97 = CARTESIAN_POINT ( 'NONE',  ( -14.42821775356789615, 2.252442830001658791, 5.827693004115485742 ) ) ;
#98 = CARTESIAN_POINT ( 'NONE',  ( 1.484527364560580320, 1.384344158600975039, 7.000000000000000000 ) ) ;
#99 = ORIENTED_EDGE ( 'NONE', *, *, #495, .F. ) ;
#100 = CARTESIAN_POINT ( 'NONE',  ( -0.9075306697980521919, -0.1237304348149260991, -5.563288185821289922 ) ) ;
#101 = EDGE_LOOP ( 'NONE', ( #519, #361, #3, #148 ) ) ;
#102 = PRODUCT_DEFINITION_FORMATION_WITH_SPECIFIED_SOURCE ( 'ANY', '', #108, .NOT_KNOWN. ) ;
#103 = EDGE_CURVE ( 'NONE', #454, #553, #178, .T. ) ;
#104 = DIRECTION ( 'NONE',  ( -0.000000000000000000, -0.000000000000000000, -1.000000000000000000 ) ) ;
#105 = ADVANCED_BREP_SHAPE_REPRESENTATION ( 'lente dot l8_v10_croquis6_D2_2p5mm', ( #176, #539 ), #468 ) ;
#106 = AXIS2_PLACEMENT_3D ( 'NONE', #98, #409, #183 ) ;
#107 = ORIENTED_EDGE ( 'NONE', *, *, #228, .F. ) ;
#108 = PRODUCT ( 'lente dot l8_v10_croquis6_D2_2p5mm', 'lente dot l8_v10_croquis6_D2_2p5mm', '', ( #348 ) ) ;
#109 = CARTESIAN_POINT ( 'NONE',  ( -2.846604824987382987, -5.059081103884319752, 6.502625088165214784 ) ) ;
#110 = ORIENTED_EDGE ( 'NONE', *, *, #59, .F. ) ;
#111 = PLANE ( 'NONE',  #576 ) ;
#112 = CARTESIAN_POINT ( 'NONE',  ( -18.94519211359818911, 7.540918895746552053, -6.359217364476319467 ) ) ;
#113 = EDGE_CURVE ( 'NONE', #460, #408, #521, .T. ) ;
#114 = LINE ( 'NONE', #518, #66 ) ;
#115 = CARTESIAN_POINT ( 'NONE',  ( -18.94519211359817135, 7.540918895746568040, 6.426369105244415181 ) ) ;
#116 = VECTOR ( 'NONE', #224, 1000.000000000000000 ) ;
#117 = ORIENTED_EDGE ( 'NONE', *, *, #269, .T. ) ;
#118 = LINE ( 'NONE', #251, #201 ) ;
#119 = ORIENTED_EDGE ( 'NONE', *, *, #341, .F. ) ;
#120 = EDGE_CURVE ( 'NONE', #492, #318, #476, .T. ) ;
#121 = APPROVAL_DATE_TIME ( #516, #416 ) ;
#122 = EDGE_CURVE ( 'NONE', #498, #91, #125, .T. ) ;
#123 = CARTESIAN_POINT ( 'NONE',  ( -3.644753755695810060, 7.632645570534806190, -6.295941152889662717 ) ) ;
#124 = LINE ( 'NONE', #430, #398 ) ;
#125 = LINE ( 'NONE', #308, #212 ) ;
#126 = VECTOR ( 'NONE', #286, 1000.000000000000114 ) ;
#127 = CARTESIAN_POINT ( 'NONE',  ( -1.093493919861270536, -0.8308194969048432466, 5.478655692481221529 ) ) ;
#128 = CARTESIAN_POINT ( 'NONE',  ( 0.3551250000109473781, -2.723253226996780629, -4.830531023696293502 ) ) ;
#129 = DATE_AND_TIME ( #300, #93 ) ;
#130 = CARTESIAN_POINT ( 'NONE',  ( -18.94519211359817135, 7.540918895746568040, -6.282961381555518976 ) ) ;
#131 = PERSON_AND_ORGANIZATION_ROLE ( 'design_supplier' ) ;
#132 = CARTESIAN_POINT ( 'NONE',  ( -8.450693336941389688, -2.742421203049543177, -4.827818661706940517 ) ) ;
#133 = VECTOR ( 'NONE', #210, 1000.000000000000000 ) ;
#134 = CARTESIAN_POINT ( 'NONE',  ( -18.94519211359817135, 7.540918895746568040, 6.426369105244415181 ) ) ;
#135 = CARTESIAN_POINT ( 'NONE',  ( -0.02055449458793027692, -2.271722764390200933, -4.894424783811135882 ) ) ;
#136 = CARTESIAN_POINT ( 'NONE',  ( -1.390122952189123184, 1.976435510349247693, 5.796447899862740449 ) ) ;
#137 = VERTEX_POINT ( 'NONE', #268 ) ;
#138 = FACE_OUTER_BOUND ( 'NONE', #214, .T. ) ;
#139 = ORIENTED_EDGE ( 'NONE', *, *, #426, .F. ) ;
#140 = DIRECTION ( 'NONE',  ( 0.000000000000000000, -0.9901360746104197474, 0.1401090780608784114 ) ) ;
#141 = VERTEX_POINT ( 'NONE', #266 ) ;
#142 = DIRECTION ( 'NONE',  ( 0.000000000000000000, 0.1124854344122625527, -0.9936533736897815716 ) ) ;
#143 = ORIENTED_EDGE ( 'NONE', *, *, #81, .F. ) ;
#144 = EDGE_CURVE ( 'NONE', #141, #91, #482, .T. ) ;
#145 = CARTESIAN_POINT ( 'NONE',  ( -0.7423668819740020242, -3.935206599586729137, 5.324994554012954850 ) ) ;
#146 = APPROVAL_DATE_TIME ( #334, #401 ) ;
#147 = CARTESIAN_POINT ( 'NONE',  ( -21.61822091296468074, 10.26318709152284825, -6.668175592940289498 ) ) ;
#148 = ORIENTED_EDGE ( 'NONE', *, *, #559, .T. ) ;
#149 = LINE ( 'NONE', #14, #500 ) ;
#150 = AXIS2_PLACEMENT_3D ( 'NONE', #502, #104, #461 ) ;
#151 = SHAPE_DEFINITION_REPRESENTATION ( #233, #105 ) ;
#152 = DIRECTION ( 'NONE',  ( 1.000000000000000000, -2.081376414897577884E-10, 0.000000000000000000 ) ) ;
#153 = DIRECTION ( 'NONE',  ( -1.000000000000000000, 0.000000000000000000, 0.000000000000000000 ) ) ;
#154 = EDGE_CURVE ( 'NONE', #57, #454, #441, .T. ) ;
#155 = CARTESIAN_POINT ( 'NONE',  ( -1.314368477922809086, 1.629361463898390650, 5.757157765171933228 ) ) ;
#156 = EDGE_CURVE ( 'NONE', #137, #51, #574, .T. ) ;
#157 = CARTESIAN_POINT ( 'NONE',  ( -6.159235080415339958, -4.005835272886219656, 5.119231532825959441 ) ) ;
#158 = ORIENTED_EDGE ( 'NONE', *, *, #68, .F. ) ;
#159 = CARTESIAN_POINT ( 'NONE',  ( 0.3551250000109473781, -2.723253226996780629, -4.830531023696293502 ) ) ;
#160 = DIRECTION ( 'NONE',  ( 2.081376414897577884E-10, 1.000000000000000000, 0.000000000000000000 ) ) ;
#161 = ORIENTED_EDGE ( 'NONE', *, *, #475, .F. ) ;
#162 = DIRECTION ( 'NONE',  ( 0.05233595624294034437, -0.9986295347545741663, 0.000000000000000000 ) ) ;
#163 = EDGE_LOOP ( 'NONE', ( #452, #99, #24, #260, #119, #501, #477, #161, #53, #536, #282, #225 ) ) ;
#164 = APPROVAL_STATUS ( 'not_yet_approved' ) ;
#165 = CARTESIAN_POINT ( 'NONE',  ( 0.3551250000566972265, 3.001549528634499975, 6.839532730058082599 ) ) ;
#166 =( NAMED_UNIT ( * ) SI_UNIT ( $, .STERADIAN. ) SOLID_ANGLE_UNIT ( ) );
#167 = CARTESIAN_POINT ( 'NONE',  ( -17.88037939726864067, 6.170161399041282024, -6.088992518049580305 ) ) ;
#168 = APPLICATION_PROTOCOL_DEFINITION ( 'international standard', 'config_control_design', 1994, #211 ) ;
#169 = CARTESIAN_POINT ( 'NONE',  ( -11.25111913356198201, -0.6815837930805138667, -5.119437194702793903 ) ) ;
#170 = UNCERTAINTY_MEASURE_WITH_UNIT (LENGTH_MEASURE( 1.000000000000000082E-05 ), #261, 'distance_accuracy_value', 'NONE');
#171 = APPROVAL_DATE_TIME ( #569, #357 ) ;
#172 = DIRECTION ( 'NONE',  ( -0.000000000000000000, -0.000000000000000000, -1.000000000000000000 ) ) ;
#173 = PERSON_AND_ORGANIZATION ( #528, #296 ) ;
#174 = CARTESIAN_POINT ( 'NONE',  ( -3.703890411665298643, -4.875925242901194778, -4.525917446583164860 ) ) ;
#175 = ORIENTED_EDGE ( 'NONE', *, *, #156, .F. ) ;
#176 = MANIFOLD_SOLID_BREP ( 'Cortar-Extruir2', #561 ) ;
#177 = PERSON_AND_ORGANIZATION ( #528, #296 ) ;
#178 = B_SPLINE_CURVE_WITH_KNOTS ( 'NONE', 3,
 ( #217, #76, #359, #313, #564, #480, #530, #123, #349, #527, #570, #404 ),
 .UNSPECIFIED., .F., .F.,
 ( 4, 2, 2, 2, 2, 4 ),
 ( 5.421010862427522170E-20, 0.001319785365877975672, 0.002639570731755951343, 0.005279141463511902686, 0.007918712195267853596, 0.01055828292702380537 ),
 .UNSPECIFIED. ) ;
#179 = CARTESIAN_POINT ( 'NONE',  ( 1.413273706048157274, 1.460754352720367022, 5.738070783083370152 ) ) ;
#180 = VECTOR ( 'NONE', #455, 1000.000000000000000 ) ;
#181 = DIRECTION ( 'NONE',  ( -0.000000000000000000, -0.000000000000000000, -1.000000000000000000 ) ) ;
#182 = ORIENTED_EDGE ( 'NONE', *, *, #526, .F. ) ;
#183 = DIRECTION ( 'NONE',  ( -0.6819983588408874420, 0.7313537027583412176, 0.000000000000000000 ) ) ;
#184 = ORIENTED_EDGE ( 'NONE', *, *, #113, .T. ) ;
#185 = CARTESIAN_POINT ( 'NONE',  ( 0.3551250000109473781, -2.723253226996780629, 5.264424818957035512 ) ) ;
#186 = CARTESIAN_POINT ( 'NONE',  ( 0.3551250000109473781, -2.723253226996780629, 5.264424818957035512 ) ) ;
#187 = VERTEX_POINT ( 'NONE', #324 ) ;
#188 = CC_DESIGN_APPROVAL ( #357, ( #10 ) ) ;
#189 = CARTESIAN_POINT ( 'NONE',  ( -6.994875025828874548, 10.47738999221430234, 6.758789077511674570 ) ) ;
#190 = ORIENTED_EDGE ( 'NONE', *, *, #462, .T. ) ;
#191 = CARTESIAN_POINT ( 'NONE',  ( -2.846604824987382987, -5.059081103884319752, -4.891100758752214617 ) ) ;
#192 = ADVANCED_FACE ( 'NONE', ( #533 ), #293, .F. ) ;
#193 = CARTESIAN_POINT ( 'NONE',  ( 0.3551250005320090164, -7.391488004478132823E-11, 7.000000000000000000 ) ) ;
#194 = ORIENTED_EDGE ( 'NONE', *, *, #565, .F. ) ;
#195 = FACE_OUTER_BOUND ( 'NONE', #243, .T. ) ;
#196 = B_SPLINE_SURFACE_WITH_KNOTS ( 'NONE', 2, 1, ( 
 ( #244, #191 ),
 ( #145, #329 ),
 ( #459, #58 ) ),
 .UNSPECIFIED., .F., .F., .F.,
 ( 3, 3 ),
 ( 2, 2 ),
 ( 0.4988120746294950059, 0.4994128454637969949 ),
 ( 0.000000000000000000, 1.000000000000000000 ),
 .UNSPECIFIED. ) ;
#197 = EDGE_CURVE ( 'NONE', #187, #460, #497, .T. ) ;
#198 = ORIENTED_EDGE ( 'NONE', *, *, #22, .F. ) ;
#199 = ADVANCED_FACE ( 'NONE', ( #363 ), #540, .F. ) ;
#200 = CARTESIAN_POINT ( 'NONE',  ( -1.456544471422476672, 1.974116019786808174, -5.495231655614313482 ) ) ;
#201 = VECTOR ( 'NONE', #69, 1000.000000000000227 ) ;
#202 = CARTESIAN_POINT ( 'NONE',  ( -18.94519211359817135, 7.540918895746568040, -6.282961381555518976 ) ) ;
#203 = DIRECTION ( 'NONE',  ( -0.000000000000000000, 0.9936533736897814606, 0.1124854344122625388 ) ) ;
#204 = LINE ( 'NONE', #470, #46 ) ;
#205 = CARTESIAN_POINT ( 'NONE',  ( -6.936916963199470487, -3.619105451226395154, 5.163010855818680689 ) ) ;
#206 = VERTEX_POINT ( 'NONE', #186 ) ;
#207 = EDGE_LOOP ( 'NONE', ( #96, #413, #27, #249 ) ) ;
#208 = CARTESIAN_POINT ( 'NONE',  ( 0.3551250000566972265, -2.284841781425457352, -4.892568378990619138 ) ) ;
#209 = CARTESIAN_POINT ( 'NONE',  ( -2.846604824987382987, -5.059081103884319752, 5.000000000000000000 ) ) ;
#210 = DIRECTION ( 'NONE',  ( 0.000000000000000000, -0.9901360746104197474, 0.1401090780608784392 ) ) ;
#211 = APPLICATION_CONTEXT ( 'configuration controlled 3d designs of mechanical parts and assemblies' ) ;
#212 = VECTOR ( 'NONE', #31, 1000.000000000000000 ) ;
#213 = EDGE_CURVE ( 'NONE', #137, #57, #517, .T. ) ;
#214 = EDGE_LOOP ( 'NONE', ( #236, #326, #143, #117 ) ) ;
#215 = EDGE_LOOP ( 'NONE', ( #550, #190, #139, #546 ) ) ;
#216 = PERSON_AND_ORGANIZATION ( #528, #296 ) ;
#217 = CARTESIAN_POINT ( 'NONE',  ( 0.3551250000566972265, 3.001549528634499975, -5.640618502316310234 ) ) ;
#218 = CARTESIAN_POINT ( 'NONE',  ( -1.127255017630081957, -1.005829664611009866, 5.458843859439433288 ) ) ;
#219 = CARTESIAN_POINT ( 'NONE',  ( -1.023017059710954468, -0.4793361870788783174, -5.148056216212573588 ) ) ;
#220 = ADVANCED_FACE ( 'NONE', ( #405 ), #537, .F. ) ;
#221 = PERSON_AND_ORGANIZATION_ROLE ( 'design_owner' ) ;
#222 = CARTESIAN_POINT ( 'NONE',  ( -2.846604824987382987, -5.059081103884319752, -4.500000000000000888 ) ) ;
#223 = CARTESIAN_POINT ( 'NONE',  ( -1.234630267802966141, 1.282287552250058305, 5.717867645741297800 ) ) ;
#224 = DIRECTION ( 'NONE',  ( -0.000000000000000000, -0.000000000000000000, -1.000000000000000000 ) ) ;
#225 = ORIENTED_EDGE ( 'NONE', *, *, #213, .F. ) ;
#226 = APPROVAL_STATUS ( 'not_yet_approved' ) ;
#227 = CARTESIAN_POINT ( 'NONE',  ( -0.09074712142677916760, -3.215627002290708081, -4.760857735865699603 ) ) ;
#228 = EDGE_CURVE ( 'NONE', #460, #141, #52, .T. ) ;
#229 = CARTESIAN_POINT ( 'NONE',  ( 0.3551250000566972265, 3.001549528634499975, 5.912494801853048543 ) ) ;
#230 = EDGE_LOOP ( 'NONE', ( #392, #292, #175, #45 ) ) ;
#231 = AXIS2_PLACEMENT_3D ( 'NONE', #193, #152, #160 ) ;
#232 = CARTESIAN_POINT ( 'NONE',  ( 0.1312573155561916893, 3.380924570793871986, 5.955441535142953491 ) ) ;
#233 = PRODUCT_DEFINITION_SHAPE ( 'NONE', 'NONE',  #10 ) ;
#234 = ORIENTED_EDGE ( 'NONE', *, *, #113, .F. ) ;
#235 = LINE ( 'NONE', #136, #250 ) ;
#236 = ORIENTED_EDGE ( 'NONE', *, *, #122, .T. ) ;
#237 = ADVANCED_FACE ( 'NONE', ( #535 ), #487, .T. ) ;
#238 = CARTESIAN_POINT ( 'NONE',  ( 0.3551250000564473708, -2.284841781425449359, 7.000000000000000000 ) ) ;
#239 = ORIENTED_EDGE ( 'NONE', *, *, #59, .T. ) ;
#240 = LOCAL_TIME ( 0, 56, 11.00000000000000000, #403 ) ;
#241 = LINE ( 'NONE', #425, #375 ) ;
#242 = CARTESIAN_POINT ( 'NONE',  ( -23.03592114560350268, 12.60815517220120086, -7.000000000000000000 ) ) ;
#243 = EDGE_LOOP ( 'NONE', ( #458, #381, #198, #328 ) ) ;
#244 = CARTESIAN_POINT ( 'NONE',  ( -2.846604824987382987, -5.059081103884319752, 5.324994554012954850 ) ) ;
#245 = EDGE_CURVE ( 'NONE', #137, #553, #281, .T. ) ;
#246 = ORIENTED_EDGE ( 'NONE', *, *, #462, .F. ) ;
#247 = CARTESIAN_POINT ( 'NONE',  ( -8.981845694530965929, 12.60815517220116000, -6.999999999999994671 ) ) ;
#248 = CARTESIAN_POINT ( 'NONE',  ( -23.03592114560350268, 11.54013782009825206, -6.848870341770910919 ) ) ;
#249 = ORIENTED_EDGE ( 'NONE', *, *, #475, .T. ) ;
#250 = VECTOR ( 'NONE', #453, 1000.000000000000114 ) ;
#251 = CARTESIAN_POINT ( 'NONE',  ( -0.08590854173393609738, -2.269440550774463272, 5.315798182524555493 ) ) ;
#252 = CARTESIAN_POINT ( 'NONE',  ( -18.94519211359817135, 7.540918895746568040, -6.282961381555518976 ) ) ;
#253 = CARTESIAN_POINT ( 'NONE',  ( 0.3551249999651975298, -2.723253226996780185, 7.000000000000000000 ) ) ;
#254 = LINE ( 'NONE', #371, #126 ) ;
#255 = VERTEX_POINT ( 'NONE', #278 ) ;
#256 = CARTESIAN_POINT ( 'NONE',  ( -1.314328266767422315, -1.876649060913654798, 5.360263709981444080 ) ) ;
#257 = ADVANCED_FACE ( 'NONE', ( #138 ), #316, .F. ) ;
#258 = EDGE_LOOP ( 'NONE', ( #239, #446, #431, #107, #184, #364, #410, #432, #419, #246, #49, #489 ) ) ;
#259 = ADVANCED_FACE ( 'NONE', ( #89 ), #491, .F. ) ;
#260 = ORIENTED_EDGE ( 'NONE', *, *, #439, .T. ) ;
#261 =( LENGTH_UNIT ( ) NAMED_UNIT ( * ) SI_UNIT ( .MILLI., .METRE. ) );
#262 = CARTESIAN_POINT ( 'NONE',  ( -1.314333131148559097, -1.876670021864168314, -4.950326671400196332 ) ) ;
#263 = CARTESIAN_POINT ( 'NONE',  ( -6.176888037354634875, -3.998201837584832941, -4.650119584314314380 ) ) ;
#264 = B_SPLINE_CURVE_WITH_KNOTS ( 'NONE', 3,
 ( #209, #377, #552, #157, #205, #337, #65, #298, #558, #301, #344, #513, #97, #94, #447, #134 ),
 .UNSPECIFIED., .F., .F.,
 ( 4, 2, 2, 2, 2, 2, 2, 4 ),
 ( 0.000000000000000000, 0.002600970095093021323, 0.005201940190186042645, 0.006502425237732555909, 0.007802910285279068305, 0.01040388038037209049, 0.01560582057055812967, 0.02080776076074417058 ),
 .UNSPECIFIED. ) ;
#265 = DESIGN_CONTEXT ( 'detailed design', #211, 'design' ) ;
#266 = CARTESIAN_POINT ( 'NONE',  ( -1.394874999943561011, -2.223730434814910062, -4.901215932243369267 ) ) ;
#267 =( NAMED_UNIT ( * ) PLANE_ANGLE_UNIT ( ) SI_UNIT ( $, .RADIAN. ) );
#268 = CARTESIAN_POINT ( 'NONE',  ( -6.994875025828874548, 10.47738999221430234, 6.758789077511674570 ) ) ;
#269 = EDGE_CURVE ( 'NONE', #26, #498, #235, .T. ) ;
#270 = PERSON_AND_ORGANIZATION_ROLE ( 'classification_officer' ) ;
#271 = CARTESIAN_POINT ( 'NONE',  ( -0.6030379801449204935, -3.638748489569360700, -4.700983984155675088 ) ) ;
#272 = CARTESIAN_POINT ( 'NONE',  ( -2.260328794758161397, -4.745950792246729222, 5.035447571622896135 ) ) ;
#273 = ADVANCED_FACE ( 'NONE', ( #369 ), #543, .T. ) ;
#274 = DIRECTION ( 'NONE',  ( -0.000000000000000000, -0.000000000000000000, -1.000000000000000000 ) ) ;
#275 = CARTESIAN_POINT ( 'NONE',  ( -1.394874999943561011, -2.223730434814910062, 5.864180907265435394 ) ) ;
#276 = VECTOR ( 'NONE', #181, 1000.000000000000000 ) ;
#277 = ORIENTED_EDGE ( 'NONE', *, *, #426, .T. ) ;
#278 = CARTESIAN_POINT ( 'NONE',  ( -2.846604824987382987, -5.059081103884319752, 5.000000000000000000 ) ) ;
#279 = ORIENTED_EDGE ( 'NONE', *, *, #88, .T. ) ;
#280 = CC_DESIGN_PERSON_AND_ORGANIZATION_ASSIGNMENT ( #32, #221, ( #108 ) ) ;
#281 = LINE ( 'NONE', #415, #549 ) ;
#282 = ORIENTED_EDGE ( 'NONE', *, *, #38, .T. ) ;
#283 = DIRECTION ( 'NONE',  ( 0.000000000000000000, 0.1401090780608784114, 0.9901360746104197474 ) ) ;
#284 = ORIENTED_EDGE ( 'NONE', *, *, #68, .T. ) ;
#285 = AXIS2_PLACEMENT_3D ( 'NONE', #48, #44, #488 ) ;
#286 = DIRECTION ( 'NONE',  ( -0.000000000000000000, 0.9936533736897814606, 0.1124854344122625388 ) ) ;
#287 = ADVANCED_FACE ( 'NONE', ( #508 ), #289, .F. ) ;
#288 = CARTESIAN_POINT ( 'NONE',  ( -1.448726270043842357, 6.058427314146597631, 6.839532730058082599 ) ) ;
#289 = B_SPLINE_SURFACE_WITH_KNOTS ( 'NONE', 2, 1, ( 
 ( #330, #112 ),
 ( #421, #18 ),
 ( #109, #340 ) ),
 .UNSPECIFIED., .F., .F., .F.,
 ( 3, 3 ),
 ( 2, 2 ),
 ( 0.4976672411085089620, 0.4995542795880109632 ),
 ( 0.000000000000000000, 1.000000000000000000 ),
 .UNSPECIFIED. ) ;
#290 = CARTESIAN_POINT ( 'NONE',  ( 0.3551250000556511188, -1.237747038088879550E-13, 7.000000000000000000 ) ) ;
#291 = CARTESIAN_POINT ( 'NONE',  ( -23.03592114560350268, 11.54013782009825206, -6.848870341770910919 ) ) ;
#292 = ORIENTED_EDGE ( 'NONE', *, *, #391, .F. ) ;
#293 =( BOUNDED_SURFACE ( )  B_SPLINE_SURFACE ( 2, 1, ( 
 ( #275, #2 ),
 ( #327, #100 ),
 ( #50, #95 ) ),
 .UNSPECIFIED., .F., .F., .T. ) 
 B_SPLINE_SURFACE_WITH_KNOTS ( ( 3, 3 ),
 ( 2, 2 ),
 ( 0.000000000000000000, 1.000000000000000000 ),
 ( 0.000000000000000000, 1.000000000000000000 ),
 .UNSPECIFIED. ) 
 GEOMETRIC_REPRESENTATION_ITEM ( )  RATIONAL_B_SPLINE_SURFACE ( (
 ( 1.000000000000000000, 1.000000000000000000),
 ( 3.231801218513670193, 3.231801218513670193),
 ( 1.000000000000000000, 1.000000000000000000) ) ) 
 REPRESENTATION_ITEM ( '' )  SURFACE ( )  );
#294 = FACE_OUTER_BOUND ( 'NONE', #215, .T. ) ;
#295 = DIRECTION ( 'NONE',  ( -0.000000000000000000, -0.000000000000000000, -1.000000000000000000 ) ) ;
#296 = ORGANIZATION ( 'UNSPECIFIED', 'UNSPECIFIED', '' ) ;
#297 = CARTESIAN_POINT ( 'NONE',  ( 0.3551250000566972265, 3.001549528634499975, -5.640618502316310234 ) ) ;
#298 = CARTESIAN_POINT ( 'NONE',  ( -9.173158054527712935, -2.249075457824854407, 5.318103590414180459 ) ) ;
#299 = ORIENTED_EDGE ( 'NONE', *, *, #120, .T. ) ;
#300 = CALENDAR_DATE ( 2026, 27, 8 ) ;
#301 = CARTESIAN_POINT ( 'NONE',  ( -10.57744606323053027, -1.227969866569280644, 5.433696722842914717 ) ) ;
#302 = CARTESIAN_POINT ( 'NONE',  ( -8.981845694529427604, 12.60815517220120086, 7.000000000000000000 ) ) ;
#303 = PERSON_AND_ORGANIZATION ( #528, #296 ) ;
#304 = CARTESIAN_POINT ( 'NONE',  ( -10.57492958699084618, -1.230061345347082113, -5.041824949117875043 ) ) ;
#305 = ORIENTED_EDGE ( 'NONE', *, *, #523, .T. ) ;
#306 = CARTESIAN_POINT ( 'NONE',  ( -1.022667581830746020, -0.3009204846150540513, 5.538642325818660339 ) ) ;
#307 = EDGE_CURVE ( 'NONE', #331, #318, #325, .T. ) ;
#308 = CARTESIAN_POINT ( 'NONE',  ( -1.394874999943561011, 1.976269565185000854, 7.000000000000000000 ) ) ;
#309 = CARTESIAN_POINT ( 'NONE',  ( -13.21306736476734223, 1.030300153918990214, -5.361677112742031071 ) ) ;
#310 = DATE_TIME_ROLE ( 'creation_date' ) ;
#311 = CARTESIAN_POINT ( 'NONE',  ( -1.314164456084577992, 1.628482319864525074, -5.446322803301327120 ) ) ;
#312 = PERSON_AND_ORGANIZATION ( #528, #296 ) ;
#313 = CARTESIAN_POINT ( 'NONE',  ( -0.6368611198568683296, 4.444048816998111384, -5.844739178836044324 ) ) ;
#314 = B_SPLINE_CURVE_WITH_KNOTS ( 'NONE', 3,
 ( #130, #167, #396, #353, #309, #169, #304, #355, #132, #572, #263, #399, #80, #174, #33, #351 ),
 .UNSPECIFIED., .F., .F.,
 ( 4, 2, 2, 2, 2, 2, 2, 4 ),
 ( 8.673617379884034509E-19, 0.005232688354757230632, 0.01046537670951445433, 0.01308172088689307094, 0.01569806506427168236, 0.01831440924165029377, 0.01962258133033959948, 0.02093075341902890518 ),
 .UNSPECIFIED. ) ;
#315 = EDGE_CURVE ( 'NONE', #531, #553, #15, .T. ) ;
#316 = PLANE ( 'NONE',  #490 ) ;
#317 = DIRECTION ( 'NONE',  ( -0.9993786405320741473, 0.03489907114098587254, -0.004938388579234866821 ) ) ;
#318 = VERTEX_POINT ( 'NONE', #248 ) ;
#319 = CARTESIAN_POINT ( 'NONE',  ( -5.629041172254177994, 9.370777676637377596, 6.633516250649171830 ) ) ;
#320 = CC_DESIGN_PERSON_AND_ORGANIZATION_ASSIGNMENT ( #312, #270, ( #511 ) ) ;
#321 = VECTOR ( 'NONE', #54, 1000.000000000000000 ) ;
#322 = EDGE_LOOP ( 'NONE', ( #284, #279, #194, #13 ) ) ;
#323 = CC_DESIGN_APPROVAL ( #416, ( #102 ) ) ;
#324 = CARTESIAN_POINT ( 'NONE',  ( 0.3551250000566972265, -2.284841781425458240, 5.314054703192494955 ) ) ;
#325 =( BOUNDED_CURVE ( )  B_SPLINE_CURVE ( 3, ( #252, #72, #147, #291 ),
 .UNSPECIFIED., .F., .F. ) 
 B_SPLINE_CURVE_WITH_KNOTS ( ( 4, 4 ),
 ( 5.468223840914978595, 5.549972645329292575 ),
 .UNSPECIFIED. ) 
 CURVE ( )  GEOMETRIC_REPRESENTATION_ITEM ( )  RATIONAL_B_SPLINE_CURVE ( ( 1.000000000000000000, 0.9994431719463756636, 0.9994431719463756636, 1.000000000000000000 ) ) 
 REPRESENTATION_ITEM ( '' )  );
#326 = ORIENTED_EDGE ( 'NONE', *, *, #542, .T. ) ;
#327 = CARTESIAN_POINT ( 'NONE',  ( -0.9075306697980521919, -0.1237304348149260991, 5.864180907265435394 ) ) ;
#328 = ORIENTED_EDGE ( 'NONE', *, *, #362, .T. ) ;
#329 = CARTESIAN_POINT ( 'NONE',  ( -0.7423668819740020242, -3.935206599586729137, -4.891100758752214617 ) ) ;
#330 = CARTESIAN_POINT ( 'NONE',  ( -18.94519211359818911, 7.540918895746552053, 6.502625088165214784 ) ) ;
#331 = VERTEX_POINT ( 'NONE', #202 ) ;
#332 = VECTOR ( 'NONE', #317, 1000.000000000000114 ) ;
#333 = DIRECTION ( 'NONE',  ( -0.000000000000000000, -0.000000000000000000, -1.000000000000000000 ) ) ;
#334 = DATE_AND_TIME ( #555, #240 ) ;
#335 = CARTESIAN_POINT ( 'NONE',  ( -23.03592114560350268, 0.000000000000000000, 7.000000000000000000 ) ) ;
#336 = CARTESIAN_POINT ( 'NONE',  ( -0.6835572876454348856, 13.04305003945616726, 7.000000000000000000 ) ) ;
#337 = CARTESIAN_POINT ( 'NONE',  ( -8.071980441895290070, -2.962089301009908304, 5.237387644576053880 ) ) ;
#338 = LINE ( 'NONE', #253, #55 ) ;
#339 = FACE_OUTER_BOUND ( 'NONE', #417, .T. ) ;
#340 = CARTESIAN_POINT ( 'NONE',  ( -2.846604824987382987, -5.059081103884319752, -6.359217364476319467 ) ) ;
#341 = EDGE_CURVE ( 'NONE', #255, #87, #264, .T. ) ;
#342 = FACE_OUTER_BOUND ( 'NONE', #386, .T. ) ;
#343 = DIRECTION ( 'NONE',  ( 0.9986295347545740553, 0.05233595624294033744, 0.000000000000000000 ) ) ;
#344 = CARTESIAN_POINT ( 'NONE',  ( -11.24947534352793355, -0.6828503927219097269, 5.495406371746592633 ) ) ;
#345 = CARTESIAN_POINT ( 'NONE',  ( 0.3551250000566972265, 2.037380911795557026, 5.803347156825619635 ) ) ;
#346 = CALENDAR_DATE ( 2026, 27, 8 ) ;
#347 = CARTESIAN_POINT ( 'NONE',  ( -1.448726270043842357, 6.058427314146597631, -6.779229999436000575 ) ) ;
#348 = MECHANICAL_CONTEXT ( 'NONE', #506, 'mechanical' ) ;
#349 = CARTESIAN_POINT ( 'NONE',  ( -4.297467864731812526, 8.221933790722319557, -6.379328306796895554 ) ) ;
#350 = APPROVAL_STATUS ( 'not_yet_approved' ) ;
#351 = CARTESIAN_POINT ( 'NONE',  ( -2.846604824987382987, -5.059081103884319752, -4.500000000000000888 ) ) ;
#352 = PERSON_AND_ORGANIZATION ( #528, #296 ) ;
#353 = CARTESIAN_POINT ( 'NONE',  ( -14.44060574853263113, 2.265485729809625592, -5.536461889006450754 ) ) ;
#354 = APPROVAL_ROLE ( '' ) ;
#355 = CARTESIAN_POINT ( 'NONE',  ( -9.172558826257592557, -2.261951804326988835, -4.895807422259887964 ) ) ;
#356 = B_SPLINE_SURFACE_WITH_KNOTS ( 'NONE', 2, 1, ( 
 ( #165, #514 ),
 ( #288, #347 ),
 ( #63, #422 ) ),
 .UNSPECIFIED., .F., .F., .F.,
 ( 3, 3 ),
 ( 2, 2 ),
 ( 0.5008207051229819351, 0.5020133117822229707 ),
 ( 0.000000000000000000, 1.000000000000000000 ),
 .UNSPECIFIED. ) ;
#357 = APPROVAL ( #350, 'UNSPECIFIED' ) ;
#358 = DATE_TIME_ROLE ( 'classification_date' ) ;
#359 = CARTESIAN_POINT ( 'NONE',  ( -0.1150755601496959851, 3.742387726230825162, -5.745450716311058414 ) ) ;
#360 = CARTESIAN_POINT ( 'NONE',  ( -3.645804699733607102, 7.633612604158144244, 6.436862394286697153 ) ) ;
#361 = ORIENTED_EDGE ( 'NONE', *, *, #144, .T. ) ;
#362 = EDGE_CURVE ( 'NONE', #206, #255, #383, .T. ) ;
#363 = FACE_OUTER_BOUND ( 'NONE', #258, .T. ) ;
#364 = ORIENTED_EDGE ( 'NONE', *, *, #90, .F. ) ;
#365 = CARTESIAN_POINT ( 'NONE',  ( -6.307301893426086714, 9.929557587365660964, 6.696772314245740709 ) ) ;
#366 = LOCAL_TIME ( 0, 56, 11.00000000000000000, #571 ) ;
#367 = VERTEX_POINT ( 'NONE', #577 ) ;
#368 = EDGE_CURVE ( 'NONE', #367, #318, #534, .T. ) ;
#369 = FACE_OUTER_BOUND ( 'NONE', #390, .T. ) ;
#370 = ORIENTED_EDGE ( 'NONE', *, *, #81, .T. ) ;
#371 = CARTESIAN_POINT ( 'NONE',  ( 0.3551250000566972265, 12.60815517220120086, 7.000000000000000000 ) ) ;
#372 = VERTEX_POINT ( 'NONE', #548 ) ;
#373 = DIRECTION ( 'NONE',  ( -3.485384126420033333E-13, -1.000000000000000000, 0.000000000000000000 ) ) ;
#374 = ORIENTED_EDGE ( 'NONE', *, *, #439, .F. ) ;
#375 = VECTOR ( 'NONE', #379, 1000.000000000000227 ) ;
#376 = CARTESIAN_POINT ( 'NONE',  ( -1.394874999943561011, 1.976269565185000854, 5.796429114223418999 ) ) ;
#377 = CARTESIAN_POINT ( 'NONE',  ( -3.716701824005764099, -4.898315988470651305, 5.018199237605860397 ) ) ;
#378 = ORIENTED_EDGE ( 'NONE', *, *, #154, .T. ) ;
#379 = DIRECTION ( 'NONE',  ( 0.9986120086232370685, 0.05233503773731754127, 0.005924530234325171146 ) ) ;
#380 = CARTESIAN_POINT ( 'NONE',  ( -18.94519211359817135, 7.540918895746568040, 7.000000000000000000 ) ) ;
#381 = ORIENTED_EDGE ( 'NONE', *, *, #90, .T. ) ;
#382 = CARTESIAN_POINT ( 'NONE',  ( -23.03592114560350268, 11.54013782009825206, 6.879096273416728913 ) ) ;
#383 = B_SPLINE_CURVE_WITH_KNOTS ( 'NONE', 3,
 ( #185, #4, #486, #85, #272, #43 ),
 .UNSPECIFIED., .F., .F.,
 ( 4, 2, 4 ),
 ( 3.318834807187760033E-14, 0.001993191866254305760, 0.003986383732475422791 ),
 .UNSPECIFIED. ) ;
#384 = LINE ( 'NONE', #473, #92 ) ;
#385 = APPROVAL_PERSON_ORGANIZATION ( #177, #401, #484 ) ;
#386 = EDGE_LOOP ( 'NONE', ( #378, #494, #581, #505 ) ) ;
#387 = VECTOR ( 'NONE', #203, 1000.000000000000114 ) ;
#388 = DIRECTION ( 'NONE',  ( 1.000000000000000000, 0.000000000000000000, 0.000000000000000000 ) ) ;
#389 = APPROVAL_PERSON_ORGANIZATION ( #173, #416, #354 ) ;
#390 = EDGE_LOOP ( 'NONE', ( #234, #579, #182, #538 ) ) ;
#391 = EDGE_CURVE ( 'NONE', #51, #531, #149, .T. ) ;
#392 = ORIENTED_EDGE ( 'NONE', *, *, #315, .F. ) ;
#393 = CARTESIAN_POINT ( 'NONE',  ( -1.022718589753846441, 0.05426382960666979727, 5.578850574428830811 ) ) ;
#394 = CARTESIAN_POINT ( 'NONE',  ( -1.394874999943561011, 1.976269565185000854, -5.495536392779275303 ) ) ;
#395 = CARTESIAN_POINT ( 'NONE',  ( -1.394874999943561011, -2.223730434814910062, 5.320972745794695591 ) ) ;
#396 = CARTESIAN_POINT ( 'NONE',  ( -16.77395287696130666, 4.834616472141773258, -5.900006404711170660 ) ) ;
#397 = APPROVAL_ROLE ( '' ) ;
#398 = VECTOR ( 'NONE', #563, 1000.000000000000000 ) ;
#399 = CARTESIAN_POINT ( 'NONE',  ( -4.956900666200811933, -4.483563915689444457, -4.581438485793885462 ) ) ;
#400 = PERSON_AND_ORGANIZATION ( #528, #296 ) ;
#401 = APPROVAL ( #226, 'UNSPECIFIED' ) ;
#402 = CARTESIAN_POINT ( 'NONE',  ( -18.94519211359817135, 7.540918895746568040, 6.426369105244415181 ) ) ;
#403 = COORDINATED_UNIVERSAL_TIME_OFFSET ( 1, 0, .AHEAD. ) ;
#404 = CARTESIAN_POINT ( 'NONE',  ( -6.994875025828874548, 10.47738999221430234, -6.698486346889594323 ) ) ;
#405 = FACE_OUTER_BOUND ( 'NONE', #207, .T. ) ;
#406 = ORIENTED_EDGE ( 'NONE', *, *, #120, .F. ) ;
#407 = ADVANCED_FACE ( 'NONE', ( #294 ), #111, .F. ) ;
#408 = VERTEX_POINT ( 'NONE', #159 ) ;
#409 = DIRECTION ( 'NONE',  ( 0.7313537027583412176, 0.6819983588408874420, -0.000000000000000000 ) ) ;
#410 = ORIENTED_EDGE ( 'NONE', *, *, #88, .F. ) ;
#411 = LOCAL_TIME ( 0, 56, 11.00000000000000000, #442 ) ;
#412 = DIRECTION ( 'NONE',  ( -0.03489949670249428704, 0.9993908270190959842, 0.000000000000000000 ) ) ;
#413 = ORIENTED_EDGE ( 'NONE', *, *, #228, .T. ) ;
#414 = CARTESIAN_POINT ( 'NONE',  ( -23.03592114560350268, 12.60815517220120086, -7.000000000000000000 ) ) ;
#415 = CARTESIAN_POINT ( 'NONE',  ( -6.994875025828874548, 10.47738999221430234, 7.000000000000000000 ) ) ;
#416 = APPROVAL ( #164, 'UNSPECIFIED' ) ;
#417 = EDGE_LOOP ( 'NONE', ( #7, #158, #374, #299 ) ) ;
#418 = CARTESIAN_POINT ( 'NONE',  ( -6.994875025828874548, 10.47738999221430234, -6.698486346889594323 ) ) ;
#419 = ORIENTED_EDGE ( 'NONE', *, *, #368, .F. ) ;
#420 = LINE ( 'NONE', #200, #449 ) ;
#421 = CARTESIAN_POINT ( 'NONE',  ( -10.21500838427921387, -3.697644103227559320, 6.502625088165214784 ) ) ;
#422 = CARTESIAN_POINT ( 'NONE',  ( -6.994875025828872772, 10.47738999221430234, -6.779229999436000575 ) ) ;
#423 = VECTOR ( 'NONE', #78, 1000.000000000000000 ) ;
#424 = CC_DESIGN_PERSON_AND_ORGANIZATION_ASSIGNMENT ( #216, #131, ( #102 ) ) ;
#425 = CARTESIAN_POINT ( 'NONE',  ( -0.6838485580539450659, 13.04303477462088701, 7.049230065826236569 ) ) ;
#426 = EDGE_CURVE ( 'NONE', #67, #367, #507, .T. ) ;
#427 = CARTESIAN_POINT ( 'NONE',  ( 0.3551250000566972265, 12.60815517220120086, -7.000000000000000000 ) ) ;
#428 = CYLINDRICAL_SURFACE ( 'NONE', #150, 69.99999999999980105 ) ;
#429 = CARTESIAN_POINT ( 'NONE',  ( -1.394874999943561011, -2.223730434814910062, 5.320972745794695591 ) ) ;
#430 = CARTESIAN_POINT ( 'NONE',  ( -2.846604824987382987, -5.059081103884319752, 7.000000000000000000 ) ) ;
#431 = ORIENTED_EDGE ( 'NONE', *, *, #144, .F. ) ;
#432 = ORIENTED_EDGE ( 'NONE', *, *, #307, .T. ) ;
#433 = VECTOR ( 'NONE', #62, 1000.000000000000000 ) ;
#434 = CALENDAR_DATE ( 2026, 27, 8 ) ;
#435 = CARTESIAN_POINT ( 'NONE',  ( -1.092987749529920727, 0.5806349624953239807, -5.298047297586324866 ) ) ;
#436 = CARTESIAN_POINT ( 'NONE',  ( 0.3551250000566972265, 12.60815517220120086, -7.000000000000000000 ) ) ;
#437 = APPLICATION_PROTOCOL_DEFINITION ( 'international standard', 'config_control_design', 1994, #506 ) ;
#438 = CARTESIAN_POINT ( 'NONE',  ( -1.040319065106341423, 0.2276037641335700024, -5.248091663206822410 ) ) ;
#439 = EDGE_CURVE ( 'NONE', #492, #87, #42, .T. ) ;
#440 = VECTOR ( 'NONE', #12, 1000.000000000000114 ) ;
#441 = LINE ( 'NONE', #39, #116 ) ;
#442 = COORDINATED_UNIVERSAL_TIME_OFFSET ( 1, 0, .AHEAD. ) ;
#443 = CARTESIAN_POINT ( 'NONE',  ( -1.234552754720760648, -1.529417257023785615, -4.999464629286502593 ) ) ;
#444 = DIRECTION ( 'NONE',  ( 0.000000000000000000, 0.9936533736897814606, 0.1124854344122625388 ) ) ;
#445 = ADVANCED_FACE ( 'NONE', ( #339 ), #428, .F. ) ;
#446 = ORIENTED_EDGE ( 'NONE', *, *, #542, .F. ) ;
#447 = CARTESIAN_POINT ( 'NONE',  ( -17.87813264845535954, 6.167269108470562422, 6.270866595875093097 ) ) ;
#448 = CARTESIAN_POINT ( 'NONE',  ( -0.9131553968141893352, 4.784689529730151492, 6.114353199310424536 ) ) ;
#449 = VECTOR ( 'NONE', #8, 1000.000000000000227 ) ;
#450 = ORIENTED_EDGE ( 'NONE', *, *, #154, .F. ) ;
#451 = CARTESIAN_POINT ( 'NONE',  ( -23.03592114560350268, 12.60815517220120086, 7.000000000000000000 ) ) ;
#452 = ORIENTED_EDGE ( 'NONE', *, *, #156, .T. ) ;
#453 = DIRECTION ( 'NONE',  ( -0.9993830276160452497, -0.03489922434133817253, -0.003950728206264833911 ) ) ;
#454 = VERTEX_POINT ( 'NONE', #297 ) ;
#455 = DIRECTION ( 'NONE',  ( 0.000000000000000000, -0.9901360746104197474, 0.1401090780608784392 ) ) ;
#456 = CARTESIAN_POINT ( 'NONE',  ( -4.298417309989350343, 8.222773118245870094, 6.503557660584298183 ) ) ;
#457 = VECTOR ( 'NONE', #556, 1000.000000000000000 ) ;
#458 = ORIENTED_EDGE ( 'NONE', *, *, #565, .T. ) ;
#459 = CARTESIAN_POINT ( 'NONE',  ( 0.3551249999651975298, -2.723253226996780185, 5.324994554012954850 ) ) ;
#460 = VERTEX_POINT ( 'NONE', #208 ) ;
#461 = DIRECTION ( 'NONE',  ( -1.000000000000000000, 0.000000000000000000, 0.000000000000000000 ) ) ;
#462 = EDGE_CURVE ( 'NONE', #531, #367, #204, .T. ) ;
#463 = CARTESIAN_POINT ( 'NONE',  ( 2.351268616389030175, 0.4548779573398860077, -5.280252068724515802 ) ) ;
#464 = CC_DESIGN_DATE_AND_TIME_ASSIGNMENT ( #83, #358, ( #511 ) ) ;
#465 = DIRECTION ( 'NONE',  ( -0.000000000000000000, -0.000000000000000000, -1.000000000000000000 ) ) ;
#466 = DIRECTION ( 'NONE',  ( -1.000000000000000000, 3.485384126420033333E-13, 0.000000000000000000 ) ) ;
#467 = LINE ( 'NONE', #427, #133 ) ;
#468 =( GEOMETRIC_REPRESENTATION_CONTEXT ( 3 ) GLOBAL_UNCERTAINTY_ASSIGNED_CONTEXT ( ( #170 ) ) GLOBAL_UNIT_ASSIGNED_CONTEXT ( ( #261, #267, #166 ) ) REPRESENTATION_CONTEXT ( 'NONE', 'WORKASPACE' ) );
#469 = CC_DESIGN_APPROVAL ( #401, ( #511 ) ) ;
#470 = CARTESIAN_POINT ( 'NONE',  ( -0.7875457176890944266, 13.03760023676644941, -7.060768568701737635 ) ) ;
#471 = FACE_OUTER_BOUND ( 'NONE', #544, .T. ) ;
#472 = ADVANCED_FACE ( 'NONE', ( #17 ), #545, .F. ) ;
#473 = CARTESIAN_POINT ( 'NONE',  ( 0.3551250000564474263, 2.037380911795548144, 7.000000000000000000 ) ) ;
#474 = PERSON_AND_ORGANIZATION_ROLE ( 'creator' ) ;
#475 = EDGE_CURVE ( 'NONE', #11, #187, #118, .T. ) ;
#476 = LINE ( 'NONE', #485, #568 ) ;
#477 = ORIENTED_EDGE ( 'NONE', *, *, #526, .T. ) ;
#478 = CARTESIAN_POINT ( 'NONE',  ( -1.022532811490327154, 0.05023184543710848549, -5.222992672634003242 ) ) ;
#479 = CARTESIAN_POINT ( 'NONE',  ( -1.093625826316168448, 0.5840707279637216143, 5.638826780110040460 ) ) ;
#480 = CARTESIAN_POINT ( 'NONE',  ( -1.769895834014672875, 5.779426347132337938, -6.033701604716713796 ) ) ;
#481 = CC_DESIGN_PERSON_AND_ORGANIZATION_ASSIGNMENT ( #303, #474, ( #102 ) ) ;
#482 = B_SPLINE_CURVE_WITH_KNOTS ( 'NONE', 3,
 ( #74, #262, #443, #84, #219, #478, #438, #435, #41, #567, #311, #483 ),
 .UNSPECIFIED., .F., .F.,
 ( 4, 2, 2, 2, 2, 4 ),
 ( 0.000000000000000000, 0.001078916893549000493, 0.002157833787098000985, 0.002697292233872501232, 0.003236750680647001478, 0.004315667574196001971 ),
 .UNSPECIFIED. ) ;
#483 = CARTESIAN_POINT ( 'NONE',  ( -1.394874999943561011, 1.976269565185000854, -5.495536392779275303 ) ) ;
#484 = APPROVAL_ROLE ( '' ) ;
#485 = CARTESIAN_POINT ( 'NONE',  ( -23.03592114560350268, 11.54013782009829825, 7.000000000000000000 ) ) ;
#486 = CARTESIAN_POINT ( 'NONE',  ( -0.6044451899352160096, -3.639840208172668401, 5.160663600523933248 ) ) ;
#487 = PLANE ( 'NONE',  #106 ) ;
#488 = DIRECTION ( 'NONE',  ( 0.9993908270190959842, -0.03489949670249007513, 0.000000000000000000 ) ) ;
#489 = ORIENTED_EDGE ( 'NONE', *, *, #103, .F. ) ;
#490 = AXIS2_PLACEMENT_3D ( 'NONE', #9, #412, #6 ) ;
#491 = PLANE ( 'NONE',  #75 ) ;
#492 = VERTEX_POINT ( 'NONE', #382 ) ;
#493 = CARTESIAN_POINT ( 'NONE',  ( -0.1154161255236817035, 3.742884659794891267, 5.996416827864985422 ) ) ;
#494 = ORIENTED_EDGE ( 'NONE', *, *, #103, .T. ) ;
#495 = EDGE_CURVE ( 'NONE', #67, #51, #241, .T. ) ;
#496 = B_SPLINE_CURVE_WITH_KNOTS ( 'NONE', 3,
 ( #376, #155, #223, #529, #479, #30, #393, #306, #79, #127, #218, #77, #256, #395 ),
 .UNSPECIFIED., .F., .F.,
 ( 4, 2, 2, 2, 2, 2, 4 ),
 ( 4.848699518061080308E-19, 0.001074770045781389812, 0.001612155068672084610, 0.002149540091562779191, 0.002686925114453473772, 0.003224310137344168787, 0.004299080183125557515 ),
 .UNSPECIFIED. ) ;
#497 = LINE ( 'NONE', #238, #276 ) ;
#498 = VERTEX_POINT ( 'NONE', #21 ) ;
#499 = DIRECTION ( 'NONE',  ( -0.9986021505798609033, -0.05233452109915612271, 0.007405589686089788896 ) ) ;
#500 = VECTOR ( 'NONE', #333, 1000.000000000000000 ) ;
#501 = ORIENTED_EDGE ( 'NONE', *, *, #362, .F. ) ;
#502 = CARTESIAN_POINT ( 'NONE',  ( -69.88413394276419410, -40.47183154957589579, 7.000000000000000000 ) ) ;
#503 = EDGE_LOOP ( 'NONE', ( #110, #450, #20, #370 ) ) ;
#504 = CARTESIAN_POINT ( 'NONE',  ( -20.25388486837874069, 8.929371410749581628, 6.583547341082289783 ) ) ;
#505 = ORIENTED_EDGE ( 'NONE', *, *, #213, .T. ) ;
#506 = APPLICATION_CONTEXT ( 'configuration controlled 3d designs of mechanical parts and assemblies' ) ;
#507 = LINE ( 'NONE', #551, #321 ) ;
#508 = FACE_OUTER_BOUND ( 'NONE', #322, .T. ) ;
#509 = CARTESIAN_POINT ( 'NONE',  ( 0.3551250000566972265, 3.001549528634499975, 5.912494801853048543 ) ) ;
#510 = AXIS2_PLACEMENT_3D ( 'NONE', #335, #153, #73 ) ;
#511 = SECURITY_CLASSIFICATION ( '', '', #573 ) ;
#512 = CARTESIAN_POINT ( 'NONE',  ( -21.61822091296472692, 10.26318709152289799, 6.734540474352236572 ) ) ;
#513 = CARTESIAN_POINT ( 'NONE',  ( -13.20455318623175067, 1.022537326510461142, 5.688462907877347874 ) ) ;
#514 = CARTESIAN_POINT ( 'NONE',  ( 0.3551250000566972265, 3.001549528634499975, -6.779229999436000575 ) ) ;
#515 = CC_DESIGN_DATE_AND_TIME_ASSIGNMENT ( #129, #310, ( #10 ) ) ;
#516 = DATE_AND_TIME ( #346, #82 ) ;
#517 = B_SPLINE_CURVE_WITH_KNOTS ( 'NONE', 3,
 ( #189, #365, #319, #456, #360, #580, #56, #448, #86, #493, #232, #229 ),
 .UNSPECIFIED., .F., .F.,
 ( 4, 2, 2, 2, 2, 4 ),
 ( 8.673617379884035472E-19, 0.002643073263770713728, 0.005286146527541426589, 0.007929219791312138582, 0.009250756423197496747, 0.01057229305508285144 ),
 .UNSPECIFIED. ) ;
#518 = CARTESIAN_POINT ( 'NONE',  ( -1.394874999943561011, -2.223730434814909618, 7.000000000000000000 ) ) ;
#519 = ORIENTED_EDGE ( 'NONE', *, *, #47, .T. ) ;
#520 = CARTESIAN_POINT ( 'NONE',  ( 0.000000000000000000, 0.000000000000000000, 0.000000000000000000 ) ) ;
#521 = LINE ( 'NONE', #436, #423 ) ;
#522 = AXIS2_PLACEMENT_3D ( 'NONE', #290, #466, #373 ) ;
#523 = EDGE_CURVE ( 'NONE', #492, #67, #61, .T. ) ;
#524 = CARTESIAN_POINT ( 'NONE',  ( -1.687751910184029924, -4.404877946748420037, -4.592572933722155248 ) ) ;
#525 = PERSON_AND_ORGANIZATION_ROLE ( 'creator' ) ;
#526 = EDGE_CURVE ( 'NONE', #206, #187, #254, .T. ) ;
#527 = CARTESIAN_POINT ( 'NONE',  ( -5.628486230387168554, 9.370319061392851978, -6.541830417020126021 ) ) ;
#528 = PERSON ( 'UNSPECIFIED', 'UNSPECIFIED', 'UNSPECIFIED', ('UNSPECIFIED'), ('UNSPECIFIED'), ('UNSPECIFIED') ) ;
#529 = CARTESIAN_POINT ( 'NONE',  ( -1.127380764220178744, 0.7590097298487170629, 5.658630556903622377 ) ) ;
#530 = CARTESIAN_POINT ( 'NONE',  ( -2.382202023037044203, 6.412147318699057408, -6.123234704529116001 ) ) ;
#531 = VERTEX_POINT ( 'NONE', #247 ) ;
#532 = AXIS2_PLACEMENT_3D ( 'NONE', #242, #283, #140 ) ;
#533 = FACE_OUTER_BOUND ( 'NONE', #101, .T. ) ;
#534 = LINE ( 'NONE', #414, #180 ) ;
#535 = FACE_OUTER_BOUND ( 'NONE', #230, .T. ) ;
#536 = ORIENTED_EDGE ( 'NONE', *, *, #269, .F. ) ;
#537 = PLANE ( 'NONE',  #285 ) ;
#538 = ORIENTED_EDGE ( 'NONE', *, *, #22, .T. ) ;
#539 = AXIS2_PLACEMENT_3D ( 'NONE', #520, #71, #388 ) ;
#540 = PLANE ( 'NONE',  #532 ) ;
#541 = VERTEX_POINT ( 'NONE', #557 ) ;
#542 = EDGE_CURVE ( 'NONE', #91, #372, #420, .T. ) ;
#543 = PLANE ( 'NONE',  #231 ) ;
#544 = EDGE_LOOP ( 'NONE', ( #277, #70, #406, #305 ) ) ;
#545 = PLANE ( 'NONE',  #522 ) ;
#546 = ORIENTED_EDGE ( 'NONE', *, *, #495, .T. ) ;
#547 = ADVANCED_FACE ( 'NONE', ( #195 ), #196, .F. ) ;
#548 = CARTESIAN_POINT ( 'NONE',  ( 0.3551250000564474263, 2.037380911795548144, -5.504183946032021879 ) ) ;
#549 = VECTOR ( 'NONE', #274, 1000.000000000000000 ) ;
#550 = ORIENTED_EDGE ( 'NONE', *, *, #391, .T. ) ;
#551 = CARTESIAN_POINT ( 'NONE',  ( -23.03592114560350268, 11.87161228793415191, 7.000000000000000000 ) ) ;
#552 = CARTESIAN_POINT ( 'NONE',  ( -4.549034324729157142, -4.645212691691345874, 5.046851517206813575 ) ) ;
#553 = VERTEX_POINT ( 'NONE', #418 ) ;
#554 = CARTESIAN_POINT ( 'NONE',  ( -23.03592114560350268, 12.60815517220120086, 7.000000000000000000 ) ) ;
#555 = CALENDAR_DATE ( 2026, 27, 8 ) ;
#556 = DIRECTION ( 'NONE',  ( -0.000000000000000000, -0.000000000000000000, -1.000000000000000000 ) ) ;
#557 = CARTESIAN_POINT ( 'NONE',  ( -2.846604824987382987, -5.059081103884319752, -4.500000000000000888 ) ) ;
#558 = CARTESIAN_POINT ( 'NONE',  ( -9.529276192091355568, -1.999591181429739128, 5.346346182803447533 ) ) ;
#559 = EDGE_CURVE ( 'NONE', #498, #11, #496, .T. ) ;
#560 = CARTESIAN_POINT ( 'NONE',  ( -23.03592114560350268, 11.87161228793415191, 6.916620475012943636 ) ) ;
#561 = CLOSED_SHELL ( 'NONE', ( #472, #1, #287, #547, #273, #220, #192, #36, #237, #407, #445, #257, #259, #199 ) ) ;
#562 = PLANE ( 'NONE',  #510 ) ;
#563 = DIRECTION ( 'NONE',  ( -0.000000000000000000, -0.000000000000000000, -1.000000000000000000 ) ) ;
#564 = CARTESIAN_POINT ( 'NONE',  ( -0.9123920055228021964, 4.783762203503351351, -5.892810277959409149 ) ) ;
#565 = EDGE_CURVE ( 'NONE', #255, #541, #124, .T. ) ;
#566 = CC_DESIGN_PERSON_AND_ORGANIZATION_ASSIGNMENT ( #352, #525, ( #10 ) ) ;
#567 = CARTESIAN_POINT ( 'NONE',  ( -1.234216676828739923, 1.280529298144643224, -5.397085755655274042 ) ) ;
#568 = VECTOR ( 'NONE', #172, 1000.000000000000000 ) ;
#569 = DATE_AND_TIME ( #434, #366 ) ;
#570 = CARTESIAN_POINT ( 'NONE',  ( -6.307002378055251768, 9.929318944786185597, -6.620931623719621406 ) ) ;
#571 = COORDINATED_UNIVERSAL_TIME_OFFSET ( 1, 0, .AHEAD. ) ;
#572 = CARTESIAN_POINT ( 'NONE',  ( -6.952763085743971061, -3.610383497041449896, -4.704997768780017076 ) ) ;
#573 = SECURITY_CLASSIFICATION_LEVEL ( 'unclassified' ) ;
#574 = LINE ( 'NONE', #179, #5 ) ;
#575 = PRODUCT_RELATED_PRODUCT_CATEGORY ( 'detail', '', ( #108 ) ) ;
#576 = AXIS2_PLACEMENT_3D ( 'NONE', #336, #162, #343 ) ;
#577 = CARTESIAN_POINT ( 'NONE',  ( -23.03592114560350268, 11.87161228793415191, -6.895775593766177991 ) ) ;
#578 = DIRECTION ( 'NONE',  ( -0.6796729177606267713, 0.7288599724985126427, 0.08250978943266890075 ) ) ;
#579 = ORIENTED_EDGE ( 'NONE', *, *, #197, .F. ) ;
#580 = CARTESIAN_POINT ( 'NONE',  ( -2.383328713366249740, 6.413285301805065508, 6.298716587745929907 ) ) ;
#581 = ORIENTED_EDGE ( 'NONE', *, *, #245, .F. ) ;
ENDSEC;
END-ISO-10303-21;
