ISO-10303-21;
HEADER;
FILE_DESCRIPTION (( 'STEP AP214' ),
    '1' );
FILE_NAME ('LENTE L8 DOT DESARROLLO PROPIO.STEP',
    '2026-01-09T13:38:59',
    ( '' ),
    ( '' ),
    'SwSTEP 2.0',
    'SolidWorks 2024',
    '' );
FILE_SCHEMA (( 'AUTOMOTIVE_DESIGN' ));
ENDSEC;

DATA;
#1 = CARTESIAN_POINT ( 'NONE',  ( -1.409004994757496965, 12.58641359856245145, 9.985878585633860993 ) ) ;
#2 = CARTESIAN_POINT ( 'NONE',  ( -5.933583063360079457, 15.05089704719430088, 6.590417402723878659 ) ) ;
#3 = EDGE_CURVE ( 'NONE', #845, #231, #648, .T. ) ;
#4 = CARTESIAN_POINT ( 'NONE',  ( -10.16066958282727306, 12.58641359856245145, 8.846433364515167597 ) ) ;
#5 = EDGE_LOOP ( 'NONE', ( #275, #1094, #267, #638 ) ) ;
#6 = ORIENTED_EDGE ( 'NONE', *, *, #501, .T. ) ;
#7 = CARTESIAN_POINT ( 'NONE',  ( -0.3606695828272717952, 15.58641359856245145, 7.123477207818217138 ) ) ;
#8 = CARTESIAN_POINT ( 'NONE',  ( -6.243646249550743654, 13.85114119220116180, 5.663000000000024237 ) ) ;
#9 = CARTESIAN_POINT ( 'NONE',  ( -10.16066958282727306, -3.713903515081124151, 17.38764933054777728 ) ) ;
#10 = ORIENTED_EDGE ( 'NONE', *, *, #179, .T. ) ;
#11 = EDGE_LOOP ( 'NONE', ( #77, #744, #265, #399 ) ) ;
#12 = CARTESIAN_POINT ( 'NONE',  ( -7.710669582827271995, 13.19200889767703266, 5.218842070674354794 ) ) ;
#13 = DIRECTION ( 'NONE',  ( 1.000000000000000000, -3.851859888774471022E-33, 0.000000000000000000 ) ) ;
#14 = CARTESIAN_POINT ( 'NONE',  ( -9.112334170897048224, 14.08641359856244968, 9.985878585633860993 ) ) ;
#15 = DIRECTION ( 'NONE',  ( -0.000000000000000000, 1.000000000000000000, 3.796156675003491545E-16 ) ) ;
#16 = ORIENTED_EDGE ( 'NONE', *, *, #825, .T. ) ;
#17 = EDGE_CURVE ( 'NONE', #845, #480, #1037, .T. ) ;
#18 = CIRCLE ( 'NONE', #122, 1.548335411930225725 ) ;
#19 = CARTESIAN_POINT ( 'NONE',  ( -10.16066958282727306, 13.83641359856245323, 7.623000000000087262 ) ) ;
#20 = CARTESIAN_POINT ( 'NONE',  ( -0.3606695828272709625, 15.58641359847121421, 7.123477207818217138 ) ) ;
#21 = DIRECTION ( 'NONE',  ( 0.000000000000000000, 1.000000000000000000, 3.796156675003491545E-16 ) ) ;
#22 = ORIENTED_EDGE ( 'NONE', *, *, #1050, .F. ) ;
#23 = CARTESIAN_POINT ( 'NONE',  ( -10.16066958282727306, 6.249442903976641261, 22.45488560701619463 ) ) ;
#24 = EDGE_CURVE ( 'NONE', #338, #92, #153, .T. ) ;
#25 = CYLINDRICAL_SURFACE ( 'NONE', #680, 1.000000000000000888 ) ;
#26 = CARTESIAN_POINT ( 'NONE',  ( -6.226243975709327749, 13.71297452435470809, 5.569896048953247636 ) ) ;
#27 = EDGE_LOOP ( 'NONE', ( #1004, #360, #329, #918 ) ) ;
#28 = DIRECTION ( 'NONE',  ( -0.000000000000000000, -1.000000000000000000, -0.000000000000000000 ) ) ;
#29 = PLANE ( 'NONE',  #701 ) ;
#30 = CARTESIAN_POINT ( 'NONE',  ( -0.3606695828272709625, -3.713903515081124151, 17.38764933054777728 ) ) ;
#31 = CARTESIAN_POINT ( 'NONE',  ( -5.260669582827272706, 16.78641359856245430, 4.846730434814721988 ) ) ;
#32 = ORIENTED_EDGE ( 'NONE', *, *, #114, .F. ) ;
#33 = VECTOR ( 'NONE', #203, 1000.000000000000000 ) ;
#34 = VECTOR ( 'NONE', #226, 1000.000000000000000 ) ;
#35 = VECTOR ( 'NONE', #288, 1000.000000000000000 ) ;
#36 = ADVANCED_FACE ( 'NONE', ( #817 ), #905, .T. ) ;
#37 = DIRECTION ( 'NONE',  ( 1.000000000000000000, -3.851859888774471022E-33, 0.000000000000000000 ) ) ;
#38 = EDGE_CURVE ( 'NONE', #820, #910, #121, .T. ) ;
#39 = LINE ( 'NONE', #1022, #33 ) ;
#40 = ADVANCED_BREP_SHAPE_REPRESENTATION ( 'LENTE L8 DOT DESARROLLO PROPIO', ( #418, #259 ), #412 ) ;
#41 = CARTESIAN_POINT ( 'NONE',  ( -5.260669582827272706, 16.78641359856245074, 13.34673043481472021 ) ) ;
#42 = DIRECTION ( 'NONE',  ( 1.000000000000000000, -3.851859888774471022E-33, 0.000000000000000000 ) ) ;
#43 = CARTESIAN_POINT ( 'NONE',  ( -5.063739699486514034, 14.55442822614617349, 14.33192511135914948 ) ) ;
#44 = CARTESIAN_POINT ( 'NONE',  ( -10.16066958282727306, -7.804632547097502204, 9.723000000000089571 ) ) ;
#45 = CARTESIAN_POINT ( 'NONE',  ( -10.16066958282727128, 12.90297812392783605, 7.742965160454138740 ) ) ;
#46 = DIRECTION ( 'NONE',  ( 1.000000000000000000, -3.851859888774471022E-33, 0.000000000000000000 ) ) ;
#47 = ADVANCED_FACE ( 'NONE', ( #422, #844 ), #264, .T. ) ;
#48 = ADVANCED_FACE ( 'NONE', ( #191 ), #685, .T. ) ;
#49 = CARTESIAN_POINT ( 'NONE',  ( -0.3606695828272709070, 12.74570514580599401, 11.95230745553170060 ) ) ;
#50 = CARTESIAN_POINT ( 'NONE',  ( -5.260669582827272706, 16.58641359856245145, 5.846730434814721988 ) ) ;
#51 = EDGE_CURVE ( 'NONE', #58, #736, #675, .T. ) ;
#52 = DIRECTION ( 'NONE',  ( 0.000000000000000000, 0.000000000000000000, -1.000000000000000000 ) ) ;
#53 = CARTESIAN_POINT ( 'NONE',  ( -10.16066958282727128, 13.10658323061834096, 7.494505184833657907 ) ) ;
#54 = LINE ( 'NONE', #381, #858 ) ;
#55 = CARTESIAN_POINT ( 'NONE',  ( -6.224777465445802349, 15.06044803809900223, 13.65918817435382415 ) ) ;
#56 = CARTESIAN_POINT ( 'NONE',  ( -0.3606695828272709625, 13.83641359856245323, 11.82300000000008566 ) ) ;
#57 = EDGE_CURVE ( 'NONE', #1021, #107, #189, .T. ) ;
#58 = VERTEX_POINT ( 'NONE', #762 ) ;
#59 = ORIENTED_EDGE ( 'NONE', *, *, #619, .T. ) ;
#60 = AXIS2_PLACEMENT_3D ( 'NONE', #86, #1044, #597 ) ;
#61 = VECTOR ( 'NONE', #156, 1000.000000000000000 ) ;
#62 = CARTESIAN_POINT ( 'NONE',  ( -0.3606695828272709070, 13.10658323061833563, 12.47725198643406230 ) ) ;
#63 = CARTESIAN_POINT ( 'NONE',  ( -0.3606695828272709625, 13.83641359856245323, 7.623000000000087262 ) ) ;
#64 = VECTOR ( 'NONE', #444, 1000.000000000000000 ) ;
#65 = ORIENTED_EDGE ( 'NONE', *, *, #882, .F. ) ;
#66 = ORIENTED_EDGE ( 'NONE', *, *, #626, .T. ) ;
#67 = ORIENTED_EDGE ( 'NONE', *, *, #618, .T. ) ;
#68 = CARTESIAN_POINT ( 'NONE',  ( -5.260669582827272706, 15.58641359856244968, 12.34673043481471844 ) ) ;
#69 = DIRECTION ( 'NONE',  ( 0.000000000000000000, -1.000000000000000000, -3.796156675003491545E-16 ) ) ;
#70 = ORIENTED_EDGE ( 'NONE', *, *, #78, .F. ) ;
#71 = EDGE_LOOP ( 'NONE', ( #824, #931, #404, #76 ) ) ;
#72 = EDGE_LOOP ( 'NONE', ( #246, #280, #67, #134 ) ) ;
#73 = DIRECTION ( 'NONE',  ( -6.069346371170949687E-33, 0.9848077530122086864, 0.1736481776669273336 ) ) ;
#74 = DIRECTION ( 'NONE',  ( -1.000000000000000000, 3.851859888774471022E-33, 0.000000000000000000 ) ) ;
#75 = EDGE_LOOP ( 'NONE', ( #756, #779, #127, #251 ) ) ;
#76 = ORIENTED_EDGE ( 'NONE', *, *, #199, .T. ) ;
#77 = ORIENTED_EDGE ( 'NONE', *, *, #958, .F. ) ;
#78 = EDGE_CURVE ( 'NONE', #1023, #642, #106, .T. ) ;
#79 = PLANE ( 'NONE',  #487 ) ;
#80 = CARTESIAN_POINT ( 'NONE',  ( -5.361072607767590092, 15.32152175150286766, 6.846730434814726429 ) ) ;
#81 = EDGE_LOOP ( 'NONE', ( #407, #333, #402, #245, #495, #923, #159, #579, #66, #661, #291 ) ) ;
#82 = B_SPLINE_CURVE_WITH_KNOTS ( 'NONE', 3,
 ( #4, #967, #455, #790, #798, #708, #45, #53, #368, #872, #723, #889, #712, #551 ),
 .UNSPECIFIED., .F., .F.,
 ( 4, 2, 2, 2, 2, 2, 4 ),
 ( 0.000000000000000000, 0.0006310143571059580311, 0.0009465215356589369924, 0.001262028714211916062, 0.001893043071317872033, 0.002208550249870848067, 0.002524057428423823884 ),
 .UNSPECIFIED. ) ;
#83 = EDGE_LOOP ( 'NONE', ( #70, #195, #1054, #204 ) ) ;
#84 = CARTESIAN_POINT ( 'NONE',  ( -2.810669582827270752, 13.19200889767703266, 5.218842070674354794 ) ) ;
#85 = CARTESIAN_POINT ( 'NONE',  ( -0.3606695828272709625, 15.58641359856267528, 12.84827996344950840 ) ) ;
#86 = CARTESIAN_POINT ( 'NONE',  ( -10.16066958282727306, 15.58641359856245145, 7.561888653389548409 ) ) ;
#87 = ORIENTED_EDGE ( 'NONE', *, *, #994, .T. ) ;
#88 = DIRECTION ( 'NONE',  ( 0.000000000000000000, -5.690723760868457777E-16, 1.000000000000000000 ) ) ;
#89 = LINE ( 'NONE', #346, #464 ) ;
#90 = ADVANCED_FACE ( 'NONE', ( #615 ), #426, .T. ) ;
#91 = DIRECTION ( 'NONE',  ( 0.000000000000000000, -5.690723760868457777E-16, 1.000000000000000000 ) ) ;
#92 = VERTEX_POINT ( 'NONE', #342 ) ;
#93 = PLANE ( 'NONE',  #945 ) ;
#94 = ORIENTED_EDGE ( 'NONE', *, *, #702, .T. ) ;
#95 =( NAMED_UNIT ( * ) PLANE_ANGLE_UNIT ( ) SI_UNIT ( $, .RADIAN. ) );
#96 = AXIS2_PLACEMENT_3D ( 'NONE', #948, #196, #531 ) ;
#97 = VECTOR ( 'NONE', #718, 1000.000000000000000 ) ;
#98 = CARTESIAN_POINT ( 'NONE',  ( -0.3606695828272709625, -8.154632547097497408, 21.70000000000009521 ) ) ;
#99 = DIRECTION ( 'NONE',  ( 0.000000000000000000, 0.000000000000000000, -1.000000000000000000 ) ) ;
#100 = ORIENTED_EDGE ( 'NONE', *, *, #732, .F. ) ;
#101 = CARTESIAN_POINT ( 'NONE',  ( -5.260669582827272706, 16.58641359856245501, 13.34673043481472021 ) ) ;
#102 = VERTEX_POINT ( 'NONE', #673 ) ;
#103 = VECTOR ( 'NONE', #449, 1000.000000000000000 ) ;
#104 = FILL_AREA_STYLE_COLOUR ( '', #482 ) ;
#105 = CARTESIAN_POINT ( 'NONE',  ( -10.16066958282727306, 8.236413572681774653, 20.32412042703467137 ) ) ;
#106 = LINE ( 'NONE', #1013, #769 ) ;
#107 = VERTEX_POINT ( 'NONE', #256 ) ;
#108 = DIRECTION ( 'NONE',  ( -0.000000000000000000, -1.000000000000000000, -0.000000000000000000 ) ) ;
#109 = DIRECTION ( 'NONE',  ( 0.000000000000000000, 0.000000000000000000, -1.000000000000000000 ) ) ;
#110 = CARTESIAN_POINT ( 'NONE',  ( -10.16066958282727306, 13.83641359856245323, 11.82300000000008566 ) ) ;
#111 = DIRECTION ( 'NONE',  ( 0.000000000000000000, 1.224646799147352221E-16, 1.000000000000000000 ) ) ;
#112 = ORIENTED_EDGE ( 'NONE', *, *, #386, .T. ) ;
#113 = EDGE_CURVE ( 'NONE', #457, #820, #1034, .T. ) ;
#114 = EDGE_CURVE ( 'NONE', #736, #102, #936, .T. ) ;
#115 = CARTESIAN_POINT ( 'NONE',  ( -5.260669582827272706, 16.58641359856245145, 5.846730434814721988 ) ) ;
#116 = FACE_OUTER_BOUND ( 'NONE', #71, .T. ) ;
#117 = AXIS2_PLACEMENT_3D ( 'NONE', #543, #884, #376 ) ;
#118 = DIRECTION ( 'NONE',  ( 0.000000000000000000, -1.000000000000000000, -3.796156675003491545E-16 ) ) ;
#119 = ORIENTED_EDGE ( 'NONE', *, *, #3, .F. ) ;
#120 = CONICAL_SURFACE ( 'NONE', #892, 1.000000000000000888, 0.7853981633974460586 ) ;
#121 = B_SPLINE_CURVE_WITH_KNOTS ( 'NONE', 3,
 ( #490, #499, #837, #250, #175, #823, #511, #202, #955, #1036, #767, #862 ),
 .UNSPECIFIED., .F., .F.,
 ( 4, 2, 2, 2, 2, 4 ),
 ( 0.001981184609176680871, 0.002228214850484494525, 0.002475245091792307745, 0.002969305574407936354, 0.003463366057023564964, 0.003957426539639193573 ),
 .UNSPECIFIED. ) ;
#122 = AXIS2_PLACEMENT_3D ( 'NONE', #393, #1056, #893 ) ;
#123 = AXIS2_PLACEMENT_3D ( 'NONE', #828, #180, #88 ) ;
#124 = EDGE_CURVE ( 'NONE', #396, #129, #801, .T. ) ;
#125 = CYLINDRICAL_SURFACE ( 'NONE', #771, 1.000000000000000888 ) ;
#126 = CARTESIAN_POINT ( 'NONE',  ( -0.3606695828272709625, 13.83641359856245323, 7.623000000000087262 ) ) ;
#127 = ORIENTED_EDGE ( 'NONE', *, *, #975, .F. ) ;
#128 = CARTESIAN_POINT ( 'NONE',  ( -4.261998803923816581, 15.33775987223227943, 13.24962344283154181 ) ) ;
#129 = VERTEX_POINT ( 'NONE', #691 ) ;
#130 = CARTESIAN_POINT ( 'NONE',  ( -0.3606695828272723503, 12.58641359856245678, 11.33897254219704820 ) ) ;
#131 = CARTESIAN_POINT ( 'NONE',  ( -10.16066958282727306, 13.83641359856245323, 7.623000000000087262 ) ) ;
#132 = EDGE_CURVE ( 'NONE', #763, #319, #610, .T. ) ;
#133 = DIRECTION ( 'NONE',  ( 0.000000000000000000, 0.000000000000000000, -1.000000000000000000 ) ) ;
#134 = ORIENTED_EDGE ( 'NONE', *, *, #17, .T. ) ;
#135 = LINE ( 'NONE', #542, #819 ) ;
#136 = PLANE ( 'NONE',  #607 ) ;
#137 = VECTOR ( 'NONE', #518, 1000.000000000000000 ) ;
#138 = CARTESIAN_POINT ( 'NONE',  ( -0.3606695828272710180, 13.87378669407040022, 7.135601071288917296 ) ) ;
#139 = EDGE_CURVE ( 'NONE', #310, #102, #568, .T. ) ;
#140 = CARTESIAN_POINT ( 'NONE',  ( -6.259315216771089041, 15.33800335555438643, 13.24925162563805969 ) ) ;
#141 = DIRECTION ( 'NONE',  ( 0.000000000000000000, 0.000000000000000000, -1.000000000000000000 ) ) ;
#142 = CARTESIAN_POINT ( 'NONE',  ( -0.3606695828272710180, 12.70659127543631861, 8.114962526381404473 ) ) ;
#143 = EDGE_LOOP ( 'NONE', ( #733, #1008 ) ) ;
#144 = CARTESIAN_POINT ( 'NONE',  ( -5.459148258034146828, 14.54265395560850571, 14.34673043482066568 ) ) ;
#145 = CARTESIAN_POINT ( 'NONE',  ( -0.3606695828272717952, 14.08641359856244968, 12.84827996344950662 ) ) ;
#146 = CARTESIAN_POINT ( 'NONE',  ( -4.868150291044718969, 15.25753451802449767, 6.782472300013953515 ) ) ;
#147 = ORIENTED_EDGE ( 'NONE', *, *, #397, .T. ) ;
#148 = EDGE_CURVE ( 'NONE', #496, #192, #868, .T. ) ;
#149 = LINE ( 'NONE', #627, #841 ) ;
#150 = FACE_OUTER_BOUND ( 'NONE', #660, .T. ) ;
#151 = ORIENTED_EDGE ( 'NONE', *, *, #1076, .F. ) ;
#152 = ORIENTED_EDGE ( 'NONE', *, *, #586, .F. ) ;
#153 = CIRCLE ( 'NONE', #171, 3.048335411930226169 ) ;
#154 = AXIS2_PLACEMENT_3D ( 'NONE', #766, #681, #929 ) ;
#155 = FACE_OUTER_BOUND ( 'NONE', #216, .T. ) ;
#156 = DIRECTION ( 'NONE',  ( 1.000000000000000000, -3.851859888774471022E-33, 0.000000000000000000 ) ) ;
#157 = DIRECTION ( 'NONE',  ( 0.000000000000000000, -5.690723760868454819E-16, 1.000000000000000000 ) ) ;
#158 = ORIENTED_EDGE ( 'NONE', *, *, #938, .T. ) ;
#159 = ORIENTED_EDGE ( 'NONE', *, *, #934, .F. ) ;
#160 = PLANE ( 'NONE',  #1055 ) ;
#161 = CARTESIAN_POINT ( 'NONE',  ( -6.264005759006247231, 14.01278705229356980, 5.771925463333698048 ) ) ;
#162 = ORIENTED_EDGE ( 'NONE', *, *, #472, .F. ) ;
#163 = VERTEX_POINT ( 'NONE', #207 ) ;
#164 = EDGE_CURVE ( 'NONE', #983, #957, #448, .T. ) ;
#165 = VERTEX_POINT ( 'NONE', #131 ) ;
#166 = FACE_OUTER_BOUND ( 'NONE', #11, .T. ) ;
#167 = CARTESIAN_POINT ( 'NONE',  ( -10.16066958282727306, 12.38468377351861882, 4.787649330930684677 ) ) ;
#168 = DIRECTION ( 'NONE',  ( -0.000000000000000000, 1.000000000000000000, 3.796156675003491545E-16 ) ) ;
#169 = EDGE_LOOP ( 'NONE', ( #838, #665 ) ) ;
#170 = ORIENTED_EDGE ( 'NONE', *, *, #17, .F. ) ;
#171 = AXIS2_PLACEMENT_3D ( 'NONE', #569, #1093, #1003 ) ;
#172 = CARTESIAN_POINT ( 'NONE',  ( -2.810669582827270752, 13.85114119571043467, 5.663000002852163206 ) ) ;
#173 = CARTESIAN_POINT ( 'NONE',  ( -0.3606695828272709625, 14.48892171654617123, 5.911523835232625146 ) ) ;
#174 = AXIS2_PLACEMENT_3D ( 'NONE', #450, #636, #37 ) ;
#175 = CARTESIAN_POINT ( 'NONE',  ( -4.878147313457344758, 12.62945093268331931, 4.920451405625349217 ) ) ;
#176 = VERTEX_POINT ( 'NONE', #459 ) ;
#177 = VECTOR ( 'NONE', #375, 1000.000000000000000 ) ;
#178 = B_SPLINE_CURVE_WITH_KNOTS ( 'NONE', 2,
 ( #780, #857, #431 ),
 .UNSPECIFIED., .F., .F.,
 ( 3, 3 ),
 ( 0.4988120746294950059, 0.4990425701343600418 ),
 .UNSPECIFIED. ) ;
#179 = EDGE_CURVE ( 'NONE', #242, #1075, #807, .T. ) ;
#180 = DIRECTION ( 'NONE',  ( -0.000000000000000000, 1.000000000000000000, 3.796156675003491545E-16 ) ) ;
#181 = PRESENTATION_STYLE_ASSIGNMENT (( #946 ) ) ;
#182 = DIRECTION ( 'NONE',  ( -0.000000000000000000, 1.000000000000000000, 3.796156675003491545E-16 ) ) ;
#183 = ORIENTED_EDGE ( 'NONE', *, *, #619, .F. ) ;
#184 = CARTESIAN_POINT ( 'NONE',  ( -10.16066958282727306, 14.20859554158698401, 9.723000000000086018 ) ) ;
#185 = LINE ( 'NONE', #514, #652 ) ;
#186 = CARTESIAN_POINT ( 'NONE',  ( -10.16066958282727306, -3.713903515092183749, 17.38764933056156536 ) ) ;
#187 = DIRECTION ( 'NONE',  ( 1.000000000000000000, -3.851859888774470338E-33, 4.717167883551731588E-49 ) ) ;
#188 = VERTEX_POINT ( 'NONE', #980 ) ;
#189 = CIRCLE ( 'NONE', #237, 3.048335411930225280 ) ;
#190 = CARTESIAN_POINT ( 'NONE',  ( -5.260669582827176782, 12.49449392049071861, 4.846730434814677579 ) ) ;
#191 = FACE_OUTER_BOUND ( 'NONE', #856, .T. ) ;
#192 = VERTEX_POINT ( 'NONE', #880 ) ;
#193 = AXIS2_PLACEMENT_3D ( 'NONE', #283, #613, #953 ) ;
#194 = DIRECTION ( 'NONE',  ( -1.000000000000000000, 3.851859888774471022E-33, 0.000000000000000000 ) ) ;
#195 = ORIENTED_EDGE ( 'NONE', *, *, #386, .F. ) ;
#196 = DIRECTION ( 'NONE',  ( -1.000000000000000000, 3.851859888774471022E-33, 0.000000000000000000 ) ) ;
#197 = ORIENTED_EDGE ( 'NONE', *, *, #934, .T. ) ;
#198 = CARTESIAN_POINT ( 'NONE',  ( -5.260669582827272706, 16.58641359856245145, 4.846730434814721988 ) ) ;
#199 = EDGE_CURVE ( 'NONE', #349, #1010, #442, .T. ) ;
#200 = FACE_OUTER_BOUND ( 'NONE', #452, .T. ) ;
#201 = CARTESIAN_POINT ( 'NONE',  ( -5.260669582827272706, 16.78641359856245074, 13.34673043481472021 ) ) ;
#202 = CARTESIAN_POINT ( 'NONE',  ( -4.466005561992177242, 13.17043876544626002, 5.230559814920120232 ) ) ;
#203 = DIRECTION ( 'NONE',  ( 0.000000000000000000, -3.030189073798952279E-16, 1.000000000000000000 ) ) ;
#204 = ORIENTED_EDGE ( 'NONE', *, *, #292, .T. ) ;
#205 = APPLICATION_PROTOCOL_DEFINITION ( 'draft international standard', 'automotive_design', 1998, #672 ) ;
#206 = DIRECTION ( 'NONE',  ( -0.000000000000000000, 1.000000000000000000, 3.796156675003491545E-16 ) ) ;
#207 = CARTESIAN_POINT ( 'NONE',  ( -0.3606695828272709625, 15.58641359856267528, 12.84827996344950840 ) ) ;
#208 = CARTESIAN_POINT ( 'NONE',  ( -4.474497428594765402, 14.92826969156194039, 6.479905214082929632 ) ) ;
#209 = ORIENTED_EDGE ( 'NONE', *, *, #988, .F. ) ;
#210 = PRESENTATION_LAYER_ASSIGNMENT (  '', '', ( #678 ) ) ;
#211 = VECTOR ( 'NONE', #803, 1000.000000000000000 ) ;
#212 = EDGE_CURVE ( 'NONE', #192, #729, #535, .T. ) ;
#213 = CARTESIAN_POINT ( 'NONE',  ( -5.958962438718744536, 14.74627474826335494, 14.08561509627747377 ) ) ;
#214 = FACE_OUTER_BOUND ( 'NONE', #75, .T. ) ;
#215 = CARTESIAN_POINT ( 'NONE',  ( -0.3606695828272709625, 15.58641359856245145, 12.13157221623989201 ) ) ;
#216 = EDGE_LOOP ( 'NONE', ( #545, #345, #753, #1014, #840, #1046, #949 ) ) ;
#217 = LINE ( 'NONE', #722, #378 ) ;
#218 = PLANE ( 'NONE',  #174 ) ;
#219 = PLANE ( 'NONE',  #1095 ) ;
#220 = CARTESIAN_POINT ( 'NONE',  ( -0.3606695828272709625, 13.27542196528328766, 12.61231932502290753 ) ) ;
#221 = FACE_OUTER_BOUND ( 'NONE', #354, .T. ) ;
#222 = CARTESIAN_POINT ( 'NONE',  ( -4.273212834368105284, 15.39041866306413375, 13.16794114459598575 ) ) ;
#223 = AXIS2_PLACEMENT_3D ( 'NONE', #1039, #108, #350 ) ;
#224 = CARTESIAN_POINT ( 'NONE',  ( -0.3606695828272709625, 12.38468377351861882, 4.787649330930684677 ) ) ;
#225 = CARTESIAN_POINT ( 'NONE',  ( -10.16066958282727306, 12.38468377351861882, 4.787649330930684677 ) ) ;
#226 = DIRECTION ( 'NONE',  ( 0.000000000000000000, 1.224646799147352221E-16, 1.000000000000000000 ) ) ;
#227 = EDGE_CURVE ( 'NONE', #563, #1021, #82, .T. ) ;
#228 = CARTESIAN_POINT ( 'NONE',  ( -0.3606695828272709625, 12.61157283269005980, 11.54813991532143547 ) ) ;
#229 = CARTESIAN_POINT ( 'NONE',  ( -5.260669582827273594, 15.32152175150287121, 6.846730434814731758 ) ) ;
#230 = DIRECTION ( 'NONE',  ( -0.000000000000000000, -1.000000000000000000, -3.796156675003491545E-16 ) ) ;
#231 = VERTEX_POINT ( 'NONE', #794 ) ;
#232 = ORIENTED_EDGE ( 'NONE', *, *, #580, .F. ) ;
#233 = DIRECTION ( 'NONE',  ( 1.000000000000000000, -3.851859888774471022E-33, 0.000000000000000000 ) ) ;
#234 = CARTESIAN_POINT ( 'NONE',  ( -10.16066958282727306, 8.236413572677125927, 20.32412042702928190 ) ) ;
#235 = ORIENTED_EDGE ( 'NONE', *, *, #938, .F. ) ;
#236 = VERTEX_POINT ( 'NONE', #974 ) ;
#237 = AXIS2_PLACEMENT_3D ( 'NONE', #14, #21, #91 ) ;
#238 = AXIS2_PLACEMENT_3D ( 'NONE', #384, #894, #971 ) ;
#239 = AXIS2_PLACEMENT_3D ( 'NONE', #340, #254, #589 ) ;
#240 = CARTESIAN_POINT ( 'NONE',  ( -10.16066958282727306, 12.58641359856245145, 11.12532380675255439 ) ) ;
#241 = ADVANCED_FACE ( 'NONE', ( #221 ), #606, .T. ) ;
#242 = VERTEX_POINT ( 'NONE', #1057 ) ;
#243 = EDGE_CURVE ( 'NONE', #1038, #605, #997, .T. ) ;
#244 = CARTESIAN_POINT ( 'NONE',  ( -10.16066958282727306, 13.56505561554090100, 12.75268551270437456 ) ) ;
#245 = ORIENTED_EDGE ( 'NONE', *, *, #132, .F. ) ;
#246 = ORIENTED_EDGE ( 'NONE', *, *, #630, .F. ) ;
#247 = ORIENTED_EDGE ( 'NONE', *, *, #243, .F. ) ;
#248 = CYLINDRICAL_SURFACE ( 'NONE', #123, 3.048335411930225280 ) ;
#249 = LINE ( 'NONE', #19, #977 ) ;
#250 = CARTESIAN_POINT ( 'NONE',  ( -4.944186982395888386, 12.58310406587977326, 4.895005336027866250 ) ) ;
#251 = ORIENTED_EDGE ( 'NONE', *, *, #927, .F. ) ;
#252 = ADVANCED_FACE ( 'NONE', ( #116 ), #136, .F. ) ;
#253 = LINE ( 'NONE', #928, #528 ) ;
#254 = DIRECTION ( 'NONE',  ( 0.000000000000000000, -1.000000000000000000, -3.796156675003491545E-16 ) ) ;
#255 = VECTOR ( 'NONE', #286, 1000.000000000000000 ) ;
#256 = CARTESIAN_POINT ( 'NONE',  ( -10.16066958282727306, 14.08641359856244790, 12.84827996344950662 ) ) ;
#257 = ORIENTED_EDGE ( 'NONE', *, *, #164, .T. ) ;
#258 = VECTOR ( 'NONE', #979, 1000.000000000000114 ) ;
#259 = AXIS2_PLACEMENT_3D ( 'NONE', #1025, #952, #282 ) ;
#260 = CARTESIAN_POINT ( 'NONE',  ( -0.3606695828272709625, 6.249442903976641261, 22.45488560701619463 ) ) ;
#261 = B_SPLINE_SURFACE_WITH_KNOTS ( 'NONE', 2, 1, ( 
 ( #351, #867 ),
 ( #1032, #173 ),
 ( #276, #689 ) ),
 .UNSPECIFIED., .F., .F., .F.,
 ( 3, 3 ),
 ( 2, 2 ),
 ( 0.4988120746294930075, 0.4994128454638019909 ),
 ( 0.000000000000000000, 1.000000000000000000 ),
 .UNSPECIFIED. ) ;
#262 = SHAPE_DEFINITION_REPRESENTATION ( #341, #40 ) ;
#263 = CARTESIAN_POINT ( 'NONE',  ( -5.260669582827272706, 16.58641359856245501, 12.34673043481471844 ) ) ;
#264 = PLANE ( 'NONE',  #60 ) ;
#265 = ORIENTED_EDGE ( 'NONE', *, *, #560, .T. ) ;
#266 = PLANE ( 'NONE',  #802 ) ;
#267 = ORIENTED_EDGE ( 'NONE', *, *, #114, .T. ) ;
#268 = PRODUCT_CONTEXT ( 'NONE', #672, 'mechanical' ) ;
#269 = DIRECTION ( 'NONE',  ( 0.000000000000000000, -1.000000000000000000, -3.796156675003491545E-16 ) ) ;
#270 = DIRECTION ( 'NONE',  ( 6.154529677866649676E-33, -0.9986295347545740553, -0.05233595624294019172 ) ) ;
#271 = CARTESIAN_POINT ( 'NONE',  ( -5.427602994223827970, 12.51492011959018669, 4.857773953208666562 ) ) ;
#272 = B_SPLINE_CURVE_WITH_KNOTS ( 'NONE', 2,
 ( #167, #318, #908 ),
 .UNSPECIFIED., .F., .F.,
 ( 3, 3 ),
 ( 0.000000000000000000, 1.000000000000000000 ),
 .UNSPECIFIED. ) ;
#273 = ORIENTED_EDGE ( 'NONE', *, *, #761, .T. ) ;
#274 = DIRECTION ( 'NONE',  ( 0.000000000000000000, -3.796156675003491545E-16, 1.000000000000000000 ) ) ;
#275 = ORIENTED_EDGE ( 'NONE', *, *, #994, .F. ) ;
#276 = CARTESIAN_POINT ( 'NONE',  ( -10.16066958282727306, 15.58641359848747321, 7.123477207835773761 ) ) ;
#277 = ADVANCED_FACE ( 'NONE', ( #628 ), #218, .T. ) ;
#278 = CARTESIAN_POINT ( 'NONE',  ( -10.16066958282727306, 15.58641359856245145, 7.561888653389548409 ) ) ;
#279 = CARTESIAN_POINT ( 'NONE',  ( -5.260669582827176782, 12.49449392049071861, 4.846730434814677579 ) ) ;
#280 = ORIENTED_EDGE ( 'NONE', *, *, #57, .T. ) ;
#281 = DIRECTION ( 'NONE',  ( 0.000000000000000000, 0.000000000000000000, 1.000000000000000000 ) ) ;
#282 = DIRECTION ( 'NONE',  ( 1.000000000000000000, 0.000000000000000000, 0.000000000000000000 ) ) ;
#283 = CARTESIAN_POINT ( 'NONE',  ( -5.260669582827272706, 16.78641359856245074, 13.34673043481472021 ) ) ;
#284 = LINE ( 'NONE', #854, #1041 ) ;
#285 = EDGE_CURVE ( 'NONE', #319, #651, #372, .T. ) ;
#286 = DIRECTION ( 'NONE',  ( -0.000000000000000000, 1.000000000000000000, 3.796156675003491545E-16 ) ) ;
#287 = ORIENTED_EDGE ( 'NONE', *, *, #556, .T. ) ;
#288 = DIRECTION ( 'NONE',  ( 1.000000000000000000, -3.851859888774471022E-33, 0.000000000000000000 ) ) ;
#289 = CARTESIAN_POINT ( 'NONE',  ( -7.710669582827271995, 13.19200889571384216, 5.218842068878222662 ) ) ;
#290 = CARTESIAN_POINT ( 'NONE',  ( -0.3606695828272717952, 12.58641359856245145, 11.12532380675255439 ) ) ;
#291 = ORIENTED_EDGE ( 'NONE', *, *, #705, .F. ) ;
#292 = EDGE_CURVE ( 'NONE', #574, #642, #468, .T. ) ;
#293 = EDGE_CURVE ( 'NONE', #775, #319, #522, .T. ) ;
#294 = LINE ( 'NONE', #352, #555 ) ;
#295 = DIRECTION ( 'NONE',  ( -6.069346371170949687E-33, 0.9848077530122086864, 0.1736481776669273336 ) ) ;
#296 = CARTESIAN_POINT ( 'NONE',  ( -0.3606695828272709070, 12.90580521550230486, 7.739116690631111517 ) ) ;
#297 = AXIS2_PLACEMENT_3D ( 'NONE', #503, #842, #488 ) ;
#298 = CARTESIAN_POINT ( 'NONE',  ( -0.3606695828272709625, 14.48892171653200123, 5.911523835228272183 ) ) ;
#299 = CARTESIAN_POINT ( 'NONE',  ( -5.260669582827272706, 16.58641359856245145, 5.846730434814721988 ) ) ;
#300 = CARTESIAN_POINT ( 'NONE',  ( -4.393751404683683859, 15.58641359856244968, 12.84827996344950840 ) ) ;
#301 = CARTESIAN_POINT ( 'NONE',  ( -4.277692916104002485, 13.85114119220187590, 5.662999999998910461 ) ) ;
#302 = CARTESIAN_POINT ( 'NONE',  ( -0.3606695828272717952, 12.58641359856245145, 7.123477207818216250 ) ) ;
#303 = CARTESIAN_POINT ( 'NONE',  ( -4.793209950783859696, 14.63029778333799946, 14.23547959490657533 ) ) ;
#304 = EDGE_LOOP ( 'NONE', ( #197, #917, #758, #22, #403, #751, #432, #439, #745, #647, #475, #926 ) ) ;
#305 = CARTESIAN_POINT ( 'NONE',  ( -0.3606695828272710180, 13.87109024055130924, 12.83577579262992430 ) ) ;
#306 = DIRECTION ( 'NONE',  ( 1.000000000000000000, -3.851859888774471022E-33, 0.000000000000000000 ) ) ;
#307 = ADVANCED_FACE ( 'NONE', ( #214 ), #1015, .T. ) ;
#308 = AXIS2_PLACEMENT_3D ( 'NONE', #437, #849, #778 ) ;
#309 = CARTESIAN_POINT ( 'NONE',  ( -4.448324402754329832, 14.84698207295067895, 13.95301470756471574 ) ) ;
#310 = VERTEX_POINT ( 'NONE', #961 ) ;
#311 = VECTOR ( 'NONE', #194, 1000.000000000000000 ) ;
#312 = CIRCLE ( 'NONE', #486, 1.548335411930225725 ) ;
#313 = DIRECTION ( 'NONE',  ( -0.000000000000000000, 1.000000000000000000, 3.796156675003491545E-16 ) ) ;
#314 = CARTESIAN_POINT ( 'NONE',  ( -10.16066958282727306, 12.58641359856244790, 11.33903055438888252 ) ) ;
#315 = ORIENTED_EDGE ( 'NONE', *, *, #832, .F. ) ;
#316 = ORIENTED_EDGE ( 'NONE', *, *, #472, .T. ) ;
#317 = CARTESIAN_POINT ( 'NONE',  ( -6.073620718650148298, 14.84778673400771076, 13.95191164659295602 ) ) ;
#318 = CARTESIAN_POINT ( 'NONE',  ( -10.16066958282727306, 14.48892171654617123, 5.911523835232625146 ) ) ;
#319 = VERTEX_POINT ( 'NONE', #498 ) ;
#320 = ORIENTED_EDGE ( 'NONE', *, *, #898, .F. ) ;
#321 = ORIENTED_EDGE ( 'NONE', *, *, #618, .F. ) ;
#322 = ADVANCED_FACE ( 'NONE', ( #920 ), #567, .T. ) ;
#323 = B_SPLINE_CURVE_WITH_KNOTS ( 'NONE', 2,
 ( #85, #776, #925 ),
 .UNSPECIFIED., .F., .F.,
 ( 3, 3 ),
 ( 0.5008207051229819351, 0.5020133117822229707 ),
 .UNSPECIFIED. ) ;
#324 = CARTESIAN_POINT ( 'NONE',  ( -5.260669582827272706, 16.58641359856245145, 6.846730434814721988 ) ) ;
#325 = DIRECTION ( 'NONE',  ( 0.000000000000000000, 3.796156675003491545E-16, -1.000000000000000000 ) ) ;
#326 = ORIENTED_EDGE ( 'NONE', *, *, #630, .T. ) ;
#327 = ORIENTED_EDGE ( 'NONE', *, *, #902, .F. ) ;
#328 = AXIS2_PLACEMENT_3D ( 'NONE', #921, #168, #337 ) ;
#329 = ORIENTED_EDGE ( 'NONE', *, *, #148, .T. ) ;
#330 = EDGE_CURVE ( 'NONE', #480, #852, #904, .T. ) ;
#331 = CARTESIAN_POINT ( 'NONE',  ( -10.16066958282727306, 14.08641359856244790, 12.84827996344950662 ) ) ;
#332 = CIRCLE ( 'NONE', #410, 1.000000000000000000 ) ;
#333 = ORIENTED_EDGE ( 'NONE', *, *, #657, .T. ) ;
#334 = ORIENTED_EDGE ( 'NONE', *, *, #658, .T. ) ;
#335 = EDGE_LOOP ( 'NONE', ( #1000, #887, #584, #831 ) ) ;
#336 = CARTESIAN_POINT ( 'NONE',  ( -0.3606695828272709625, 12.38468377351861882, 4.787649330930684677 ) ) ;
#337 = DIRECTION ( 'NONE',  ( 0.000000000000000000, -5.690723760868457777E-16, 1.000000000000000000 ) ) ;
#338 = VERTEX_POINT ( 'NONE', #145 ) ;
#339 = CARTESIAN_POINT ( 'NONE',  ( -0.3606695828272709625, 13.83641359856245323, 11.82300000000008566 ) ) ;
#340 = CARTESIAN_POINT ( 'NONE',  ( -5.260669582827272706, 16.78641359856245430, 5.846730434814721988 ) ) ;
#341 = PRODUCT_DEFINITION_SHAPE ( 'NONE', 'NONE',  #709 ) ;
#342 = CARTESIAN_POINT ( 'NONE',  ( -0.3606695828272717952, 14.08641359856245145, 7.123477207818217138 ) ) ;
#343 = ORIENTED_EDGE ( 'NONE', *, *, #212, .F. ) ;
#344 = ADVANCED_FACE ( 'NONE', ( #150 ), #595, .T. ) ;
#345 = ORIENTED_EDGE ( 'NONE', *, *, #113, .T. ) ;
#346 = CARTESIAN_POINT ( 'NONE',  ( -5.260669582827272706, 16.78641359856245074, 14.34673043481472021 ) ) ;
#347 = AXIS2_PLACEMENT_3D ( 'NONE', #451, #697, #599 ) ;
#348 = CARTESIAN_POINT ( 'NONE',  ( -0.3606695828272709625, 12.38468377352807614, 4.787649330932337577 ) ) ;
#349 = VERTEX_POINT ( 'NONE', #63 ) ;
#350 = DIRECTION ( 'NONE',  ( 0.000000000000000000, 0.000000000000000000, -1.000000000000000000 ) ) ;
#351 = CARTESIAN_POINT ( 'NONE',  ( -10.16066958282727306, 12.38468377400776710, 4.787649329981114477 ) ) ;
#352 = CARTESIAN_POINT ( 'NONE',  ( -10.16066958282727306, -8.154632547097497408, 21.70000000000009521 ) ) ;
#353 = CARTESIAN_POINT ( 'NONE',  ( -6.196330259238232330, 13.57606204964729635, 5.481336418994578352 ) ) ;
#354 = EDGE_LOOP ( 'NONE', ( #617, #16, #603, #209 ) ) ;
#355 = CARTESIAN_POINT ( 'NONE',  ( -10.16066958282727306, 12.58641359856245145, 12.84827996344950662 ) ) ;
#356 = EDGE_CURVE ( 'NONE', #457, #963, #915, .T. ) ;
#357 = CARTESIAN_POINT ( 'NONE',  ( -5.821432744003385729, 12.78727784352085983, 5.008240011692458360 ) ) ;
#358 = ORIENTED_EDGE ( 'NONE', *, *, #51, .F. ) ;
#359 = FACE_OUTER_BOUND ( 'NONE', #1087, .T. ) ;
#360 = ORIENTED_EDGE ( 'NONE', *, *, #668, .F. ) ;
#361 = FACE_OUTER_BOUND ( 'NONE', #27, .T. ) ;
#362 = CARTESIAN_POINT ( 'NONE',  ( -0.3606695828272709625, 13.78256232849278362, 15.90515774894058332 ) ) ;
#363 = CARTESIAN_POINT ( 'NONE',  ( -10.16066958282727306, 12.38468377352807614, 4.787649330932337577 ) ) ;
#364 = CIRCLE ( 'NONE', #1092, 1.000000000000000888 ) ;
#365 = CARTESIAN_POINT ( 'NONE',  ( -2.810669582827271640, 12.38468377351861882, 4.787649330930684677 ) ) ;
#366 = EDGE_CURVE ( 'NONE', #763, #480, #272, .T. ) ;
#367 = DIRECTION ( 'NONE',  ( 0.000000000000000000, -1.000000000000000000, -3.796156675003491545E-16 ) ) ;
#368 = CARTESIAN_POINT ( 'NONE',  ( -10.16066958282727484, 13.27542196528328944, 7.359437846244815340 ) ) ;
#369 = EDGE_CURVE ( 'NONE', #651, #423, #990, .T. ) ;
#370 = FACE_OUTER_BOUND ( 'NONE', #740, .T. ) ;
#371 = DIRECTION ( 'NONE',  ( 0.000000000000000000, -1.000000000000000000, -3.796156675003491545E-16 ) ) ;
#372 = LINE ( 'NONE', #804, #1090 ) ;
#373 = CARTESIAN_POINT ( 'NONE',  ( -5.059369220510266274, 15.32152175150286766, 6.846730434814725541 ) ) ;
#374 = ORIENTED_EDGE ( 'NONE', *, *, #788, .T. ) ;
#375 = DIRECTION ( 'NONE',  ( 0.000000000000000000, -0.7071067811865571207, -0.7071067811865379138 ) ) ;
#376 = DIRECTION ( 'NONE',  ( 0.000000000000000000, 0.000000000000000000, -1.000000000000000000 ) ) ;
#377 = CARTESIAN_POINT ( 'NONE',  ( -4.332580529626727461, 14.64552892243433746, 6.243753943591279665 ) ) ;
#378 = VECTOR ( 'NONE', #1079, 1000.000000000000114 ) ;
#379 = DIRECTION ( 'NONE',  ( 0.000000000000000000, 3.796156675003491545E-16, -1.000000000000000000 ) ) ;
#380 = CARTESIAN_POINT ( 'NONE',  ( -7.710669582827271995, 12.38468377351861882, 4.787649330930685565 ) ) ;
#381 = CARTESIAN_POINT ( 'NONE',  ( -10.16066958282727306, 13.83641359856245323, 11.82300000000008566 ) ) ;
#382 = EDGE_CURVE ( 'NONE', #102, #423, #720, .T. ) ;
#383 = LINE ( 'NONE', #726, #177 ) ;
#384 = CARTESIAN_POINT ( 'NONE',  ( -5.260669582827272706, 16.58641359856245145, 5.846730434814721988 ) ) ;
#385 = DIRECTION ( 'NONE',  ( 0.000000000000000000, 0.000000000000000000, -1.000000000000000000 ) ) ;
#386 = EDGE_CURVE ( 'NONE', #231, #1023, #558, .T. ) ;
#387 = CARTESIAN_POINT ( 'NONE',  ( -0.3606695828272709625, 12.84469797479848019, 12.14017246176484299 ) ) ;
#388 = CARTESIAN_POINT ( 'NONE',  ( -10.16066958282727306, 12.70659127543631328, 11.85679464488631929 ) ) ;
#389 = EDGE_LOOP ( 'NONE', ( #374, #688, #343, #390 ) ) ;
#390 = ORIENTED_EDGE ( 'NONE', *, *, #556, .F. ) ;
#391 = VERTEX_POINT ( 'NONE', #240 ) ;
#392 = CIRCLE ( 'NONE', #655, 3.048335411930226169 ) ;
#393 = CARTESIAN_POINT ( 'NONE',  ( -1.409004994757496965, 12.58641359856245145, 9.985878585633860993 ) ) ;
#394 = CARTESIAN_POINT ( 'NONE',  ( -6.266966207274257350, 14.17534243893133983, 5.886636876766198512 ) ) ;
#395 = ORIENTED_EDGE ( 'NONE', *, *, #243, .T. ) ;
#396 = VERTEX_POINT ( 'NONE', #1089 ) ;
#397 = EDGE_CURVE ( 'NONE', #107, #391, #461, .T. ) ;
#398 = EDGE_CURVE ( 'NONE', #129, #242, #427, .T. ) ;
#399 = ORIENTED_EDGE ( 'NONE', *, *, #870, .T. ) ;
#400 = DIRECTION ( 'NONE',  ( 0.000000000000000000, 0.000000000000000000, 1.000000000000000000 ) ) ;
#401 = CARTESIAN_POINT ( 'NONE',  ( -10.16066958282727128, 13.10802269011466770, 12.47819006586450463 ) ) ;
#402 = ORIENTED_EDGE ( 'NONE', *, *, #293, .T. ) ;
#403 = ORIENTED_EDGE ( 'NONE', *, *, #975, .T. ) ;
#404 = ORIENTED_EDGE ( 'NONE', *, *, #1076, .T. ) ;
#405 = CARTESIAN_POINT ( 'NONE',  ( -10.16066958282727306, 13.83641359856245323, 11.82300000000008566 ) ) ;
#406 = ORIENTED_EDGE ( 'NONE', *, *, #788, .F. ) ;
#407 = ORIENTED_EDGE ( 'NONE', *, *, #356, .F. ) ;
#408 = AXIS2_PLACEMENT_3D ( 'NONE', #855, #182, #99 ) ;
#409 = AXIS2_PLACEMENT_3D ( 'NONE', #50, #808, #385 ) ;
#410 = AXIS2_PLACEMENT_3D ( 'NONE', #115, #861, #109 ) ;
#411 = DIRECTION ( 'NONE',  ( 0.000000000000000000, -1.000000000000000000, -3.796156675003491545E-16 ) ) ;
#412 =( GEOMETRIC_REPRESENTATION_CONTEXT ( 3 ) GLOBAL_UNCERTAINTY_ASSIGNED_CONTEXT ( ( #687 ) ) GLOBAL_UNIT_ASSIGNED_CONTEXT ( ( #493, #748, #1001 ) ) REPRESENTATION_CONTEXT ( 'NONE', 'WORKASPACE' ) );
#413 = EDGE_LOOP ( 'NONE', ( #922, #395, #59, #1082, #491 ) ) ;
#414 = ORIENTED_EDGE ( 'NONE', *, *, #148, .F. ) ;
#415 = DIRECTION ( 'NONE',  ( -0.000000000000000000, 3.030189073798952279E-16, -1.000000000000000000 ) ) ;
#416 = PLANE ( 'NONE',  #524 ) ;
#417 = EDGE_CURVE ( 'NONE', #176, #425, #89, .T. ) ;
#418 = MANIFOLD_SOLID_BREP ( 'Redondeo1', #698 ) ;
#419 = CARTESIAN_POINT ( 'NONE',  ( -10.16066958282727306, 5.016280214225668388, 6.149086331561847807 ) ) ;
#420 = ORIENTED_EDGE ( 'NONE', *, *, #988, .T. ) ;
#421 = CARTESIAN_POINT ( 'NONE',  ( -7.710669582827271995, 13.85114119571043467, 5.663000002852163206 ) ) ;
#422 = FACE_OUTER_BOUND ( 'NONE', #500, .T. ) ;
#423 = VERTEX_POINT ( 'NONE', #435 ) ;
#424 = DIRECTION ( 'NONE',  ( 0.000000000000000000, 0.000000000000000000, -1.000000000000000000 ) ) ;
#425 = VERTEX_POINT ( 'NONE', #523 ) ;
#426 = TOROIDAL_SURFACE ( 'NONE', #308, 1.548335411930226169, 1.500000000000000000 ) ;
#427 = LINE ( 'NONE', #263, #699 ) ;
#428 = MECHANICAL_DESIGN_GEOMETRIC_PRESENTATION_REPRESENTATION (  '', ( #678 ), #622 ) ;
#429 = CARTESIAN_POINT ( 'NONE',  ( -10.16066958282727306, -54.65284534425819629, -30.62510111476089847 ) ) ;
#430 = VECTOR ( 'NONE', #765, 1000.000000000000000 ) ;
#431 = CARTESIAN_POINT ( 'NONE',  ( -2.810669582827271196, 13.85114119220187590, 5.663000000000085521 ) ) ;
#432 = ORIENTED_EDGE ( 'NONE', *, *, #434, .T. ) ;
#433 = EDGE_CURVE ( 'NONE', #563, #391, #693, .T. ) ;
#434 = EDGE_CURVE ( 'NONE', #163, #1023, #323, .T. ) ;
#435 = CARTESIAN_POINT ( 'NONE',  ( -0.3606695828272709625, 12.38468377351861882, 4.787649330930684677 ) ) ;
#436 = DIRECTION ( 'NONE',  ( 1.000000000000000000, -3.851859888774471022E-33, 0.000000000000000000 ) ) ;
#437 = CARTESIAN_POINT ( 'NONE',  ( -9.112334170897048224, 14.08641359856244968, 9.985878585633860993 ) ) ;
#438 = B_SPLINE_CURVE_WITH_KNOTS ( 'NONE', 3,
 ( #890, #713, #138, #812, #1058, #1053, #629, #296, #710, #896, #142, #982, #1049, #972 ),
 .UNSPECIFIED., .F., .F.,
 ( 4, 2, 2, 2, 2, 2, 4 ),
 ( 0.000000000000000000, 0.0003174188710944321847, 0.0006348377421888643695, 0.001269675484377723968, 0.001587094355472154581, 0.001904513226566584977, 0.002539350968755444034 ),
 .UNSPECIFIED. ) ;
#439 = ORIENTED_EDGE ( 'NONE', *, *, #78, .T. ) ;
#440 = DIRECTION ( 'NONE',  ( 0.000000000000000000, 1.000000000000000000, 3.796156675003491545E-16 ) ) ;
#441 = ADVANCED_FACE ( 'NONE', ( #772 ), #261, .T. ) ;
#442 =( BOUNDED_CURVE ( )  B_SPLINE_CURVE ( 2, ( #126, #1062, #727 ),
 .UNSPECIFIED., .F., .F. ) 
 B_SPLINE_CURVE_WITH_KNOTS ( ( 3, 3 ),
 ( 0.000000000000000000, 1.000000000000000000 ),
 .UNSPECIFIED. ) 
 CURVE ( )  GEOMETRIC_REPRESENTATION_ITEM ( )  RATIONAL_B_SPLINE_CURVE ( ( 1.000000000000000000, 3.231801218513670193, 1.000000000000000000 ) ) 
 REPRESENTATION_ITEM ( '' )  );
#443 = CARTESIAN_POINT ( 'NONE',  ( -10.16066958282727306, 12.38468377351861882, 4.787649330930684677 ) ) ;
#444 = DIRECTION ( 'NONE',  ( 1.000000000000000000, -3.851859888774471022E-33, 0.000000000000000000 ) ) ;
#445 = CARTESIAN_POINT ( 'NONE',  ( -6.111075431723195450, 13.30560658395993023, 5.312143135730092780 ) ) ;
#446 = LINE ( 'NONE', #355, #255 ) ;
#447 = ORIENTED_EDGE ( 'NONE', *, *, #382, .F. ) ;
#448 = CIRCLE ( 'NONE', #117, 0.8000000000000029310 ) ;
#449 = DIRECTION ( 'NONE',  ( 8.659560562354815762E-17, -0.7071067811865571207, 0.7071067811865379138 ) ) ;
#450 = CARTESIAN_POINT ( 'NONE',  ( -10.16066958282727306, -8.154632547097497408, 21.70000000000009521 ) ) ;
#451 = CARTESIAN_POINT ( 'NONE',  ( -5.260669582827272706, 16.78641359856245430, 5.846730434814721988 ) ) ;
#452 = EDGE_LOOP ( 'NONE', ( #591, #492 ) ) ;
#453 = EDGE_CURVE ( 'NONE', #736, #763, #813, .T. ) ;
#454 = LINE ( 'NONE', #939, #895 ) ;
#455 = CARTESIAN_POINT ( 'NONE',  ( -10.16066958282727128, 12.61157283269005980, 8.423617255946286519 ) ) ;
#456 = CARTESIAN_POINT ( 'NONE',  ( -4.349611894627272157, 15.54111275831434646, 12.92504856101374244 ) ) ;
#457 = VERTEX_POINT ( 'NONE', #8 ) ;
#458 = CARTESIAN_POINT ( 'NONE',  ( -0.3606695828272710735, 13.97879366123716416, 12.84827996344951195 ) ) ;
#459 = CARTESIAN_POINT ( 'NONE',  ( -5.260669582827272706, 16.58641359856245501, 14.34673043481472021 ) ) ;
#460 = DIRECTION ( 'NONE',  ( 1.344279714867372601E-34, 0.03489949670248976982, 0.9993908270190960952 ) ) ;
#461 = B_SPLINE_CURVE_WITH_KNOTS ( 'NONE', 3,
 ( #331, #822, #1002, #731, #244, #1086, #401, #577, #835, #985, #388, #1073, #314, #641 ),
 .UNSPECIFIED., .F., .F.,
 ( 4, 2, 2, 2, 2, 2, 4 ),
 ( 0.000000000000000000, 0.0003174188710944280106, 0.0006348377421888560211, 0.001269675484377718764, 0.001587094355472150895, 0.001904513226566582592, 0.002539350968755442733 ),
 .UNSPECIFIED. ) ;
#462 = CARTESIAN_POINT ( 'NONE',  ( -6.127587760970861552, 15.58641359856267528, 12.84827996344950840 ) ) ;
#463 = DIRECTION ( 'NONE',  ( 1.000000000000000000, -3.851859888774471022E-33, 0.000000000000000000 ) ) ;
#464 = VECTOR ( 'NONE', #269, 1000.000000000000000 ) ;
#465 = DIRECTION ( 'NONE',  ( -1.000000000000000000, 3.851859888774471022E-33, 0.000000000000000000 ) ) ;
#466 = ADVANCED_FACE ( 'NONE', ( #361 ), #416, .T. ) ;
#467 = DIRECTION ( 'NONE',  ( 4.203139403740315418E-33, -0.6819983600632745224, 0.7313537016184468165 ) ) ;
#468 = LINE ( 'NONE', #1052, #964 ) ;
#469 = CARTESIAN_POINT ( 'NONE',  ( -10.16066958282727306, -3.713903515092183749, 17.38764933056156536 ) ) ;
#470 = CARTESIAN_POINT ( 'NONE',  ( -0.3606695828272709625, 15.58641359847121421, 7.123477207818217138 ) ) ;
#471 = CARTESIAN_POINT ( 'NONE',  ( -10.16066958282727306, 13.83641359856245323, 7.623000000000087262 ) ) ;
#472 = EDGE_CURVE ( 'NONE', #911, #1075, #587, .T. ) ;
#473 = CARTESIAN_POINT ( 'NONE',  ( -10.16066958282727306, 13.83641359856245323, 7.623000000000087262 ) ) ;
#474 = ORIENTED_EDGE ( 'NONE', *, *, #668, .T. ) ;
#475 = ORIENTED_EDGE ( 'NONE', *, *, #139, .T. ) ;
#476 = CARTESIAN_POINT ( 'NONE',  ( -5.651669758081390604, 14.59183958759707700, 14.28517719328599433 ) ) ;
#477 = CARTESIAN_POINT ( 'NONE',  ( -6.189285458994721267, 14.64440654370630668, 6.242823283440017690 ) ) ;
#478 = EDGE_CURVE ( 'NONE', #165, #349, #249, .T. ) ;
#479 = ORIENTED_EDGE ( 'NONE', *, *, #761, .F. ) ;
#480 = VERTEX_POINT ( 'NONE', #583 ) ;
#481 = ADVANCED_FACE ( 'NONE', ( #504 ), #843, .T. ) ;
#482 = COLOUR_RGB ( '',0.7921568627450980005, 0.8196078431372548767, 0.9333333333333333481 ) ;
#483 = UNCERTAINTY_MEASURE_WITH_UNIT (LENGTH_MEASURE( 1.000000000000000082E-05 ), #760, 'distance_accuracy_value', 'NONE');
#484 = B_SPLINE_CURVE_WITH_KNOTS ( 'NONE', 3,
 ( #631, #130, #228, #883, #49, #387, #899, #62, #220, #737, #810, #305, #458, #550 ),
 .UNSPECIFIED., .F., .F.,
 ( 4, 2, 2, 2, 2, 2, 4 ),
 ( 0.000000000000000000, 0.0006310143571059565132, 0.0009465215356589348240, 0.001262028714211913026, 0.001893043071317869648, 0.002208550249870846766, 0.002524057428423823884 ),
 .UNSPECIFIED. ) ;
#485 = VECTOR ( 'NONE', #15, 1000.000000000000000 ) ;
#486 = AXIS2_PLACEMENT_3D ( 'NONE', #903, #670, #400 ) ;
#487 = AXIS2_PLACEMENT_3D ( 'NONE', #1, #411, #913 ) ;
#488 = DIRECTION ( 'NONE',  ( 0.000000000000000000, 1.224646799147352221E-16, 1.000000000000000000 ) ) ;
#489 = CARTESIAN_POINT ( 'NONE',  ( -0.3606695828272709625, -3.713903515092183749, 17.38764933056156536 ) ) ;
#490 = CARTESIAN_POINT ( 'NONE',  ( -5.260669582827176782, 12.49449392049071861, 4.846730434814677579 ) ) ;
#491 = ORIENTED_EDGE ( 'NONE', *, *, #356, .T. ) ;
#492 = ORIENTED_EDGE ( 'NONE', *, *, #124, .T. ) ;
#493 =( LENGTH_UNIT ( ) NAMED_UNIT ( * ) SI_UNIT ( .MILLI., .METRE. ) );
#494 = CARTESIAN_POINT ( 'NONE',  ( -6.243646249550743654, 13.85114119220116180, 5.663000000000024237 ) ) ;
#495 = ORIENTED_EDGE ( 'NONE', *, *, #366, .T. ) ;
#496 = VERTEX_POINT ( 'NONE', #596 ) ;
#497 = CYLINDRICAL_SURFACE ( 'NONE', #912, 69.99999999999998579 ) ;
#498 = CARTESIAN_POINT ( 'NONE',  ( -7.710669582827271995, 12.38468377351861882, 4.787649330930685565 ) ) ;
#499 = CARTESIAN_POINT ( 'NONE',  ( -5.177247887395597381, 12.49449392049073104, 4.846730434814686461 ) ) ;
#500 = EDGE_LOOP ( 'NONE', ( #1007, #513, #993, #170, #1069, #316, #158 ) ) ;
#501 = EDGE_CURVE ( 'NONE', #1038, #963, #185, .T. ) ;
#502 = ADVANCED_FACE ( 'NONE', ( #200 ), #700, .F. ) ;
#503 = CARTESIAN_POINT ( 'NONE',  ( -0.3606695828272709625, 14.20859554158698401, 9.723000000000086018 ) ) ;
#504 = FACE_OUTER_BOUND ( 'NONE', #413, .T. ) ;
#505 = ORIENTED_EDGE ( 'NONE', *, *, #398, .F. ) ;
#506 = ORIENTED_EDGE ( 'NONE', *, *, #866, .F. ) ;
#507 = ORIENTED_EDGE ( 'NONE', *, *, #781, .T. ) ;
#508 = PRODUCT_RELATED_PRODUCT_CATEGORY ( 'part', '', ( #515 ) ) ;
#509 = CARTESIAN_POINT ( 'NONE',  ( -7.710669582827271995, 12.38468377351861882, 4.787649330930684677 ) ) ;
#510 = CARTESIAN_POINT ( 'NONE',  ( -10.16066958282727306, -3.713903515092183749, 17.38764933056156536 ) ) ;
#511 = CARTESIAN_POINT ( 'NONE',  ( -4.612274917829319421, 12.91048686445612326, 5.078133337999169328 ) ) ;
#512 = ORIENTED_EDGE ( 'NONE', *, *, #227, .T. ) ;
#513 = ORIENTED_EDGE ( 'NONE', *, *, #870, .F. ) ;
#514 = CARTESIAN_POINT ( 'NONE',  ( -5.260669582827272706, 16.78641359856245430, 6.846730434814721988 ) ) ;
#515 = PRODUCT ( 'LENTE L8 DOT DESARROLLO PROPIO', 'LENTE L8 DOT DESARROLLO PROPIO', '', ( #268 ) ) ;
#516 = ADVANCED_FACE ( 'NONE', ( #1042 ), #266, .F. ) ;
#517 = LINE ( 'NONE', #278, #64 ) ;
#518 = DIRECTION ( 'NONE',  ( 1.000000000000000000, -3.851859888774471022E-33, 0.000000000000000000 ) ) ;
#519 = ADVANCED_FACE ( 'NONE', ( #956 ), #552, .T. ) ;
#520 = PLANE ( 'NONE',  #570 ) ;
#521 = ORIENTED_EDGE ( 'NONE', *, *, #132, .T. ) ;
#522 = B_SPLINE_CURVE_WITH_KNOTS ( 'NONE', 2,
 ( #1048, #289, #380 ),
 .UNSPECIFIED., .F., .F.,
 ( 3, 3 ),
 ( 0.5009574298656419566, 0.5011879253705069370 ),
 .UNSPECIFIED. ) ;
#523 = CARTESIAN_POINT ( 'NONE',  ( -5.260669582798851884, 14.54265395561298568, 14.34673043481500976 ) ) ;
#524 = AXIS2_PLACEMENT_3D ( 'NONE', #1006, #848, #1018 ) ;
#525 = CARTESIAN_POINT ( 'NONE',  ( -10.16066958282727306, 13.78256232849278362, 15.90515774894058332 ) ) ;
#526 = CARTESIAN_POINT ( 'NONE',  ( -0.3606695828272709625, 5.016280214225668388, 6.149086331561847807 ) ) ;
#527 = ORIENTED_EDGE ( 'NONE', *, *, #580, .T. ) ;
#528 = VECTOR ( 'NONE', #1085, 1000.000000000000114 ) ;
#529 = CARTESIAN_POINT ( 'NONE',  ( -10.16066958282727306, 13.83641359856245323, 11.82300000000008566 ) ) ;
#530 = DIRECTION ( 'NONE',  ( 0.000000000000000000, -1.000000000000000000, -3.796156675003491545E-16 ) ) ;
#531 = DIRECTION ( 'NONE',  ( 0.000000000000000000, 1.000000000000000000, -9.912705577010328015E-17 ) ) ;
#532 = ORIENTED_EDGE ( 'NONE', *, *, #124, .F. ) ;
#533 = CARTESIAN_POINT ( 'NONE',  ( -10.16066958282727306, 12.58641359856245145, 7.123477207818216250 ) ) ;
#534 = LINE ( 'NONE', #98, #639 ) ;
#535 = LINE ( 'NONE', #547, #715 ) ;
#536 = CARTESIAN_POINT ( 'NONE',  ( -10.16066958282727306, 13.85114119220187590, 5.662999999998910461 ) ) ;
#537 = ADVANCED_FACE ( 'NONE', ( #706 ), #93, .F. ) ;
#538 = DIRECTION ( 'NONE',  ( 0.000000000000000000, 0.000000000000000000, -1.000000000000000000 ) ) ;
#539 = CARTESIAN_POINT ( 'NONE',  ( -5.260669582827272706, 16.78641359856245074, 12.34673043481471844 ) ) ;
#540 = CARTESIAN_POINT ( 'NONE',  ( -4.277692916104002485, 13.85114119220187590, 5.662999999998910461 ) ) ;
#541 = AXIS2_PLACEMENT_3D ( 'NONE', #724, #1063, #728 ) ;
#542 = CARTESIAN_POINT ( 'NONE',  ( -0.3606695828272717952, 12.58641359856245145, 12.84827996344950662 ) ) ;
#543 = CARTESIAN_POINT ( 'NONE',  ( -5.260669582827272706, 16.78641359856245430, 5.846730434814721988 ) ) ;
#544 = CARTESIAN_POINT ( 'NONE',  ( -5.260669582798851884, 14.54265395561298568, 14.34673043481500976 ) ) ;
#545 = ORIENTED_EDGE ( 'NONE', *, *, #657, .F. ) ;
#546 = CARTESIAN_POINT ( 'NONE',  ( -6.247735969627490782, 15.39171775168968281, 13.16590207865433904 ) ) ;
#547 = CARTESIAN_POINT ( 'NONE',  ( -10.16066958282727306, 15.58641359856245145, 12.13157221623989201 ) ) ;
#548 = ADVANCED_FACE ( 'NONE', ( #612 ), #120, .T. ) ;
#549 = LINE ( 'NONE', #805, #34 ) ;
#550 = CARTESIAN_POINT ( 'NONE',  ( -0.3606695828272717952, 14.08641359856244968, 12.84827996344950662 ) ) ;
#551 = CARTESIAN_POINT ( 'NONE',  ( -10.16066958282727306, 14.08641359856244968, 7.123477207818217138 ) ) ;
#552 = CONICAL_SURFACE ( 'NONE', #223, 1.000000000000000888, 0.7853981633974460586 ) ;
#553 = CARTESIAN_POINT ( 'NONE',  ( -4.577637175460377073, 15.05941351747024903, 6.597164284793917588 ) ) ;
#554 =( BOUNDED_CURVE ( )  B_SPLINE_CURVE ( 2, ( #869, #770, #529 ),
 .UNSPECIFIED., .F., .F. ) 
 B_SPLINE_CURVE_WITH_KNOTS ( ( 3, 3 ),
 ( 0.000000000000000000, 1.000000000000000000 ),
 .UNSPECIFIED. ) 
 CURVE ( )  GEOMETRIC_REPRESENTATION_ITEM ( )  RATIONAL_B_SPLINE_CURVE ( ( 1.000000000000000000, 3.231801218513670193, 1.000000000000000000 ) ) 
 REPRESENTATION_ITEM ( '' )  );
#555 = VECTOR ( 'NONE', #270, 1000.000000000000114 ) ;
#556 = EDGE_CURVE ( 'NONE', #188, #192, #39, .T. ) ;
#557 = LINE ( 'NONE', #44, #211 ) ;
#558 = LINE ( 'NONE', #656, #891 ) ;
#559 = FACE_OUTER_BOUND ( 'NONE', #666, .T. ) ;
#560 = EDGE_CURVE ( 'NONE', #92, #852, #676, .T. ) ;
#561 = CARTESIAN_POINT ( 'NONE',  ( -10.16066958282727306, -7.804632547097497763, 21.38686825491327426 ) ) ;
#562 = CARTESIAN_POINT ( 'NONE',  ( -10.16066958282727306, 8.236413598564681138, 20.32412040640850748 ) ) ;
#563 = VERTEX_POINT ( 'NONE', #1045 ) ;
#564 = VERTEX_POINT ( 'NONE', #851 ) ;
#565 = EDGE_LOOP ( 'NONE', ( #414, #152, #320, #287 ) ) ;
#566 = CARTESIAN_POINT ( 'NONE',  ( -0.3606695828272709625, 8.236413572677125927, 20.32412042702928190 ) ) ;
#567 = PLANE ( 'NONE',  #1040 ) ;
#568 = CIRCLE ( 'NONE', #96, 69.99999999999998579 ) ;
#569 = CARTESIAN_POINT ( 'NONE',  ( -1.409004994757496965, 14.08641359856244968, 9.985878585633860993 ) ) ;
#570 = AXIS2_PLACEMENT_3D ( 'NONE', #184, #187, #111 ) ;
#571 = VECTOR ( 'NONE', #73, 999.9999999999998863 ) ;
#572 = CARTESIAN_POINT ( 'NONE',  ( -4.393751404683683859, 15.58641359856244968, 12.84827996344950840 ) ) ;
#573 = CARTESIAN_POINT ( 'NONE',  ( -10.16066958282727484, 14.32375792870796261, 9.723000000000077137 ) ) ;
#574 = VERTEX_POINT ( 'NONE', #23 ) ;
#575 = ORIENTED_EDGE ( 'NONE', *, *, #702, .F. ) ;
#576 = FACE_OUTER_BOUND ( 'NONE', #5, .T. ) ;
#577 = CARTESIAN_POINT ( 'NONE',  ( -10.16066958282727484, 12.90580521550230664, 12.23264048063660958 ) ) ;
#578 = ORIENTED_EDGE ( 'NONE', *, *, #3, .T. ) ;
#579 = ORIENTED_EDGE ( 'NONE', *, *, #369, .F. ) ;
#580 = EDGE_CURVE ( 'NONE', #957, #983, #679, .T. ) ;
#581 = ORIENTED_EDGE ( 'NONE', *, *, #825, .F. ) ;
#582 = DIRECTION ( 'NONE',  ( 1.000000000000000000, -3.851859888774471022E-33, 0.000000000000000000 ) ) ;
#583 = CARTESIAN_POINT ( 'NONE',  ( -10.16066958282727306, 15.58641359856245145, 7.123477207818217138 ) ) ;
#584 = ORIENTED_EDGE ( 'NONE', *, *, #227, .F. ) ;
#585 = ORIENTED_EDGE ( 'NONE', *, *, #417, .T. ) ;
#586 = EDGE_CURVE ( 'NONE', #165, #496, #554, .T. ) ;
#587 = CIRCLE ( 'NONE', #154, 1.000000000000000888 ) ;
#588 = CARTESIAN_POINT ( 'NONE',  ( -10.16066958282727306, -54.65284534425819629, -30.62510111476089847 ) ) ;
#589 = DIRECTION ( 'NONE',  ( 0.000000000000000000, 0.000000000000000000, -1.000000000000000000 ) ) ;
#590 = CARTESIAN_POINT ( 'NONE',  ( -5.909667356434195717, 12.91133145905824975, 5.078614668743906435 ) ) ;
#591 = ORIENTED_EDGE ( 'NONE', *, *, #866, .T. ) ;
#592 = LINE ( 'NONE', #692, #876 ) ;
#593 = ORIENTED_EDGE ( 'NONE', *, *, #586, .T. ) ;
#594 = ADVANCED_FACE ( 'NONE', ( #359 ), #520, .F. ) ;
#595 =( BOUNDED_SURFACE ( )  B_SPLINE_SURFACE ( 2, 1, ( 
 ( #471, #650 ),
 ( #573, #743 ),
 ( #405, #56 ) ),
 .UNSPECIFIED., .F., .F., .T. ) 
 B_SPLINE_SURFACE_WITH_KNOTS ( ( 3, 3 ),
 ( 2, 2 ),
 ( 0.000000000000000000, 1.000000000000000000 ),
 ( 0.000000000000000000, 1.000000000000000000 ),
 .UNSPECIFIED. ) 
 GEOMETRIC_REPRESENTATION_ITEM ( )  RATIONAL_B_SPLINE_SURFACE ( (
 ( 1.000000000000000000, 1.000000000000000000),
 ( 3.231801218513670193, 3.231801218513670193),
 ( 1.000000000000000000, 1.000000000000000000) ) ) 
 REPRESENTATION_ITEM ( '' )  SURFACE ( )  );
#596 = CARTESIAN_POINT ( 'NONE',  ( -10.16066958282727306, 13.83641359856245323, 11.82300000000008566 ) ) ;
#597 = DIRECTION ( 'NONE',  ( -1.000000000000000000, 3.851859888774471022E-33, 0.000000000000000000 ) ) ;
#598 = EDGE_LOOP ( 'NONE', ( #532, #659, #933, #505 ) ) ;
#599 = DIRECTION ( 'NONE',  ( 0.000000000000000000, 0.000000000000000000, -1.000000000000000000 ) ) ;
#600 = EDGE_CURVE ( 'NONE', #236, #910, #616, .T. ) ;
#601 = FACE_OUTER_BOUND ( 'NONE', #814, .T. ) ;
#602 = DIRECTION ( 'NONE',  ( -1.000000000000000000, 3.851859888774471022E-33, 0.000000000000000000 ) ) ;
#603 = ORIENTED_EDGE ( 'NONE', *, *, #781, .F. ) ;
#604 = FACE_OUTER_BOUND ( 'NONE', #725, .T. ) ;
#605 = VERTEX_POINT ( 'NONE', #198 ) ;
#606 = CONICAL_SURFACE ( 'NONE', #238, 1.000000000000000000, 0.7853981633974347343 ) ;
#607 = AXIS2_PLACEMENT_3D ( 'NONE', #302, #623, #632 ) ;
#608 = SURFACE_STYLE_FILL_AREA ( #1012 ) ;
#609 = LINE ( 'NONE', #789, #35 ) ;
#610 = LINE ( 'NONE', #1028, #941 ) ;
#611 = EDGE_LOOP ( 'NONE', ( #479, #315, #874, #696 ) ) ;
#612 = FACE_OUTER_BOUND ( 'NONE', #1064, .T. ) ;
#613 = DIRECTION ( 'NONE',  ( 0.000000000000000000, -1.000000000000000000, -3.796156675003491545E-16 ) ) ;
#614 = CARTESIAN_POINT ( 'NONE',  ( -0.3606695828272709625, 8.236413572681774653, 20.32412042703467137 ) ) ;
#615 = FACE_OUTER_BOUND ( 'NONE', #335, .T. ) ;
#616 = LINE ( 'NONE', #536, #311 ) ;
#617 = ORIENTED_EDGE ( 'NONE', *, *, #164, .F. ) ;
#618 = EDGE_CURVE ( 'NONE', #107, #845, #446, .T. ) ;
#619 = EDGE_CURVE ( 'NONE', #605, #820, #785, .T. ) ;
#620 = CARTESIAN_POINT ( 'NONE',  ( -5.260669582827272706, 16.78641359856245074, 13.34673043481472021 ) ) ;
#621 = CARTESIAN_POINT ( 'NONE',  ( -4.257167878702602160, 14.01410127389658200, 5.772811054817138299 ) ) ;
#622 =( GEOMETRIC_REPRESENTATION_CONTEXT ( 3 ) GLOBAL_UNCERTAINTY_ASSIGNED_CONTEXT ( ( #483 ) ) GLOBAL_UNIT_ASSIGNED_CONTEXT ( ( #760, #95, #937 ) ) REPRESENTATION_CONTEXT ( 'NONE', 'WORKASPACE' ) );
#623 = DIRECTION ( 'NONE',  ( 1.000000000000000000, 0.000000000000000000, 0.000000000000000000 ) ) ;
#624 = CYLINDRICAL_SURFACE ( 'NONE', #541, 1.000000000000000000 ) ;
#625 = PRODUCT_DEFINITION_FORMATION_WITH_SPECIFIED_SOURCE ( 'ANY', '', #515, .NOT_KNOWN. ) ;
#626 = EDGE_CURVE ( 'NONE', #651, #236, #178, .T. ) ;
#627 = CARTESIAN_POINT ( 'NONE',  ( -10.16066958282727306, 8.236413598564681138, 20.32412040640850748 ) ) ;
#628 = FACE_OUTER_BOUND ( 'NONE', #611, .T. ) ;
#629 = CARTESIAN_POINT ( 'NONE',  ( -0.3606695828272710735, 13.10802269011467303, 7.493567105403214690 ) ) ;
#630 = EDGE_CURVE ( 'NONE', #1021, #480, #864, .T. ) ;
#631 = CARTESIAN_POINT ( 'NONE',  ( -0.3606695828272717952, 12.58641359856245145, 11.12532380675255439 ) ) ;
#632 = DIRECTION ( 'NONE',  ( 0.000000000000000000, 0.000000000000000000, -1.000000000000000000 ) ) ;
#633 = CARTESIAN_POINT ( 'NONE',  ( -4.562644022990715698, 14.74607623019180203, 14.08587495818708568 ) ) ;
#634 = ORIENTED_EDGE ( 'NONE', *, *, #991, .F. ) ;
#635 = CARTESIAN_POINT ( 'NONE',  ( -5.260669582827272706, 16.58641359856245501, 14.34673043481472021 ) ) ;
#636 = DIRECTION ( 'NONE',  ( -2.015907705928371127E-34, -0.05233595624294017090, 0.9986295347545741663 ) ) ;
#637 = CARTESIAN_POINT ( 'NONE',  ( -4.296134475830020172, 15.06100129949382982, 13.65843115400144292 ) ) ;
#638 = ORIENTED_EDGE ( 'NONE', *, *, #139, .F. ) ;
#639 = VECTOR ( 'NONE', #1035, 1000.000000000000114 ) ;
#640 = LINE ( 'NONE', #635, #258 ) ;
#641 = CARTESIAN_POINT ( 'NONE',  ( -10.16066958282727306, 12.58641359856245145, 11.12532380675255439 ) ) ;
#642 = VERTEX_POINT ( 'NONE', #260 ) ;
#643 = EDGE_LOOP ( 'NONE', ( #334, #585, #94, #235, #739 ) ) ;
#644 = FACE_OUTER_BOUND ( 'NONE', #684, .T. ) ;
#645 = CARTESIAN_POINT ( 'NONE',  ( -5.726137787510046095, 15.20779319169235677, 6.735947298364506786 ) ) ;
#646 = ORIENTED_EDGE ( 'NONE', *, *, #865, .F. ) ;
#647 = ORIENTED_EDGE ( 'NONE', *, *, #677, .F. ) ;
#648 = B_SPLINE_CURVE_WITH_KNOTS ( 'NONE', 2,
 ( #992, #998, #234 ),
 .UNSPECIFIED., .F., .F.,
 ( 3, 3 ),
 ( 0.000000000000000000, 1.000000000000000000 ),
 .UNSPECIFIED. ) ;
#649 = CARTESIAN_POINT ( 'NONE',  ( -0.3606695828272717952, 12.58641359856245145, 8.846433364515167597 ) ) ;
#650 = CARTESIAN_POINT ( 'NONE',  ( -0.3606695828272709625, 13.83641359856245323, 7.623000000000087262 ) ) ;
#651 = VERTEX_POINT ( 'NONE', #365 ) ;
#652 = VECTOR ( 'NONE', #853, 1000.000000000000000 ) ;
#653 = PRODUCT_DEFINITION_CONTEXT ( 'detailed design', #734, 'design' ) ;
#654 = ORIENTED_EDGE ( 'NONE', *, *, #433, .F. ) ;
#655 = AXIS2_PLACEMENT_3D ( 'NONE', #711, #530, #947 ) ;
#656 = CARTESIAN_POINT ( 'NONE',  ( -10.16066958282727306, 8.236413572677125927, 20.32412042702928190 ) ) ;
#657 = EDGE_CURVE ( 'NONE', #457, #775, #592, .T. ) ;
#658 = EDGE_CURVE ( 'NONE', #242, #176, #364, .T. ) ;
#659 = ORIENTED_EDGE ( 'NONE', *, *, #991, .T. ) ;
#660 = EDGE_LOOP ( 'NONE', ( #1081, #792, #593, #474 ) ) ;
#661 = ORIENTED_EDGE ( 'NONE', *, *, #600, .T. ) ;
#662 = ADVANCED_FACE ( 'NONE', ( #604 ), #719, .T. ) ;
#663 = LINE ( 'NONE', #7, #999 ) ;
#664 = DIRECTION ( 'NONE',  ( 2.817071987770827696E-33, 0.7313537016184467054, 0.6819983600632747445 ) ) ;
#665 = ORIENTED_EDGE ( 'NONE', *, *, #927, .T. ) ;
#666 = EDGE_LOOP ( 'NONE', ( #151, #406, #850, #826 ) ) ;
#667 = ORIENTED_EDGE ( 'NONE', *, *, #705, .T. ) ;
#668 = EDGE_CURVE ( 'NONE', #496, #1010, #54, .T. ) ;
#669 = B_SPLINE_SURFACE_WITH_KNOTS ( 'NONE', 2, 1, ( 
 ( #690, #694 ),
 ( #525, #362 ),
 ( #105, #614 ) ),
 .UNSPECIFIED., .F., .F., .F.,
 ( 3, 3 ),
 ( 2, 2 ),
 ( 0.5008207051229769391, 0.5020133117822229707 ),
 ( 0.000000000000000000, 1.000000000000000000 ),
 .UNSPECIFIED. ) ;
#670 = DIRECTION ( 'NONE',  ( -0.000000000000000000, -1.000000000000000000, -3.796156675003491545E-16 ) ) ;
#671 = SURFACE_SIDE_STYLE ('',( #608 ) ) ;
#672 = APPLICATION_CONTEXT ( 'automotive_design' ) ;
#673 = CARTESIAN_POINT ( 'NONE',  ( -0.3606695828272709625, -3.713903515092183749, 17.38764933056156536 ) ) ;
#674 = ORIENTED_EDGE ( 'NONE', *, *, #369, .T. ) ;
#675 = CIRCLE ( 'NONE', #836, 69.99999999999998579 ) ;
#676 = LINE ( 'NONE', #873, #787 ) ;
#677 = EDGE_CURVE ( 'NONE', #310, #987, #549, .T. ) ;
#678 = STYLED_ITEM ( 'NONE', ( #181 ), #418 ) ;
#679 = CIRCLE ( 'NONE', #347, 0.8000000000000029310 ) ;
#680 = AXIS2_PLACEMENT_3D ( 'NONE', #201, #367, #707 ) ;
#681 = DIRECTION ( 'NONE',  ( 0.000000000000000000, -1.000000000000000000, -3.796156675003491545E-16 ) ) ;
#682 = ADVANCED_FACE ( 'NONE', ( #370 ), #624, .T. ) ;
#683 = CARTESIAN_POINT ( 'NONE',  ( -5.643330221131918734, 12.62949497510791197, 4.920473875301012434 ) ) ;
#684 = EDGE_LOOP ( 'NONE', ( #87, #863, #273, #830 ) ) ;
#685 = B_SPLINE_SURFACE_WITH_KNOTS ( 'NONE', 2, 1, ( 
 ( #9, #30 ),
 ( #419, #526 ),
 ( #363, #348 ) ),
 .UNSPECIFIED., .F., .F., .F.,
 ( 3, 3 ),
 ( 2, 2 ),
 ( 0.4976672411085089620, 0.4995542795880119624 ),
 ( 0.000000000000000000, 1.000000000000000000 ),
 .UNSPECIFIED. ) ;
#686 = CARTESIAN_POINT ( 'NONE',  ( -5.260669582827272706, 16.58641359856245501, 13.34673043481472021 ) ) ;
#687 = UNCERTAINTY_MEASURE_WITH_UNIT (LENGTH_MEASURE( 1.000000000000000082E-05 ), #493, 'distance_accuracy_value', 'NONE');
#688 = ORIENTED_EDGE ( 'NONE', *, *, #1060, .F. ) ;
#689 = CARTESIAN_POINT ( 'NONE',  ( -0.3606695828272709625, 15.58641359848747321, 7.123477207835773761 ) ) ;
#690 = CARTESIAN_POINT ( 'NONE',  ( -10.16066958282727306, 15.58641359858063957, 12.84827996341895506 ) ) ;
#691 = CARTESIAN_POINT ( 'NONE',  ( -5.260669582827272706, 16.78641359856245074, 12.54673043481471417 ) ) ;
#692 = CARTESIAN_POINT ( 'NONE',  ( -10.16066958282727306, 13.85114119220187590, 5.662999999998910461 ) ) ;
#693 = LINE ( 'NONE', #935, #716 ) ;
#694 = CARTESIAN_POINT ( 'NONE',  ( -0.3606695828272709625, 15.58641359858063957, 12.84827996341895506 ) ) ;
#695 = CARTESIAN_POINT ( 'NONE',  ( -5.576700776490842948, 12.58286849460957235, 4.894876469658986373 ) ) ;
#696 = ORIENTED_EDGE ( 'NONE', *, *, #882, .T. ) ;
#697 = DIRECTION ( 'NONE',  ( -0.000000000000000000, 1.000000000000000000, 3.796156675003491545E-16 ) ) ;
#698 = CLOSED_SHELL ( 'NONE', ( #241, #519, #877, #682, #1033, #594, #1065, #466, #757, #322, #277, #1024, #48, #47, #747, #344, #441, #1017, #481, #897, #795, #502, #548, #662, #36, #516, #537, #1083, #252, #1078, #307, #90 ) ) ;
#699 = VECTOR ( 'NONE', #860, 1000.000000000000114 ) ;
#700 = PLANE ( 'NONE',  #193 ) ;
#701 = AXIS2_PLACEMENT_3D ( 'NONE', #703, #1043, #379 ) ;
#702 = EDGE_CURVE ( 'NONE', #425, #1077, #978, .T. ) ;
#703 = CARTESIAN_POINT ( 'NONE',  ( -5.260669582827272706, 16.78641359856245430, 5.846730434814721988 ) ) ;
#704 = DIRECTION ( 'NONE',  ( 4.203139403740315418E-33, -0.6819983600632745224, 0.7313537016184468165 ) ) ;
#705 = EDGE_CURVE ( 'NONE', #963, #910, #1091, .T. ) ;
#706 = FACE_OUTER_BOUND ( 'NONE', #143, .T. ) ;
#707 = DIRECTION ( 'NONE',  ( 0.000000000000000000, 0.000000000000000000, -1.000000000000000000 ) ) ;
#708 = CARTESIAN_POINT ( 'NONE',  ( -10.16066958282727128, 12.84469797479848197, 7.831584709502877217 ) ) ;
#709 = PRODUCT_DEFINITION ( 'UNKNOWN', '', #625, #653 ) ;
#710 = CARTESIAN_POINT ( 'NONE',  ( -0.3606695828272710180, 12.84614926967272552, 7.829223153189845519 ) ) ;
#711 = CARTESIAN_POINT ( 'NONE',  ( -1.409004994757496965, 15.58641359856245145, 9.985878585633862770 ) ) ;
#712 = CARTESIAN_POINT ( 'NONE',  ( -10.16066958282726951, 13.97879366123715883, 7.123477207818215362 ) ) ;
#713 = CARTESIAN_POINT ( 'NONE',  ( -0.3606695828272714066, 13.97905947019979678, 7.123477207818214474 ) ) ;
#714 = EDGE_CURVE ( 'NONE', #92, #1088, #438, .T. ) ;
#715 = VECTOR ( 'NONE', #306, 1000.000000000000000 ) ;
#716 = VECTOR ( 'NONE', #1026, 1000.000000000000000 ) ;
#717 = DIRECTION ( 'NONE',  ( 1.000000000000000000, -3.851859888774471022E-33, 0.000000000000000000 ) ) ;
#718 = DIRECTION ( 'NONE',  ( 0.000000000000000000, -1.000000000000000000, -3.796156675003491545E-16 ) ) ;
#719 = CONICAL_SURFACE ( 'NONE', #409, 1.000000000000000000, 0.7853981633974347343 ) ;
#720 = B_SPLINE_CURVE_WITH_KNOTS ( 'NONE', 2,
 ( #489, #996, #336 ),
 .UNSPECIFIED., .F., .F.,
 ( 3, 3 ),
 ( 0.4976672411085089620, 0.4995542795880109632 ),
 .UNSPECIFIED. ) ;
#721 = CARTESIAN_POINT ( 'NONE',  ( -4.254520281314025709, 14.17699881411725116, 5.887857559917688555 ) ) ;
#722 = CARTESIAN_POINT ( 'NONE',  ( -10.16066958282727306, 13.83641359856245323, 7.623000000000087262 ) ) ;
#723 = CARTESIAN_POINT ( 'NONE',  ( -10.16066958282727306, 13.66378855115898361, 7.184100261019233713 ) ) ;
#724 = CARTESIAN_POINT ( 'NONE',  ( -5.260669582827272706, 16.78641359856245430, 5.846730434814721988 ) ) ;
#725 = EDGE_LOOP ( 'NONE', ( #581, #232, #420, #247 ) ) ;
#726 = CARTESIAN_POINT ( 'NONE',  ( -5.260669582827272706, 16.58641359856245145, 4.846730434814721988 ) ) ;
#727 = CARTESIAN_POINT ( 'NONE',  ( -0.3606695828272709625, 13.83641359856245323, 11.82300000000008566 ) ) ;
#728 = DIRECTION ( 'NONE',  ( 0.000000000000000000, 0.000000000000000000, -1.000000000000000000 ) ) ;
#729 = VERTEX_POINT ( 'NONE', #215 ) ;
#730 = CARTESIAN_POINT ( 'NONE',  ( -0.3606695828272709625, -7.804632547097497763, 21.71834272274914213 ) ) ;
#731 = CARTESIAN_POINT ( 'NONE',  ( -10.16066958282726773, 13.66722655859418722, 12.78869334572308425 ) ) ;
#732 = EDGE_CURVE ( 'NONE', #176, #242, #1074, .T. ) ;
#733 = ORIENTED_EDGE ( 'NONE', *, *, #433, .T. ) ;
#734 = APPLICATION_CONTEXT ( 'automotive_design' ) ;
#735 = AXIS2_PLACEMENT_3D ( 'NONE', #806, #1061, #52 ) ;
#736 = VERTEX_POINT ( 'NONE', #469 ) ;
#737 = CARTESIAN_POINT ( 'NONE',  ( -0.3606695828272709070, 13.56388785356989501, 12.75229136301396338 ) ) ;
#738 = CARTESIAN_POINT ( 'NONE',  ( -1.409004994757496965, 14.08641359856244968, 9.985878585633860993 ) ) ;
#739 = ORIENTED_EDGE ( 'NONE', *, *, #179, .F. ) ;
#740 = EDGE_LOOP ( 'NONE', ( #507, #6, #667, #1084, #183 ) ) ;
#741 = VERTEX_POINT ( 'NONE', #290 ) ;
#742 = LINE ( 'NONE', #919, #430 ) ;
#743 = CARTESIAN_POINT ( 'NONE',  ( -0.3606695828272699078, 14.32375792870796261, 9.723000000000077137 ) ) ;
#744 = ORIENTED_EDGE ( 'NONE', *, *, #24, .T. ) ;
#745 = ORIENTED_EDGE ( 'NONE', *, *, #832, .T. ) ;
#746 = ORIENTED_EDGE ( 'NONE', *, *, #453, .T. ) ;
#747 = ADVANCED_FACE ( 'NONE', ( #559 ), #219, .T. ) ;
#748 =( NAMED_UNIT ( * ) PLANE_ANGLE_UNIT ( ) SI_UNIT ( $, .RADIAN. ) );
#749 = CARTESIAN_POINT ( 'NONE',  ( -6.082212505499441590, 14.85783689279458919, 6.421074820839182351 ) ) ;
#750 = VECTOR ( 'NONE', #295, 999.9999999999998863 ) ;
#751 = ORIENTED_EDGE ( 'NONE', *, *, #958, .T. ) ;
#752 = VECTOR ( 'NONE', #233, 1000.000000000000000 ) ;
#753 = ORIENTED_EDGE ( 'NONE', *, *, #38, .T. ) ;
#754 = LINE ( 'NONE', #821, #571 ) ;
#755 = CARTESIAN_POINT ( 'NONE',  ( -6.039126134450321537, 14.92519065670377643, 6.479097619096013894 ) ) ;
#756 = ORIENTED_EDGE ( 'NONE', *, *, #714, .F. ) ;
#757 = ADVANCED_FACE ( 'NONE', ( #881 ), #669, .T. ) ;
#758 = ORIENTED_EDGE ( 'NONE', *, *, #714, .T. ) ;
#759 = PLANE ( 'NONE',  #297 ) ;
#760 =( LENGTH_UNIT ( ) NAMED_UNIT ( * ) SI_UNIT ( .MILLI., .METRE. ) );
#761 = EDGE_CURVE ( 'NONE', #987, #564, #454, .T. ) ;
#762 = CARTESIAN_POINT ( 'NONE',  ( -10.16066958282727306, -7.804632547097497763, 21.38686825491327426 ) ) ;
#763 = VERTEX_POINT ( 'NONE', #879 ) ;
#764 = VERTEX_POINT ( 'NONE', #954 ) ;
#765 = DIRECTION ( 'NONE',  ( -0.000000000000000000, 3.030189073798952279E-16, -1.000000000000000000 ) ) ;
#766 = CARTESIAN_POINT ( 'NONE',  ( -5.260669582827272706, 15.58641359856244968, 13.34673043481472021 ) ) ;
#767 = CARTESIAN_POINT ( 'NONE',  ( -4.295086145664456900, 13.71304633200530354, 5.569944436783509367 ) ) ;
#768 = ORIENTED_EDGE ( 'NONE', *, *, #732, .T. ) ;
#769 = VECTOR ( 'NONE', #704, 1000.000000000000114 ) ;
#770 = CARTESIAN_POINT ( 'NONE',  ( -10.16066958282727484, 14.32375792870796438, 9.723000000000077137 ) ) ;
#771 = AXIS2_PLACEMENT_3D ( 'NONE', #41, #371, #1051 ) ;
#772 = FACE_OUTER_BOUND ( 'NONE', #81, .T. ) ;
#773 = CARTESIAN_POINT ( 'NONE',  ( -6.243646249550743654, 13.85114119220116180, 5.663000000000024237 ) ) ;
#774 = DIRECTION ( 'NONE',  ( 0.000000000000000000, 0.000000000000000000, -1.000000000000000000 ) ) ;
#775 = VERTEX_POINT ( 'NONE', #871 ) ;
#776 = CARTESIAN_POINT ( 'NONE',  ( -0.3606695828272709625, 13.78256232846217166, 15.90515774896158341 ) ) ;
#777 = FACE_OUTER_BOUND ( 'NONE', #969, .T. ) ;
#778 = DIRECTION ( 'NONE',  ( 0.000000000000000000, -3.796156675003491052E-16, 1.000000000000000000 ) ) ;
#779 = ORIENTED_EDGE ( 'NONE', *, *, #24, .F. ) ;
#780 = CARTESIAN_POINT ( 'NONE',  ( -2.810669582827271640, 12.38468377351861882, 4.787649330930684677 ) ) ;
#781 = EDGE_CURVE ( 'NONE', #605, #1038, #332, .T. ) ;
#782 = CARTESIAN_POINT ( 'NONE',  ( -10.16066958282727306, 5.016280214226788381, 6.149086331587439780 ) ) ;
#783 = DIRECTION ( 'NONE',  ( -1.000000000000000000, 3.851859888774471022E-33, 0.000000000000000000 ) ) ;
#784 = DIRECTION ( 'NONE',  ( 0.000000000000000000, 1.000000000000000000, -9.912705577010328015E-17 ) ) ;
#785 = LINE ( 'NONE', #31, #839 ) ;
#786 = AXIS2_PLACEMENT_3D ( 'NONE', #738, #69, #325 ) ;
#787 = VECTOR ( 'NONE', #943, 1000.000000000000000 ) ;
#788 = EDGE_CURVE ( 'NONE', #188, #764, #517, .T. ) ;
#789 = CARTESIAN_POINT ( 'NONE',  ( -10.16066958282727306, 15.58641359856267528, 12.84827996344950840 ) ) ;
#790 = CARTESIAN_POINT ( 'NONE',  ( -10.16066958282726951, 12.70484861902840379, 8.119758434126710611 ) ) ;
#791 = DIRECTION ( 'NONE',  ( -1.000000000000000000, -0.000000000000000000, 0.000000000000000000 ) ) ;
#792 = ORIENTED_EDGE ( 'NONE', *, *, #478, .F. ) ;
#793 = CARTESIAN_POINT ( 'NONE',  ( -10.16066958282727306, 15.58641359856244968, 12.84827996344950840 ) ) ;
#794 = CARTESIAN_POINT ( 'NONE',  ( -10.16066958282727306, 8.236413572677125927, 20.32412042702928190 ) ) ;
#795 = ADVANCED_FACE ( 'NONE', ( #777 ), #25, .T. ) ;
#796 = CARTESIAN_POINT ( 'NONE',  ( -5.260669582827273594, 15.32152175150287121, 6.846730434814731758 ) ) ;
#797 = CARTESIAN_POINT ( 'NONE',  ( -5.260669582827272706, 16.78641359856245430, 6.646730434814725363 ) ) ;
#798 = CARTESIAN_POINT ( 'NONE',  ( -10.16066958282727484, 12.74570514580600111, 8.019449715736019613 ) ) ;
#799 = CARTESIAN_POINT ( 'NONE',  ( -4.291965376803121401, 14.49074151927661447, 6.121757739979038604 ) ) ;
#800 = ORIENTED_EDGE ( 'NONE', *, *, #909, .F. ) ;
#801 = CIRCLE ( 'NONE', #408, 0.8000000000000055955 ) ;
#802 = AXIS2_PLACEMENT_3D ( 'NONE', #533, #791, #281 ) ;
#803 = DIRECTION ( 'NONE',  ( 0.000000000000000000, 1.224646799147352221E-16, 1.000000000000000000 ) ) ;
#804 = CARTESIAN_POINT ( 'NONE',  ( -10.16066958282727306, 12.38468377351861882, 4.787649330930684677 ) ) ;
#805 = CARTESIAN_POINT ( 'NONE',  ( -0.3606695828272709625, -7.804632547097502204, 9.723000000000089571 ) ) ;
#806 = CARTESIAN_POINT ( 'NONE',  ( -5.260669582827272706, 15.58641359856244968, 13.34673043481472021 ) ) ;
#807 = LINE ( 'NONE', #539, #97 ) ;
#808 = DIRECTION ( 'NONE',  ( -0.000000000000000000, -1.000000000000000000, -0.000000000000000000 ) ) ;
#809 = EDGE_CURVE ( 'NONE', #1077, #163, #284, .T. ) ;
#810 = CARTESIAN_POINT ( 'NONE',  ( -0.3606695828272710180, 13.66378855115898183, 12.78765691024848827 ) ) ;
#811 = CARTESIAN_POINT ( 'NONE',  ( -6.229351988164141041, 14.49134477207807237, 6.122193350782366039 ) ) ;
#812 = CARTESIAN_POINT ( 'NONE',  ( -0.3606695828272709070, 13.66722655859419433, 7.183063825544635073 ) ) ;
#813 = B_SPLINE_CURVE_WITH_KNOTS ( 'NONE', 2,
 ( #510, #782, #443 ),
 .UNSPECIFIED., .F., .F.,
 ( 3, 3 ),
 ( 0.4976672411085089620, 0.4995542795880109632 ),
 .UNSPECIFIED. ) ;
#814 = EDGE_LOOP ( 'NONE', ( #527, #257 ) ) ;
#815 = CARTESIAN_POINT ( 'NONE',  ( -5.260669582827273594, 15.32152175150287121, 6.846730434814731758 ) ) ;
#816 = CARTESIAN_POINT ( 'NONE',  ( -10.16066958282727306, 15.58641359847121421, 7.123477207818217138 ) ) ;
#817 = FACE_OUTER_BOUND ( 'NONE', #72, .T. ) ;
#818 = ORIENTED_EDGE ( 'NONE', *, *, #809, .F. ) ;
#819 = VECTOR ( 'NONE', #313, 1000.000000000000000 ) ;
#820 = VERTEX_POINT ( 'NONE', #190 ) ;
#821 = CARTESIAN_POINT ( 'NONE',  ( -0.3606695828272709625, 13.83641359856245323, 11.82300000000008566 ) ) ;
#822 = CARTESIAN_POINT ( 'NONE',  ( -10.16066958282727306, 13.97905947019979678, 12.84827996344950840 ) ) ;
#823 = CARTESIAN_POINT ( 'NONE',  ( -4.701301736039003920, 12.78588574874245509, 5.007461635265073596 ) ) ;
#824 = ORIENTED_EDGE ( 'NONE', *, *, #1070, .T. ) ;
#825 = EDGE_CURVE ( 'NONE', #983, #1038, #960, .T. ) ;
#826 = ORIENTED_EDGE ( 'NONE', *, *, #478, .T. ) ;
#827 = B_SPLINE_CURVE_WITH_KNOTS ( 'NONE', 3,
 ( #462, #1066, #966, #546, #140, #888, #55, #317, #213, #476, #144, #973 ),
 .UNSPECIFIED., .F., .F.,
 ( 4, 2, 2, 2, 2, 4 ),
 ( 3.374973513958279841E-16, 0.0002931366670885626594, 0.0005862733341767878067, 0.001172546668353242113, 0.001758820002529696636, 0.002345093336706151159 ),
 .UNSPECIFIED. ) ;
#828 = CARTESIAN_POINT ( 'NONE',  ( -1.409004994757496965, 12.58641359856245145, 9.985878585633860993 ) ) ;
#829 = DIRECTION ( 'NONE',  ( 1.000000000000000000, -3.851859888774471022E-33, 0.000000000000000000 ) ) ;
#830 = ORIENTED_EDGE ( 'NONE', *, *, #951, .F. ) ;
#831 = ORIENTED_EDGE ( 'NONE', *, *, #1009, .F. ) ;
#832 = EDGE_CURVE ( 'NONE', #642, #987, #534, .T. ) ;
#833 = EDGE_LOOP ( 'NONE', ( #800, #646, #578, #112, #906, #818, #575 ) ) ;
#834 = DIRECTION ( 'NONE',  ( 0.000000000000000000, -1.224646799147352221E-16, -1.000000000000000000 ) ) ;
#835 = CARTESIAN_POINT ( 'NONE',  ( -10.16066958282727306, 12.84614926967272552, 12.14253401807787291 ) ) ;
#836 = AXIS2_PLACEMENT_3D ( 'NONE', #429, #602, #784 ) ;
#837 = CARTESIAN_POINT ( 'NONE',  ( -5.093784130926318987, 12.51486849185706518, 4.857745527963016841 ) ) ;
#838 = ORIENTED_EDGE ( 'NONE', *, *, #1050, .T. ) ;
#839 = VECTOR ( 'NONE', #118, 1000.000000000000000 ) ;
#840 = ORIENTED_EDGE ( 'NONE', *, *, #626, .F. ) ;
#841 = VECTOR ( 'NONE', #467, 1000.000000000000114 ) ;
#842 = DIRECTION ( 'NONE',  ( 1.000000000000000000, -3.851859888774470338E-33, 4.717167883551731588E-49 ) ) ;
#843 = CYLINDRICAL_SURFACE ( 'NONE', #239, 1.000000000000000000 ) ;
#844 = FACE_BOUND ( 'NONE', #389, .T. ) ;
#845 = VERTEX_POINT ( 'NONE', #793 ) ;
#846 = ORIENTED_EDGE ( 'NONE', *, *, #285, .T. ) ;
#847 = FACE_OUTER_BOUND ( 'NONE', #169, .T. ) ;
#848 = DIRECTION ( 'NONE',  ( -1.070189520502433358E-33, 0.1736481776669273336, -0.9848077530122085754 ) ) ;
#849 = DIRECTION ( 'NONE',  ( 0.000000000000000000, 1.000000000000000000, 3.796156675003491545E-16 ) ) ;
#850 = ORIENTED_EDGE ( 'NONE', *, *, #898, .T. ) ;
#851 = CARTESIAN_POINT ( 'NONE',  ( -10.16066958282727306, -7.804632547097497763, 21.71834272274914213 ) ) ;
#852 = VERTEX_POINT ( 'NONE', #20 ) ;
#853 = DIRECTION ( 'NONE',  ( 0.000000000000000000, -1.000000000000000000, -3.796156675003491545E-16 ) ) ;
#854 = CARTESIAN_POINT ( 'NONE',  ( -10.16066958282727306, 15.58641359856267528, 12.84827996344950840 ) ) ;
#855 = CARTESIAN_POINT ( 'NONE',  ( -5.260669582827272706, 16.78641359856245074, 13.34673043481472021 ) ) ;
#856 = EDGE_LOOP ( 'NONE', ( #447, #32, #746, #521, #846, #674 ) ) ;
#857 = CARTESIAN_POINT ( 'NONE',  ( -2.810669582827271196, 13.19200889571797042, 5.218842068882597829 ) ) ;
#858 = VECTOR ( 'NONE', #46, 1000.000000000000000 ) ;
#859 = CIRCLE ( 'NONE', #878, 0.8000000000000055955 ) ;
#860 = DIRECTION ( 'NONE',  ( 0.000000000000000000, -0.7071067811865490160, -0.7071067811865460184 ) ) ;
#861 = DIRECTION ( 'NONE',  ( -0.000000000000000000, -1.000000000000000000, -0.000000000000000000 ) ) ;
#862 = CARTESIAN_POINT ( 'NONE',  ( -4.277692916104002485, 13.85114119220187590, 5.662999999998910461 ) ) ;
#863 = ORIENTED_EDGE ( 'NONE', *, *, #677, .T. ) ;
#864 = LINE ( 'NONE', #1016, #485 ) ;
#865 = EDGE_CURVE ( 'NONE', #845, #911, #609, .T. ) ;
#866 = EDGE_CURVE ( 'NONE', #129, #396, #859, .T. ) ;
#867 = CARTESIAN_POINT ( 'NONE',  ( -0.3606695828272709625, 12.38468377400776710, 4.787649329981114477 ) ) ;
#868 = LINE ( 'NONE', #110, #750 ) ;
#869 = CARTESIAN_POINT ( 'NONE',  ( -10.16066958282727306, 13.83641359856245323, 7.623000000000087262 ) ) ;
#870 = EDGE_CURVE ( 'NONE', #852, #163, #392, .T. ) ;
#871 = CARTESIAN_POINT ( 'NONE',  ( -7.710669582827271995, 13.85114119197588423, 5.663000000335626893 ) ) ;
#872 = CARTESIAN_POINT ( 'NONE',  ( -10.16066958282727484, 13.56388785356989146, 7.219465808253757722 ) ) ;
#873 = CARTESIAN_POINT ( 'NONE',  ( -0.3606695828272717952, 12.58641359856245145, 7.123477207818216250 ) ) ;
#874 = ORIENTED_EDGE ( 'NONE', *, *, #292, .F. ) ;
#875 = AXIS2_PLACEMENT_3D ( 'NONE', #916, #230, #157 ) ;
#876 = VECTOR ( 'NONE', #932, 1000.000000000000000 ) ;
#877 = ADVANCED_FACE ( 'NONE', ( #1027 ), #125, .T. ) ;
#878 = AXIS2_PLACEMENT_3D ( 'NONE', #620, #206, #538 ) ;
#879 = CARTESIAN_POINT ( 'NONE',  ( -10.16066958282727306, 12.38468377351861882, 4.787649330930684677 ) ) ;
#880 = CARTESIAN_POINT ( 'NONE',  ( -10.16066958282727306, 15.58641359856245145, 12.13157221623989201 ) ) ;
#881 = FACE_OUTER_BOUND ( 'NONE', #833, .T. ) ;
#882 = EDGE_CURVE ( 'NONE', #574, #564, #294, .T. ) ;
#883 = CARTESIAN_POINT ( 'NONE',  ( -0.3606695828272709070, 12.70484861902840201, 11.85199873714100960 ) ) ;
#884 = DIRECTION ( 'NONE',  ( -0.000000000000000000, 1.000000000000000000, 3.796156675003491545E-16 ) ) ;
#885 = B_SPLINE_CURVE_WITH_KNOTS ( 'NONE', 2,
 ( #224, #298, #470 ),
 .UNSPECIFIED., .F., .F.,
 ( 3, 3 ),
 ( 0.4988120746294950059, 0.4994128454637969949 ),
 .UNSPECIFIED. ) ;
#886 = CARTESIAN_POINT ( 'NONE',  ( -5.260669582827272706, 16.58641359856245501, 13.34673043481472021 ) ) ;
#887 = ORIENTED_EDGE ( 'NONE', *, *, #57, .F. ) ;
#888 = CARTESIAN_POINT ( 'NONE',  ( -6.263038315026441261, 15.17423368953437368, 13.49652297950100710 ) ) ;
#889 = CARTESIAN_POINT ( 'NONE',  ( -10.16066958282727306, 13.87109024055130213, 7.135981378637799466 ) ) ;
#890 = CARTESIAN_POINT ( 'NONE',  ( -0.3606695828272717952, 14.08641359856245145, 7.123477207818217138 ) ) ;
#891 = VECTOR ( 'NONE', #829, 1000.000000000000000 ) ;
#892 = AXIS2_PLACEMENT_3D ( 'NONE', #101, #28, #424 ) ;
#893 = DIRECTION ( 'NONE',  ( 0.000000000000000000, 0.000000000000000000, -1.000000000000000000 ) ) ;
#894 = DIRECTION ( 'NONE',  ( -0.000000000000000000, -1.000000000000000000, -0.000000000000000000 ) ) ;
#895 = VECTOR ( 'NONE', #783, 1000.000000000000000 ) ;
#896 = CARTESIAN_POINT ( 'NONE',  ( -0.3606695828272709070, 12.74685303829522987, 8.016888788896281426 ) ) ;
#897 = ADVANCED_FACE ( 'NONE', ( #601 ), #29, .F. ) ;
#898 = EDGE_CURVE ( 'NONE', #188, #165, #217, .T. ) ;
#899 = CARTESIAN_POINT ( 'NONE',  ( -0.3606695828272709625, 12.90297812392783605, 12.22879201081358147 ) ) ;
#900 = CARTESIAN_POINT ( 'NONE',  ( -5.870861155224956107, 15.10908113231950090, 6.643620342497563946 ) ) ;
#901 = CARTESIAN_POINT ( 'NONE',  ( -4.316797455135729322, 15.49194326045407877, 13.00593453263643795 ) ) ;
#902 = EDGE_CURVE ( 'NONE', #231, #574, #149, .T. ) ;
#903 = CARTESIAN_POINT ( 'NONE',  ( -9.112334170897048224, 12.58641359856245145, 9.985878585633860993 ) ) ;
#904 = LINE ( 'NONE', #816, #752 ) ;
#905 = CYLINDRICAL_SURFACE ( 'NONE', #328, 3.048335411930225280 ) ;
#906 = ORIENTED_EDGE ( 'NONE', *, *, #434, .F. ) ;
#907 = DIRECTION ( 'NONE',  ( -6.162975822039154730E-33, 1.000000000000000000, -1.224646799147352221E-16 ) ) ;
#908 = CARTESIAN_POINT ( 'NONE',  ( -10.16066958282727306, 15.58641359856245145, 7.123477207818217138 ) ) ;
#909 = EDGE_CURVE ( 'NONE', #911, #425, #827, .T. ) ;
#910 = VERTEX_POINT ( 'NONE', #301 ) ;
#911 = VERTEX_POINT ( 'NONE', #984 ) ;
#912 = AXIS2_PLACEMENT_3D ( 'NONE', #588, #582, #995 ) ;
#913 = DIRECTION ( 'NONE',  ( 0.000000000000000000, 3.796156675003491545E-16, -1.000000000000000000 ) ) ;
#914 = CARTESIAN_POINT ( 'NONE',  ( -5.642401168864595640, 15.24920824951118803, 6.775877530698023676 ) ) ;
#915 = B_SPLINE_CURVE_WITH_KNOTS ( 'NONE', 3,
 ( #494, #161, #394, #811, #477, #749, #755, #2, #900, #645, #914, #1080, #80, #229 ),
 .UNSPECIFIED., .F., .F.,
 ( 4, 2, 2, 2, 2, 2, 4 ),
 ( 0.006371375734422531772, 0.006963604081440179228, 0.007555832428457827550, 0.007851946601966652145, 0.008148060775475475873, 0.008444174948984299600, 0.008740289122493125062 ),
 .UNSPECIFIED. ) ;
#916 = CARTESIAN_POINT ( 'NONE',  ( -9.112334170897048224, 15.58641359856245145, 9.985878585633862770 ) ) ;
#917 = ORIENTED_EDGE ( 'NONE', *, *, #560, .F. ) ;
#918 = ORIENTED_EDGE ( 'NONE', *, *, #212, .T. ) ;
#919 = CARTESIAN_POINT ( 'NONE',  ( -0.3606695828272717952, 12.58641359856245145, 7.123477207818216250 ) ) ;
#920 = FACE_OUTER_BOUND ( 'NONE', #83, .T. ) ;
#921 = CARTESIAN_POINT ( 'NONE',  ( -9.112334170897048224, 12.58641359856245145, 9.985878585633860993 ) ) ;
#922 = ORIENTED_EDGE ( 'NONE', *, *, #501, .F. ) ;
#923 = ORIENTED_EDGE ( 'NONE', *, *, #330, .T. ) ;
#924 = FACE_OUTER_BOUND ( 'NONE', #304, .T. ) ;
#925 = CARTESIAN_POINT ( 'NONE',  ( -0.3606695828272709625, 8.236413572677125927, 20.32412042702928190 ) ) ;
#926 = ORIENTED_EDGE ( 'NONE', *, *, #382, .T. ) ;
#927 = EDGE_CURVE ( 'NONE', #1088, #741, #18, .T. ) ;
#928 = CARTESIAN_POINT ( 'NONE',  ( -0.3606695828272709625, 13.83641359856245323, 7.623000000000087262 ) ) ;
#929 = DIRECTION ( 'NONE',  ( 0.000000000000000000, 0.000000000000000000, -1.000000000000000000 ) ) ;
#930 = CARTESIAN_POINT ( 'NONE',  ( -6.056069221564346350, 13.17197546059946944, 5.231474914782411112 ) ) ;
#931 = ORIENTED_EDGE ( 'NONE', *, *, #1060, .T. ) ;
#932 = DIRECTION ( 'NONE',  ( -1.000000000000000000, 3.851859888774471022E-33, 0.000000000000000000 ) ) ;
#933 = ORIENTED_EDGE ( 'NONE', *, *, #658, .F. ) ;
#934 = EDGE_CURVE ( 'NONE', #423, #852, #885, .T. ) ;
#935 = CARTESIAN_POINT ( 'NONE',  ( -10.16066958282727306, 12.58641359856245145, 7.123477207818216250 ) ) ;
#936 = LINE ( 'NONE', #186, #137 ) ;
#937 =( NAMED_UNIT ( * ) SI_UNIT ( $, .STERADIAN. ) SOLID_ANGLE_UNIT ( ) );
#938 = EDGE_CURVE ( 'NONE', #1075, #1077, #981, .T. ) ;
#939 = CARTESIAN_POINT ( 'NONE',  ( -10.16066958282727306, -7.804632547097497763, 21.71834272274914213 ) ) ;
#940 = DIRECTION ( 'NONE',  ( 1.000000000000000000, -3.851859888774471022E-33, 0.000000000000000000 ) ) ;
#941 = VECTOR ( 'NONE', #940, 1000.000000000000000 ) ;
#942 = ORIENTED_EDGE ( 'NONE', *, *, #909, .T. ) ;
#943 = DIRECTION ( 'NONE',  ( -0.000000000000000000, 1.000000000000000000, 3.796156675003491545E-16 ) ) ;
#944 = ORIENTED_EDGE ( 'NONE', *, *, #453, .F. ) ;
#945 = AXIS2_PLACEMENT_3D ( 'NONE', #950, #440, #274 ) ;
#946 = SURFACE_STYLE_USAGE ( .BOTH. , #671 ) ;
#947 = DIRECTION ( 'NONE',  ( 0.000000000000000000, 5.690723760868455805E-16, -1.000000000000000000 ) ) ;
#948 = CARTESIAN_POINT ( 'NONE',  ( -0.3606695828272709625, -54.65284534425819629, -30.62510111476089847 ) ) ;
#949 = ORIENTED_EDGE ( 'NONE', *, *, #293, .F. ) ;
#950 = CARTESIAN_POINT ( 'NONE',  ( -9.112334170897048224, 12.58641359856245145, 9.985878585633860993 ) ) ;
#951 = EDGE_CURVE ( 'NONE', #58, #564, #557, .T. ) ;
#952 = DIRECTION ( 'NONE',  ( 0.000000000000000000, 0.000000000000000000, 1.000000000000000000 ) ) ;
#953 = DIRECTION ( 'NONE',  ( 0.000000000000000000, 3.796156675003491545E-16, -1.000000000000000000 ) ) ;
#954 = CARTESIAN_POINT ( 'NONE',  ( -0.3606695828272709625, 15.58641359856245145, 7.561888653389548409 ) ) ;
#955 = CARTESIAN_POINT ( 'NONE',  ( -4.410416022150569937, 13.30517043587169645, 5.311873472489867076 ) ) ;
#956 = FACE_OUTER_BOUND ( 'NONE', #598, .T. ) ;
#957 = VERTEX_POINT ( 'NONE', #970 ) ;
#958 = EDGE_CURVE ( 'NONE', #338, #163, #135, .T. ) ;
#959 = APPLICATION_PROTOCOL_DEFINITION ( 'draft international standard', 'automotive_design', 1998, #734 ) ;
#960 = LINE ( 'NONE', #1047, #103 ) ;
#961 = CARTESIAN_POINT ( 'NONE',  ( -0.3606695828272709625, -7.804632547097497763, 21.38686825491327426 ) ) ;
#962 = DIRECTION ( 'NONE',  ( -0.000000000000000000, -1.000000000000000000, -0.000000000000000000 ) ) ;
#963 = VERTEX_POINT ( 'NONE', #815 ) ;
#964 = VECTOR ( 'NONE', #463, 1000.000000000000000 ) ;
#965 = VECTOR ( 'NONE', #717, 1000.000000000000000 ) ;
#966 = CARTESIAN_POINT ( 'NONE',  ( -6.203969346435251886, 15.49287801422768496, 13.00440821479441844 ) ) ;
#967 = CARTESIAN_POINT ( 'NONE',  ( -10.16066958282727128, 12.58641359856245145, 8.632784629070673788 ) ) ;
#968 = CARTESIAN_POINT ( 'NONE',  ( -4.878245811393398412, 14.59866552779844362, 14.27578478666200468 ) ) ;
#969 = EDGE_LOOP ( 'NONE', ( #1059, #768, #10, #162, #942 ) ) ;
#970 = CARTESIAN_POINT ( 'NONE',  ( -5.260669582827272706, 16.78641359856245430, 5.046730434814719501 ) ) ;
#971 = DIRECTION ( 'NONE',  ( 0.000000000000000000, 0.000000000000000000, -1.000000000000000000 ) ) ;
#972 = CARTESIAN_POINT ( 'NONE',  ( -0.3606695828272717952, 12.58641359856245145, 8.846433364515167597 ) ) ;
#973 = CARTESIAN_POINT ( 'NONE',  ( -5.260669582798851884, 14.54265395561298568, 14.34673043481500976 ) ) ;
#974 = CARTESIAN_POINT ( 'NONE',  ( -2.810669582827271196, 13.85114119220187590, 5.663000000000085521 ) ) ;
#975 = EDGE_CURVE ( 'NONE', #741, #338, #484, .T. ) ;
#976 = CARTESIAN_POINT ( 'NONE',  ( -4.258340484016292393, 15.17424815796177917, 13.49649273910835490 ) ) ;
#977 = VECTOR ( 'NONE', #13, 1000.000000000000000 ) ;
#978 = B_SPLINE_CURVE_WITH_KNOTS ( 'NONE', 3,
 ( #544, #1068, #43, #968, #303, #633, #309, #637, #976, #128, #222, #901, #456, #300 ),
 .UNSPECIFIED., .F., .F.,
 ( 4, 2, 2, 2, 2, 2, 4 ),
 ( 0.002345093336706151159, 0.002637123419442228677, 0.002929153502178305762, 0.003513213667650460365, 0.004097273833122615401, 0.004389303915858694220, 0.004681333998594773040 ),
 .UNSPECIFIED. ) ;
#979 = DIRECTION ( 'NONE',  ( 8.659560562354914369E-17, -0.7071067811865490160, 0.7071067811865460184 ) ) ;
#980 = CARTESIAN_POINT ( 'NONE',  ( -10.16066958282727306, 15.58641359856245145, 7.561888653389548409 ) ) ;
#981 = CIRCLE ( 'NONE', #735, 1.000000000000000888 ) ;
#982 = CARTESIAN_POINT ( 'NONE',  ( -0.3606695828272709625, 12.61186434986314353, 8.420957366489671969 ) ) ;
#983 = VERTEX_POINT ( 'NONE', #797 ) ;
#984 = CARTESIAN_POINT ( 'NONE',  ( -6.127587760970861552, 15.58641359856267528, 12.84827996344950840 ) ) ;
#985 = CARTESIAN_POINT ( 'NONE',  ( -10.16066958282727661, 12.74685303829523164, 11.95486838237144411 ) ) ;
#986 = ORIENTED_EDGE ( 'NONE', *, *, #366, .F. ) ;
#987 = VERTEX_POINT ( 'NONE', #730 ) ;
#988 = EDGE_CURVE ( 'NONE', #957, #605, #383, .T. ) ;
#989 = CARTESIAN_POINT ( 'NONE',  ( -12.26066958282727271, -7.804632547097497763, 28.20729258622785096 ) ) ;
#990 = LINE ( 'NONE', #225, #61 ) ;
#991 = EDGE_CURVE ( 'NONE', #396, #176, #640, .T. ) ;
#992 = CARTESIAN_POINT ( 'NONE',  ( -10.16066958282727306, 15.58641359856244968, 12.84827996344950840 ) ) ;
#993 = ORIENTED_EDGE ( 'NONE', *, *, #330, .F. ) ;
#994 = EDGE_CURVE ( 'NONE', #58, #310, #1072, .T. ) ;
#995 = DIRECTION ( 'NONE',  ( 0.000000000000000000, 1.000000000000000000, -9.912705577010328015E-17 ) ) ;
#996 = CARTESIAN_POINT ( 'NONE',  ( -0.3606695828272709625, 5.016280214226788381, 6.149086331587439780 ) ) ;
#997 = CIRCLE ( 'NONE', #1071, 1.000000000000000000 ) ;
#998 = CARTESIAN_POINT ( 'NONE',  ( -10.16066958282727306, 13.78256232849278362, 15.90515774894058332 ) ) ;
#999 = VECTOR ( 'NONE', #415, 1000.000000000000000 ) ;
#1000 = ORIENTED_EDGE ( 'NONE', *, *, #397, .F. ) ;
#1001 =( NAMED_UNIT ( * ) SI_UNIT ( $, .STERADIAN. ) SOLID_ANGLE_UNIT ( ) );
#1002 = CARTESIAN_POINT ( 'NONE',  ( -10.16066958282727128, 13.87378669407039489, 12.83615609997880647 ) ) ;
#1003 = DIRECTION ( 'NONE',  ( 0.000000000000000000, 5.690723760868455805E-16, -1.000000000000000000 ) ) ;
#1004 = ORIENTED_EDGE ( 'NONE', *, *, #1070, .F. ) ;
#1005 = CARTESIAN_POINT ( 'NONE',  ( -10.16066958282727306, 14.08641359856244968, 7.123477207818217138 ) ) ;
#1006 = CARTESIAN_POINT ( 'NONE',  ( -10.16066958282727306, 13.83641359856245323, 11.82300000000008566 ) ) ;
#1007 = ORIENTED_EDGE ( 'NONE', *, *, #809, .T. ) ;
#1008 = ORIENTED_EDGE ( 'NONE', *, *, #1009, .T. ) ;
#1009 = EDGE_CURVE ( 'NONE', #391, #563, #312, .T. ) ;
#1010 = VERTEX_POINT ( 'NONE', #339 ) ;
#1011 = CARTESIAN_POINT ( 'NONE',  ( -2.810669582827270752, 12.38468377351861882, 4.787649330930684677 ) ) ;
#1012 = FILL_AREA_STYLE ('',( #104 ) ) ;
#1013 = CARTESIAN_POINT ( 'NONE',  ( -0.3606695828272709625, 8.236413598564681138, 20.32412040640850748 ) ) ;
#1014 = ORIENTED_EDGE ( 'NONE', *, *, #600, .F. ) ;
#1015 = TOROIDAL_SURFACE ( 'NONE', #786, 1.548335411930226169, 1.500000000000000000 ) ;
#1016 = CARTESIAN_POINT ( 'NONE',  ( -10.16066958282727306, 12.58641359856245145, 7.123477207818216250 ) ) ;
#1017 = ADVANCED_FACE ( 'NONE', ( #155 ), #1019, .F. ) ;
#1018 = DIRECTION ( 'NONE',  ( -6.069346371170949003E-33, 0.9848077530122085754, 0.1736481776669273336 ) ) ;
#1019 = B_SPLINE_SURFACE_WITH_KNOTS ( 'NONE', 2, 1, ( 
 ( #421, #172 ),
 ( #12, #84 ),
 ( #509, #1011 ) ),
 .UNSPECIFIED., .F., .F., .F.,
 ( 3, 3 ),
 ( 2, 2 ),
 ( 0.4991823499582844215, 0.4994128454637969949 ),
 ( 0.000000000000000000, 1.000000000000000000 ),
 .UNSPECIFIED. ) ;
#1020 = CARTESIAN_POINT ( 'NONE',  ( -5.344299919852401715, 12.49449392049070084, 4.846730434814668698 ) ) ;
#1021 = VERTEX_POINT ( 'NONE', #1005 ) ;
#1022 = CARTESIAN_POINT ( 'NONE',  ( -10.16066958282727306, 15.58641359856245145, 7.123477207818217138 ) ) ;
#1023 = VERTEX_POINT ( 'NONE', #566 ) ;
#1024 = ADVANCED_FACE ( 'NONE', ( #576 ), #497, .F. ) ;
#1025 = CARTESIAN_POINT ( 'NONE',  ( 0.000000000000000000, 0.000000000000000000, 0.000000000000000000 ) ) ;
#1026 = DIRECTION ( 'NONE',  ( 0.000000000000000000, -3.030189073798952279E-16, 1.000000000000000000 ) ) ;
#1027 = FACE_OUTER_BOUND ( 'NONE', #643, .T. ) ;
#1028 = CARTESIAN_POINT ( 'NONE',  ( -10.16066958282727306, 12.38468377351861882, 4.787649330930684677 ) ) ;
#1029 = ORIENTED_EDGE ( 'NONE', *, *, #951, .T. ) ;
#1030 = DIRECTION ( 'NONE',  ( -0.000000000000000000, -1.000000000000000000, -0.000000000000000000 ) ) ;
#1031 = ORIENTED_EDGE ( 'NONE', *, *, #398, .T. ) ;
#1032 = CARTESIAN_POINT ( 'NONE',  ( -10.16066958282727306, 14.48892171654617123, 5.911523835232625146 ) ) ;
#1033 = ADVANCED_FACE ( 'NONE', ( #924 ), #759, .T. ) ;
#1034 = B_SPLINE_CURVE_WITH_KNOTS ( 'NONE', 3,
 ( #773, #26, #353, #445, #930, #590, #357, #683, #695, #271, #1020, #279 ),
 .UNSPECIFIED., .F., .F.,
 ( 4, 2, 2, 2, 2, 4 ),
 ( 4.465528732808036418E-12, 0.0004952961556433158313, 0.0009905923068211028044, 0.001485888457998889777, 0.001733536533587785216, 0.001981184609176680871 ),
 .UNSPECIFIED. ) ;
#1035 = DIRECTION ( 'NONE',  ( 6.154529677866649676E-33, -0.9986295347545740553, -0.05233595624294019172 ) ) ;
#1036 = CARTESIAN_POINT ( 'NONE',  ( -4.324995505707455834, 13.57605767861848456, 5.481330504605698373 ) ) ;
#1037 = CIRCLE ( 'NONE', #875, 3.048335411930227057 ) ;
#1038 = VERTEX_POINT ( 'NONE', #324 ) ;
#1039 = CARTESIAN_POINT ( 'NONE',  ( -5.260669582827272706, 16.58641359856245501, 13.34673043481472021 ) ) ;
#1040 = AXIS2_PLACEMENT_3D ( 'NONE', #562, #664, #74 ) ;
#1041 = VECTOR ( 'NONE', #436, 1000.000000000000000 ) ;
#1042 = FACE_OUTER_BOUND ( 'NONE', #565, .T. ) ;
#1043 = DIRECTION ( 'NONE',  ( 0.000000000000000000, -1.000000000000000000, -3.796156675003491545E-16 ) ) ;
#1044 = DIRECTION ( 'NONE',  ( 3.851859888774471022E-33, 1.000000000000000000, 3.367958857501521102E-12 ) ) ;
#1045 = CARTESIAN_POINT ( 'NONE',  ( -10.16066958282727306, 12.58641359856245145, 8.846433364515167597 ) ) ;
#1046 = ORIENTED_EDGE ( 'NONE', *, *, #285, .F. ) ;
#1047 = CARTESIAN_POINT ( 'NONE',  ( -5.260669582827272706, 16.58641359856245145, 6.846730434814721988 ) ) ;
#1048 = CARTESIAN_POINT ( 'NONE',  ( -7.710669582827271995, 13.85114119197588423, 5.663000000335626893 ) ) ;
#1049 = CARTESIAN_POINT ( 'NONE',  ( -0.3606695828272709625, 12.58641359856244968, 8.632726616878839465 ) ) ;
#1050 = EDGE_CURVE ( 'NONE', #741, #1088, #742, .T. ) ;
#1051 = DIRECTION ( 'NONE',  ( 0.000000000000000000, 0.000000000000000000, -1.000000000000000000 ) ) ;
#1052 = CARTESIAN_POINT ( 'NONE',  ( -10.16066958282727306, 6.249442903976641261, 22.45488560701619463 ) ) ;
#1053 = CARTESIAN_POINT ( 'NONE',  ( -0.3606695828272710180, 13.27870594861595599, 7.357504426931201102 ) ) ;
#1054 = ORIENTED_EDGE ( 'NONE', *, *, #902, .T. ) ;
#1055 = AXIS2_PLACEMENT_3D ( 'NONE', #989, #907, #834 ) ;
#1056 = DIRECTION ( 'NONE',  ( 0.000000000000000000, -1.000000000000000000, -3.796156675003491545E-16 ) ) ;
#1057 = CARTESIAN_POINT ( 'NONE',  ( -5.260669582827272706, 16.58641359856245501, 12.34673043481471844 ) ) ;
#1058 = CARTESIAN_POINT ( 'NONE',  ( -0.3606695828272710735, 13.56505561554090811, 7.219071658563345650 ) ) ;
#1059 = ORIENTED_EDGE ( 'NONE', *, *, #417, .F. ) ;
#1060 = EDGE_CURVE ( 'NONE', #729, #764, #663, .T. ) ;
#1061 = DIRECTION ( 'NONE',  ( 0.000000000000000000, -1.000000000000000000, -3.796156675003491545E-16 ) ) ;
#1062 = CARTESIAN_POINT ( 'NONE',  ( -0.3606695828272699078, 14.32375792870796438, 9.723000000000077137 ) ) ;
#1063 = DIRECTION ( 'NONE',  ( 0.000000000000000000, -1.000000000000000000, -3.796156675003491545E-16 ) ) ;
#1064 = EDGE_LOOP ( 'NONE', ( #634, #506, #1031, #100 ) ) ;
#1065 = ADVANCED_FACE ( 'NONE', ( #644 ), #160, .F. ) ;
#1066 = CARTESIAN_POINT ( 'NONE',  ( -6.171862828725546812, 15.54097363403225884, 12.92528432653085702 ) ) ;
#1067 = DIRECTION ( 'NONE',  ( -0.000000000000000000, -1.000000000000000000, -0.000000000000000000 ) ) ;
#1068 = CARTESIAN_POINT ( 'NONE',  ( -5.161804871457730925, 14.54265395561521679, 14.34673043481219246 ) ) ;
#1069 = ORIENTED_EDGE ( 'NONE', *, *, #865, .T. ) ;
#1070 = EDGE_CURVE ( 'NONE', #1010, #729, #754, .T. ) ;
#1071 = AXIS2_PLACEMENT_3D ( 'NONE', #299, #1067, #141 ) ;
#1072 = LINE ( 'NONE', #561, #965 ) ;
#1073 = CARTESIAN_POINT ( 'NONE',  ( -10.16066958282727661, 12.61186434986314531, 11.55079980477805890 ) ) ;
#1074 = CIRCLE ( 'NONE', #1096, 1.000000000000000888 ) ;
#1075 = VERTEX_POINT ( 'NONE', #68 ) ;
#1076 = EDGE_CURVE ( 'NONE', #764, #349, #253, .T. ) ;
#1077 = VERTEX_POINT ( 'NONE', #572 ) ;
#1078 = ADVANCED_FACE ( 'NONE', ( #847 ), #79, .T. ) ;
#1079 = DIRECTION ( 'NONE',  ( -3.849513439804002607E-33, -0.9993908270190959842, 0.03489949670248976982 ) ) ;
#1080 = CARTESIAN_POINT ( 'NONE',  ( -5.460528077292901017, 15.30590130520021219, 6.831154079267083290 ) ) ;
#1081 = ORIENTED_EDGE ( 'NONE', *, *, #199, .F. ) ;
#1082 = ORIENTED_EDGE ( 'NONE', *, *, #113, .F. ) ;
#1083 = ADVANCED_FACE ( 'NONE', ( #166 ), #248, .T. ) ;
#1084 = ORIENTED_EDGE ( 'NONE', *, *, #38, .F. ) ;
#1085 = DIRECTION ( 'NONE',  ( 6.159221503686403760E-33, -0.9993908270190959842, 0.03489949670248978369 ) ) ;
#1086 = CARTESIAN_POINT ( 'NONE',  ( -10.16066958282727128, 13.27870594861594888, 12.61425274433651822 ) ) ;
#1087 = EDGE_LOOP ( 'NONE', ( #654, #512, #326, #986, #944, #358, #1029, #65, #327, #119, #321, #147 ) ) ;
#1088 = VERTEX_POINT ( 'NONE', #649 ) ;
#1089 = CARTESIAN_POINT ( 'NONE',  ( -5.260669582827272706, 16.78641359856245074, 14.14673043481472625 ) ) ;
#1090 = VECTOR ( 'NONE', #42, 1000.000000000000000 ) ;
#1091 = B_SPLINE_CURVE_WITH_KNOTS ( 'NONE', 3,
 ( #796, #373, #146, #553, #208, #377, #799, #721, #621, #540 ),
 .UNSPECIFIED., .F., .F.,
 ( 4, 2, 2, 2, 4 ),
 ( 1.734723475976807094E-18, 0.0005936862006892681086, 0.001187372401378534482, 0.001781058602067800856, 0.002374744802757067230 ),
 .UNSPECIFIED. ) ;
#1092 = AXIS2_PLACEMENT_3D ( 'NONE', #686, #1030, #774 ) ;
#1093 = DIRECTION ( 'NONE',  ( -0.000000000000000000, 1.000000000000000000, 3.796156675003491545E-16 ) ) ;
#1094 = ORIENTED_EDGE ( 'NONE', *, *, #51, .T. ) ;
#1095 = AXIS2_PLACEMENT_3D ( 'NONE', #473, #460, #465 ) ;
#1096 = AXIS2_PLACEMENT_3D ( 'NONE', #886, #962, #133 ) ;
ENDSEC;
END-ISO-10303-21;
