ISO-10303-21;
HEADER;
FILE_DESCRIPTION (( 'STEP AP203' ),
    '1' );
FILE_NAME ('lente dot l8_v9_croquis6_D1_2p5mm.STEP',
    '2026-08-26T22:56:10',
    ( '' ),
    ( '' ),
    'SwSTEP 2.0',
    'SolidWorks 2026',
    '' );
FILE_SCHEMA (( 'CONFIG_CONTROL_DESIGN' ));
ENDSEC;

DATA;
#1 = B_SPLINE_CURVE_WITH_KNOTS ( 'NONE', 3,
 ( #74, #575, #203, #167, #581, #361, #535, #271, #44, #398, #491, #83 ),
 .UNSPECIFIED., .F., .F.,
 ( 4, 2, 2, 2, 2, 4 ),
 ( 0.000000000000000000, 0.001075217163368720084, 0.002150434326737440168, 0.002688042908421800319, 0.003225651490106160035, 0.004300868653474881204 ),
 .UNSPECIFIED. ) ;
#2 = CARTESIAN_POINT ( 'NONE',  ( -23.03592114560350268, 11.54013782009825206, 6.848870341770910919 ) ) ;
#3 = VECTOR ( 'NONE', #524, 1000.000000000000000 ) ;
#4 = CARTESIAN_POINT ( 'NONE',  ( -8.981845694529429380, 12.60815517220120086, -7.000000000000000000 ) ) ;
#5 = CARTESIAN_POINT ( 'NONE',  ( -4.297511623228073674, 8.221972355367636709, 6.379333763882049091 ) ) ;
#6 = EDGE_CURVE ( 'NONE', #508, #237, #255, .T. ) ;
#7 = EDGE_LOOP ( 'NONE', ( #225, #214, #93, #257 ) ) ;
#8 = CARTESIAN_POINT ( 'NONE',  ( -2.846604824987382987, -5.059081103884319752, -6.502625088165213008 ) ) ;
#9 = CARTESIAN_POINT ( 'NONE',  ( -2.846604824987382987, -5.059081103884319752, -5.324994554012954850 ) ) ;
#10 =( BOUNDED_CURVE ( )  B_SPLINE_CURVE ( 3, ( #207, #350, #574, #313 ),
 .UNSPECIFIED., .F., .T. ) 
 B_SPLINE_CURVE_WITH_KNOTS ( ( 4, 4 ),
 ( 3.874805315440086328, 3.956554119854400309 ),
 .UNSPECIFIED. ) 
 CURVE ( )  GEOMETRIC_REPRESENTATION_ITEM ( )  RATIONAL_B_SPLINE_CURVE ( ( 1.000000000000000000, 0.9994431719463756636, 0.9994431719463756636, 1.000000000000000000 ) ) 
 REPRESENTATION_ITEM ( '' )  );
#11 = VERTEX_POINT ( 'NONE', #78 ) ;
#12 = ORIENTED_EDGE ( 'NONE', *, *, #71, .T. ) ;
#13 = CARTESIAN_POINT ( 'NONE',  ( -23.03592114560350268, 11.54013782009825206, -6.879096273416728913 ) ) ;
#14 = EDGE_LOOP ( 'NONE', ( #553, #60, #235, #489 ) ) ;
#15 = ORIENTED_EDGE ( 'NONE', *, *, #570, .F. ) ;
#16 = APPROVAL_PERSON_ORGANIZATION ( #571, #266, #102 ) ;
#17 = EDGE_CURVE ( 'NONE', #96, #512, #244, .T. ) ;
#18 = LOCAL_TIME ( 0, 56, 10.00000000000000000, #417 ) ;
#19 = PERSON_AND_ORGANIZATION_ROLE ( 'classification_officer' ) ;
#20 = EDGE_CURVE ( 'NONE', #204, #384, #134, .T. ) ;
#21 = CARTESIAN_POINT ( 'NONE',  ( 0.3551249999651975298, -2.723253226996780185, 4.891100758752214617 ) ) ;
#22 = CARTESIAN_POINT ( 'NONE',  ( 0.3551250005320090164, -7.391488004478132823E-11, 7.000000000000000000 ) ) ;
#23 = ORIENTED_EDGE ( 'NONE', *, *, #487, .T. ) ;
#24 = DATE_AND_TIME ( #285, #503 ) ;
#25 = B_SPLINE_CURVE_WITH_KNOTS ( 'NONE', 3,
 ( #209, #82, #577, #168, #449, #362, #125, #29, #199, #228, #275, #127, #319, #50, #217, #371 ),
 .UNSPECIFIED., .F., .F.,
 ( 4, 2, 2, 2, 2, 2, 2, 4 ),
 ( 0.000000000000000000, 0.002604577309096832612, 0.005209154618193665223, 0.006511443272742080228, 0.007813731927290495233, 0.01041830923638732698, 0.01562746385458099393, 0.02083661847277465742 ),
 .UNSPECIFIED. ) ;
#26 = LINE ( 'NONE', #389, #156 ) ;
#27 = CARTESIAN_POINT ( 'NONE',  ( -8.981845694529432933, 12.60815517220120086, 7.000000000000000000 ) ) ;
#28 = CARTESIAN_POINT ( 'NONE',  ( -6.994875025828872772, 10.47738999221430234, 6.779229999436001464 ) ) ;
#29 = CARTESIAN_POINT ( 'NONE',  ( -9.177571171392527205, -2.246044588697502675, 4.898058370764313274 ) ) ;
#30 = ORIENTED_EDGE ( 'NONE', *, *, #546, .F. ) ;
#31 = DIRECTION ( 'NONE',  ( -0.000000000000000000, -0.000000000000000000, -1.000000000000000000 ) ) ;
#32 = AXIS2_PLACEMENT_3D ( 'NONE', #434, #188, #379 ) ;
#33 = CARTESIAN_POINT ( 'NONE',  ( -0.9131558117480770287, 4.784688755421850459, -6.114353111655735695 ) ) ;
#34 = EDGE_LOOP ( 'NONE', ( #241, #391, #419, #420 ) ) ;
#35 = CARTESIAN_POINT ( 'NONE',  ( 0.3551250000566972265, 2.037380911795557914, 5.504183946032024544 ) ) ;
#36 = CARTESIAN_POINT ( 'NONE',  ( -1.394874999943561011, 1.976269565185000854, 7.000000000000000000 ) ) ;
#37 = LINE ( 'NONE', #403, #220 ) ;
#38 = CARTESIAN_POINT ( 'NONE',  ( -20.25388486837870516, 8.929371410749542548, -6.583547341082284454 ) ) ;
#39 = EDGE_CURVE ( 'NONE', #230, #279, #263, .T. ) ;
#40 = CARTESIAN_POINT ( 'NONE',  ( -1.040807353294467941, -0.4790774811144935530, 5.148092824366840681 ) ) ;
#41 = DIRECTION ( 'NONE',  ( 0.9993786405320741473, -0.03489907114098587254, -0.004938388579234866821 ) ) ;
#42 = VECTOR ( 'NONE', #122, 1000.000000000000000 ) ;
#43 = B_SPLINE_CURVE_WITH_KNOTS ( 'NONE', 3,
 ( #206, #409, #488, #160, #33, #448, #578, #358, #528, #404, #532, #126 ),
 .UNSPECIFIED., .F., .F.,
 ( 4, 2, 2, 2, 2, 4 ),
 ( 5.421010862427522170E-20, 0.001317373638865555882, 0.002634747277731111764, 0.005269494555462220925, 0.007904241833193331387, 0.01053898911092444185 ),
 .UNSPECIFIED. ) ;
#44 = CARTESIAN_POINT ( 'NONE',  ( -1.126772622086070541, 0.7559124068803506624, -5.658279927872573722 ) ) ;
#45 = APPLICATION_PROTOCOL_DEFINITION ( 'international standard', 'config_control_design', 1994, #465 ) ;
#46 = CARTESIAN_POINT ( 'NONE',  ( -18.94519211359817135, 7.540918895746568040, 7.000000000000000000 ) ) ;
#47 = PERSON_AND_ORGANIZATION_ROLE ( 'design_owner' ) ;
#48 = CARTESIAN_POINT ( 'NONE',  ( -0.7666768565782249301, 13.03869392743343703, -7.048738665007272530 ) ) ;
#49 = VECTOR ( 'NONE', #538, 1000.000000000000000 ) ;
#50 = CARTESIAN_POINT ( 'NONE',  ( -16.77069688364284517, 4.830610800854434395, 5.899439582710180652 ) ) ;
#51 = CARTESIAN_POINT ( 'NONE',  ( -14.43747518705073141, 2.262203719805750080, -5.828797974881933186 ) ) ;
#52 = EDGE_LOOP ( 'NONE', ( #287, #253, #305, #23, #507, #57, #340, #189, #307, #353, #81, #147 ) ) ;
#53 = ORIENTED_EDGE ( 'NONE', *, *, #123, .F. ) ;
#54 = CARTESIAN_POINT ( 'NONE',  ( 0.3551250000109473781, -2.723253226996780629, 4.830531023696293502 ) ) ;
#55 = ORIENTED_EDGE ( 'NONE', *, *, #546, .T. ) ;
#56 = APPLICATION_CONTEXT ( 'configuration controlled 3d designs of mechanical parts and assemblies' ) ;
#57 = ORIENTED_EDGE ( 'NONE', *, *, #20, .F. ) ;
#58 = PERSON_AND_ORGANIZATION ( #250, #174 ) ;
#59 = CARTESIAN_POINT ( 'NONE',  ( -6.994875025828874548, 10.47738999221430234, 7.000000000000000000 ) ) ;
#60 = ORIENTED_EDGE ( 'NONE', *, *, #171, .T. ) ;
#61 = EDGE_LOOP ( 'NONE', ( #12, #530, #139, #481 ) ) ;
#62 = AXIS2_PLACEMENT_3D ( 'NONE', #103, #295, #110 ) ;
#63 = COORDINATED_UNIVERSAL_TIME_OFFSET ( 1, 0, .AHEAD. ) ;
#64 = CARTESIAN_POINT ( 'NONE',  ( -6.994875025828872772, 10.47738999221430234, -6.839532730058081711 ) ) ;
#65 = APPROVAL_DATE_TIME ( #24, #266 ) ;
#66 = CARTESIAN_POINT ( 'NONE',  ( -1.394874999943561011, 1.976269565185000410, -5.864180907265433618 ) ) ;
#67 = DIRECTION ( 'NONE',  ( -0.9993830276160453607, 0.03489922434133396756, -0.003950728206264357729 ) ) ;
#68 = ADVANCED_FACE ( 'NONE', ( #401 ), #447, .F. ) ;
#69 = CARTESIAN_POINT ( 'NONE',  ( -0.9075306697980521919, -0.1237304348149260991, 5.563288185821287257 ) ) ;
#70 = CARTESIAN_POINT ( 'NONE',  ( -8.981845694530965929, 12.60815517220116000, 6.999999999999993783 ) ) ;
#71 = EDGE_CURVE ( 'NONE', #508, #331, #118, .T. ) ;
#72 = ORIENTED_EDGE ( 'NONE', *, *, #246, .F. ) ;
#73 = LINE ( 'NONE', #117, #343 ) ;
#74 = CARTESIAN_POINT ( 'NONE',  ( -1.394874999943561011, -2.223730434814910062, -5.320972745794694703 ) ) ;
#75 = APPROVAL_DATE_TIME ( #385, #411 ) ;
#76 = CARTESIAN_POINT ( 'NONE',  ( -18.94519211359817135, 7.540918895746568040, 6.282961381555518088 ) ) ;
#77 = AXIS2_PLACEMENT_3D ( 'NONE', #367, #504, #541 ) ;
#78 = CARTESIAN_POINT ( 'NONE',  ( 0.3551250000566972265, 3.001549528634499975, 5.640618502316310234 ) ) ;
#79 = LINE ( 'NONE', #264, #376 ) ;
#80 = EDGE_CURVE ( 'NONE', #283, #144, #43, .T. ) ;
#81 = ORIENTED_EDGE ( 'NONE', *, *, #515, .T. ) ;
#82 = CARTESIAN_POINT ( 'NONE',  ( -3.717840775964485811, -4.898105547860811093, 4.522778825378790835 ) ) ;
#83 = CARTESIAN_POINT ( 'NONE',  ( -1.394874999943561011, 1.976269565185000854, -5.796429114223418999 ) ) ;
#84 = EDGE_CURVE ( 'NONE', #526, #231, #197, .T. ) ;
#85 = DIRECTION ( 'NONE',  ( -1.000000000000000000, 0.000000000000000000, 0.000000000000000000 ) ) ;
#86 = CARTESIAN_POINT ( 'NONE',  ( -23.03592114560350268, 11.54013782009825206, -6.879096273416728913 ) ) ;
#87 = AXIS2_PLACEMENT_3D ( 'NONE', #348, #521, #476 ) ;
#88 = CARTESIAN_POINT ( 'NONE',  ( 0.3551250000566972265, -2.284841781425457352, -5.314054703192494955 ) ) ;
#89 = CARTESIAN_POINT ( 'NONE',  ( -1.387449990516180343, 1.976528852227688482, 5.495573083158944883 ) ) ;
#90 = CARTESIAN_POINT ( 'NONE',  ( -6.173389071783079274, -3.999780770717780154, -5.119916926067322294 ) ) ;
#91 = PERSON_AND_ORGANIZATION ( #250, #174 ) ;
#92 = CARTESIAN_POINT ( 'NONE',  ( -6.307009194148600173, 9.929324375592941010, 6.620932392205235217 ) ) ;
#93 = ORIENTED_EDGE ( 'NONE', *, *, #337, .F. ) ;
#94 = DIRECTION ( 'NONE',  ( 0.6796729177606267713, -0.7288599724985126427, 0.08250978943266890075 ) ) ;
#95 = LINE ( 'NONE', #46, #200 ) ;
#96 = VERTEX_POINT ( 'NONE', #208 ) ;
#97 = ORIENTED_EDGE ( 'NONE', *, *, #226, .T. ) ;
#98 = CARTESIAN_POINT ( 'NONE',  ( -18.94519211359818911, 7.540918895746552053, 6.359217364476317691 ) ) ;
#99 = LINE ( 'NONE', #59, #406 ) ;
#100 = EDGE_LOOP ( 'NONE', ( #261, #377, #516, #293 ) ) ;
#101 = ORIENTED_EDGE ( 'NONE', *, *, #569, .T. ) ;
#102 = APPROVAL_ROLE ( '' ) ;
#103 = CARTESIAN_POINT ( 'NONE',  ( -0.6835572876454348856, 13.04305003945616726, 7.000000000000000000 ) ) ;
#104 = ORIENTED_EDGE ( 'NONE', *, *, #212, .T. ) ;
#105 = VECTOR ( 'NONE', #111, 1000.000000000000000 ) ;
#106 = PERSON_AND_ORGANIZATION ( #250, #174 ) ;
#107 = LINE ( 'NONE', #386, #484 ) ;
#108 = CARTESIAN_POINT ( 'NONE',  ( -23.03592114560350268, 12.60815517220120086, -7.000000000000000000 ) ) ;
#109 = EDGE_CURVE ( 'NONE', #331, #416, #1, .T. ) ;
#110 = DIRECTION ( 'NONE',  ( 0.9986295347545740553, 0.05233595624294033744, 0.000000000000000000 ) ) ;
#111 = DIRECTION ( 'NONE',  ( -0.000000000000000000, -0.000000000000000000, -1.000000000000000000 ) ) ;
#112 = ORIENTED_EDGE ( 'NONE', *, *, #495, .T. ) ;
#113 = CARTESIAN_POINT ( 'NONE',  ( -1.022645928974335927, 0.05288339968533613267, 5.223367880477331582 ) ) ;
#114 = LINE ( 'NONE', #273, #469 ) ;
#115 = DATE_TIME_ROLE ( 'creation_date' ) ;
#116 = ORIENTED_EDGE ( 'NONE', *, *, #80, .F. ) ;
#117 = CARTESIAN_POINT ( 'NONE',  ( 0.3551250000564474263, 2.037380911795548144, 7.000000000000000000 ) ) ;
#118 = LINE ( 'NONE', #408, #236 ) ;
#119 = ORIENTED_EDGE ( 'NONE', *, *, #226, .F. ) ;
#120 = CARTESIAN_POINT ( 'NONE',  ( -23.03592114560350268, 11.54013782009829825, 7.000000000000000000 ) ) ;
#121 = CARTESIAN_POINT ( 'NONE',  ( -18.94519211359817135, 7.540918895746568040, -6.426369105244412516 ) ) ;
#122 = DIRECTION ( 'NONE',  ( -0.000000000000000000, -0.000000000000000000, -1.000000000000000000 ) ) ;
#123 = EDGE_CURVE ( 'NONE', #283, #327, #114, .T. ) ;
#124 = CARTESIAN_POINT ( 'NONE',  ( -2.846604824987382987, -5.059081103884319752, -5.000000000000000000 ) ) ;
#125 = CARTESIAN_POINT ( 'NONE',  ( -8.449541799656632435, -2.727182906238560633, 4.829974954939912912 ) ) ;
#126 = CARTESIAN_POINT ( 'NONE',  ( -6.994875025828874548, 10.47738999221430234, -6.758789077511675458 ) ) ;
#127 = CARTESIAN_POINT ( 'NONE',  ( -13.20823259264028415, 1.026089508166676767, 5.361081285855616940 ) ) ;
#128 = DIRECTION ( 'NONE',  ( 0.000000000000000000, -0.9936533736897814606, 0.1124854344122625388 ) ) ;
#129 = AXIS2_PLACEMENT_3D ( 'NONE', #523, #527, #360 ) ;
#130 = EDGE_CURVE ( 'NONE', #230, #144, #99, .T. ) ;
#131 = CARTESIAN_POINT ( 'NONE',  ( -18.94519211359817135, 7.540918895746568040, -6.426369105244412516 ) ) ;
#132 = CARTESIAN_POINT ( 'NONE',  ( -4.954376963591368366, -4.484474009039209896, -5.065047762521066588 ) ) ;
#133 = PERSON_AND_ORGANIZATION ( #250, #174 ) ;
#134 = B_SPLINE_CURVE_WITH_KNOTS ( 'NONE', 3,
 ( #265, #537, #260, #316, #493, #568 ),
 .UNSPECIFIED., .F., .F.,
 ( 4, 2, 4 ),
 ( 3.312899098341640687E-14, 0.001995706335362745689, 0.003991412670692362497 ),
 .UNSPECIFIED. ) ;
#135 = CARTESIAN_POINT ( 'NONE',  ( -1.445399022214034046, 1.974505227449498079, -5.796229384315703115 ) ) ;
#136 = ORIENTED_EDGE ( 'NONE', *, *, #580, .T. ) ;
#137 = DIRECTION ( 'NONE',  ( -0.000000000000000000, 0.9901360746104197474, 0.1401090780608784392 ) ) ;
#138 = LINE ( 'NONE', #135, #451 ) ;
#139 = ORIENTED_EDGE ( 'NONE', *, *, #346, .F. ) ;
#140 = CARTESIAN_POINT ( 'NONE',  ( 0.3551250000109473781, -2.723253226996779741, -5.264424818957035512 ) ) ;
#141 = CARTESIAN_POINT ( 'NONE',  ( 0.3551250000566972265, -2.284841781425457352, 4.892568378990619138 ) ) ;
#142 = EDGE_CURVE ( 'NONE', #416, #327, #138, .T. ) ;
#143 = ORIENTED_EDGE ( 'NONE', *, *, #495, .F. ) ;
#144 = VERTEX_POINT ( 'NONE', #427 ) ;
#145 = APPROVAL_STATUS ( 'not_yet_approved' ) ;
#146 = CARTESIAN_POINT ( 'NONE',  ( -1.394874999943561011, -2.223730434814910062, -5.320972745794694703 ) ) ;
#147 = ORIENTED_EDGE ( 'NONE', *, *, #164, .F. ) ;
#148 = SHAPE_DEFINITION_REPRESENTATION ( #374, #267 ) ;
#149 = CARTESIAN_POINT ( 'NONE',  ( 1.484527364560580320, 1.384344158600975039, 7.000000000000000000 ) ) ;
#150 = ADVANCED_FACE ( 'NONE', ( #324 ), #176, .F. ) ;
#151 = CC_DESIGN_APPROVAL ( #411, ( #471 ) ) ;
#152 = PLANE ( 'NONE',  #87 ) ;
#153 = FACE_OUTER_BOUND ( 'NONE', #501, .T. ) ;
#154 = CC_DESIGN_PERSON_AND_ORGANIZATION_ASSIGNMENT ( #233, #444, ( #194 ) ) ;
#155 = DIRECTION ( 'NONE',  ( -0.6819983588408874420, 0.7313537027583412176, 0.000000000000000000 ) ) ;
#156 = VECTOR ( 'NONE', #195, 1000.000000000000000 ) ;
#157 = CARTESIAN_POINT ( 'NONE',  ( -69.88413394276419410, -40.47183154957589579, 7.000000000000000000 ) ) ;
#158 = ORIENTED_EDGE ( 'NONE', *, *, #142, .T. ) ;
#159 = CARTESIAN_POINT ( 'NONE',  ( -1.394874999943561011, 1.976269565185000854, 5.495536392779273527 ) ) ;
#160 = CARTESIAN_POINT ( 'NONE',  ( -0.6375131954062542849, 4.444884897271351498, -6.075885990614199983 ) ) ;
#161 = DATE_AND_TIME ( #559, #533 ) ;
#162 = DIRECTION ( 'NONE',  ( -0.000000000000000000, -0.000000000000000000, -1.000000000000000000 ) ) ;
#163 = EDGE_LOOP ( 'NONE', ( #558, #181, #325, #462, #112, #336, #119, #428, #423, #198, #55, #116 ) ) ;
#164 = EDGE_CURVE ( 'NONE', #230, #11, #202, .T. ) ;
#165 = DIRECTION ( 'NONE',  ( 0.9986021505798609033, 0.05233452109915612271, 0.007405589686089788896 ) ) ;
#166 = LOCAL_TIME ( 0, 56, 10.00000000000000000, #63 ) ;
#167 = CARTESIAN_POINT ( 'NONE',  ( -1.091522743501208481, -0.8314751597095918489, -5.478581468896476458 ) ) ;
#168 = CARTESIAN_POINT ( 'NONE',  ( -6.162527536576456022, -4.004356006930182232, 4.649248739371564021 ) ) ;
#169 = ORIENTED_EDGE ( 'NONE', *, *, #429, .T. ) ;
#170 = CARTESIAN_POINT ( 'NONE',  ( -1.394874999943561011, -2.223730434814910062, 4.901215932243370155 ) ) ;
#171 = EDGE_CURVE ( 'NONE', #554, #373, #545, .T. ) ;
#172 = CARTESIAN_POINT ( 'NONE',  ( -0.09106104864206086835, -3.215973670137249663, -5.208646944541281520 ) ) ;
#173 = CARTESIAN_POINT ( 'NONE',  ( -18.94519211359817135, 7.540918895746568040, -6.426369105244412516 ) ) ;
#174 = ORGANIZATION ( 'UNSPECIFIED', 'UNSPECIFIED', '' ) ;
#175 = CARTESIAN_POINT ( 'NONE',  ( -2.846604824987382987, -5.059081103884319752, 6.359217364476317691 ) ) ;
#176 = B_SPLINE_SURFACE_WITH_KNOTS ( 'NONE', 2, 1, ( 
 ( #464, #9 ),
 ( #418, #375 ),
 ( #21, #372 ) ),
 .UNSPECIFIED., .F., .F., .F.,
 ( 3, 3 ),
 ( 2, 2 ),
 ( 0.4988120746294950059, 0.4994128454637969949 ),
 ( 0.000000000000000000, 1.000000000000000000 ),
 .UNSPECIFIED. ) ;
#177 = CARTESIAN_POINT ( 'NONE',  ( -11.24678723791021540, -0.6851860749068096057, -5.495141963420474340 ) ) ;
#178 = CARTESIAN_POINT ( 'NONE',  ( -23.03592114560350268, 12.60815517220120086, 7.000000000000000000 ) ) ;
#179 = CARTESIAN_POINT ( 'NONE',  ( -3.278073379930583897, -4.979360001396816671, -5.009024739494249090 ) ) ;
#180 = ORIENTED_EDGE ( 'NONE', *, *, #130, .F. ) ;
#181 = ORIENTED_EDGE ( 'NONE', *, *, #142, .F. ) ;
#182 = EDGE_CURVE ( 'NONE', #11, #283, #415, .T. ) ;
#183 = CARTESIAN_POINT ( 'NONE',  ( 2.198389076633395778, 0.6188211927258228107, -5.642760668152244641 ) ) ;
#184 = DIRECTION ( 'NONE',  ( -0.9993786405320740363, -0.03489907114099006363, -0.004938388579235461831 ) ) ;
#185 = ORIENTED_EDGE ( 'NONE', *, *, #317, .F. ) ;
#186 = VECTOR ( 'NONE', #218, 1000.000000000000227 ) ;
#187 = ORIENTED_EDGE ( 'NONE', *, *, #164, .T. ) ;
#188 = DIRECTION ( 'NONE',  ( -0.03489949670249008207, -0.9993908270190960952, 0.000000000000000000 ) ) ;
#189 = ORIENTED_EDGE ( 'NONE', *, *, #6, .F. ) ;
#190 = APPROVAL_ROLE ( '' ) ;
#191 = DIRECTION ( 'NONE',  ( 1.000000000000000000, -2.081376414897577884E-10, 0.000000000000000000 ) ) ;
#192 = CC_DESIGN_DATE_AND_TIME_ASSIGNMENT ( #290, #396, ( #435 ) ) ;
#193 = DIRECTION ( 'NONE',  ( -0.000000000000000000, -0.000000000000000000, -1.000000000000000000 ) ) ;
#194 = PRODUCT_DEFINITION_FORMATION_WITH_SPECIFIED_SOURCE ( 'ANY', '', #543, .NOT_KNOWN. ) ;
#195 = DIRECTION ( 'NONE',  ( -0.000000000000000000, -0.000000000000000000, -1.000000000000000000 ) ) ;
#196 = CARTESIAN_POINT ( 'NONE',  ( -0.9075306697980521919, -0.1237304348149260991, -5.864180907265433618 ) ) ;
#197 =( BOUNDED_CURVE ( )  B_SPLINE_CURVE ( 3, ( #121, #38, #478, #86 ),
 .UNSPECIFIED., .F., .T. ) 
 B_SPLINE_CURVE_WITH_KNOTS ( ( 4, 4 ),
 ( 5.468223840914978595, 5.549972645329292575 ),
 .UNSPECIFIED. ) 
 CURVE ( )  GEOMETRIC_REPRESENTATION_ITEM ( )  RATIONAL_B_SPLINE_CURVE ( ( 1.000000000000000000, 0.9994431719463756636, 0.9994431719463756636, 1.000000000000000000 ) ) 
 REPRESENTATION_ITEM ( '' )  );
#198 = ORIENTED_EDGE ( 'NONE', *, *, #171, .F. ) ;
#199 = CARTESIAN_POINT ( 'NONE',  ( -9.533682530099815366, -1.996453055204654214, 4.933376788652745759 ) ) ;
#200 = VECTOR ( 'NONE', #412, 1000.000000000000000 ) ;
#201 = CARTESIAN_POINT ( 'NONE',  ( -1.040732795035263392, 0.2309816495356736832, 5.248569650446722967 ) ) ;
#202 = B_SPLINE_CURVE_WITH_KNOTS ( 'NONE', 3,
 ( #216, #92, #456, #5, #365, #321, #277, #539, #334, #497, #320, #460 ),
 .UNSPECIFIED., .F., .F.,
 ( 4, 2, 2, 2, 2, 4 ),
 ( 8.673617379884035472E-19, 0.002647880179188882941, 0.005295760358377765015, 0.007943640537566645787, 0.009267580627161087908, 0.01059152071675553003 ),
 .UNSPECIFIED. ) ;
#203 = CARTESIAN_POINT ( 'NONE',  ( -1.234563142446286843, -1.529462512548840580, -5.399566580327396004 ) ) ;
#204 = VERTEX_POINT ( 'NONE', #54 ) ;
#205 = DIRECTION ( 'NONE',  ( -0.000000000000000000, -0.000000000000000000, -1.000000000000000000 ) ) ;
#206 = CARTESIAN_POINT ( 'NONE',  ( 0.3551250000566972265, 3.001549528634499975, -5.912494801853048543 ) ) ;
#207 = CARTESIAN_POINT ( 'NONE',  ( -23.03592114560350268, 11.54013782009825206, 6.848870341770910919 ) ) ;
#208 = CARTESIAN_POINT ( 'NONE',  ( -2.846604824987382987, -5.059081103884319752, -5.000000000000000000 ) ) ;
#209 = CARTESIAN_POINT ( 'NONE',  ( -2.846604824987382987, -5.059081103884319752, 4.500000000000000888 ) ) ;
#210 = CC_DESIGN_SECURITY_CLASSIFICATION ( #435, ( #194 ) ) ;
#211 = DIRECTION ( 'NONE',  ( -0.9993908270190958731, -0.03489949670249428010, 0.000000000000000000 ) ) ;
#212 = EDGE_CURVE ( 'NONE', #457, #485, #455, .T. ) ;
#213 = CARTESIAN_POINT ( 'NONE',  ( -10.21500838427921387, -3.697644103227559320, -6.502625088165213008 ) ) ;
#214 = ORIENTED_EDGE ( 'NONE', *, *, #17, .T. ) ;
#215 =( NAMED_UNIT ( * ) SI_UNIT ( $, .STERADIAN. ) SOLID_ANGLE_UNIT ( ) );
#216 = CARTESIAN_POINT ( 'NONE',  ( -6.994875025828873660, 10.47738999221430234, 6.698486346889593435 ) ) ;
#217 = CARTESIAN_POINT ( 'NONE',  ( -17.87901943346203026, 6.168410686869481907, 6.088744783748577305 ) ) ;
#218 = DIRECTION ( 'NONE',  ( -0.9986120086232370685, -0.05233503773731754127, 0.005924530234325171146 ) ) ;
#219 = EDGE_CURVE ( 'NONE', #441, #526, #95, .T. ) ;
#220 = VECTOR ( 'NONE', #490, 1000.000000000000114 ) ;
#221 = VERTEX_POINT ( 'NONE', #2 ) ;
#222 = APPROVAL_ROLE ( '' ) ;
#223 = B_SPLINE_SURFACE_WITH_KNOTS ( 'NONE', 2, 1, ( 
 ( #511, #467 ),
 ( #436, #298 ),
 ( #28, #64 ) ),
 .UNSPECIFIED., .F., .F., .F.,
 ( 3, 3 ),
 ( 2, 2 ),
 ( 0.5008207051229819351, 0.5020133117822229707 ),
 ( 0.000000000000000000, 1.000000000000000000 ),
 .UNSPECIFIED. ) ;
#224 = CARTESIAN_POINT ( 'NONE',  ( -3.702783848952148738, -4.876195828739250615, -5.020703325895141234 ) ) ;
#225 = ORIENTED_EDGE ( 'NONE', *, *, #438, .T. ) ;
#226 = EDGE_CURVE ( 'NONE', #526, #96, #296, .T. ) ;
#227 = EDGE_LOOP ( 'NONE', ( #312, #338, #180, #187 ) ) ;
#228 = CARTESIAN_POINT ( 'NONE',  ( -10.58177445823908513, -1.224570181389822432, 5.042601975568323347 ) ) ;
#229 = CARTESIAN_POINT ( 'NONE',  ( -6.948876663721481606, -3.612404337174381475, -5.163769448045255395 ) ) ;
#230 = VERTEX_POINT ( 'NONE', #422 ) ;
#231 = VERTEX_POINT ( 'NONE', #13 ) ;
#232 = B_SPLINE_SURFACE_WITH_KNOTS ( 'NONE', 2, 1, ( 
 ( #98, #544 ),
 ( #496, #213 ),
 ( #175, #8 ) ),
 .UNSPECIFIED., .F., .F., .F.,
 ( 3, 3 ),
 ( 2, 2 ),
 ( 0.4976672411085089620, 0.4995542795880109632 ),
 ( 0.000000000000000000, 1.000000000000000000 ),
 .UNSPECIFIED. ) ;
#233 = PERSON_AND_ORGANIZATION ( #250, #174 ) ;
#234 = DIRECTION ( 'NONE',  ( -0.000000000000000000, -0.000000000000000000, -1.000000000000000000 ) ) ;
#235 = ORIENTED_EDGE ( 'NONE', *, *, #429, .F. ) ;
#236 = VECTOR ( 'NONE', #314, 1000.000000000000000 ) ;
#237 = VERTEX_POINT ( 'NONE', #141 ) ;
#238 = ORIENTED_EDGE ( 'NONE', *, *, #515, .F. ) ;
#239 = ADVANCED_FACE ( 'NONE', ( #552 ), #223, .F. ) ;
#240 = DIRECTION ( 'NONE',  ( 0.7313537027583412176, 0.6819983588408874420, -0.000000000000000000 ) ) ;
#241 = ORIENTED_EDGE ( 'NONE', *, *, #317, .T. ) ;
#242 = PERSON_AND_ORGANIZATION_ROLE ( 'creator' ) ;
#243 = CARTESIAN_POINT ( 'NONE',  ( 0.3551250000564473708, -2.284841781425449359, 7.000000000000000000 ) ) ;
#244 = B_SPLINE_CURVE_WITH_KNOTS ( 'NONE', 3,
 ( #124, #311, #450, #443, #172, #453 ),
 .UNSPECIFIED., .F., .F.,
 ( 4, 2, 4 ),
 ( 0.000000000000000000, 0.001996494119117836388, 0.003992988238235672775 ),
 .UNSPECIFIED. ) ;
#245 = CARTESIAN_POINT ( 'NONE',  ( -23.03592114560350268, 11.87161228793415191, -6.916620475012941860 ) ) ;
#246 = EDGE_CURVE ( 'NONE', #279, #554, #573, .T. ) ;
#247 = AXIS2_PLACEMENT_3D ( 'NONE', #108, #347, #248 ) ;
#248 = DIRECTION ( 'NONE',  ( 0.000000000000000000, -0.9936533736897814606, 0.1124854344122625388 ) ) ;
#249 = ADVANCED_FACE ( 'NONE', ( #519 ), #342, .F. ) ;
#250 = PERSON ( 'UNSPECIFIED', 'UNSPECIFIED', 'UNSPECIFIED', ('UNSPECIFIED'), ('UNSPECIFIED'), ('UNSPECIFIED') ) ;
#251 = CARTESIAN_POINT ( 'NONE',  ( -1.394874999943561011, -2.223730434814910062, 5.563288185821289034 ) ) ;
#252 =( BOUNDED_SURFACE ( )  B_SPLINE_SURFACE ( 2, 1, ( 
 ( #251, #518 ),
 ( #69, #196 ),
 ( #297, #66 ) ),
 .UNSPECIFIED., .F., .F., .T. ) 
 B_SPLINE_SURFACE_WITH_KNOTS ( ( 3, 3 ),
 ( 2, 2 ),
 ( 0.000000000000000000, 1.000000000000000000 ),
 ( 0.000000000000000000, 1.000000000000000000 ),
 .UNSPECIFIED. ) 
 GEOMETRIC_REPRESENTATION_ITEM ( )  RATIONAL_B_SPLINE_SURFACE ( (
 ( 1.000000000000000000, 1.000000000000000000),
 ( 3.231801218513670193, 3.231801218513670193),
 ( 1.000000000000000000, 1.000000000000000000) ) ) 
 REPRESENTATION_ITEM ( '' )  SURFACE ( )  );
#253 = ORIENTED_EDGE ( 'NONE', *, *, #480, .F. ) ;
#254 = FACE_OUTER_BOUND ( 'NONE', #309, .T. ) ;
#255 = LINE ( 'NONE', #363, #561 ) ;
#256 = VECTOR ( 'NONE', #94, 1000.000000000000114 ) ;
#257 = ORIENTED_EDGE ( 'NONE', *, *, #20, .T. ) ;
#258 = CC_DESIGN_DATE_AND_TIME_ASSIGNMENT ( #517, #115, ( #471 ) ) ;
#259 = DIRECTION ( 'NONE',  ( -0.000000000000000000, -0.000000000000000000, -1.000000000000000000 ) ) ;
#260 = CARTESIAN_POINT ( 'NONE',  ( -0.6039760694797273732, -3.639473049263814541, 4.700881455429172462 ) ) ;
#261 = ORIENTED_EDGE ( 'NONE', *, *, #84, .F. ) ;
#262 = CARTESIAN_POINT ( 'NONE',  ( -1.394874999943561011, 1.976269565185000854, -5.796429114223418999 ) ) ;
#263 = LINE ( 'NONE', #483, #3 ) ;
#264 = CARTESIAN_POINT ( 'NONE',  ( -2.846604824987382987, -5.059081103884319752, 7.000000000000000000 ) ) ;
#265 = CARTESIAN_POINT ( 'NONE',  ( 0.3551250000109473781, -2.723253226996780629, 4.830531023696293502 ) ) ;
#266 = APPROVAL ( #145, 'UNSPECIFIED' ) ;
#267 = ADVANCED_BREP_SHAPE_REPRESENTATION ( 'lente dot l8_v9_croquis6_D1_2p5mm', ( #393, #77 ), #366 ) ;
#268 = APPROVAL_PERSON_ORGANIZATION ( #106, #494, #190 ) ;
#269 = LINE ( 'NONE', #120, #566 ) ;
#270 = VECTOR ( 'NONE', #421, 1000.000000000000000 ) ;
#271 = CARTESIAN_POINT ( 'NONE',  ( -1.092990794241189167, 0.5806537763005525932, -5.638439967865135571 ) ) ;
#272 = LINE ( 'NONE', #579, #49 ) ;
#273 = CARTESIAN_POINT ( 'NONE',  ( 0.3551250000566972265, 12.60815517220120086, -7.000000000000000000 ) ) ;
#274 = CARTESIAN_POINT ( 'NONE',  ( -4.540415514160765831, -4.628971769232971489, -5.048690052923965332 ) ) ;
#275 = CARTESIAN_POINT ( 'NONE',  ( -11.25367599136457031, -0.6793567747096154186, 5.119752328651262729 ) ) ;
#276 = UNCERTAINTY_MEASURE_WITH_UNIT (LENGTH_MEASURE( 1.000000000000000082E-05 ), #328, 'distance_accuracy_value', 'NONE');
#277 = CARTESIAN_POINT ( 'NONE',  ( -1.769956129936177236, 5.779494493853546189, 6.033711247809801392 ) ) ;
#278 = CC_DESIGN_APPROVAL ( #494, ( #194 ) ) ;
#279 = VERTEX_POINT ( 'NONE', #70 ) ;
#280 = EDGE_LOOP ( 'NONE', ( #468, #158, #502, #104 ) ) ;
#281 = DIRECTION ( 'NONE',  ( 0.000000000000000000, -0.9936533736897814606, 0.1124854344122625388 ) ) ;
#282 = CARTESIAN_POINT ( 'NONE',  ( -8.446328555618359601, -2.745180178998659404, -5.261942602535707003 ) ) ;
#283 = VERTEX_POINT ( 'NONE', #563 ) ;
#284 = ORIENTED_EDGE ( 'NONE', *, *, #438, .F. ) ;
#285 = CALENDAR_DATE ( 2026, 27, 8 ) ;
#286 = CARTESIAN_POINT ( 'NONE',  ( -17.87950527536434464, 6.169036122140490797, -6.271066628709013102 ) ) ;
#287 = ORIENTED_EDGE ( 'NONE', *, *, #39, .T. ) ;
#288 = EDGE_CURVE ( 'NONE', #549, #331, #107, .T. ) ;
#289 = ADVANCED_FACE ( 'NONE', ( #520 ), #555, .F. ) ;
#290 = DATE_AND_TIME ( #525, #166 ) ;
#291 = FACE_OUTER_BOUND ( 'NONE', #34, .T. ) ;
#292 = VECTOR ( 'NONE', #281, 1000.000000000000114 ) ;
#293 = ORIENTED_EDGE ( 'NONE', *, *, #413, .T. ) ;
#294 = SECURITY_CLASSIFICATION_LEVEL ( 'unclassified' ) ;
#295 = DIRECTION ( 'NONE',  ( 0.05233595624294034437, -0.9986295347545741663, 0.000000000000000000 ) ) ;
#296 = B_SPLINE_CURVE_WITH_KNOTS ( 'NONE', 3,
 ( #173, #286, #500, #51, #368, #177, #370, #542, #282, #229, #90, #132, #274, #224, #179, #548 ),
 .UNSPECIFIED., .F., .F.,
 ( 4, 2, 2, 2, 2, 2, 2, 4 ),
 ( 0.000000000000000000, 0.005225300082522360903, 0.01045060016504471834, 0.01306325020630589792, 0.01567590024756707751, 0.01828855028882826056, 0.01959487530945885209, 0.02090120033008944014 ),
 .UNSPECIFIED. ) ;
#297 = CARTESIAN_POINT ( 'NONE',  ( -1.394874999943561011, 1.976269565185000410, 5.563288185821289034 ) ) ;
#298 = CARTESIAN_POINT ( 'NONE',  ( -1.448726270043842357, 6.058427314146597631, -6.839532730058081711 ) ) ;
#299 = ADVANCED_FACE ( 'NONE', ( #472 ), #252, .F. ) ;
#300 = VECTOR ( 'NONE', #564, 1000.000000000000000 ) ;
#301 = FACE_OUTER_BOUND ( 'NONE', #550, .T. ) ;
#302 = CARTESIAN_POINT ( 'NONE',  ( -1.022740383397558794, -0.3018354364903452769, 5.173173437125734964 ) ) ;
#303 = DIRECTION ( 'NONE',  ( -0.03489949670249428704, 0.9993908270190959842, 0.000000000000000000 ) ) ;
#304 = APPROVAL_STATUS ( 'not_yet_approved' ) ;
#305 = ORIENTED_EDGE ( 'NONE', *, *, #580, .F. ) ;
#306 = DIRECTION ( 'NONE',  ( -3.485384126420033333E-13, -1.000000000000000000, 0.000000000000000000 ) ) ;
#307 = ORIENTED_EDGE ( 'NONE', *, *, #474, .F. ) ;
#308 = AXIS2_PLACEMENT_3D ( 'NONE', #36, #303, #211 ) ;
#309 = EDGE_LOOP ( 'NONE', ( #53, #380, #238, #424 ) ) ;
#310 = CARTESIAN_POINT ( 'NONE',  ( -1.234515387713202017, 1.281797790053807118, 5.397265253439950783 ) ) ;
#311 = CARTESIAN_POINT ( 'NONE',  ( -2.260123282944291212, -4.745841028287424379, -5.035459997330865356 ) ) ;
#312 = ORIENTED_EDGE ( 'NONE', *, *, #182, .T. ) ;
#313 = CARTESIAN_POINT ( 'NONE',  ( -18.94519211359817135, 7.540918895746568040, 6.282961381555518088 ) ) ;
#314 = DIRECTION ( 'NONE',  ( -0.000000000000000000, -0.000000000000000000, -1.000000000000000000 ) ) ;
#315 = CARTESIAN_POINT ( 'NONE',  ( -23.03592114560350268, 11.87161228793415191, 7.000000000000000000 ) ) ;
#316 = CARTESIAN_POINT ( 'NONE',  ( -1.688369080500804920, -4.405251772244188402, 4.592520035593385508 ) ) ;
#317 = EDGE_CURVE ( 'NONE', #237, #549, #390, .T. ) ;
#318 = AXIS2_PLACEMENT_3D ( 'NONE', #149, #240, #155 ) ;
#319 = CARTESIAN_POINT ( 'NONE',  ( -14.43152265331172401, 2.255907678330171251, 5.535106548062110221 ) ) ;
#320 = CARTESIAN_POINT ( 'NONE',  ( 0.1314447894190855226, 3.380606870162811806, 5.694256962741696348 ) ) ;
#321 = CARTESIAN_POINT ( 'NONE',  ( -2.382244805674706090, 6.412190294249904277, 6.123240785779025863 ) ) ;
#322 = ADVANCED_FACE ( 'NONE', ( #301 ), #433, .T. ) ;
#323 = APPLICATION_PROTOCOL_DEFINITION ( 'international standard', 'config_control_design', 1994, #56 ) ;
#324 = FACE_OUTER_BOUND ( 'NONE', #7, .T. ) ;
#325 = ORIENTED_EDGE ( 'NONE', *, *, #109, .F. ) ;
#326 = B_SPLINE_CURVE_WITH_KNOTS ( 'NONE', 3,
 ( #159, #492, #310, #400, #572, #201, #113, #302, #40, #407, #397, #357, #536, #534 ),
 .UNSPECIFIED., .F., .F.,
 ( 4, 2, 2, 2, 2, 2, 4 ),
 ( 4.336808689942017736E-19, 0.001079160554513991380, 0.001618740831770986962, 0.002158321109027982760, 0.002697901386284978775, 0.003237481663541973923, 0.004316642218055964653 ),
 .UNSPECIFIED. ) ;
#327 = VERTEX_POINT ( 'NONE', #473 ) ;
#328 =( LENGTH_UNIT ( ) NAMED_UNIT ( * ) SI_UNIT ( .MILLI., .METRE. ) );
#329 = DIRECTION ( 'NONE',  ( 0.9993830276160452497, 0.03489922434133817253, -0.003950728206264833911 ) ) ;
#330 = VECTOR ( 'NONE', #165, 1000.000000000000114 ) ;
#331 = VERTEX_POINT ( 'NONE', #146 ) ;
#332 = ORIENTED_EDGE ( 'NONE', *, *, #219, .T. ) ;
#333 = CARTESIAN_POINT ( 'NONE',  ( 0.3551250000566972265, 12.60815517220120086, 7.000000000000000000 ) ) ;
#334 = CARTESIAN_POINT ( 'NONE',  ( -0.6368482722947239605, 4.444032847803492281, 5.844736919117283769 ) ) ;
#335 = CC_DESIGN_PERSON_AND_ORGANIZATION_ASSIGNMENT ( #356, #19, ( #435 ) ) ;
#336 = ORIENTED_EDGE ( 'NONE', *, *, #17, .F. ) ;
#337 = EDGE_CURVE ( 'NONE', #204, #512, #26, .T. ) ;
#338 = ORIENTED_EDGE ( 'NONE', *, *, #80, .T. ) ;
#339 = FACE_OUTER_BOUND ( 'NONE', #513, .T. ) ;
#340 = ORIENTED_EDGE ( 'NONE', *, *, #570, .T. ) ;
#341 = COORDINATED_UNIVERSAL_TIME_OFFSET ( 1, 0, .AHEAD. ) ;
#342 = PLANE ( 'NONE',  #247 ) ;
#343 = VECTOR ( 'NONE', #205, 1000.000000000000000 ) ;
#344 = ORIENTED_EDGE ( 'NONE', *, *, #337, .T. ) ;
#345 = CARTESIAN_POINT ( 'NONE',  ( -23.03592114560350268, 11.87161228793415191, 6.895775593766179767 ) ) ;
#346 = EDGE_CURVE ( 'NONE', #485, #416, #514, .T. ) ;
#347 = DIRECTION ( 'NONE',  ( 0.000000000000000000, 0.1124854344122625527, 0.9936533736897815716 ) ) ;
#348 = CARTESIAN_POINT ( 'NONE',  ( -23.03592114560350268, 0.000000000000000000, 7.000000000000000000 ) ) ;
#349 = VECTOR ( 'NONE', #505, 1000.000000000000000 ) ;
#350 = CARTESIAN_POINT ( 'NONE',  ( -21.61822091296472692, 10.26318709152288555, 6.668175592940294827 ) ) ;
#351 = ADVANCED_FACE ( 'NONE', ( #339 ), #152, .T. ) ;
#352 = CALENDAR_DATE ( 2026, 27, 8 ) ;
#353 = ORIENTED_EDGE ( 'NONE', *, *, #212, .F. ) ;
#354 = CYLINDRICAL_SURFACE ( 'NONE', #540, 69.99999999999980105 ) ;
#355 = VERTEX_POINT ( 'NONE', #345 ) ;
#356 = PERSON_AND_ORGANIZATION ( #250, #174 ) ;
#357 = CARTESIAN_POINT ( 'NONE',  ( -1.234579861368278353, -1.529533825183915674, 4.999448134323932535 ) ) ;
#358 = CARTESIAN_POINT ( 'NONE',  ( -3.645765441986447808, 7.633576839299838213, -6.436858345565287465 ) ) ;
#359 = PRODUCT_RELATED_PRODUCT_CATEGORY ( 'detail', '', ( #543 ) ) ;
#360 = DIRECTION ( 'NONE',  ( 0.000000000000000000, 0.9901360746104197474, 0.1401090780608784114 ) ) ;
#361 = CARTESIAN_POINT ( 'NONE',  ( -1.022530459175377437, 0.05020564446570145722, -5.578391172055129132 ) ) ;
#362 = CARTESIAN_POINT ( 'NONE',  ( -8.076301514987587638, -2.959470570747714913, 4.797105118809507296 ) ) ;
#363 = CARTESIAN_POINT ( 'NONE',  ( -0.08964897549421836642, -2.269309931949321069, 4.894766211355769947 ) ) ;
#364 = LINE ( 'NONE', #499, #292 ) ;
#365 = CARTESIAN_POINT ( 'NONE',  ( -3.644783062915186722, 7.632672283556370729, 6.295944932912454384 ) ) ;
#366 =( GEOMETRIC_REPRESENTATION_CONTEXT ( 3 ) GLOBAL_UNCERTAINTY_ASSIGNED_CONTEXT ( ( #276 ) ) GLOBAL_UNIT_ASSIGNED_CONTEXT ( ( #328, #452, #215 ) ) REPRESENTATION_CONTEXT ( 'NONE', 'WORKASPACE' ) );
#367 = CARTESIAN_POINT ( 'NONE',  ( 0.000000000000000000, 0.000000000000000000, 0.000000000000000000 ) ) ;
#368 = CARTESIAN_POINT ( 'NONE',  ( -13.20928844768828192, 1.026649603600847005, -5.688928433670470852 ) ) ;
#369 = LINE ( 'NONE', #333, #270 ) ;
#370 = CARTESIAN_POINT ( 'NONE',  ( -10.57049231190724292, -1.233542265767109347, -5.433065905536727414 ) ) ;
#371 = CARTESIAN_POINT ( 'NONE',  ( -18.94519211359817135, 7.540918895746568040, 6.282961381555518088 ) ) ;
#372 = CARTESIAN_POINT ( 'NONE',  ( 0.3551249999651975298, -2.723253226996780185, -5.324994554012954850 ) ) ;
#373 = VERTEX_POINT ( 'NONE', #245 ) ;
#374 = PRODUCT_DEFINITION_SHAPE ( 'NONE', 'NONE',  #471 ) ;
#375 = CARTESIAN_POINT ( 'NONE',  ( -0.7423668819740020242, -3.935206599586729137, -5.324994554012954850 ) ) ;
#376 = VECTOR ( 'NONE', #259, 1000.000000000000000 ) ;
#377 = ORIENTED_EDGE ( 'NONE', *, *, #219, .F. ) ;
#378 = ORIENTED_EDGE ( 'NONE', *, *, #130, .T. ) ;
#379 = DIRECTION ( 'NONE',  ( 0.9993908270190959842, -0.03489949670249007513, 0.000000000000000000 ) ) ;
#380 = ORIENTED_EDGE ( 'NONE', *, *, #182, .F. ) ;
#381 = COORDINATED_UNIVERSAL_TIME_OFFSET ( 1, 0, .AHEAD. ) ;
#382 = DIRECTION ( 'NONE',  ( 2.081376414897577884E-10, 1.000000000000000000, 0.000000000000000000 ) ) ;
#383 = ADVANCED_FACE ( 'NONE', ( #291 ), #439, .F. ) ;
#384 = VERTEX_POINT ( 'NONE', #430 ) ;
#385 = DATE_AND_TIME ( #529, #18 ) ;
#386 = CARTESIAN_POINT ( 'NONE',  ( -0.03063247170903194219, -2.271370833674211998, -5.315579666977519935 ) ) ;
#387 = VECTOR ( 'NONE', #137, 1000.000000000000000 ) ;
#388 = ADVANCED_FACE ( 'NONE', ( #153 ), #470, .T. ) ;
#389 = CARTESIAN_POINT ( 'NONE',  ( 0.3551249999651975298, -2.723253226996780185, 7.000000000000000000 ) ) ;
#390 = LINE ( 'NONE', #243, #300 ) ;
#391 = ORIENTED_EDGE ( 'NONE', *, *, #288, .T. ) ;
#392 = PLANE ( 'NONE',  #129 ) ;
#393 = MANIFOLD_SOLID_BREP ( 'Cortar-Extruir2', #426 ) ;
#394 = ORIENTED_EDGE ( 'NONE', *, *, #39, .F. ) ;
#395 = AXIS2_PLACEMENT_3D ( 'NONE', #22, #191, #382 ) ;
#396 = DATE_TIME_ROLE ( 'classification_date' ) ;
#397 = CARTESIAN_POINT ( 'NONE',  ( -1.127306906060984160, -1.006094548735910310, 5.073517341905163569 ) ) ;
#398 = CARTESIAN_POINT ( 'NONE',  ( -1.234222067970938364, 1.280553300889269552, -5.717671321728448497 ) ) ;
#399 = APPROVAL_DATE_TIME ( #161, #494 ) ;
#400 = CARTESIAN_POINT ( 'NONE',  ( -1.127214642154755531, 0.7581637251617026063, 5.323168482344956765 ) ) ;
#401 = FACE_OUTER_BOUND ( 'NONE', #280, .T. ) ;
#402 = CC_DESIGN_PERSON_AND_ORGANIZATION_ASSIGNMENT ( #58, #242, ( #471 ) ) ;
#403 = CARTESIAN_POINT ( 'NONE',  ( 0.3551250000566972265, 12.60815517220120086, -7.000000000000000000 ) ) ;
#404 = CARTESIAN_POINT ( 'NONE',  ( -5.629019070786770662, 9.370759677855353686, -6.633514213116802338 ) ) ;
#405 = ADVANCED_FACE ( 'NONE', ( #560 ), #392, .F. ) ;
#406 = VECTOR ( 'NONE', #234, 1000.000000000000000 ) ;
#407 = CARTESIAN_POINT ( 'NONE',  ( -1.093573397931336899, -0.8312661728249126636, 5.098256408782824600 ) ) ;
#408 = CARTESIAN_POINT ( 'NONE',  ( -1.394874999943561011, -2.223730434814909618, 7.000000000000000000 ) ) ;
#409 = CARTESIAN_POINT ( 'NONE',  ( 0.1312382564655795725, 3.380956869083463712, -5.955445191435209118 ) ) ;
#410 = MECHANICAL_CONTEXT ( 'NONE', #465, 'mechanical' ) ;
#411 = APPROVAL ( #459, 'UNSPECIFIED' ) ;
#412 = DIRECTION ( 'NONE',  ( -0.000000000000000000, -0.000000000000000000, -1.000000000000000000 ) ) ;
#413 = EDGE_CURVE ( 'NONE', #221, #231, #269, .T. ) ;
#414 = APPROVAL_PERSON_ORGANIZATION ( #91, #411, #222 ) ;
#415 = LINE ( 'NONE', #498, #349 ) ;
#416 = VERTEX_POINT ( 'NONE', #262 ) ;
#417 = COORDINATED_UNIVERSAL_TIME_OFFSET ( 1, 0, .AHEAD. ) ;
#418 = CARTESIAN_POINT ( 'NONE',  ( -0.7423668819740020242, -3.935206599586729137, 4.891100758752214617 ) ) ;
#419 = ORIENTED_EDGE ( 'NONE', *, *, #71, .F. ) ;
#420 = ORIENTED_EDGE ( 'NONE', *, *, #6, .T. ) ;
#421 = DIRECTION ( 'NONE',  ( -0.000000000000000000, 0.9901360746104197474, 0.1401090780608784392 ) ) ;
#422 = CARTESIAN_POINT ( 'NONE',  ( -6.994875025828873660, 10.47738999221430234, 6.698486346889593435 ) ) ;
#423 = ORIENTED_EDGE ( 'NONE', *, *, #569, .F. ) ;
#424 = ORIENTED_EDGE ( 'NONE', *, *, #437, .T. ) ;
#425 = ADVANCED_FACE ( 'NONE', ( #477 ), #354, .F. ) ;
#426 = CLOSED_SHELL ( 'NONE', ( #454, #351, #557, #150, #388, #383, #299, #239, #322, #289, #425, #68, #405, #249 ) ) ;
#427 = CARTESIAN_POINT ( 'NONE',  ( -6.994875025828874548, 10.47738999221430234, -6.758789077511675458 ) ) ;
#428 = ORIENTED_EDGE ( 'NONE', *, *, #84, .T. ) ;
#429 = EDGE_CURVE ( 'NONE', #355, #373, #482, .T. ) ;
#430 = CARTESIAN_POINT ( 'NONE',  ( -2.846604824987382987, -5.059081103884319752, 4.500000000000000888 ) ) ;
#431 = ORIENTED_EDGE ( 'NONE', *, *, #506, .T. ) ;
#432 = PERSON_AND_ORGANIZATION_ROLE ( 'creator' ) ;
#433 = PLANE ( 'NONE',  #318 ) ;
#434 = CARTESIAN_POINT ( 'NONE',  ( -0.07925871954190913393, -2.269672767682391790, 7.000000000000000000 ) ) ;
#435 = SECURITY_CLASSIFICATION ( '', '', #294 ) ;
#436 = CARTESIAN_POINT ( 'NONE',  ( -1.448726270043842357, 6.058427314146597631, 6.779229999436001464 ) ) ;
#437 = EDGE_CURVE ( 'NONE', #457, #327, #73, .T. ) ;
#438 = EDGE_CURVE ( 'NONE', #384, #96, #79, .T. ) ;
#439 = PLANE ( 'NONE',  #32 ) ;
#440 = COORDINATED_UNIVERSAL_TIME_OFFSET ( 1, 0, .AHEAD. ) ;
#441 = VERTEX_POINT ( 'NONE', #76 ) ;
#442 = CARTESIAN_POINT ( 'NONE',  ( 0.3551250000556511188, -1.237747038088879550E-13, 7.000000000000000000 ) ) ;
#443 = CARTESIAN_POINT ( 'NONE',  ( -0.6035205376108018216, -3.639126207244638866, -5.160744428211647694 ) ) ;
#444 = PERSON_AND_ORGANIZATION_ROLE ( 'design_supplier' ) ;
#445 = EDGE_LOOP ( 'NONE', ( #332, #97, #284, #431 ) ) ;
#446 = PLANE ( 'NONE',  #576 ) ;
#447 = PLANE ( 'NONE',  #308 ) ;
#448 = CARTESIAN_POINT ( 'NONE',  ( -1.770903618263380386, 5.780516964818191994, -6.227084745945846045 ) ) ;
#449 = CARTESIAN_POINT ( 'NONE',  ( -6.940689573098917542, -3.617154881069457595, 4.704039584952923292 ) ) ;
#450 = CARTESIAN_POINT ( 'NONE',  ( -1.688194259797113572, -4.405153456069165863, -5.074027158248894054 ) ) ;
#451 = VECTOR ( 'NONE', #329, 1000.000000000000114 ) ;
#452 =( NAMED_UNIT ( * ) PLANE_ANGLE_UNIT ( ) SI_UNIT ( $, .RADIAN. ) );
#453 = CARTESIAN_POINT ( 'NONE',  ( 0.3551250000109473781, -2.723253226996779741, -5.264424818957035512 ) ) ;
#454 = ADVANCED_FACE ( 'NONE', ( #254 ), #446, .F. ) ;
#455 = LINE ( 'NONE', #89, #551 ) ;
#456 = CARTESIAN_POINT ( 'NONE',  ( -5.628502894380172705, 9.370332628445730450, 6.541832336824171534 ) ) ;
#457 = VERTEX_POINT ( 'NONE', #35 ) ;
#458 = LOCAL_TIME ( 0, 56, 10.00000000000000000, #440 ) ;
#459 = APPROVAL_STATUS ( 'not_yet_approved' ) ;
#460 = CARTESIAN_POINT ( 'NONE',  ( 0.3551250000566972265, 3.001549528634499975, 5.640618502316310234 ) ) ;
#461 = CC_DESIGN_PERSON_AND_ORGANIZATION_ASSIGNMENT ( #133, #47, ( #543 ) ) ;
#462 = ORIENTED_EDGE ( 'NONE', *, *, #288, .F. ) ;
#463 = LINE ( 'NONE', #178, #387 ) ;
#464 = CARTESIAN_POINT ( 'NONE',  ( -2.846604824987382987, -5.059081103884319752, 4.891100758752214617 ) ) ;
#465 = APPLICATION_CONTEXT ( 'configuration controlled 3d designs of mechanical parts and assemblies' ) ;
#466 = ORIENTED_EDGE ( 'NONE', *, *, #413, .F. ) ;
#467 = CARTESIAN_POINT ( 'NONE',  ( 0.3551250000566972265, 3.001549528634499975, -6.839532730058081711 ) ) ;
#468 = ORIENTED_EDGE ( 'NONE', *, *, #346, .T. ) ;
#469 = VECTOR ( 'NONE', #128, 1000.000000000000114 ) ;
#470 = PLANE ( 'NONE',  #395 ) ;
#471 = PRODUCT_DEFINITION ( 'UNKNOWN', '', #194, #510 ) ;
#472 = FACE_OUTER_BOUND ( 'NONE', #61, .T. ) ;
#473 = CARTESIAN_POINT ( 'NONE',  ( 0.3551250000564474263, 2.037380911795548144, -5.803347156825617859 ) ) ;
#474 = EDGE_CURVE ( 'NONE', #485, #508, #326, .T. ) ;
#475 = CC_DESIGN_APPROVAL ( #266, ( #435 ) ) ;
#476 = DIRECTION ( 'NONE',  ( 0.000000000000000000, 0.000000000000000000, 1.000000000000000000 ) ) ;
#477 = FACE_OUTER_BOUND ( 'NONE', #100, .T. ) ;
#478 = CARTESIAN_POINT ( 'NONE',  ( -21.61822091296468074, 10.26318709152285535, -6.734540474352233019 ) ) ;
#479 = PERSON_AND_ORGANIZATION ( #250, #174 ) ;
#480 = EDGE_CURVE ( 'NONE', #355, #279, #531, .T. ) ;
#481 = ORIENTED_EDGE ( 'NONE', *, *, #474, .T. ) ;
#482 = LINE ( 'NONE', #315, #42 ) ;
#483 = CARTESIAN_POINT ( 'NONE',  ( 1.373618241222554825, 1.503279632523238041, 5.428606013110608863 ) ) ;
#484 = VECTOR ( 'NONE', #67, 1000.000000000000227 ) ;
#485 = VERTEX_POINT ( 'NONE', #567 ) ;
#486 = DIRECTION ( 'NONE',  ( -1.000000000000000000, 3.485384126420033333E-13, 0.000000000000000000 ) ) ;
#487 = EDGE_CURVE ( 'NONE', #221, #441, #10, .T. ) ;
#488 = CARTESIAN_POINT ( 'NONE',  ( -0.1154426953836849429, 3.742922130493388622, -5.996421069694094719 ) ) ;
#489 = ORIENTED_EDGE ( 'NONE', *, *, #480, .T. ) ;
#490 = DIRECTION ( 'NONE',  ( 0.000000000000000000, -0.9936533736897814606, 0.1124854344122625388 ) ) ;
#491 = CARTESIAN_POINT ( 'NONE',  ( -1.314167363343947681, 1.628494847443690885, -5.757059660811843393 ) ) ;
#492 = CARTESIAN_POINT ( 'NONE',  ( -1.314311497833523301, 1.629115932802409850, 5.446412462618718031 ) ) ;
#493 = CARTESIAN_POINT ( 'NONE',  ( -2.260060316739769259, -4.745807398007099387, 4.544329755512083402 ) ) ;
#494 = APPROVAL ( #304, 'UNSPECIFIED' ) ;
#495 = EDGE_CURVE ( 'NONE', #549, #512, #37, .T. ) ;
#496 = CARTESIAN_POINT ( 'NONE',  ( -10.21500838427921387, -3.697644103227559320, 6.359217364476317691 ) ) ;
#497 = CARTESIAN_POINT ( 'NONE',  ( -0.1150556964021452327, 3.742359707439222749, 5.745446751515624229 ) ) ;
#498 = CARTESIAN_POINT ( 'NONE',  ( 0.3551250000566972265, 3.001549528634499975, 7.000000000000000000 ) ) ;
#499 = CARTESIAN_POINT ( 'NONE',  ( -23.03592114560350268, 12.60815517220120086, -7.000000000000000000 ) ) ;
#500 = CARTESIAN_POINT ( 'NONE',  ( -16.77225510406512399, 4.832582587526371931, -6.119774880103934223 ) ) ;
#501 = EDGE_LOOP ( 'NONE', ( #143, #185, #15, #344 ) ) ;
#502 = ORIENTED_EDGE ( 'NONE', *, *, #437, .F. ) ;
#503 = LOCAL_TIME ( 0, 56, 10.00000000000000000, #381 ) ;
#504 = DIRECTION ( 'NONE',  ( 0.000000000000000000, 0.000000000000000000, 1.000000000000000000 ) ) ;
#505 = DIRECTION ( 'NONE',  ( -0.000000000000000000, -0.000000000000000000, -1.000000000000000000 ) ) ;
#506 = EDGE_CURVE ( 'NONE', #384, #441, #25, .T. ) ;
#507 = ORIENTED_EDGE ( 'NONE', *, *, #506, .F. ) ;
#508 = VERTEX_POINT ( 'NONE', #170 ) ;
#509 = FACE_OUTER_BOUND ( 'NONE', #445, .T. ) ;
#510 = DESIGN_CONTEXT ( 'detailed design', #56, 'design' ) ;
#511 = CARTESIAN_POINT ( 'NONE',  ( 0.3551250000566972265, 3.001549528634499975, 6.779229999436001464 ) ) ;
#512 = VERTEX_POINT ( 'NONE', #140 ) ;
#513 = EDGE_LOOP ( 'NONE', ( #169, #101, #466, #136 ) ) ;
#514 = LINE ( 'NONE', #562, #522 ) ;
#515 = EDGE_CURVE ( 'NONE', #457, #11, #369, .T. ) ;
#516 = ORIENTED_EDGE ( 'NONE', *, *, #487, .F. ) ;
#517 = DATE_AND_TIME ( #352, #458 ) ;
#518 = CARTESIAN_POINT ( 'NONE',  ( -1.394874999943561011, -2.223730434814910062, -5.864180907265433618 ) ) ;
#519 = FACE_OUTER_BOUND ( 'NONE', #163, .T. ) ;
#520 = FACE_OUTER_BOUND ( 'NONE', #14, .T. ) ;
#521 = DIRECTION ( 'NONE',  ( -1.000000000000000000, 0.000000000000000000, 0.000000000000000000 ) ) ;
#522 = VECTOR ( 'NONE', #193, 1000.000000000000000 ) ;
#523 = CARTESIAN_POINT ( 'NONE',  ( -23.03592114560350268, 12.60815517220120086, 7.000000000000000000 ) ) ;
#524 = DIRECTION ( 'NONE',  ( -0.6783752655389538866, 0.7274684108548366002, 0.1029403240391852242 ) ) ;
#525 = CALENDAR_DATE ( 2026, 27, 8 ) ;
#526 = VERTEX_POINT ( 'NONE', #131 ) ;
#527 = DIRECTION ( 'NONE',  ( 0.000000000000000000, 0.1401090780608784114, -0.9901360746104197474 ) ) ;
#528 = CARTESIAN_POINT ( 'NONE',  ( -4.298359642104462530, 8.222722295426272865, -6.503551907242953511 ) ) ;
#529 = CALENDAR_DATE ( 2026, 27, 8 ) ;
#530 = ORIENTED_EDGE ( 'NONE', *, *, #109, .T. ) ;
#531 = LINE ( 'NONE', #565, #330 ) ;
#532 = CARTESIAN_POINT ( 'NONE',  ( -6.307292799264660133, 9.929550341479966846, -6.696771493983243673 ) ) ;
#533 = LOCAL_TIME ( 0, 56, 10.00000000000000000, #341 ) ;
#534 = CARTESIAN_POINT ( 'NONE',  ( -1.394874999943561011, -2.223730434814910062, 4.901215932243370155 ) ) ;
#535 = CARTESIAN_POINT ( 'NONE',  ( -1.040318291896019209, 0.2276001758288153931, -5.598472924355377245 ) ) ;
#536 = CARTESIAN_POINT ( 'NONE',  ( -1.314345332900102470, -1.876722600044841593, 4.950319231331492986 ) ) ;
#537 = CARTESIAN_POINT ( 'NONE',  ( -0.09035316273297225309, -3.215191956186515654, 4.760919297008794793 ) ) ;
#538 = DIRECTION ( 'NONE',  ( -0.000000000000000000, 0.9901360746104197474, 0.1401090780608784392 ) ) ;
#539 = CARTESIAN_POINT ( 'NONE',  ( -0.9123915864538056919, 4.783762648880745871, 5.892810340982535422 ) ) ;
#540 = AXIS2_PLACEMENT_3D ( 'NONE', #157, #162, #85 ) ;
#541 = DIRECTION ( 'NONE',  ( 1.000000000000000000, 0.000000000000000000, 0.000000000000000000 ) ) ;
#542 = CARTESIAN_POINT ( 'NONE',  ( -9.168106562484524602, -2.265010598924417806, -5.316299670338580086 ) ) ;
#543 = PRODUCT ( 'lente dot l8_v9_croquis6_D1_2p5mm', 'lente dot l8_v9_croquis6_D1_2p5mm', '', ( #410 ) ) ;
#544 = CARTESIAN_POINT ( 'NONE',  ( -18.94519211359818911, 7.540918895746552053, -6.502625088165213008 ) ) ;
#545 = LINE ( 'NONE', #48, #186 ) ;
#546 = EDGE_CURVE ( 'NONE', #554, #144, #547, .T. ) ;
#547 = LINE ( 'NONE', #183, #256 ) ;
#548 = CARTESIAN_POINT ( 'NONE',  ( -2.846604824987382987, -5.059081103884319752, -5.000000000000000000 ) ) ;
#549 = VERTEX_POINT ( 'NONE', #88 ) ;
#550 = EDGE_LOOP ( 'NONE', ( #30, #72, #394, #378 ) ) ;
#551 = VECTOR ( 'NONE', #184, 1000.000000000000227 ) ;
#552 = FACE_OUTER_BOUND ( 'NONE', #227, .T. ) ;
#553 = ORIENTED_EDGE ( 'NONE', *, *, #246, .T. ) ;
#554 = VERTEX_POINT ( 'NONE', #4 ) ;
#555 = PLANE ( 'NONE',  #62 ) ;
#556 = CC_DESIGN_PERSON_AND_ORGANIZATION_ASSIGNMENT ( #479, #432, ( #194 ) ) ;
#557 = ADVANCED_FACE ( 'NONE', ( #509 ), #232, .F. ) ;
#558 = ORIENTED_EDGE ( 'NONE', *, *, #123, .T. ) ;
#559 = CALENDAR_DATE ( 2026, 27, 8 ) ;
#560 = FACE_OUTER_BOUND ( 'NONE', #52, .T. ) ;
#561 = VECTOR ( 'NONE', #41, 1000.000000000000114 ) ;
#562 = CARTESIAN_POINT ( 'NONE',  ( -1.394874999943561011, 1.976269565185000854, 7.000000000000000000 ) ) ;
#563 = CARTESIAN_POINT ( 'NONE',  ( 0.3551250000566972265, 3.001549528634499975, -5.912494801853048543 ) ) ;
#564 = DIRECTION ( 'NONE',  ( -0.000000000000000000, -0.000000000000000000, -1.000000000000000000 ) ) ;
#565 = CARTESIAN_POINT ( 'NONE',  ( -0.6840123886733161518, 13.04302618862194763, 7.061536367322118757 ) ) ;
#566 = VECTOR ( 'NONE', #31, 1000.000000000000000 ) ;
#567 = CARTESIAN_POINT ( 'NONE',  ( -1.394874999943561011, 1.976269565185000854, 5.495536392779273527 ) ) ;
#568 = CARTESIAN_POINT ( 'NONE',  ( -2.846604824987382987, -5.059081103884319752, 4.500000000000000888 ) ) ;
#569 = EDGE_CURVE ( 'NONE', #373, #231, #364, .T. ) ;
#570 = EDGE_CURVE ( 'NONE', #204, #237, #272, .T. ) ;
#571 = PERSON_AND_ORGANIZATION ( #250, #174 ) ;
#572 = CARTESIAN_POINT ( 'NONE',  ( -1.093449224077211346, 0.5831133047711353212, 5.298397995091679746 ) ) ;
#573 = LINE ( 'NONE', #27, #105 ) ;
#574 = CARTESIAN_POINT ( 'NONE',  ( -20.25388486837874069, 8.929371410749567417, 6.479434176352860675 ) ) ;
#575 = CARTESIAN_POINT ( 'NONE',  ( -1.314338543873475373, -1.876693345665473078, -5.360258696774949705 ) ) ;
#576 = AXIS2_PLACEMENT_3D ( 'NONE', #442, #486, #306 ) ;
#577 = CARTESIAN_POINT ( 'NONE',  ( -4.551008080336609751, -4.644600293031306393, 4.558651053902251782 ) ) ;
#578 = CARTESIAN_POINT ( 'NONE',  ( -2.383270697099137525, 6.413227040045058835, -6.298709992287569115 ) ) ;
#579 = CARTESIAN_POINT ( 'NONE',  ( 0.3551250000566972265, 12.60815517220120086, 7.000000000000000000 ) ) ;
#580 = EDGE_CURVE ( 'NONE', #221, #355, #463, .T. ) ;
#581 = CARTESIAN_POINT ( 'NONE',  ( -1.023021868508782406, -0.4793968695130562674, -5.518438103482017354 ) ) ;
ENDSEC;
END-ISO-10303-21;
