ISO-10303-21;
HEADER;
FILE_DESCRIPTION (( 'STEP AP203' ),
    '1' );
FILE_NAME ('lente dot l8_v8_croquis6_D2_plus1.STEP',
    '2026-08-26T22:49:24',
    ( '' ),
    ( '' ),
    'SwSTEP 2.0',
    'SolidWorks 2026',
    '' );
FILE_SCHEMA (( 'CONFIG_CONTROL_DESIGN' ));
ENDSEC;

DATA;
#1 = ORIENTED_EDGE ( 'NONE', *, *, #171, .F. ) ;
#2 = LINE ( 'NONE', #158, #111 ) ;
#3 = ORIENTED_EDGE ( 'NONE', *, *, #135, .F. ) ;
#4 = CARTESIAN_POINT ( 'NONE',  ( -6.994875025828874548, 10.47738999221430234, -7.000000000000000000 ) ) ;
#5 = DATE_AND_TIME ( #113, #403 ) ;
#6 = CARTESIAN_POINT ( 'NONE',  ( 0.000000000000000000, 0.000000000000000000, 0.000000000000000000 ) ) ;
#7 = EDGE_CURVE ( 'NONE', #501, #12, #496, .T. ) ;
#8 = PERSON ( 'UNSPECIFIED', 'UNSPECIFIED', 'UNSPECIFIED', ('UNSPECIFIED'), ('UNSPECIFIED'), ('UNSPECIFIED') ) ;
#9 = CARTESIAN_POINT ( 'NONE',  ( 0.3551250000566972265, 3.001549528634499975, -7.000000000000000000 ) ) ;
#10 = CC_DESIGN_SECURITY_CLASSIFICATION ( #495, ( #500 ) ) ;
#11 = DIRECTION ( 'NONE',  ( 2.081376414897577884E-10, 1.000000000000000000, 0.000000000000000000 ) ) ;
#12 = VERTEX_POINT ( 'NONE', #383 ) ;
#13 = EDGE_CURVE ( 'NONE', #19, #507, #287, .T. ) ;
#14 = ORIENTED_EDGE ( 'NONE', *, *, #290, .F. ) ;
#15 = DIRECTION ( 'NONE',  ( -3.485384126420033333E-13, -1.000000000000000000, 0.000000000000000000 ) ) ;
#16 = ORIENTED_EDGE ( 'NONE', *, *, #469, .T. ) ;
#17 = ORIENTED_EDGE ( 'NONE', *, *, #145, .F. ) ;
#18 = PLANE ( 'NONE',  #272 ) ;
#19 = VERTEX_POINT ( 'NONE', #293 ) ;
#20 = LINE ( 'NONE', #137, #246 ) ;
#21 = ORIENTED_EDGE ( 'NONE', *, *, #176, .T. ) ;
#22 = LINE ( 'NONE', #55, #444 ) ;
#23 = DIRECTION ( 'NONE',  ( 0.9993908270190958731, 0.03489949670249428010, 0.000000000000000000 ) ) ;
#24 = VECTOR ( 'NONE', #253, 1000.000000000000000 ) ;
#25 = DIRECTION ( 'NONE',  ( -0.000000000000000000, -0.000000000000000000, -1.000000000000000000 ) ) ;
#26 = CARTESIAN_POINT ( 'NONE',  ( -10.21500838427921387, -3.697644103227559320, 7.000000000000000000 ) ) ;
#27 = DIRECTION ( 'NONE',  ( 0.05233595624294034437, -0.9986295347545741663, 0.000000000000000000 ) ) ;
#28 = EDGE_CURVE ( 'NONE', #331, #359, #418, .T. ) ;
#29 = DIRECTION ( 'NONE',  ( -0.000000000000000000, 0.000000000000000000, 1.000000000000000000 ) ) ;
#30 = LOCAL_TIME ( 0, 49, 24.00000000000000000, #440 ) ;
#31 = EDGE_CURVE ( 'NONE', #243, #133, #342, .T. ) ;
#32 = DIRECTION ( 'NONE',  ( -0.000000000000000000, -0.000000000000000000, -1.000000000000000000 ) ) ;
#33 = CARTESIAN_POINT ( 'NONE',  ( 0.3551250005320090164, -7.391488004478132823E-11, 7.000000000000000000 ) ) ;
#34 = MANIFOLD_SOLID_BREP ( 'Saliente-Extruir2', #205 ) ;
#35 = DIRECTION ( 'NONE',  ( -0.9986295347545740553, -0.05233595624294033744, 0.000000000000000000 ) ) ;
#36 = PERSON_AND_ORGANIZATION_ROLE ( 'creator' ) ;
#37 = DIRECTION ( 'NONE',  ( 0.000000000000000000, 0.000000000000000000, 1.000000000000000000 ) ) ;
#38 = CARTESIAN_POINT ( 'NONE',  ( 0.3551250000556511188, -1.237747038088879550E-13, 7.000000000000000000 ) ) ;
#39 = COORDINATED_UNIVERSAL_TIME_OFFSET ( 1, 0, .AHEAD. ) ;
#41 = ORIENTED_EDGE ( 'NONE', *, *, #266, .T. ) ;
#40 = APPLICATION_CONTEXT ( 'configuration controlled 3d designs of mechanical parts and assemblies' ) ;
#42 = PERSON_AND_ORGANIZATION ( #8, #434 ) ;
#43 = VERTEX_POINT ( 'NONE', #336 ) ;
#44 = B_SPLINE_SURFACE_WITH_KNOTS ( 'NONE', 2, 1, ( 
 ( #343, #140 ),
 ( #459, #147 ),
 ( #99, #387 ) ),
 .UNSPECIFIED., .F., .F., .F.,
 ( 3, 3 ),
 ( 2, 2 ),
 ( 0.5008207051229819351, 0.5020133117822229707 ),
 ( 0.000000000000000000, 1.000000000000000000 ),
 .UNSPECIFIED. ) ;
#45 = ORIENTED_EDGE ( 'NONE', *, *, #105, .T. ) ;
#46 = DATE_AND_TIME ( #396, #231 ) ;
#47 = ADVANCED_FACE ( 'NONE', ( #333 ), #48, .F. ) ;
#48 = PLANE ( 'NONE',  #265 ) ;
#49 = AXIS2_PLACEMENT_3D ( 'NONE', #281, #463, #161 ) ;
#50 = CARTESIAN_POINT ( 'NONE',  ( 0.3551249999651975298, -2.723253226996780185, 7.000000000000000000 ) ) ;
#51 = DIRECTION ( 'NONE',  ( -0.9993908270190959842, 0.03489949670249007513, 0.000000000000000000 ) ) ;
#52 = PLANE ( 'NONE',  #249 ) ;
#53 = EDGE_CURVE ( 'NONE', #414, #43, #200, .T. ) ;
#54 = ORIENTED_EDGE ( 'NONE', *, *, #358, .F. ) ;
#55 = CARTESIAN_POINT ( 'NONE',  ( -0.6835572876454348856, 13.04305003945616726, 7.000000000000000000 ) ) ;
#56 = ORIENTED_EDGE ( 'NONE', *, *, #31, .F. ) ;
#57 = ORIENTED_EDGE ( 'NONE', *, *, #85, .T. ) ;
#58 = DIRECTION ( 'NONE',  ( 1.000000000000000000, 0.000000000000000000, 0.000000000000000000 ) ) ;
#59 = ORIENTED_EDGE ( 'NONE', *, *, #499, .F. ) ;
#60 = FACE_OUTER_BOUND ( 'NONE', #169, .T. ) ;
#61 = CC_DESIGN_APPROVAL ( #228, ( #495 ) ) ;
#62 = CYLINDRICAL_SURFACE ( 'NONE', #49, 69.99999999999980105 ) ;
#63 = CARTESIAN_POINT ( 'NONE',  ( -18.94519211359817135, 7.540918895746568040, 7.000000000000000000 ) ) ;
#64 = EDGE_CURVE ( 'NONE', #316, #12, #490, .T. ) ;
#65 = ORIENTED_EDGE ( 'NONE', *, *, #64, .F. ) ;
#66 = PLANE ( 'NONE',  #327 ) ;
#67 = LINE ( 'NONE', #307, #97 ) ;
#68 = EDGE_CURVE ( 'NONE', #100, #380, #138, .T. ) ;
#69 = DIRECTION ( 'NONE',  ( 1.000000000000000000, 0.000000000000000000, 0.000000000000000000 ) ) ;
#70 = CARTESIAN_POINT ( 'NONE',  ( -1.394874999943561011, 1.976269565185000854, 7.000000000000000000 ) ) ;
#71 = CARTESIAN_POINT ( 'NONE',  ( 0.3551249999651975298, -2.723253226996780185, -7.000000000000000000 ) ) ;
#72 = CARTESIAN_POINT ( 'NONE',  ( 1.484527364560580320, 1.384344158600975039, 7.000000000000000000 ) ) ;
#73 = EDGE_LOOP ( 'NONE', ( #306, #257, #216, #284 ) ) ;
#74 = DATE_AND_TIME ( #188, #486 ) ;
#75 = EDGE_CURVE ( 'NONE', #210, #316, #175, .T. ) ;
#76 = VERTEX_POINT ( 'NONE', #457 ) ;
#77 = DATE_TIME_ROLE ( 'classification_date' ) ;
#78 = B_SPLINE_SURFACE_WITH_KNOTS ( 'NONE', 2, 1, ( 
 ( #345, #263 ),
 ( #179, #309 ),
 ( #426, #71 ) ),
 .UNSPECIFIED., .F., .F., .F.,
 ( 3, 3 ),
 ( 2, 2 ),
 ( 0.4988120746294950059, 0.4994128454637969949 ),
 ( 0.000000000000000000, 1.000000000000000000 ),
 .UNSPECIFIED. ) ;
#79 = ORIENTED_EDGE ( 'NONE', *, *, #499, .T. ) ;
#80 = DIRECTION ( 'NONE',  ( -2.081376414897577625E-10, -1.000000000000000000, 0.000000000000000000 ) ) ;
#81 = EDGE_CURVE ( 'NONE', #19, #91, #95, .T. ) ;
#82 = ORIENTED_EDGE ( 'NONE', *, *, #75, .F. ) ;
#83 = CARTESIAN_POINT ( 'NONE',  ( 0.3551250000566972265, 3.001549528634499975, 7.000000000000000000 ) ) ;
#84 = CARTESIAN_POINT ( 'NONE',  ( -1.394874999943561011, 1.976269565185000854, -7.000000000000000000 ) ) ;
#85 = EDGE_CURVE ( 'NONE', #441, #166, #116, .T. ) ;
#86 = DIRECTION ( 'NONE',  ( -1.000000000000000000, 0.000000000000000000, 0.000000000000000000 ) ) ;
#87 = APPROVAL ( #320, 'UNSPECIFIED' ) ;
#88 = LINE ( 'NONE', #292, #381 ) ;
#89 = CARTESIAN_POINT ( 'NONE',  ( -23.03592114560350268, 11.87161228793415191, 7.000000000000000000 ) ) ;
#90 = CARTESIAN_POINT ( 'NONE',  ( -69.88413394276419410, -40.47183154957589579, -7.000000000000000000 ) ) ;
#91 = VERTEX_POINT ( 'NONE', #268 ) ;
#92 = PLANE ( 'NONE',  #468 ) ;
#93 = ORIENTED_EDGE ( 'NONE', *, *, #53, .F. ) ;
#94 = DIRECTION ( 'NONE',  ( -0.000000000000000000, -0.000000000000000000, -1.000000000000000000 ) ) ;
#95 = LINE ( 'NONE', #63, #361 ) ;
#96 = CARTESIAN_POINT ( 'NONE',  ( -18.94519211359817135, 7.540918895746568040, -7.000000000000000000 ) ) ;
#97 = VECTOR ( 'NONE', #388, 1000.000000000000114 ) ;
#98 = ORIENTED_EDGE ( 'NONE', *, *, #226, .T. ) ;
#99 = CARTESIAN_POINT ( 'NONE',  ( -6.994875025828872772, 10.47738999221430234, 7.000000000000000000 ) ) ;
#100 = VERTEX_POINT ( 'NONE', #152 ) ;
#101 = AXIS2_PLACEMENT_3D ( 'NONE', #204, #165, #369 ) ;
#102 = DIRECTION ( 'NONE',  ( -0.6819983588408874420, 0.7313537027583412176, 0.000000000000000000 ) ) ;
#103 = UNCERTAINTY_MEASURE_WITH_UNIT (LENGTH_MEASURE( 1.000000000000000082E-05 ), #114, 'distance_accuracy_value', 'NONE');
#104 = CARTESIAN_POINT ( 'NONE',  ( -2.846604824987382987, -5.059081103884319752, -7.000000000000000000 ) ) ;
#105 = EDGE_CURVE ( 'NONE', #436, #12, #149, .T. ) ;
#106 = CARTESIAN_POINT ( 'NONE',  ( 0.3551250000564474263, 2.037380911795548144, 7.000000000000000000 ) ) ;
#107 = CARTESIAN_POINT ( 'NONE',  ( -23.03592114560350268, 11.54013782009829825, -7.000000000000000000 ) ) ;
#108 = CARTESIAN_POINT ( 'NONE',  ( 0.3551250000566972265, 3.001549528634499975, 7.000000000000000000 ) ) ;
#109 = CC_DESIGN_PERSON_AND_ORGANIZATION_ASSIGNMENT ( #282, #274, ( #196 ) ) ;
#110 = CARTESIAN_POINT ( 'NONE',  ( -1.448726270043842357, 6.058427314146597631, 7.000000000000000000 ) ) ;
#111 = VECTOR ( 'NONE', #321, 1000.000000000000000 ) ;
#112 = DIRECTION ( 'NONE',  ( 3.485384126420032828E-13, 1.000000000000000000, 0.000000000000000000 ) ) ;
#113 = CALENDAR_DATE ( 2026, 27, 8 ) ;
#114 =( LENGTH_UNIT ( ) NAMED_UNIT ( * ) SI_UNIT ( .MILLI., .METRE. ) );
#115 = ORIENTED_EDGE ( 'NONE', *, *, #472, .T. ) ;
#116 = LINE ( 'NONE', #38, #136 ) ;
#117 = EDGE_LOOP ( 'NONE', ( #322, #141, #397, #392 ) ) ;
#118 = PERSON_AND_ORGANIZATION_ROLE ( 'classification_officer' ) ;
#119 = ORIENTED_EDGE ( 'NONE', *, *, #290, .T. ) ;
#120 = ADVANCED_FACE ( 'NONE', ( #232 ), #78, .F. ) ;
#121 = EDGE_LOOP ( 'NONE', ( #493, #283, #54, #174 ) ) ;
#122 = CARTESIAN_POINT ( 'NONE',  ( -2.846604824987382987, -5.059081103884319752, 7.000000000000000000 ) ) ;
#123 = VECTOR ( 'NONE', #260, 1000.000000000000000 ) ;
#124 = DIRECTION ( 'NONE',  ( 1.000000000000000000, 0.000000000000000000, 0.000000000000000000 ) ) ;
#125 = LINE ( 'NONE', #168, #339 ) ;
#126 = EDGE_LOOP ( 'NONE', ( #16, #442, #255, #410 ) ) ;
#127 = PLANE ( 'NONE',  #172 ) ;
#128 = VERTEX_POINT ( 'NONE', #225 ) ;
#129 = DIRECTION ( 'NONE',  ( -0.000000000000000000, -0.000000000000000000, -1.000000000000000000 ) ) ;
#130 = CARTESIAN_POINT ( 'NONE',  ( -10.21500838427921387, -3.697644103227559320, -7.000000000000000000 ) ) ;
#131 =( GEOMETRIC_REPRESENTATION_CONTEXT ( 3 ) GLOBAL_UNCERTAINTY_ASSIGNED_CONTEXT ( ( #103 ) ) GLOBAL_UNIT_ASSIGNED_CONTEXT ( ( #114, #271, #510 ) ) REPRESENTATION_CONTEXT ( 'NONE', 'WORKASPACE' ) );
#132 = LINE ( 'NONE', #456, #220 ) ;
#133 = VERTEX_POINT ( 'NONE', #347 ) ;
#134 = CARTESIAN_POINT ( 'NONE',  ( -1.394874999943561011, -2.223730434814910062, -7.000000000000000000 ) ) ;
#135 = EDGE_CURVE ( 'NONE', #277, #76, #491, .T. ) ;
#136 = VECTOR ( 'NONE', #464, 1000.000000000000000 ) ;
#137 = CARTESIAN_POINT ( 'NONE',  ( -0.07925871954190913393, -2.269672767682391790, 7.000000000000000000 ) ) ;
#138 = LINE ( 'NONE', #454, #478 ) ;
#139 = CARTESIAN_POINT ( 'NONE',  ( 0.3551250000556511188, -1.237747038088879550E-13, 7.000000000000000000 ) ) ;
#140 = CARTESIAN_POINT ( 'NONE',  ( 0.3551250000566972265, 3.001549528634499975, -7.000000000000000000 ) ) ;
#141 = ORIENTED_EDGE ( 'NONE', *, *, #81, .F. ) ;
#142 = VECTOR ( 'NONE', #129, 1000.000000000000000 ) ;
#143 = AXIS2_PLACEMENT_3D ( 'NONE', #6, #37, #186 ) ;
#144 = CARTESIAN_POINT ( 'NONE',  ( -23.03592114560350268, 0.000000000000000000, -7.000000000000000000 ) ) ;
#145 = EDGE_CURVE ( 'NONE', #76, #236, #132, .T. ) ;
#146 = VECTOR ( 'NONE', #51, 1000.000000000000114 ) ;
#147 = CARTESIAN_POINT ( 'NONE',  ( -1.448726270043842357, 6.058427314146597631, -7.000000000000000000 ) ) ;
#148 = CARTESIAN_POINT ( 'NONE',  ( -1.394874999943561011, 1.976269565185000854, 7.000000000000000000 ) ) ;
#149 = LINE ( 'NONE', #431, #498 ) ;
#150 = ORIENTED_EDGE ( 'NONE', *, *, #399, .T. ) ;
#151 = APPROVAL_DATE_TIME ( #185, #87 ) ;
#152 = CARTESIAN_POINT ( 'NONE',  ( -6.994875025828874548, 10.47738999221430234, 7.000000000000000000 ) ) ;
#153 = ORIENTED_EDGE ( 'NONE', *, *, #261, .T. ) ;
#154 = PLANE ( 'NONE',  #362 ) ;
#155 = PERSON_AND_ORGANIZATION ( #8, #434 ) ;
#156 = ADVANCED_FACE ( 'NONE', ( #497 ), #280, .F. ) ;
#157 = EDGE_LOOP ( 'NONE', ( #119, #3, #348, #502 ) ) ;
#158 = CARTESIAN_POINT ( 'NONE',  ( 0.3551249999651975298, -2.723253226996780185, 7.000000000000000000 ) ) ;
#159 = CARTESIAN_POINT ( 'NONE',  ( -1.394874999943561011, -2.223730434814909618, -7.000000000000000000 ) ) ;
#160 = PERSON_AND_ORGANIZATION_ROLE ( 'design_owner' ) ;
#161 = DIRECTION ( 'NONE',  ( -1.000000000000000000, 0.000000000000000000, 0.000000000000000000 ) ) ;
#162 = APPROVAL_PERSON_ORGANIZATION ( #230, #87, #390 ) ;
#163 = CARTESIAN_POINT ( 'NONE',  ( -1.394874999943561011, -2.223730434814910062, 7.000000000000000000 ) ) ;
#164 = EDGE_CURVE ( 'NONE', #507, #243, #453, .T. ) ;
#165 = DIRECTION ( 'NONE',  ( -0.000000000000000000, 0.000000000000000000, 1.000000000000000000 ) ) ;
#166 = VERTEX_POINT ( 'NONE', #222 ) ;
#167 = DIRECTION ( 'NONE',  ( -0.000000000000000000, -0.000000000000000000, -1.000000000000000000 ) ) ;
#168 = CARTESIAN_POINT ( 'NONE',  ( 0.3551250000564474263, 2.037380911795548144, 7.000000000000000000 ) ) ;
#169 = EDGE_LOOP ( 'NONE', ( #335, #389, #415, #373 ) ) ;
#170 = CARTESIAN_POINT ( 'NONE',  ( 0.3551249999651975298, -2.723253226996780185, -7.000000000000000000 ) ) ;
#171 = EDGE_CURVE ( 'NONE', #43, #133, #374, .T. ) ;
#172 = AXIS2_PLACEMENT_3D ( 'NONE', #296, #27, #494 ) ;
#173 = ORIENTED_EDGE ( 'NONE', *, *, #391, .F. ) ;
#174 = ORIENTED_EDGE ( 'NONE', *, *, #245, .F. ) ;
#175 = LINE ( 'NONE', #412, #24 ) ;
#176 = EDGE_CURVE ( 'NONE', #91, #501, #313, .T. ) ;
#177 = ORIENTED_EDGE ( 'NONE', *, *, #226, .F. ) ;
#178 = DIRECTION ( 'NONE',  ( -2.081376414897577625E-10, -1.000000000000000000, 0.000000000000000000 ) ) ;
#179 = CARTESIAN_POINT ( 'NONE',  ( -0.7423668819740020242, -3.935206599586729137, 7.000000000000000000 ) ) ;
#180 =( BOUNDED_CURVE ( )  B_SPLINE_CURVE ( 2, ( #159, #443, #84 ),
 .UNSPECIFIED., .F., .F. ) 
 B_SPLINE_CURVE_WITH_KNOTS ( ( 3, 3 ),
 ( 0.000000000000000000, 1.000000000000000000 ),
 .UNSPECIFIED. ) 
 CURVE ( )  GEOMETRIC_REPRESENTATION_ITEM ( )  RATIONAL_B_SPLINE_CURVE ( ( 1.000000000000000000, 3.231801218513670193, 1.000000000000000000 ) ) 
 REPRESENTATION_ITEM ( '' )  );
#181 = AXIS2_PLACEMENT_3D ( 'NONE', #90, #29, #69 ) ;
#182 = CARTESIAN_POINT ( 'NONE',  ( -10.21500838427921387, -3.697644103227559320, 7.000000000000000000 ) ) ;
#183 = ADVANCED_FACE ( 'NONE', ( #417 ), #44, .F. ) ;
#184 = ORIENTED_EDGE ( 'NONE', *, *, #303, .F. ) ;
#185 = DATE_AND_TIME ( #402, #30 ) ;
#186 = DIRECTION ( 'NONE',  ( 1.000000000000000000, 0.000000000000000000, 0.000000000000000000 ) ) ;
#187 = ORIENTED_EDGE ( 'NONE', *, *, #275, .F. ) ;
#188 = CALENDAR_DATE ( 2026, 27, 8 ) ;
#189 = ORIENTED_EDGE ( 'NONE', *, *, #13, .F. ) ;
#190 = CALENDAR_DATE ( 2026, 27, 8 ) ;
#191 = EDGE_CURVE ( 'NONE', #414, #331, #20, .T. ) ;
#192 = ORIENTED_EDGE ( 'NONE', *, *, #7, .T. ) ;
#193 = PLANE ( 'NONE',  #351 ) ;
#194 = APPLICATION_PROTOCOL_DEFINITION ( 'international standard', 'config_control_design', 1994, #40 ) ;
#195 =( BOUNDED_CURVE ( )  B_SPLINE_CURVE ( 2, ( #197, #506, #318 ),
 .UNSPECIFIED., .F., .F. ) 
 B_SPLINE_CURVE_WITH_KNOTS ( ( 3, 3 ),
 ( 0.000000000000000000, 1.000000000000000000 ),
 .UNSPECIFIED. ) 
 CURVE ( )  GEOMETRIC_REPRESENTATION_ITEM ( )  RATIONAL_B_SPLINE_CURVE ( ( 1.000000000000000000, 3.231801218513670193, 1.000000000000000000 ) ) 
 REPRESENTATION_ITEM ( '' )  );
#196 = PRODUCT_DEFINITION ( 'UNKNOWN', '', #500, #452 ) ;
#197 = CARTESIAN_POINT ( 'NONE',  ( -1.394874999943561011, -2.223730434814909618, 7.000000000000000000 ) ) ;
#198 = ORIENTED_EDGE ( 'NONE', *, *, #266, .F. ) ;
#199 = COORDINATED_UNIVERSAL_TIME_OFFSET ( 1, 0, .AHEAD. ) ;
#200 = LINE ( 'NONE', #301, #142 ) ;
#201 = CARTESIAN_POINT ( 'NONE',  ( 0.3551249999651975298, -2.723253226996780185, 7.000000000000000000 ) ) ;
#202 = ADVANCED_BREP_SHAPE_REPRESENTATION ( 'lente dot l8_v8_croquis6_D2_plus1', ( #34, #143 ), #131 ) ;
#203 = ADVANCED_FACE ( 'NONE', ( #300 ), #62, .F. ) ;
#204 = CARTESIAN_POINT ( 'NONE',  ( -69.88413394276419410, -40.47183154957589579, 7.000000000000000000 ) ) ;
#205 = CLOSED_SHELL ( 'NONE', ( #156, #120, #407, #385, #350, #338, #183, #504, #437, #366, #203, #323, #285, #47 ) ) ;
#206 = APPROVAL_PERSON_ORGANIZATION ( #394, #247, #240 ) ;
#207 = FACE_OUTER_BOUND ( 'NONE', #157, .T. ) ;
#208 = CC_DESIGN_PERSON_AND_ORGANIZATION_ASSIGNMENT ( #471, #118, ( #495 ) ) ;
#209 = CIRCLE ( 'NONE', #101, 69.99999999999981526 ) ;
#210 = VERTEX_POINT ( 'NONE', #324 ) ;
#211 = FACE_OUTER_BOUND ( 'NONE', #126, .T. ) ;
#212 = ORIENTED_EDGE ( 'NONE', *, *, #81, .T. ) ;
#213 = DIRECTION ( 'NONE',  ( -0.000000000000000000, -0.000000000000000000, -1.000000000000000000 ) ) ;
#214 = CARTESIAN_POINT ( 'NONE',  ( 0.3551250000564473708, -2.284841781425449359, 7.000000000000000000 ) ) ;
#215 = CARTESIAN_POINT ( 'NONE',  ( -18.94519211359818911, 7.540918895746552053, -7.000000000000000000 ) ) ;
#216 = ORIENTED_EDGE ( 'NONE', *, *, #261, .F. ) ;
#217 = VECTOR ( 'NONE', #32, 1000.000000000000000 ) ;
#218 = CARTESIAN_POINT ( 'NONE',  ( -8.981845694529432933, 12.60815517220120086, 7.000000000000000000 ) ) ;
#219 = ORIENTED_EDGE ( 'NONE', *, *, #303, .T. ) ;
#220 = VECTOR ( 'NONE', #23, 1000.000000000000227 ) ;
#221 = EDGE_LOOP ( 'NONE', ( #314, #21, #192, #474, #289, #187, #355, #17, #14, #184, #304, #56 ) ) ;
#222 = CARTESIAN_POINT ( 'NONE',  ( 0.3551250000566972265, 3.001549528634499975, 7.000000000000000000 ) ) ;
#223 = B_SPLINE_CURVE_WITH_KNOTS ( 'NONE', 2,
 ( #425, #439, #4 ),
 .UNSPECIFIED., .F., .F.,
 ( 3, 3 ),
 ( 0.5008207051229819351, 0.5020133117822229707 ),
 .UNSPECIFIED. ) ;
#224 = DIRECTION ( 'NONE',  ( -0.000000000000000000, 0.000000000000000000, 1.000000000000000000 ) ) ;
#225 = CARTESIAN_POINT ( 'NONE',  ( -8.981845694529432933, 12.60815517220120086, 7.000000000000000000 ) ) ;
#226 = EDGE_CURVE ( 'NONE', #414, #273, #244, .T. ) ;
#227 = DATE_AND_TIME ( #190, #294 ) ;
#228 = APPROVAL ( #353, 'UNSPECIFIED' ) ;
#229 = ORIENTED_EDGE ( 'NONE', *, *, #191, .F. ) ;
#230 = PERSON_AND_ORGANIZATION ( #8, #434 ) ;
#231 = LOCAL_TIME ( 0, 49, 24.00000000000000000, #435 ) ;
#232 = FACE_OUTER_BOUND ( 'NONE', #483, .T. ) ;
#233 = ORIENTED_EDGE ( 'NONE', *, *, #68, .T. ) ;
#234 = EDGE_CURVE ( 'NONE', #210, #501, #326, .T. ) ;
#235 = APPROVAL_STATUS ( 'not_yet_approved' ) ;
#236 = VERTEX_POINT ( 'NONE', #363 ) ;
#237 = FACE_OUTER_BOUND ( 'NONE', #221, .T. ) ;
#238 = CC_DESIGN_PERSON_AND_ORGANIZATION_ASSIGNMENT ( #155, #160, ( #354 ) ) ;
#239 = LINE ( 'NONE', #148, #481 ) ;
#240 = APPROVAL_ROLE ( '' ) ;
#241 = APPLICATION_PROTOCOL_DEFINITION ( 'international standard', 'config_control_design', 1994, #378 ) ;
#242 = CC_DESIGN_APPROVAL ( #247, ( #196 ) ) ;
#243 = VERTEX_POINT ( 'NONE', #401 ) ;
#244 = LINE ( 'NONE', #33, #489 ) ;
#245 = EDGE_CURVE ( 'NONE', #277, #441, #239, .T. ) ;
#246 = VECTOR ( 'NONE', #256, 1000.000000000000114 ) ;
#247 = APPROVAL ( #235, 'UNSPECIFIED' ) ;
#248 = DIRECTION ( 'NONE',  ( -0.9986295347545740553, -0.05233595624294033744, 0.000000000000000000 ) ) ;
#249 = AXIS2_PLACEMENT_3D ( 'NONE', #458, #367, #11 ) ;
#250 = ORIENTED_EDGE ( 'NONE', *, *, #376, .F. ) ;
#251 = DIRECTION ( 'NONE',  ( -0.000000000000000000, -0.000000000000000000, -1.000000000000000000 ) ) ;
#252 = CARTESIAN_POINT ( 'NONE',  ( -1.394874999943561011, 1.976269565185000410, 7.000000000000000000 ) ) ;
#253 = DIRECTION ( 'NONE',  ( 0.000000000000000000, 1.000000000000000000, -0.000000000000000000 ) ) ;
#254 = DIRECTION ( 'NONE',  ( 0.000000000000000000, 0.000000000000000000, 1.000000000000000000 ) ) ;
#255 = ORIENTED_EDGE ( 'NONE', *, *, #85, .F. ) ;
#256 = DIRECTION ( 'NONE',  ( -0.9993908270190959842, 0.03489949670249007513, 0.000000000000000000 ) ) ;
#257 = ORIENTED_EDGE ( 'NONE', *, *, #68, .F. ) ;
#258 = CARTESIAN_POINT ( 'NONE',  ( -2.846604824987382987, -5.059081103884319752, -7.000000000000000000 ) ) ;
#259 = EDGE_LOOP ( 'NONE', ( #477, #250, #467, #233 ) ) ;
#260 = DIRECTION ( 'NONE',  ( 0.000000000000000000, 1.000000000000000000, -0.000000000000000000 ) ) ;
#261 = EDGE_CURVE ( 'NONE', #166, #100, #421, .T. ) ;
#262 = CARTESIAN_POINT ( 'NONE',  ( -2.846604824987382987, -5.059081103884319752, 7.000000000000000000 ) ) ;
#263 = CARTESIAN_POINT ( 'NONE',  ( -2.846604824987382987, -5.059081103884319752, -7.000000000000000000 ) ) ;
#264 = CARTESIAN_POINT ( 'NONE',  ( -10.21500838427921387, -3.697644103227559320, -7.000000000000000000 ) ) ;
#265 = AXIS2_PLACEMENT_3D ( 'NONE', #375, #297, #487 ) ;
#266 = EDGE_CURVE ( 'NONE', #507, #273, #329, .T. ) ;
#267 = CARTESIAN_POINT ( 'NONE',  ( -23.03592114560350268, 11.54013782009829825, 7.000000000000000000 ) ) ;
#268 = CARTESIAN_POINT ( 'NONE',  ( -18.94519211359817135, 7.540918895746568040, -7.000000000000000000 ) ) ;
#269 = AXIS2_PLACEMENT_3D ( 'NONE', #416, #302, #492 ) ;
#270 = APPROVAL_DATE_TIME ( #5, #228 ) ;
#271 =( NAMED_UNIT ( * ) PLANE_ANGLE_UNIT ( ) SI_UNIT ( $, .RADIAN. ) );
#272 = AXIS2_PLACEMENT_3D ( 'NONE', #139, #372, #15 ) ;
#273 = VERTEX_POINT ( 'NONE', #201 ) ;
#274 = PERSON_AND_ORGANIZATION_ROLE ( 'creator' ) ;
#275 = EDGE_CURVE ( 'NONE', #430, #380, #223, .T. ) ;
#276 = VECTOR ( 'NONE', #251, 1000.000000000000000 ) ;
#277 = VERTEX_POINT ( 'NONE', #70 ) ;
#278 = APPROVAL_DATE_TIME ( #74, #247 ) ;
#279 = EDGE_LOOP ( 'NONE', ( #1, #93, #98, #79 ) ) ;
#280 = B_SPLINE_SURFACE_WITH_KNOTS ( 'NONE', 2, 1, ( 
 ( #488, #215 ),
 ( #182, #264 ),
 ( #423, #104 ) ),
 .UNSPECIFIED., .F., .F., .F.,
 ( 3, 3 ),
 ( 2, 2 ),
 ( 0.4976672411085089620, 0.4995542795880109632 ),
 ( 0.000000000000000000, 1.000000000000000000 ),
 .UNSPECIFIED. ) ;
#281 = CARTESIAN_POINT ( 'NONE',  ( -69.88413394276419410, -40.47183154957589579, 7.000000000000000000 ) ) ;
#282 = PERSON_AND_ORGANIZATION ( #8, #434 ) ;
#283 = ORIENTED_EDGE ( 'NONE', *, *, #145, .T. ) ;
#284 = ORIENTED_EDGE ( 'NONE', *, *, #451, .T. ) ;
#285 = ADVANCED_FACE ( 'NONE', ( #237 ), #193, .F. ) ;
#286 = CC_DESIGN_APPROVAL ( #87, ( #500 ) ) ;
#287 = B_SPLINE_CURVE_WITH_KNOTS ( 'NONE', 2,
 ( #460, #26, #404 ),
 .UNSPECIFIED., .F., .F.,
 ( 3, 3 ),
 ( 0.4976672411085089620, 0.4995542795880109632 ),
 .UNSPECIFIED. ) ;
#288 = CARTESIAN_POINT ( 'NONE',  ( -1.394874999943561011, -2.223730434814909618, 7.000000000000000000 ) ) ;
#289 = ORIENTED_EDGE ( 'NONE', *, *, #446, .T. ) ;
#290 = EDGE_CURVE ( 'NONE', #359, #76, #180, .T. ) ;
#291 =( BOUNDED_SURFACE ( )  B_SPLINE_SURFACE ( 2, 1, ( 
 ( #163, #134 ),
 ( #365, #480 ),
 ( #252, #298 ) ),
 .UNSPECIFIED., .F., .F., .T. ) 
 B_SPLINE_SURFACE_WITH_KNOTS ( ( 3, 3 ),
 ( 2, 2 ),
 ( 0.000000000000000000, 1.000000000000000000 ),
 ( 0.000000000000000000, 1.000000000000000000 ),
 .UNSPECIFIED. ) 
 GEOMETRIC_REPRESENTATION_ITEM ( )  RATIONAL_B_SPLINE_SURFACE ( (
 ( 1.000000000000000000, 1.000000000000000000),
 ( 3.231801218513670193, 3.231801218513670193),
 ( 1.000000000000000000, 1.000000000000000000) ) ) 
 REPRESENTATION_ITEM ( '' )  SURFACE ( )  );
#292 = CARTESIAN_POINT ( 'NONE',  ( 1.484527364560580320, 1.384344158600975039, 7.000000000000000000 ) ) ;
#293 = CARTESIAN_POINT ( 'NONE',  ( -18.94519211359817135, 7.540918895746568040, 7.000000000000000000 ) ) ;
#294 = LOCAL_TIME ( 0, 49, 24.00000000000000000, #317 ) ;
#295 = PRODUCT_RELATED_PRODUCT_CATEGORY ( 'detail', '', ( #354 ) ) ;
#296 = CARTESIAN_POINT ( 'NONE',  ( -0.6835572876454348856, 13.04305003945616726, 7.000000000000000000 ) ) ;
#297 = DIRECTION ( 'NONE',  ( -0.03489949670249428704, 0.9993908270190959842, 0.000000000000000000 ) ) ;
#298 = CARTESIAN_POINT ( 'NONE',  ( -1.394874999943561011, 1.976269565185000410, -7.000000000000000000 ) ) ;
#299 = ORIENTED_EDGE ( 'NONE', *, *, #13, .T. ) ;
#300 = FACE_OUTER_BOUND ( 'NONE', #117, .T. ) ;
#301 = CARTESIAN_POINT ( 'NONE',  ( 0.3551250000564473708, -2.284841781425449359, 7.000000000000000000 ) ) ;
#302 = DIRECTION ( 'NONE',  ( -0.03489949670249008207, -0.9993908270190960952, 0.000000000000000000 ) ) ;
#303 = EDGE_CURVE ( 'NONE', #43, #359, #406, .T. ) ;
#304 = ORIENTED_EDGE ( 'NONE', *, *, #171, .T. ) ;
#305 = CC_DESIGN_DATE_AND_TIME_ASSIGNMENT ( #227, #349, ( #196 ) ) ;
#306 = ORIENTED_EDGE ( 'NONE', *, *, #275, .T. ) ;
#307 = CARTESIAN_POINT ( 'NONE',  ( 1.484527364560580320, 1.384344158600975039, -7.000000000000000000 ) ) ;
#308 = PRODUCT_DEFINITION_SHAPE ( 'NONE', 'NONE',  #196 ) ;
#309 = CARTESIAN_POINT ( 'NONE',  ( -0.7423668819740020242, -3.935206599586729137, -7.000000000000000000 ) ) ;
#310 = LINE ( 'NONE', #465, #393 ) ;
#311 = APPROVAL_PERSON_ORGANIZATION ( #42, #228, #509 ) ;
#312 = ORIENTED_EDGE ( 'NONE', *, *, #31, .T. ) ;
#313 = CIRCLE ( 'NONE', #181, 69.99999999999981526 ) ;
#314 = ORIENTED_EDGE ( 'NONE', *, *, #420, .F. ) ;
#315 = SECURITY_CLASSIFICATION_LEVEL ( 'unclassified' ) ;
#316 = VERTEX_POINT ( 'NONE', #346 ) ;
#317 = COORDINATED_UNIVERSAL_TIME_OFFSET ( 1, 0, .AHEAD. ) ;
#318 = CARTESIAN_POINT ( 'NONE',  ( -1.394874999943561011, 1.976269565185000854, 7.000000000000000000 ) ) ;
#319 = ORIENTED_EDGE ( 'NONE', *, *, #164, .F. ) ;
#320 = APPROVAL_STATUS ( 'not_yet_approved' ) ;
#321 = DIRECTION ( 'NONE',  ( -0.000000000000000000, -0.000000000000000000, -1.000000000000000000 ) ) ;
#322 = ORIENTED_EDGE ( 'NONE', *, *, #176, .F. ) ;
#323 = ADVANCED_FACE ( 'NONE', ( #508 ), #154, .T. ) ;
#324 = CARTESIAN_POINT ( 'NONE',  ( -23.03592114560350268, 11.54013782009829825, 7.000000000000000000 ) ) ;
#325 = MECHANICAL_CONTEXT ( 'NONE', #378, 'mechanical' ) ;
#326 = LINE ( 'NONE', #267, #445 ) ;
#327 = AXIS2_PLACEMENT_3D ( 'NONE', #72, #424, #102 ) ;
#328 = CARTESIAN_POINT ( 'NONE',  ( -8.981845694529432933, 12.60815517220120086, -7.000000000000000000 ) ) ;
#329 = B_SPLINE_CURVE_WITH_KNOTS ( 'NONE', 2,
 ( #122, #479, #50 ),
 .UNSPECIFIED., .F., .F.,
 ( 3, 3 ),
 ( 0.4988120746294950059, 0.4994128454637969949 ),
 .UNSPECIFIED. ) ;
#330 = PLANE ( 'NONE',  #269 ) ;
#331 = VERTEX_POINT ( 'NONE', #288 ) ;
#332 = CARTESIAN_POINT ( 'NONE',  ( -23.03592114560350268, 0.000000000000000000, 7.000000000000000000 ) ) ;
#333 = FACE_OUTER_BOUND ( 'NONE', #121, .T. ) ;
#334 = DIRECTION ( 'NONE',  ( -0.000000000000000000, 0.000000000000000000, 1.000000000000000000 ) ) ;
#335 = ORIENTED_EDGE ( 'NONE', *, *, #7, .F. ) ;
#336 = CARTESIAN_POINT ( 'NONE',  ( 0.3551250000564473708, -2.284841781425449359, -7.000000000000000000 ) ) ;
#337 = DIRECTION ( 'NONE',  ( -0.000000000000000000, -0.000000000000000000, -1.000000000000000000 ) ) ;
#338 = ADVANCED_FACE ( 'NONE', ( #211 ), #18, .F. ) ;
#339 = VECTOR ( 'NONE', #337, 1000.000000000000000 ) ;
#340 = ORIENTED_EDGE ( 'NONE', *, *, #376, .T. ) ;
#341 = ORIENTED_EDGE ( 'NONE', *, *, #420, .T. ) ;
#342 = B_SPLINE_CURVE_WITH_KNOTS ( 'NONE', 2,
 ( #449, #368, #170 ),
 .UNSPECIFIED., .F., .F.,
 ( 3, 3 ),
 ( 0.4988120746294950059, 0.4994128454637969949 ),
 .UNSPECIFIED. ) ;
#343 = CARTESIAN_POINT ( 'NONE',  ( 0.3551250000566972265, 3.001549528634499975, 7.000000000000000000 ) ) ;
#344 = DIRECTION ( 'NONE',  ( -0.000000000000000000, -0.000000000000000000, -1.000000000000000000 ) ) ;
#345 = CARTESIAN_POINT ( 'NONE',  ( -2.846604824987382987, -5.059081103884319752, 7.000000000000000000 ) ) ;
#346 = CARTESIAN_POINT ( 'NONE',  ( -23.03592114560350268, 11.87161228793415191, 7.000000000000000000 ) ) ;
#347 = CARTESIAN_POINT ( 'NONE',  ( 0.3551249999651975298, -2.723253226996780185, -7.000000000000000000 ) ) ;
#348 = ORIENTED_EDGE ( 'NONE', *, *, #472, .F. ) ;
#349 = DATE_TIME_ROLE ( 'creation_date' ) ;
#350 = ADVANCED_FACE ( 'NONE', ( #207 ), #291, .F. ) ;
#351 = AXIS2_PLACEMENT_3D ( 'NONE', #398, #224, #124 ) ;
#352 = ORIENTED_EDGE ( 'NONE', *, *, #164, .T. ) ;
#353 = APPROVAL_STATUS ( 'not_yet_approved' ) ;
#354 = PRODUCT ( 'lente dot l8_v8_croquis6_D2_plus1', 'lente dot l8_v8_croquis6_D2_plus1', '', ( #325 ) ) ;
#355 = ORIENTED_EDGE ( 'NONE', *, *, #469, .F. ) ;
#356 = CARTESIAN_POINT ( 'NONE',  ( -0.07925871954190913393, -2.269672767682391790, -7.000000000000000000 ) ) ;
#357 = PERSON_AND_ORGANIZATION ( #8, #434 ) ;
#358 = EDGE_CURVE ( 'NONE', #441, #236, #125, .T. ) ;
#359 = VERTEX_POINT ( 'NONE', #455 ) ;
#360 = DIRECTION ( 'NONE',  ( 0.9993908270190958731, 0.03489949670249428010, 0.000000000000000000 ) ) ;
#361 = VECTOR ( 'NONE', #25, 1000.000000000000000 ) ;
#362 = AXIS2_PLACEMENT_3D ( 'NONE', #408, #334, #58 ) ;
#363 = CARTESIAN_POINT ( 'NONE',  ( 0.3551250000564474263, 2.037380911795548144, -7.000000000000000000 ) ) ;
#364 = VECTOR ( 'NONE', #167, 1000.000000000000000 ) ;
#365 = CARTESIAN_POINT ( 'NONE',  ( -0.9075306697980521919, -0.1237304348149260991, 7.000000000000000000 ) ) ;
#366 = ADVANCED_FACE ( 'NONE', ( #60 ), #92, .T. ) ;
#367 = DIRECTION ( 'NONE',  ( 1.000000000000000000, -2.081376414897577884E-10, 0.000000000000000000 ) ) ;
#368 = CARTESIAN_POINT ( 'NONE',  ( -0.7423668819740020242, -3.935206599586729137, -7.000000000000000000 ) ) ;
#369 = DIRECTION ( 'NONE',  ( 1.000000000000000000, 0.000000000000000000, 0.000000000000000000 ) ) ;
#370 = ORIENTED_EDGE ( 'NONE', *, *, #429, .F. ) ;
#371 = ORIENTED_EDGE ( 'NONE', *, *, #191, .T. ) ;
#372 = DIRECTION ( 'NONE',  ( -1.000000000000000000, 3.485384126420033333E-13, 0.000000000000000000 ) ) ;
#373 = ORIENTED_EDGE ( 'NONE', *, *, #64, .T. ) ;
#374 = LINE ( 'NONE', #386, #438 ) ;
#375 = CARTESIAN_POINT ( 'NONE',  ( -1.394874999943561011, 1.976269565185000854, 7.000000000000000000 ) ) ;
#376 = EDGE_CURVE ( 'NONE', #128, #436, #413, .T. ) ;
#377 = DIRECTION ( 'NONE',  ( 0.6819983588408874420, -0.7313537027583412176, 0.000000000000000000 ) ) ;
#378 = APPLICATION_CONTEXT ( 'configuration controlled 3d designs of mechanical parts and assemblies' ) ;
#379 = DIRECTION ( 'NONE',  ( -0.000000000000000000, -0.000000000000000000, -1.000000000000000000 ) ) ;
#380 = VERTEX_POINT ( 'NONE', #485 ) ;
#381 = VECTOR ( 'NONE', #377, 1000.000000000000114 ) ;
#382 = ORIENTED_EDGE ( 'NONE', *, *, #28, .F. ) ;
#383 = CARTESIAN_POINT ( 'NONE',  ( -23.03592114560350268, 11.87161228793415191, -7.000000000000000000 ) ) ;
#384 = CARTESIAN_POINT ( 'NONE',  ( -2.846604824987382987, -5.059081103884319752, 7.000000000000000000 ) ) ;
#385 = ADVANCED_FACE ( 'NONE', ( #409 ), #330, .F. ) ;
#386 = CARTESIAN_POINT ( 'NONE',  ( 0.3551250005320090164, -7.391488004478132823E-11, -7.000000000000000000 ) ) ;
#387 = CARTESIAN_POINT ( 'NONE',  ( -6.994875025828872772, 10.47738999221430234, -7.000000000000000000 ) ) ;
#388 = DIRECTION ( 'NONE',  ( 0.6819983588408874420, -0.7313537027583412176, 0.000000000000000000 ) ) ;
#389 = ORIENTED_EDGE ( 'NONE', *, *, #234, .F. ) ;
#390 = APPROVAL_ROLE ( '' ) ;
#391 = EDGE_CURVE ( 'NONE', #128, #100, #88, .T. ) ;
#392 = ORIENTED_EDGE ( 'NONE', *, *, #234, .T. ) ;
#393 = VECTOR ( 'NONE', #112, 1000.000000000000000 ) ;
#394 = PERSON_AND_ORGANIZATION ( #8, #434 ) ;
#395 = ORIENTED_EDGE ( 'NONE', *, *, #245, .T. ) ;
#396 = CALENDAR_DATE ( 2026, 27, 8 ) ;
#397 = ORIENTED_EDGE ( 'NONE', *, *, #429, .T. ) ;
#398 = CARTESIAN_POINT ( 'NONE',  ( 0.000000000000000000, 0.000000000000000000, -7.000000000000000000 ) ) ;
#399 = EDGE_CURVE ( 'NONE', #128, #316, #22, .T. ) ;
#400 = B_SPLINE_CURVE_WITH_KNOTS ( 'NONE', 2,
 ( #96, #130, #258 ),
 .UNSPECIFIED., .F., .F.,
 ( 3, 3 ),
 ( 0.4976672411085089620, 0.4995542795880109632 ),
 .UNSPECIFIED. ) ;
#401 = CARTESIAN_POINT ( 'NONE',  ( -2.846604824987382987, -5.059081103884319752, -7.000000000000000000 ) ) ;
#402 = CALENDAR_DATE ( 2026, 27, 8 ) ;
#403 = LOCAL_TIME ( 0, 49, 24.00000000000000000, #199 ) ;
#404 = CARTESIAN_POINT ( 'NONE',  ( -2.846604824987382987, -5.059081103884319752, 7.000000000000000000 ) ) ;
#405 = CARTESIAN_POINT ( 'NONE',  ( -6.994875025828874548, 10.47738999221430234, 7.000000000000000000 ) ) ;
#406 = LINE ( 'NONE', #356, #146 ) ;
#407 = ADVANCED_FACE ( 'NONE', ( #447 ), #52, .T. ) ;
#408 = CARTESIAN_POINT ( 'NONE',  ( 0.000000000000000000, 0.000000000000000000, 7.000000000000000000 ) ) ;
#409 = FACE_OUTER_BOUND ( 'NONE', #473, .T. ) ;
#410 = ORIENTED_EDGE ( 'NONE', *, *, #358, .T. ) ;
#411 = VECTOR ( 'NONE', #379, 1000.000000000000000 ) ;
#412 = CARTESIAN_POINT ( 'NONE',  ( -23.03592114560350268, 0.000000000000000000, 7.000000000000000000 ) ) ;
#413 = LINE ( 'NONE', #218, #505 ) ;
#414 = VERTEX_POINT ( 'NONE', #214 ) ;
#415 = ORIENTED_EDGE ( 'NONE', *, *, #75, .T. ) ;
#416 = CARTESIAN_POINT ( 'NONE',  ( -0.07925871954190913393, -2.269672767682391790, 7.000000000000000000 ) ) ;
#417 = FACE_OUTER_BOUND ( 'NONE', #73, .T. ) ;
#418 = LINE ( 'NONE', #484, #364 ) ;
#419 = EDGE_LOOP ( 'NONE', ( #341, #319, #189, #212 ) ) ;
#420 = EDGE_CURVE ( 'NONE', #91, #243, #400, .T. ) ;
#421 = B_SPLINE_CURVE_WITH_KNOTS ( 'NONE', 2,
 ( #83, #110, #405 ),
 .UNSPECIFIED., .F., .F.,
 ( 3, 3 ),
 ( 0.5008207051229819351, 0.5020133117822229707 ),
 .UNSPECIFIED. ) ;
#422 = CC_DESIGN_PERSON_AND_ORGANIZATION_ASSIGNMENT ( #476, #503, ( #500 ) ) ;
#423 = CARTESIAN_POINT ( 'NONE',  ( -2.846604824987382987, -5.059081103884319752, 7.000000000000000000 ) ) ;
#424 = DIRECTION ( 'NONE',  ( 0.7313537027583412176, 0.6819983588408874420, -0.000000000000000000 ) ) ;
#425 = CARTESIAN_POINT ( 'NONE',  ( 0.3551250000566972265, 3.001549528634499975, -7.000000000000000000 ) ) ;
#426 = CARTESIAN_POINT ( 'NONE',  ( 0.3551249999651975298, -2.723253226996780185, 7.000000000000000000 ) ) ;
#427 = FACE_OUTER_BOUND ( 'NONE', #259, .T. ) ;
#428 = SHAPE_DEFINITION_REPRESENTATION ( #308, #202 ) ;
#429 = EDGE_CURVE ( 'NONE', #19, #210, #209, .T. ) ;
#430 = VERTEX_POINT ( 'NONE', #9 ) ;
#431 = CARTESIAN_POINT ( 'NONE',  ( -0.6835572876454348856, 13.04305003945616726, -7.000000000000000000 ) ) ;
#432 = CC_DESIGN_DATE_AND_TIME_ASSIGNMENT ( #46, #77, ( #495 ) ) ;
#433 = ORIENTED_EDGE ( 'NONE', *, *, #53, .T. ) ;
#434 = ORGANIZATION ( 'UNSPECIFIED', 'UNSPECIFIED', '' ) ;
#435 = COORDINATED_UNIVERSAL_TIME_OFFSET ( 1, 0, .AHEAD. ) ;
#436 = VERTEX_POINT ( 'NONE', #328 ) ;
#437 = ADVANCED_FACE ( 'NONE', ( #482 ), #127, .F. ) ;
#438 = VECTOR ( 'NONE', #178, 1000.000000000000000 ) ;
#439 = CARTESIAN_POINT ( 'NONE',  ( -1.448726270043842357, 6.058427314146597631, -7.000000000000000000 ) ) ;
#440 = COORDINATED_UNIVERSAL_TIME_OFFSET ( 1, 0, .AHEAD. ) ;
#441 = VERTEX_POINT ( 'NONE', #106 ) ;
#442 = ORIENTED_EDGE ( 'NONE', *, *, #451, .F. ) ;
#443 = CARTESIAN_POINT ( 'NONE',  ( -0.9075306697980521919, -0.1237304348149260991, -7.000000000000000000 ) ) ;
#444 = VECTOR ( 'NONE', #248, 1000.000000000000114 ) ;
#445 = VECTOR ( 'NONE', #344, 1000.000000000000000 ) ;
#446 = EDGE_CURVE ( 'NONE', #436, #380, #67, .T. ) ;
#447 = FACE_OUTER_BOUND ( 'NONE', #279, .T. ) ;
#448 = EDGE_LOOP ( 'NONE', ( #299, #41, #177, #371, #115, #395, #57, #153, #173, #150, #82, #370 ) ) ;
#449 = CARTESIAN_POINT ( 'NONE',  ( -2.846604824987382987, -5.059081103884319752, -7.000000000000000000 ) ) ;
#450 = DIRECTION ( 'NONE',  ( -0.000000000000000000, -0.000000000000000000, -1.000000000000000000 ) ) ;
#451 = EDGE_CURVE ( 'NONE', #166, #430, #466, .T. ) ;
#452 = DESIGN_CONTEXT ( 'detailed design', #40, 'design' ) ;
#453 = LINE ( 'NONE', #262, #475 ) ;
#454 = CARTESIAN_POINT ( 'NONE',  ( -6.994875025828874548, 10.47738999221430234, 7.000000000000000000 ) ) ;
#455 = CARTESIAN_POINT ( 'NONE',  ( -1.394874999943561011, -2.223730434814909618, -7.000000000000000000 ) ) ;
#456 = CARTESIAN_POINT ( 'NONE',  ( -1.394874999943561011, 1.976269565185000854, -7.000000000000000000 ) ) ;
#457 = CARTESIAN_POINT ( 'NONE',  ( -1.394874999943561011, 1.976269565185000854, -7.000000000000000000 ) ) ;
#458 = CARTESIAN_POINT ( 'NONE',  ( 0.3551250005320090164, -7.391488004478132823E-11, 7.000000000000000000 ) ) ;
#459 = CARTESIAN_POINT ( 'NONE',  ( -1.448726270043842357, 6.058427314146597631, 7.000000000000000000 ) ) ;
#460 = CARTESIAN_POINT ( 'NONE',  ( -18.94519211359817135, 7.540918895746568040, 7.000000000000000000 ) ) ;
#461 = CARTESIAN_POINT ( 'NONE',  ( -1.394874999943561011, 1.976269565185000854, 7.000000000000000000 ) ) ;
#462 = ORIENTED_EDGE ( 'NONE', *, *, #399, .F. ) ;
#463 = DIRECTION ( 'NONE',  ( -0.000000000000000000, -0.000000000000000000, -1.000000000000000000 ) ) ;
#464 = DIRECTION ( 'NONE',  ( 3.485384126420032828E-13, 1.000000000000000000, 0.000000000000000000 ) ) ;
#465 = CARTESIAN_POINT ( 'NONE',  ( 0.3551250000556511188, -1.237747038088879550E-13, -7.000000000000000000 ) ) ;
#466 = LINE ( 'NONE', #108, #217 ) ;
#467 = ORIENTED_EDGE ( 'NONE', *, *, #391, .T. ) ;
#468 = AXIS2_PLACEMENT_3D ( 'NONE', #332, #86, #254 ) ;
#469 = EDGE_CURVE ( 'NONE', #236, #430, #310, .T. ) ;
#470 = EDGE_LOOP ( 'NONE', ( #45, #65, #462, #340 ) ) ;
#471 = PERSON_AND_ORGANIZATION ( #8, #434 ) ;
#472 = EDGE_CURVE ( 'NONE', #331, #277, #195, .T. ) ;
#473 = EDGE_LOOP ( 'NONE', ( #219, #382, #229, #433 ) ) ;
#474 = ORIENTED_EDGE ( 'NONE', *, *, #105, .F. ) ;
#475 = VECTOR ( 'NONE', #94, 1000.000000000000000 ) ;
#476 = PERSON_AND_ORGANIZATION ( #8, #434 ) ;
#477 = ORIENTED_EDGE ( 'NONE', *, *, #446, .F. ) ;
#478 = VECTOR ( 'NONE', #213, 1000.000000000000000 ) ;
#479 = CARTESIAN_POINT ( 'NONE',  ( -0.7423668819740020242, -3.935206599586729137, 7.000000000000000000 ) ) ;
#480 = CARTESIAN_POINT ( 'NONE',  ( -0.9075306697980521919, -0.1237304348149260991, -7.000000000000000000 ) ) ;
#481 = VECTOR ( 'NONE', #360, 1000.000000000000227 ) ;
#482 = FACE_OUTER_BOUND ( 'NONE', #470, .T. ) ;
#483 = EDGE_LOOP ( 'NONE', ( #312, #59, #198, #352 ) ) ;
#484 = CARTESIAN_POINT ( 'NONE',  ( -1.394874999943561011, -2.223730434814909618, 7.000000000000000000 ) ) ;
#485 = CARTESIAN_POINT ( 'NONE',  ( -6.994875025828874548, 10.47738999221430234, -7.000000000000000000 ) ) ;
#486 = LOCAL_TIME ( 0, 49, 24.00000000000000000, #39 ) ;
#487 = DIRECTION ( 'NONE',  ( -0.9993908270190958731, -0.03489949670249428010, 0.000000000000000000 ) ) ;
#488 = CARTESIAN_POINT ( 'NONE',  ( -18.94519211359818911, 7.540918895746552053, 7.000000000000000000 ) ) ;
#489 = VECTOR ( 'NONE', #80, 1000.000000000000000 ) ;
#490 = LINE ( 'NONE', #89, #276 ) ;
#491 = LINE ( 'NONE', #461, #411 ) ;
#492 = DIRECTION ( 'NONE',  ( 0.9993908270190959842, -0.03489949670249007513, 0.000000000000000000 ) ) ;
#493 = ORIENTED_EDGE ( 'NONE', *, *, #135, .T. ) ;
#494 = DIRECTION ( 'NONE',  ( 0.9986295347545740553, 0.05233595624294033744, 0.000000000000000000 ) ) ;
#495 = SECURITY_CLASSIFICATION ( '', '', #315 ) ;
#496 = LINE ( 'NONE', #144, #123 ) ;
#497 = FACE_OUTER_BOUND ( 'NONE', #419, .T. ) ;
#498 = VECTOR ( 'NONE', #35, 1000.000000000000114 ) ;
#499 = EDGE_CURVE ( 'NONE', #273, #133, #2, .T. ) ;
#500 = PRODUCT_DEFINITION_FORMATION_WITH_SPECIFIED_SOURCE ( 'ANY', '', #354, .NOT_KNOWN. ) ;
#501 = VERTEX_POINT ( 'NONE', #107 ) ;
#502 = ORIENTED_EDGE ( 'NONE', *, *, #28, .T. ) ;
#503 = PERSON_AND_ORGANIZATION_ROLE ( 'design_supplier' ) ;
#504 = ADVANCED_FACE ( 'NONE', ( #427 ), #66, .T. ) ;
#505 = VECTOR ( 'NONE', #450, 1000.000000000000000 ) ;
#506 = CARTESIAN_POINT ( 'NONE',  ( -0.9075306697980521919, -0.1237304348149260991, 7.000000000000000000 ) ) ;
#507 = VERTEX_POINT ( 'NONE', #384 ) ;
#508 = FACE_OUTER_BOUND ( 'NONE', #448, .T. ) ;
#509 = APPROVAL_ROLE ( '' ) ;
#510 =( NAMED_UNIT ( * ) SI_UNIT ( $, .STERADIAN. ) SOLID_ANGLE_UNIT ( ) );
#511 = CC_DESIGN_PERSON_AND_ORGANIZATION_ASSIGNMENT ( #357, #36, ( #500 ) ) ;
ENDSEC;
END-ISO-10303-21;
